<svg version="1.1" viewBox="0.0 0.0 600.0 371.0" fill="none" stroke="none" stroke-linecap="square" stroke-miterlimit="10" width="600" height="371" xmlns:xlink="http://www.w3.org/1999/xlink" xmlns="http://www.w3.org/2000/svg"><path fill="#ffffff" d="M0 0L600.0 0L600.0 371.0L0 371.0L0 0Z" fill-rule="nonzero"/><path stroke="#cccccc" stroke-width="1.0" stroke-linecap="butt" d="M200.5 85.5L200.5 300.5" fill-rule="nonzero"/><path stroke="#cccccc" stroke-width="1.0" stroke-linecap="butt" d="M295.5 85.5L295.5 300.5" fill-rule="nonzero"/><path stroke="#cccccc" stroke-width="1.0" stroke-linecap="butt" d="M390.5 85.5L390.5 300.5" fill-rule="nonzero"/><path stroke="#cccccc" stroke-width="1.0" stroke-linecap="butt" d="M486.5 85.5L486.5 300.5" fill-rule="nonzero"/><path stroke="#cccccc" stroke-width="1.0" stroke-linecap="butt" d="M581.5 85.5L581.5 300.5" fill-rule="nonzero"/><path stroke="#cccccc" stroke-width="1.0" stroke-linecap="butt" d="M105.5 282.5L581.5 282.5" fill-rule="nonzero"/><path stroke="#cccccc" stroke-width="1.0" stroke-linecap="butt" d="M105.5 247.5L581.5 247.5" fill-rule="nonzero"/><path stroke="#cccccc" stroke-width="1.0" stroke-linecap="butt" d="M105.5 213.5L581.5 213.5" fill-rule="nonzero"/><path stroke="#cccccc" stroke-width="1.0" stroke-linecap="butt" d="M105.5 178.5L581.5 178.5" fill-rule="nonzero"/><path stroke="#cccccc" stroke-width="1.0" stroke-linecap="butt" d="M105.5 144.5L581.5 144.5" fill-rule="nonzero"/><path stroke="#cccccc" stroke-width="1.0" stroke-linecap="butt" d="M105.5 109.5L581.5 109.5" fill-rule="nonzero"/><clipPath id="id_0"><path d="M105.55 85.416664L581.45 85.416664L581.45 300.45L105.55 300.45L105.55 85.416664Z" clip-rule="nonzero"/></clipPath><path stroke="#ff0000" stroke-width="2.0" stroke-linecap="butt" clip-path="url(#id_0)" d="M105.55 300.45C105.55 300.45 106.820335 262.88318 107.455505 251.51445C108.090675 240.14572 109.04343 232.48384 109.83739 227.41843C110.63135 222.35303 122.54076 188.25703 128.89244 177.04701C135.24413 165.837 144.77165 160.48085 152.71126 155.93619C160.65086 151.39154 279.74496 117.72384 343.2618 106.67934C406.77866 95.63484 581.45 85.416664 581.45 85.416664" fill-rule="nonzero"/><path fill="#000000" fill-opacity="0.0" clip-path="url(#id_0)" d="M108.55 300.45C108.55 302.10684 107.206856 303.45 105.55 303.45C103.89314 303.45 102.55 302.10684 102.55 300.45C102.55 298.79315 103.89314 297.45 105.55 297.45C107.206856 297.45 108.55 298.79315 108.55 300.45Z" fill-rule="nonzero"/><path fill="#000000" fill-opacity="0.0" clip-path="url(#id_0)" d="M110.455505 251.51445C110.455505 253.1713 109.11236 254.51445 107.455505 254.51445C105.79865 254.51445 104.455505 253.1713 104.455505 251.51445C104.455505 249.85759 105.79865 248.51445 107.455505 248.51445C109.11236 248.51445 110.455505 249.85759 110.455505 251.51445Z" fill-rule="nonzero"/><path fill="#000000" fill-opacity="0.0" clip-path="url(#id_0)" d="M112.83739 227.41843C112.83739 229.07529 111.49424 230.41843 109.83739 230.41843C108.180534 230.41843 106.83739 229.07529 106.83739 227.41843C106.83739 225.76158 108.180534 224.41843 109.83739 224.41843C111.49424 224.41843 112.83739 225.76158 112.83739 227.41843Z" fill-rule="nonzero"/><path fill="#000000" fill-opacity="0.0" clip-path="url(#id_0)" d="M131.89244 177.04701C131.89244 178.70387 130.5493 180.04701 128.89244 180.04701C127.23559 180.04701 125.89244 178.70387 125.89244 177.04701C125.89244 175.39017 127.23559 174.04701 128.89244 174.04701C130.5493 174.04701 131.89244 175.39017 131.89244 177.04701Z" fill-rule="nonzero"/><path fill="#000000" fill-opacity="0.0" clip-path="url(#id_0)" d="M155.71126 155.93619C155.71126 157.59305 154.36812 158.93619 152.71126 158.93619C151.05441 158.93619 149.71126 157.59305 149.71126 155.93619C149.71126 154.27934 151.05441 152.93619 152.71126 152.93619C154.36812 152.93619 155.71126 154.27934 155.71126 155.93619Z" fill-rule="nonzero"/><path fill="#000000" fill-opacity="0.0" clip-path="url(#id_0)" d="M346.2618 106.67934C346.2618 108.33619 344.91867 109.67934 343.2618 109.67934C341.60495 109.67934 340.2618 108.33619 340.2618 106.67934C340.2618 105.022484 341.60495 103.67934 343.2618 103.67934C344.91867 103.67934 346.2618 105.022484 346.2618 106.67934Z" fill-rule="nonzero"/><path fill="#000000" fill-opacity="0.0" clip-path="url(#id_0)" d="M584.45 85.416664C584.45 87.073524 583.1069 88.416664 581.45 88.416664C579.79315 88.416664 578.45 87.073524 578.45 85.416664C578.45 83.75981 579.79315 82.416664 581.45 82.416664C583.1069 82.416664 584.45 83.75981 584.45 85.416664Z" fill-rule="nonzero"/><path fill="#000000" d="M280.10938 349.45L280.10938 341.8719L277.28125 341.8719L277.28125 340.85626L284.09375 340.85626L284.09375 341.8719L281.25 341.8719L281.25 349.45L280.10938 349.45ZM288.85938 348.6844Q288.26562 349.1844 287.71875 349.3875Q287.1875 349.59064 286.5625 349.59064Q285.53125 349.59064 284.98438 349.09064Q284.4375 348.59064 284.4375 347.8094Q284.4375 347.35626 284.64062 346.98126Q284.84375 346.59064 285.1875 346.3719Q285.53125 346.1375 285.95312 346.02814Q286.25 345.9344 286.89062 345.85626Q288.15625 345.71564 288.76562 345.4969Q288.76562 345.27814 288.76562 345.23126Q288.76562 344.575 288.46875 344.3094Q288.0625 343.96564 287.26562 343.96564Q286.53125 343.96564 286.17188 344.23126Q285.8125 344.48126 285.64062 345.1375L284.60938 344.9969Q284.75 344.34064 285.07812 343.9344Q285.40625 343.52814 286.01562 343.3094Q286.625 343.09064 287.42188 343.09064Q288.21875 343.09064 288.71875 343.27814Q289.21875 343.46564 289.45312 343.7469Q289.6875 344.02814 289.78125 344.46564Q289.82812 344.73126 289.82812 345.4344L289.82812 346.84064Q289.82812 348.3094 289.89062 348.7Q289.96875 349.09064 290.17188 349.45L289.0625 349.45Q288.90625 349.1219 288.85938 348.6844ZM288.76562 346.325Q288.1875 346.5594 287.04688 346.73126Q286.39062 346.825 286.125 346.95Q285.85938 347.0594 285.70312 347.27814Q285.5625 347.4969 285.5625 347.77814Q285.5625 348.2 285.875 348.48126Q286.20312 348.7625 286.8125 348.7625Q287.42188 348.7625 287.89062 348.4969Q288.375 348.23126 288.59375 347.7625Q288.76562 347.40314 288.76562 346.71564L288.76562 346.325ZM291.79688 349.45L291.79688 343.23126L292.73438 343.23126L292.73438 344.10626Q293.03125 343.6375 293.51562 343.3719Q294.0 343.09064 294.625 343.09064Q295.3125 343.09064 295.75 343.3719Q296.20312 343.65314 296.375 344.16876Q297.125 343.09064 298.29688 343.09064Q299.23438 343.09064 299.71875 343.60626Q300.21875 344.10626 300.21875 345.1844L300.21875 349.45L299.17188 349.45L299.17188 345.52814Q299.17188 344.90314 299.0625 344.6219Q298.96875 344.34064 298.70312 344.16876Q298.4375 343.9969 298.0625 343.9969Q297.40625 343.9969 296.96875 344.4344Q296.54688 344.8719 296.54688 345.84064L296.54688 349.45L295.48438 349.45L295.48438 345.40314Q295.48438 344.7 295.21875 344.35626Q294.96875 343.9969 294.39062 343.9969Q293.9375 343.9969 293.5625 344.23126Q293.1875 344.46564 293.01562 344.91876Q292.84375 345.3719 292.84375 346.21564L292.84375 349.45L291.79688 349.45ZM306.85938 348.6844Q306.26562 349.1844 305.71875 349.3875Q305.1875 349.59064 304.5625 349.59064Q303.53125 349.59064 302.98438 349.09064Q302.4375 348.59064 302.4375 347.8094Q302.4375 347.35626 302.64062 346.98126Q302.84375 346.59064 303.1875 346.3719Q303.53125 346.1375 303.95312 346.02814Q304.25 345.9344 304.89062 345.85626Q306.15625 345.71564 306.76562 345.4969Q306.76562 345.27814 306.76562 345.23126Q306.76562 344.575 306.46875 344.3094Q306.0625 343.96564 305.26562 343.96564Q304.53125 343.96564 304.17188 344.23126Q303.8125 344.48126 303.64062 345.1375L302.60938 344.9969Q302.75 344.34064 303.07812 343.9344Q303.40625 343.52814 304.01562 343.3094Q304.625 343.09064 305.42188 343.09064Q306.21875 343.09064 306.71875 343.27814Q307.21875 343.46564 307.45312 343.7469Q307.6875 344.02814 307.78125 344.46564Q307.82812 344.73126 307.82812 345.4344L307.82812 346.84064Q307.82812 348.3094 307.89062 348.7Q307.96875 349.09064 308.17188 349.45L307.0625 349.45Q306.90625 349.1219 306.85938 348.6844ZM306.76562 346.325Q306.1875 346.5594 305.04688 346.73126Q304.39062 346.825 304.125 346.95Q303.85938 347.0594 303.70312 347.27814Q303.5625 347.4969 303.5625 347.77814Q303.5625 348.2 303.875 348.48126Q304.20312 348.7625 304.8125 348.7625Q305.42188 348.7625 305.89062 348.4969Q306.375 348.23126 306.59375 347.7625Q306.76562 347.40314 306.76562 346.71564L306.76562 346.325ZM309.79688 349.45L309.79688 343.23126L310.73438 343.23126L310.73438 344.10626Q311.42188 343.09064 312.71875 343.09064Q313.28125 343.09064 313.75 343.29376Q314.23438 343.4969 314.46875 343.825Q314.70312 344.15314 314.79688 344.59064Q314.84375 344.8875 314.84375 345.6219L314.84375 349.45L313.79688 349.45L313.79688 345.66876Q313.79688 345.0125 313.67188 344.7Q313.54688 344.3875 313.23438 344.2Q312.92188 343.9969 312.5 343.9969Q311.82812 343.9969 311.32812 344.4344Q310.84375 344.85626 310.84375 346.04376L310.84375 349.45L309.79688 349.45ZM316.79688 349.45L316.79688 340.85626L317.84375 340.85626L317.84375 343.9344Q318.57812 343.09064 319.70312 343.09064Q320.40625 343.09064 320.90625 343.3719Q321.42188 343.6375 321.64062 344.1219Q321.85938 344.59064 321.85938 345.5125L321.85938 349.45L320.8125 349.45L320.8125 345.5125Q320.8125 344.71564 320.46875 344.35626Q320.125 343.9969 319.5 343.9969Q319.03125 343.9969 318.60938 344.2469Q318.20312 344.48126 318.01562 344.90314Q317.84375 345.3094 317.84375 346.04376L317.84375 349.45L316.79688 349.45ZM323.40625 346.34064Q323.40625 344.60626 324.35938 343.77814Q325.15625 343.09064 326.3125 343.09064Q327.59375 343.09064 328.40625 343.9344Q329.23438 344.7625 329.23438 346.2469Q329.23438 347.45 328.875 348.1375Q328.51562 348.825 327.8125 349.21564Q327.125 349.59064 326.3125 349.59064Q325.01562 349.59064 324.20312 348.7625Q323.40625 347.91876 323.40625 346.34064ZM324.48438 346.34064Q324.48438 347.52814 325.0 348.1219Q325.53125 348.71564 326.3125 348.71564Q327.10938 348.71564 327.625 348.1219Q328.14062 347.52814 328.14062 346.3094Q328.14062 345.15314 327.60938 344.5594Q327.09375 343.96564 326.3125 343.96564Q325.53125 343.96564 325.0 344.5594Q324.48438 345.1375 324.48438 346.34064ZM337.82812 349.45L337.82812 348.66876Q337.23438 349.59064 336.09375 349.59064Q335.34375 349.59064 334.71875 349.1844Q334.09375 348.7625 333.75 348.02814Q333.40625 347.29376 333.40625 346.34064Q333.40625 345.41876 333.71875 344.65314Q334.03125 343.8875 334.65625 343.4969Q335.28125 343.09064 336.04688 343.09064Q336.60938 343.09064 337.04688 343.325Q337.48438 343.5594 337.76562 343.9344L337.76562 340.85626L338.8125 340.85626L338.8125 349.45L337.82812 349.45ZM334.5 346.34064Q334.5 347.54376 335.0 348.1375Q335.5 348.71564 336.1875 348.71564Q336.875 348.71564 337.35938 348.15314Q337.84375 347.59064 337.84375 346.4344Q337.84375 345.15314 337.34375 344.5594Q336.85938 343.96564 336.14062 343.96564Q335.4375 343.96564 334.96875 344.54376Q334.5 345.10626 334.5 346.34064ZM344.85938 348.6844Q344.26562 349.1844 343.71875 349.3875Q343.1875 349.59064 342.5625 349.59064Q341.53125 349.59064 340.98438 349.09064Q340.4375 348.59064 340.4375 347.8094Q340.4375 347.35626 340.64062 346.98126Q340.84375 346.59064 341.1875 346.3719Q341.53125 346.1375 341.95312 346.02814Q342.25 345.9344 342.89062 345.85626Q344.15625 345.71564 344.76562 345.4969Q344.76562 345.27814 344.76562 345.23126Q344.76562 344.575 344.46875 344.3094Q344.0625 343.96564 343.26562 343.96564Q342.53125 343.96564 342.17188 344.23126Q341.8125 344.48126 341.64062 345.1375L340.60938 344.9969Q340.75 344.34064 341.07812 343.9344Q341.40625 343.52814 342.01562 343.3094Q342.625 343.09064 343.42188 343.09064Q344.21875 343.09064 344.71875 343.27814Q345.21875 343.46564 345.45312 343.7469Q345.6875 344.02814 345.78125 344.46564Q345.82812 344.73126 345.82812 345.4344L345.82812 346.84064Q345.82812 348.3094 345.89062 348.7Q345.96875 349.09064 346.17188 349.45L345.0625 349.45Q344.90625 349.1219 344.85938 348.6844ZM344.76562 346.325Q344.1875 346.5594 343.04688 346.73126Q342.39062 346.825 342.125 346.95Q341.85938 347.0594 341.70312 347.27814Q341.5625 347.4969 341.5625 347.77814Q341.5625 348.2 341.875 348.48126Q342.20312 348.7625 342.8125 348.7625Q343.42188 348.7625 343.89062 348.4969Q344.375 348.23126 344.59375 347.7625Q344.76562 347.40314 344.76562 346.71564L344.76562 346.325ZM355.04688 347.45L356.14062 347.575Q355.89062 348.52814 355.1875 349.0594Q354.48438 349.59064 353.40625 349.59064Q352.04688 349.59064 351.23438 348.7469Q350.4375 347.90314 350.4375 346.3875Q350.4375 344.825 351.25 343.96564Q352.0625 343.09064 353.34375 343.09064Q354.59375 343.09064 355.375 343.9344Q356.17188 344.77814 356.17188 346.325Q356.17188 346.41876 356.17188 346.60626L351.53125 346.60626Q351.59375 347.6375 352.10938 348.1844Q352.625 348.71564 353.40625 348.71564Q353.98438 348.71564 354.39062 348.41876Q354.8125 348.10626 355.04688 347.45ZM351.59375 345.7469L355.0625 345.7469Q355.0 344.95 354.67188 344.5594Q354.15625 343.95 353.35938 343.95Q352.625 343.95 352.125 344.4344Q351.64062 344.91876 351.59375 345.7469ZM357.79688 349.45L357.79688 343.23126L358.73438 343.23126L358.73438 344.10626Q359.42188 343.09064 360.71875 343.09064Q361.28125 343.09064 361.75 343.29376Q362.23438 343.4969 362.46875 343.825Q362.70312 344.15314 362.79688 344.59064Q362.84375 344.8875 362.84375 345.6219L362.84375 349.45L361.79688 349.45L361.79688 345.66876Q361.79688 345.0125 361.67188 344.7Q361.54688 344.3875 361.23438 344.2Q360.92188 343.9969 360.5 343.9969Q359.82812 343.9969 359.32812 344.4344Q358.84375 344.85626 358.84375 346.04376L358.84375 349.45L357.79688 349.45ZM367.09375 348.5125L367.25 349.4344Q366.79688 349.52814 366.45312 349.52814Q365.875 349.52814 365.5625 349.35626Q365.25 349.16876 365.10938 348.8719Q364.98438 348.575 364.98438 347.6219L364.98438 344.04376L364.21875 344.04376L364.21875 343.23126L364.98438 343.23126L364.98438 341.6844L366.03125 341.0594L366.03125 343.23126L367.09375 343.23126L367.09375 344.04376L366.03125 344.04376L366.03125 347.6844Q366.03125 348.1375 366.07812 348.2625Q366.14062 348.3875 366.26562 348.46564Q366.39062 348.54376 366.625 348.54376Q366.8125 348.54376 367.09375 348.5125ZM367.78125 349.45L367.78125 343.23126L368.73438 343.23126L368.73438 344.16876Q369.09375 343.5125 369.39062 343.3094Q369.70312 343.09064 370.07812 343.09064Q370.60938 343.09064 371.15625 343.41876L370.79688 344.40314Q370.40625 344.16876 370.03125 344.16876Q369.67188 344.16876 369.39062 344.3875Q369.125 344.59064 369.01562 344.96564Q368.82812 345.52814 368.82812 346.1844L368.82812 349.45L367.78125 349.45ZM375.85938 348.6844Q375.26562 349.1844 374.71875 349.3875Q374.1875 349.59064 373.5625 349.59064Q372.53125 349.59064 371.98438 349.09064Q371.4375 348.59064 371.4375 347.8094Q371.4375 347.35626 371.64062 346.98126Q371.84375 346.59064 372.1875 346.3719Q372.53125 346.1375 372.95312 346.02814Q373.25 345.9344 373.89062 345.85626Q375.15625 345.71564 375.76562 345.4969Q375.76562 345.27814 375.76562 345.23126Q375.76562 344.575 375.46875 344.3094Q375.0625 343.96564 374.26562 343.96564Q373.53125 343.96564 373.17188 344.23126Q372.8125 344.48126 372.64062 345.1375L371.60938 344.9969Q371.75 344.34064 372.07812 343.9344Q372.40625 343.52814 373.01562 343.3094Q373.625 343.09064 374.42188 343.09064Q375.21875 343.09064 375.71875 343.27814Q376.21875 343.46564 376.45312 343.7469Q376.6875 344.02814 376.78125 344.46564Q376.82812 344.73126 376.82812 345.4344L376.82812 346.84064Q376.82812 348.3094 376.89062 348.7Q376.96875 349.09064 377.17188 349.45L376.0625 349.45Q375.90625 349.1219 375.85938 348.6844ZM375.76562 346.325Q375.1875 346.5594 374.04688 346.73126Q373.39062 346.825 373.125 346.95Q372.85938 347.0594 372.70312 347.27814Q372.5625 347.4969 372.5625 347.77814Q372.5625 348.2 372.875 348.48126Q373.20312 348.7625 373.8125 348.7625Q374.42188 348.7625 374.89062 348.4969Q375.375 348.23126 375.59375 347.7625Q375.76562 347.40314 375.76562 346.71564L375.76562 346.325ZM382.82812 349.45L382.82812 348.66876Q382.23438 349.59064 381.09375 349.59064Q380.34375 349.59064 379.71875 349.1844Q379.09375 348.7625 378.75 348.02814Q378.40625 347.29376 378.40625 346.34064Q378.40625 345.41876 378.71875 344.65314Q379.03125 343.8875 379.65625 343.4969Q380.28125 343.09064 381.04688 343.09064Q381.60938 343.09064 382.04688 343.325Q382.48438 343.5594 382.76562 343.9344L382.76562 340.85626L383.8125 340.85626L383.8125 349.45L382.82812 349.45ZM379.5 346.34064Q379.5 347.54376 380.0 348.1375Q380.5 348.71564 381.1875 348.71564Q381.875 348.71564 382.35938 348.15314Q382.84375 347.59064 382.84375 346.4344Q382.84375 345.15314 382.34375 344.5594Q381.85938 343.96564 381.14062 343.96564Q380.4375 343.96564 379.96875 344.54376Q379.5 345.10626 379.5 346.34064ZM389.85938 348.6844Q389.26562 349.1844 388.71875 349.3875Q388.1875 349.59064 387.5625 349.59064Q386.53125 349.59064 385.98438 349.09064Q385.4375 348.59064 385.4375 347.8094Q385.4375 347.35626 385.64062 346.98126Q385.84375 346.59064 386.1875 346.3719Q386.53125 346.1375 386.95312 346.02814Q387.25 345.9344 387.89062 345.85626Q389.15625 345.71564 389.76562 345.4969Q389.76562 345.27814 389.76562 345.23126Q389.76562 344.575 389.46875 344.3094Q389.0625 343.96564 388.26562 343.96564Q387.53125 343.96564 387.17188 344.23126Q386.8125 344.48126 386.64062 345.1375L385.60938 344.9969Q385.75 344.34064 386.07812 343.9344Q386.40625 343.52814 387.01562 343.3094Q387.625 343.09064 388.42188 343.09064Q389.21875 343.09064 389.71875 343.27814Q390.21875 343.46564 390.45312 343.7469Q390.6875 344.02814 390.78125 344.46564Q390.82812 344.73126 390.82812 345.4344L390.82812 346.84064Q390.82812 348.3094 390.89062 348.7Q390.96875 349.09064 391.17188 349.45L390.0625 349.45Q389.90625 349.1219 389.85938 348.6844ZM389.76562 346.325Q389.1875 346.5594 388.04688 346.73126Q387.39062 346.825 387.125 346.95Q386.85938 347.0594 386.70312 347.27814Q386.5625 347.4969 386.5625 347.77814Q386.5625 348.2 386.875 348.48126Q387.20312 348.7625 387.8125 348.7625Q388.42188 348.7625 388.89062 348.4969Q389.375 348.23126 389.59375 347.7625Q389.76562 347.40314 389.76562 346.71564L389.76562 346.325ZM397.8125 351.98126Q396.9375 350.8719 396.32812 349.40314Q395.73438 347.91876 395.73438 346.34064Q395.73438 344.95 396.17188 343.66876Q396.70312 342.1844 397.8125 340.71564L398.5625 340.71564Q397.85938 341.9344 397.625 342.45Q397.26562 343.2625 397.0625 344.1375Q396.8125 345.23126 396.8125 346.34064Q396.8125 349.16876 398.5625 351.98126L397.8125 351.98126ZM399.79688 349.45L399.79688 343.23126L400.73438 343.23126L400.73438 344.10626Q401.42188 343.09064 402.71875 343.09064Q403.28125 343.09064 403.75 343.29376Q404.23438 343.4969 404.46875 343.825Q404.70312 344.15314 404.79688 344.59064Q404.84375 344.8875 404.84375 345.6219L404.84375 349.45L403.79688 349.45L403.79688 345.66876Q403.79688 345.0125 403.67188 344.7Q403.54688 344.3875 403.23438 344.2Q402.92188 343.9969 402.5 343.9969Q401.82812 343.9969 401.32812 344.4344Q400.84375 344.85626 400.84375 346.04376L400.84375 349.45L399.79688 349.45ZM407.48438 351.98126L406.73438 351.98126Q408.48438 349.16876 408.48438 346.34064Q408.48438 345.2469 408.23438 344.15314Q408.03125 343.27814 407.67188 342.46564Q407.4375 341.95 406.73438 340.71564L407.48438 340.71564Q408.57812 342.1844 409.10938 343.66876Q409.5625 344.95 409.5625 346.34064Q409.5625 347.91876 408.95312 349.40314Q408.34375 350.8719 407.48438 351.98126Z" fill-rule="nonzero"/><path fill="#000000" d="M29.550013 230.62083L22.409388 230.62083L22.409388 233.16771L20.956263 233.16771L20.956263 226.35521L22.409388 226.35521L22.409388 228.88646L29.550013 228.88646L29.550013 230.62083ZM27.565638 221.96458L27.846888 220.32396Q28.753138 220.63646 29.221888 221.32396Q29.690638 222.01146 29.690638 223.02708Q29.690638 224.65208 28.628138 225.43333Q27.784388 226.05833 26.487513 226.05833Q24.940638 226.05833 24.065638 225.24583Q23.190638 224.43333 23.190638 223.19896Q23.190638 221.80833 24.112513 221.01146Q25.018763 220.19896 26.909388 220.24583L26.909388 224.37083Q27.643763 224.33958 28.050013 223.96458Q28.456263 223.58958 28.456263 223.01146Q28.456263 222.63646 28.253138 222.37083Q28.034388 222.10521 27.565638 221.96458ZM25.909388 221.87083Q25.190638 221.88646 24.815638 222.24583Q24.440638 222.58958 24.440638 223.10521Q24.440638 223.63646 24.831263 223.99583Q25.237513 224.33958 25.909388 224.33958L25.909388 221.87083ZM23.331263 218.69896L23.331263 217.18333L24.175013 217.18333Q23.190638 216.35521 23.190638 215.23021Q23.190638 214.63646 23.440638 214.19896Q23.675013 213.76146 24.175013 213.48021Q23.675013 213.07396 23.440638 212.60521Q23.190638 212.12083 23.190638 211.57396Q23.190638 210.90208 23.471888 210.43333Q23.737513 209.94896 24.284388 209.71458Q24.675013 209.54271 25.565638 209.54271L29.550013 209.54271L29.550013 211.18333L25.987513 211.18333Q25.065638 211.18333 24.800013 211.35521Q24.440638 211.58958 24.440638 212.05833Q24.440638 212.40208 24.659388 212.71458Q24.862513 213.01146 25.268763 213.15208Q25.675013 213.29271 26.565638 213.29271L29.550013 213.29271L29.550013 214.93333L26.143763 214.93333Q25.237513 214.93333 24.971888 215.02708Q24.706263 215.10521 24.581263 215.29271Q24.440638 215.48021 24.440638 215.79271Q24.440638 216.16771 24.659388 216.48021Q24.862513 216.77708 25.253138 216.91771Q25.628138 217.04271 26.518763 217.04271L29.550013 217.04271L29.550013 218.69896L23.331263 218.69896ZM23.331263 207.62083L23.331263 206.08958L24.237513 206.08958Q23.768763 205.77708 23.487513 205.27708Q23.190638 204.76146 23.190638 204.13646Q23.190638 203.05833 24.034388 202.30833Q24.878138 201.54271 26.409388 201.54271Q27.956263 201.54271 28.831263 202.30833Q29.690638 203.07396 29.690638 204.15208Q29.690638 204.66771 29.487513 205.08958Q29.284388 205.51146 28.784388 205.96458L31.925013 205.96458L31.925013 207.62083L23.331263 207.62083ZM26.331263 205.99583Q27.378138 205.99583 27.878138 205.57396Q28.378138 205.15208 28.378138 204.55833Q28.378138 203.98021 27.925013 203.60521Q27.456263 203.23021 26.409388 203.23021Q25.440638 203.23021 24.971888 203.62083Q24.487513 204.01146 24.487513 204.58958Q24.487513 205.19896 24.956263 205.60521Q25.425013 205.99583 26.331263 205.99583ZM26.346888 200.94896Q25.534388 200.94896 24.768763 200.54271Q23.987513 200.13646 23.596888 199.40208Q23.190638 198.66771 23.190638 197.74583Q23.190638 196.33958 24.112513 195.43333Q25.018763 194.52708 26.425013 194.52708Q27.831263 194.52708 28.768763 195.44896Q29.690638 196.35521 29.690638 197.73021Q29.690638 198.58958 29.300013 199.37083Q28.909388 200.13646 28.175013 200.54271Q27.425013 200.94896 26.346888 200.94896ZM26.440638 199.26146Q27.362513 199.26146 27.862513 198.82396Q28.346888 198.38646 28.346888 197.74583Q28.346888 197.08958 27.862513 196.66771Q27.362513 196.23021 26.425013 196.23021Q25.518763 196.23021 25.034388 196.66771Q24.534388 197.08958 24.534388 197.74583Q24.534388 198.38646 25.034388 198.82396Q25.518763 199.26146 26.440638 199.26146ZM32.08126 187.83958L32.08126 188.96458Q30.721888 189.87083 29.268763 190.33958Q27.800013 190.80833 26.440638 190.80833Q24.737513 190.80833 23.237513 190.23021Q21.925013 189.71458 20.815638 188.94896L20.815638 187.82396Q22.581263 188.62083 23.831263 188.93333Q25.081263 189.23021 26.471888 189.23021Q27.440638 189.23021 28.456263 189.05833Q29.456263 188.87083 30.362513 188.55833Q30.956263 188.35521 32.08126 187.83958ZM23.331263 186.69896L23.331263 185.18333L24.175013 185.18333Q23.190638 184.35521 23.190638 183.23021Q23.190638 182.63646 23.440638 182.19896Q23.675013 181.76146 24.175013 181.48021Q23.675013 181.07396 23.440638 180.60521Q23.190638 180.12083 23.190638 179.57396Q23.190638 178.90208 23.471888 178.43333Q23.737513 177.94896 24.284388 177.71458Q24.675013 177.54271 25.565638 177.54271L29.550013 177.54271L29.550013 179.18333L25.987513 179.18333Q25.065638 179.18333 24.800013 179.35521Q24.440638 179.58958 24.440638 180.05833Q24.440638 180.40208 24.659388 180.71458Q24.862513 181.01146 25.268763 181.15208Q25.675013 181.29271 26.565638 181.29271L29.550013 181.29271L29.550013 182.93333L26.143763 182.93333Q25.237513 182.93333 24.971888 183.02708Q24.706263 183.10521 24.581263 183.29271Q24.440638 183.48021 24.440638 183.79271Q24.440638 184.16771 24.659388 184.48021Q24.862513 184.77708 25.253138 184.91771Q25.628138 185.04271 26.518763 185.04271L29.550013 185.04271L29.550013 186.69896L23.331263 186.69896ZM27.768763 176.15208L27.518763 174.49583Q28.003138 174.38646 28.253138 174.07396Q28.503138 173.74583 28.503138 173.16771Q28.503138 172.52708 28.268763 172.21458Q28.096888 171.99583 27.831263 171.99583Q27.643763 171.99583 27.518763 172.10521Q27.393763 172.23021 27.300013 172.65208Q26.862513 174.65208 26.503138 175.18333Q25.987513 175.91771 25.096888 175.91771Q24.284388 175.91771 23.737513 175.29271Q23.190638 174.65208 23.190638 173.30833Q23.190638 172.02708 23.612513 171.40208Q24.018763 170.77708 24.831263 170.54271L25.112513 172.10521Q24.753138 172.19896 24.565638 172.48021Q24.362513 172.76146 24.362513 173.27708Q24.362513 173.91771 24.550013 174.19896Q24.675013 174.38646 24.878138 174.38646Q25.065638 174.38646 25.190638 174.23021Q25.346888 174.01146 25.643763 172.69896Q25.940638 171.37083 26.378138 170.85521Q26.815638 170.33958 27.596888 170.33958Q28.456263 170.33958 29.081263 171.05833Q29.690638 171.76146 29.690638 173.16771Q29.690638 174.43333 29.175013 175.18333Q28.659388 175.91771 27.768763 176.15208ZM32.08126 169.02708Q31.034388 168.54271 30.471888 168.33958Q29.925013 168.13646 29.206263 167.98021Q28.471888 167.80833 27.815638 167.73021Q27.159388 167.63646 26.471888 167.63646Q25.081263 167.63646 23.831263 167.93333Q22.581263 168.23021 20.815638 169.04271L20.815638 167.91771Q22.065638 167.04271 23.487513 166.55833Q24.893763 166.05833 26.346888 166.05833Q27.581263 166.05833 28.971888 166.44896Q30.550013 166.88646 32.08126 167.88646L32.08126 169.02708Z" fill-rule="nonzero"/><path fill="#000000" d="M90.01875 286.36673L88.97188 286.36673L88.97188 279.64798Q88.58125 280.00735 87.95625 280.38235Q87.34688 280.74173 86.8625 280.9136L86.8625 279.89798Q87.7375 279.4761 88.39375 278.89798Q89.06563 278.30423 89.34688 277.74173L90.01875 277.74173L90.01875 286.36673ZM93.05 282.13235Q93.05 280.6011 93.3625 279.67923Q93.675 278.74173 94.28438 278.24173Q94.90938 277.74173 95.84688 277.74173Q96.53438 277.74173 97.05 278.02298Q97.58125 278.30423 97.925 278.83548Q98.26875 279.3511 98.45625 280.1011Q98.64375 280.8511 98.64375 282.13235Q98.64375 283.64798 98.33125 284.56985Q98.03438 285.49173 97.40938 286.00735Q96.8 286.50735 95.84688 286.50735Q94.6125 286.50735 93.89375 285.61673Q93.05 284.55423 93.05 282.13235ZM94.12813 282.13235Q94.12813 284.24173 94.62813 284.94485Q95.12813 285.64798 95.84688 285.64798Q96.58125 285.64798 97.06563 284.94485Q97.56563 284.24173 97.56563 282.13235Q97.56563 280.00735 97.06563 279.31985Q96.58125 278.61673 95.83125 278.61673Q95.1125 278.61673 94.675 279.2261Q94.12813 280.00735 94.12813 282.13235Z" fill-rule="nonzero"/><path fill="#000000" d="M83.01875 251.78264L81.97188 251.78264L81.97188 245.06389Q81.58125 245.42326 80.95625 245.79826Q80.34688 246.15764 79.8625 246.32951L79.8625 245.31389Q80.7375 244.89201 81.39375 244.31389Q82.06563 243.72014 82.34688 243.15764L83.01875 243.15764L83.01875 251.78264ZM86.05 247.54826Q86.05 246.01701 86.3625 245.09514Q86.675 244.15764 87.28438 243.65764Q87.90938 243.15764 88.84688 243.15764Q89.53438 243.15764 90.05 243.43889Q90.58125 243.72014 90.925 244.25139Q91.26875 244.76701 91.45625 245.51701Q91.64375 246.26701 91.64375 247.54826Q91.64375 249.06389 91.33125 249.98576Q91.03438 250.90764 90.40938 251.42326Q89.8 251.92326 88.84688 251.92326Q87.6125 251.92326 86.89375 251.03264Q86.05 249.97014 86.05 247.54826ZM87.12813 247.54826Q87.12813 249.65764 87.62813 250.36076Q88.12813 251.06389 88.84688 251.06389Q89.58125 251.06389 90.06563 250.36076Q90.56563 249.65764 90.56563 247.54826Q90.56563 245.42326 90.06563 244.73576Q89.58125 244.03264 88.83125 244.03264Q88.1125 244.03264 87.675 244.64201Q87.12813 245.42326 87.12813 247.54826ZM93.05 247.54826Q93.05 246.01701 93.3625 245.09514Q93.675 244.15764 94.28438 243.65764Q94.90938 243.15764 95.84688 243.15764Q96.53438 243.15764 97.05 243.43889Q97.58125 243.72014 97.925 244.25139Q98.26875 244.76701 98.45625 245.51701Q98.64375 246.26701 98.64375 247.54826Q98.64375 249.06389 98.33125 249.98576Q98.03438 250.90764 97.40938 251.42326Q96.8 251.92326 95.84688 251.92326Q94.6125 251.92326 93.89375 251.03264Q93.05 249.97014 93.05 247.54826ZM94.12813 247.54826Q94.12813 249.65764 94.62813 250.36076Q95.12813 251.06389 95.84688 251.06389Q96.58125 251.06389 97.06563 250.36076Q97.56563 249.65764 97.56563 247.54826Q97.56563 245.42326 97.06563 244.73576Q96.58125 244.03264 95.83125 244.03264Q95.1125 244.03264 94.675 244.64201Q94.12813 245.42326 94.12813 247.54826Z" fill-rule="nonzero"/><path fill="#000000" d="M76.01875 217.19855L74.97188 217.19855L74.97188 210.4798Q74.58125 210.83917 73.95625 211.21417Q73.34688 211.57355 72.8625 211.74542L72.8625 210.7298Q73.7375 210.30792 74.39375 209.7298Q75.06563 209.13605 75.34688 208.57355L76.01875 208.57355L76.01875 217.19855ZM79.05 212.96417Q79.05 211.43292 79.3625 210.51105Q79.675 209.57355 80.28438 209.07355Q80.90938 208.57355 81.84688 208.57355Q82.53438 208.57355 83.05 208.8548Q83.58125 209.13605 83.925 209.6673Q84.26875 210.18292 84.45625 210.93292Q84.64375 211.68292 84.64375 212.96417Q84.64375 214.4798 84.33125 215.40167Q84.03438 216.32355 83.40938 216.83917Q82.8 217.33917 81.84688 217.33917Q80.6125 217.33917 79.89375 216.44855Q79.05 215.38605 79.05 212.96417ZM80.12813 212.96417Q80.12813 215.07355 80.62813 215.77667Q81.12813 216.4798 81.84688 216.4798Q82.58125 216.4798 83.06563 215.77667Q83.56563 215.07355 83.56563 212.96417Q83.56563 210.83917 83.06563 210.15167Q82.58125 209.44855 81.83125 209.44855Q81.1125 209.44855 80.675 210.05792Q80.12813 210.83917 80.12813 212.96417ZM86.05 212.96417Q86.05 211.43292 86.3625 210.51105Q86.675 209.57355 87.28438 209.07355Q87.90938 208.57355 88.84688 208.57355Q89.53438 208.57355 90.05 208.8548Q90.58125 209.13605 90.925 209.6673Q91.26875 210.18292 91.45625 210.93292Q91.64375 211.68292 91.64375 212.96417Q91.64375 214.4798 91.33125 215.40167Q91.03438 216.32355 90.40938 216.83917Q89.8 217.33917 88.84688 217.33917Q87.6125 217.33917 86.89375 216.44855Q86.05 215.38605 86.05 212.96417ZM87.12813 212.96417Q87.12813 215.07355 87.62813 215.77667Q88.12813 216.4798 88.84688 216.4798Q89.58125 216.4798 90.06563 215.77667Q90.56563 215.07355 90.56563 212.96417Q90.56563 210.83917 90.06563 210.15167Q89.58125 209.44855 88.83125 209.44855Q88.1125 209.44855 87.675 210.05792Q87.12813 210.83917 87.12813 212.96417ZM93.05 212.96417Q93.05 211.43292 93.3625 210.51105Q93.675 209.57355 94.28438 209.07355Q94.90938 208.57355 95.84688 208.57355Q96.53438 208.57355 97.05 208.8548Q97.58125 209.13605 97.925 209.6673Q98.26875 210.18292 98.45625 210.93292Q98.64375 211.68292 98.64375 212.96417Q98.64375 214.4798 98.33125 215.40167Q98.03438 216.32355 97.40938 216.83917Q96.8 217.33917 95.84688 217.33917Q94.6125 217.33917 93.89375 216.44855Q93.05 215.38605 93.05 212.96417ZM94.12813 212.96417Q94.12813 215.07355 94.62813 215.77667Q95.12813 216.4798 95.84688 216.4798Q96.58125 216.4798 97.06563 215.77667Q97.56563 215.07355 97.56563 212.96417Q97.56563 210.83917 97.06563 210.15167Q96.58125 209.44855 95.83125 209.44855Q95.1125 209.44855 94.675 210.05792Q94.12813 210.83917 94.12813 212.96417Z" fill-rule="nonzero"/><path fill="#000000" d="M69.01875 182.61447L67.97188 182.61447L67.97188 175.89572Q67.58125 176.2551 66.95625 176.6301Q66.34688 176.98947 65.8625 177.16135L65.8625 176.14572Q66.7375 175.72385 67.39375 175.14572Q68.06563 174.55197 68.34688 173.98947L69.01875 173.98947L69.01875 182.61447ZM72.05 178.3801Q72.05 176.84885 72.3625 175.92697Q72.675 174.98947 73.28438 174.48947Q73.90938 173.98947 74.84688 173.98947Q75.53438 173.98947 76.05 174.27072Q76.58125 174.55197 76.925 175.08322Q77.26875 175.59885 77.45625 176.34885Q77.64375 177.09885 77.64375 178.3801Q77.64375 179.89572 77.33125 180.8176Q77.03438 181.73947 76.40938 182.2551Q75.8 182.7551 74.84688 182.7551Q73.6125 182.7551 72.89375 181.86447Q72.05 180.80197 72.05 178.3801ZM73.12813 178.3801Q73.12813 180.48947 73.62813 181.1926Q74.12813 181.89572 74.84688 181.89572Q75.58125 181.89572 76.06563 181.1926Q76.56563 180.48947 76.56563 178.3801Q76.56563 176.2551 76.06563 175.5676Q75.58125 174.86447 74.83125 174.86447Q74.1125 174.86447 73.675 175.47385Q73.12813 176.2551 73.12813 178.3801ZM79.05 178.3801Q79.05 176.84885 79.3625 175.92697Q79.675 174.98947 80.28438 174.48947Q80.90938 173.98947 81.84688 173.98947Q82.53438 173.98947 83.05 174.27072Q83.58125 174.55197 83.925 175.08322Q84.26875 175.59885 84.45625 176.34885Q84.64375 177.09885 84.64375 178.3801Q84.64375 179.89572 84.33125 180.8176Q84.03438 181.73947 83.40938 182.2551Q82.8 182.7551 81.84688 182.7551Q80.6125 182.7551 79.89375 181.86447Q79.05 180.80197 79.05 178.3801ZM80.12813 178.3801Q80.12813 180.48947 80.62813 181.1926Q81.12813 181.89572 81.84688 181.89572Q82.58125 181.89572 83.06563 181.1926Q83.56563 180.48947 83.56563 178.3801Q83.56563 176.2551 83.06563 175.5676Q82.58125 174.86447 81.83125 174.86447Q81.1125 174.86447 80.675 175.47385Q80.12813 176.2551 80.12813 178.3801ZM86.05 178.3801Q86.05 176.84885 86.3625 175.92697Q86.675 174.98947 87.28438 174.48947Q87.90938 173.98947 88.84688 173.98947Q89.53438 173.98947 90.05 174.27072Q90.58125 174.55197 90.925 175.08322Q91.26875 175.59885 91.45625 176.34885Q91.64375 177.09885 91.64375 178.3801Q91.64375 179.89572 91.33125 180.8176Q91.03438 181.73947 90.40938 182.2551Q89.8 182.7551 88.84688 182.7551Q87.6125 182.7551 86.89375 181.86447Q86.05 180.80197 86.05 178.3801ZM87.12813 178.3801Q87.12813 180.48947 87.62813 181.1926Q88.12813 181.89572 88.84688 181.89572Q89.58125 181.89572 90.06563 181.1926Q90.56563 180.48947 90.56563 178.3801Q90.56563 176.2551 90.06563 175.5676Q89.58125 174.86447 88.83125 174.86447Q88.1125 174.86447 87.675 175.47385Q87.12813 176.2551 87.12813 178.3801ZM93.05 178.3801Q93.05 176.84885 93.3625 175.92697Q93.675 174.98947 94.28438 174.48947Q94.90938 173.98947 95.84688 173.98947Q96.53438 173.98947 97.05 174.27072Q97.58125 174.55197 97.925 175.08322Q98.26875 175.59885 98.45625 176.34885Q98.64375 177.09885 98.64375 178.3801Q98.64375 179.89572 98.33125 180.8176Q98.03438 181.73947 97.40938 182.2551Q96.8 182.7551 95.84688 182.7551Q94.6125 182.7551 93.89375 181.86447Q93.05 180.80197 93.05 178.3801ZM94.12813 178.3801Q94.12813 180.48947 94.62813 181.1926Q95.12813 181.89572 95.84688 181.89572Q96.58125 181.89572 97.06563 181.1926Q97.56563 180.48947 97.56563 178.3801Q97.56563 176.2551 97.06563 175.5676Q96.58125 174.86447 95.83125 174.86447Q95.1125 174.86447 94.675 175.47385Q94.12813 176.2551 94.12813 178.3801Z" fill-rule="nonzero"/><path fill="#000000" d="M62.01875 148.0304L60.971874 148.0304L60.971874 141.31165Q60.58125 141.67102 59.95625 142.04602Q59.346874 142.4054 58.8625 142.57727L58.8625 141.56165Q59.7375 141.13977 60.39375 140.56165Q61.065624 139.9679 61.346874 139.4054L62.01875 139.4054L62.01875 148.0304ZM65.05 143.79602Q65.05 142.26477 65.3625 141.3429Q65.675 140.4054 66.28438 139.9054Q66.90938 139.4054 67.84688 139.4054Q68.53438 139.4054 69.05 139.68665Q69.58125 139.9679 69.925 140.49915Q70.26875 141.01477 70.45625 141.76477Q70.64375 142.51477 70.64375 143.79602Q70.64375 145.31165 70.33125 146.23352Q70.03438 147.1554 69.40938 147.67102Q68.8 148.17102 67.84688 148.17102Q66.6125 148.17102 65.89375 147.2804Q65.05 146.2179 65.05 143.79602ZM66.12813 143.79602Q66.12813 145.9054 66.62813 146.60852Q67.12813 147.31165 67.84688 147.31165Q68.58125 147.31165 69.06563 146.60852Q69.56563 145.9054 69.56563 143.79602Q69.56563 141.67102 69.06563 140.98352Q68.58125 140.2804 67.83125 140.2804Q67.1125 140.2804 66.675 140.88977Q66.12813 141.67102 66.12813 143.79602ZM72.05 143.79602Q72.05 142.26477 72.3625 141.3429Q72.675 140.4054 73.28438 139.9054Q73.90938 139.4054 74.84688 139.4054Q75.53438 139.4054 76.05 139.68665Q76.58125 139.9679 76.925 140.49915Q77.26875 141.01477 77.45625 141.76477Q77.64375 142.51477 77.64375 143.79602Q77.64375 145.31165 77.33125 146.23352Q77.03438 147.1554 76.40938 147.67102Q75.8 148.17102 74.84688 148.17102Q73.6125 148.17102 72.89375 147.2804Q72.05 146.2179 72.05 143.79602ZM73.12813 143.79602Q73.12813 145.9054 73.62813 146.60852Q74.12813 147.31165 74.84688 147.31165Q75.58125 147.31165 76.06563 146.60852Q76.56563 145.9054 76.56563 143.79602Q76.56563 141.67102 76.06563 140.98352Q75.58125 140.2804 74.83125 140.2804Q74.1125 140.2804 73.675 140.88977Q73.12813 141.67102 73.12813 143.79602ZM79.05 143.79602Q79.05 142.26477 79.3625 141.3429Q79.675 140.4054 80.28438 139.9054Q80.90938 139.4054 81.84688 139.4054Q82.53438 139.4054 83.05 139.68665Q83.58125 139.9679 83.925 140.49915Q84.26875 141.01477 84.45625 141.76477Q84.64375 142.51477 84.64375 143.79602Q84.64375 145.31165 84.33125 146.23352Q84.03438 147.1554 83.40938 147.67102Q82.8 148.17102 81.84688 148.17102Q80.6125 148.17102 79.89375 147.2804Q79.05 146.2179 79.05 143.79602ZM80.12813 143.79602Q80.12813 145.9054 80.62813 146.60852Q81.12813 147.31165 81.84688 147.31165Q82.58125 147.31165 83.06563 146.60852Q83.56563 145.9054 83.56563 143.79602Q83.56563 141.67102 83.06563 140.98352Q82.58125 140.2804 81.83125 140.2804Q81.1125 140.2804 80.675 140.88977Q80.12813 141.67102 80.12813 143.79602ZM86.05 143.79602Q86.05 142.26477 86.3625 141.3429Q86.675 140.4054 87.28438 139.9054Q87.90938 139.4054 88.84688 139.4054Q89.53438 139.4054 90.05 139.68665Q90.58125 139.9679 90.925 140.49915Q91.26875 141.01477 91.45625 141.76477Q91.64375 142.51477 91.64375 143.79602Q91.64375 145.31165 91.33125 146.23352Q91.03438 147.1554 90.40938 147.67102Q89.8 148.17102 88.84688 148.17102Q87.6125 148.17102 86.89375 147.2804Q86.05 146.2179 86.05 143.79602ZM87.12813 143.79602Q87.12813 145.9054 87.62813 146.60852Q88.12813 147.31165 88.84688 147.31165Q89.58125 147.31165 90.06563 146.60852Q90.56563 145.9054 90.56563 143.79602Q90.56563 141.67102 90.06563 140.98352Q89.58125 140.2804 88.83125 140.2804Q88.1125 140.2804 87.675 140.88977Q87.12813 141.67102 87.12813 143.79602ZM93.05 143.79602Q93.05 142.26477 93.3625 141.3429Q93.675 140.4054 94.28438 139.9054Q94.90938 139.4054 95.84688 139.4054Q96.53438 139.4054 97.05 139.68665Q97.58125 139.9679 97.925 140.49915Q98.26875 141.01477 98.45625 141.76477Q98.64375 142.51477 98.64375 143.79602Q98.64375 145.31165 98.33125 146.23352Q98.03438 147.1554 97.40938 147.67102Q96.8 148.17102 95.84688 148.17102Q94.6125 148.17102 93.89375 147.2804Q93.05 146.2179 93.05 143.79602ZM94.12813 143.79602Q94.12813 145.9054 94.62813 146.60852Q95.12813 147.31165 95.84688 147.31165Q96.58125 147.31165 97.06563 146.60852Q97.56563 145.9054 97.56563 143.79602Q97.56563 141.67102 97.06563 140.98352Q96.58125 140.2804 95.83125 140.2804Q95.1125 140.2804 94.675 140.88977Q94.12813 141.67102 94.12813 143.79602Z" fill-rule="nonzero"/><path fill="#000000" d="M55.01875 113.44631L53.971874 113.44631L53.971874 106.72756Q53.58125 107.08694 52.95625 107.46194Q52.346874 107.82131 51.8625 107.99319L51.8625 106.97756Q52.7375 106.55569 53.39375 105.97756Q54.065624 105.38381 54.346874 104.82131L55.01875 104.82131L55.01875 113.44631ZM58.05 109.21194Q58.05 107.68069 58.3625 106.75881Q58.675 105.82131 59.284374 105.32131Q59.909374 104.82131 60.846874 104.82131Q61.534374 104.82131 62.05 105.10256Q62.58125 105.38381 62.925 105.91506Q63.26875 106.43069 63.45625 107.18069Q63.64375 107.93069 63.64375 109.21194Q63.64375 110.72756 63.33125 111.64944Q63.034374 112.57131 62.409374 113.08694Q61.8 113.58694 60.846874 113.58694Q59.6125 113.58694 58.89375 112.69631Q58.05 111.63381 58.05 109.21194ZM59.128124 109.21194Q59.128124 111.32131 59.628124 112.02444Q60.128124 112.72756 60.846874 112.72756Q61.58125 112.72756 62.065624 112.02444Q62.565624 111.32131 62.565624 109.21194Q62.565624 107.08694 62.065624 106.39944Q61.58125 105.69631 60.83125 105.69631Q60.1125 105.69631 59.675 106.30569Q59.128124 107.08694 59.128124 109.21194ZM65.05 109.21194Q65.05 107.68069 65.3625 106.75881Q65.675 105.82131 66.28438 105.32131Q66.90938 104.82131 67.84688 104.82131Q68.53438 104.82131 69.05 105.10256Q69.58125 105.38381 69.925 105.91506Q70.26875 106.43069 70.45625 107.18069Q70.64375 107.93069 70.64375 109.21194Q70.64375 110.72756 70.33125 111.64944Q70.03438 112.57131 69.40938 113.08694Q68.8 113.58694 67.84688 113.58694Q66.6125 113.58694 65.89375 112.69631Q65.05 111.63381 65.05 109.21194ZM66.12813 109.21194Q66.12813 111.32131 66.62813 112.02444Q67.12813 112.72756 67.84688 112.72756Q68.58125 112.72756 69.06563 112.02444Q69.56563 111.32131 69.56563 109.21194Q69.56563 107.08694 69.06563 106.39944Q68.58125 105.69631 67.83125 105.69631Q67.1125 105.69631 66.675 106.30569Q66.12813 107.08694 66.12813 109.21194ZM72.05 109.21194Q72.05 107.68069 72.3625 106.75881Q72.675 105.82131 73.28438 105.32131Q73.90938 104.82131 74.84688 104.82131Q75.53438 104.82131 76.05 105.10256Q76.58125 105.38381 76.925 105.91506Q77.26875 106.43069 77.45625 107.18069Q77.64375 107.93069 77.64375 109.21194Q77.64375 110.72756 77.33125 111.64944Q77.03438 112.57131 76.40938 113.08694Q75.8 113.58694 74.84688 113.58694Q73.6125 113.58694 72.89375 112.69631Q72.05 111.63381 72.05 109.21194ZM73.12813 109.21194Q73.12813 111.32131 73.62813 112.02444Q74.12813 112.72756 74.84688 112.72756Q75.58125 112.72756 76.06563 112.02444Q76.56563 111.32131 76.56563 109.21194Q76.56563 107.08694 76.06563 106.39944Q75.58125 105.69631 74.83125 105.69631Q74.1125 105.69631 73.675 106.30569Q73.12813 107.08694 73.12813 109.21194ZM79.05 109.21194Q79.05 107.68069 79.3625 106.75881Q79.675 105.82131 80.28438 105.32131Q80.90938 104.82131 81.84688 104.82131Q82.53438 104.82131 83.05 105.10256Q83.58125 105.38381 83.925 105.91506Q84.26875 106.43069 84.45625 107.18069Q84.64375 107.93069 84.64375 109.21194Q84.64375 110.72756 84.33125 111.64944Q84.03438 112.57131 83.40938 113.08694Q82.8 113.58694 81.84688 113.58694Q80.6125 113.58694 79.89375 112.69631Q79.05 111.63381 79.05 109.21194ZM80.12813 109.21194Q80.12813 111.32131 80.62813 112.02444Q81.12813 112.72756 81.84688 112.72756Q82.58125 112.72756 83.06563 112.02444Q83.56563 111.32131 83.56563 109.21194Q83.56563 107.08694 83.06563 106.39944Q82.58125 105.69631 81.83125 105.69631Q81.1125 105.69631 80.675 106.30569Q80.12813 107.08694 80.12813 109.21194ZM86.05 109.21194Q86.05 107.68069 86.3625 106.75881Q86.675 105.82131 87.28438 105.32131Q87.90938 104.82131 88.84688 104.82131Q89.53438 104.82131 90.05 105.10256Q90.58125 105.38381 90.925 105.91506Q91.26875 106.43069 91.45625 107.18069Q91.64375 107.93069 91.64375 109.21194Q91.64375 110.72756 91.33125 111.64944Q91.03438 112.57131 90.40938 113.08694Q89.8 113.58694 88.84688 113.58694Q87.6125 113.58694 86.89375 112.69631Q86.05 111.63381 86.05 109.21194ZM87.12813 109.21194Q87.12813 111.32131 87.62813 112.02444Q88.12813 112.72756 88.84688 112.72756Q89.58125 112.72756 90.06563 112.02444Q90.56563 111.32131 90.56563 109.21194Q90.56563 107.08694 90.06563 106.39944Q89.58125 105.69631 88.83125 105.69631Q88.1125 105.69631 87.675 106.30569Q87.12813 107.08694 87.12813 109.21194ZM93.05 109.21194Q93.05 107.68069 93.3625 106.75881Q93.675 105.82131 94.28438 105.32131Q94.90938 104.82131 95.84688 104.82131Q96.53438 104.82131 97.05 105.10256Q97.58125 105.38381 97.925 105.91506Q98.26875 106.43069 98.45625 107.18069Q98.64375 107.93069 98.64375 109.21194Q98.64375 110.72756 98.33125 111.64944Q98.03438 112.57131 97.40938 113.08694Q96.8 113.58694 95.84688 113.58694Q94.6125 113.58694 93.89375 112.69631Q93.05 111.63381 93.05 109.21194ZM94.12813 109.21194Q94.12813 111.32131 94.62813 112.02444Q95.12813 112.72756 95.84688 112.72756Q96.58125 112.72756 97.06563 112.02444Q97.56563 111.32131 97.56563 109.21194Q97.56563 107.08694 97.06563 106.39944Q96.58125 105.69631 95.83125 105.69631Q95.1125 105.69631 94.675 106.30569Q94.12813 107.08694 94.12813 109.21194Z" fill-rule="nonzero"/><path fill="#000000" d="M185.39577 316.4344L185.39577 317.45L179.70827 317.45Q179.70827 317.075 179.83327 316.71564Q180.05202 316.1375 180.52077 315.575Q181.00514 315.0125 181.91139 314.27814Q183.31764 313.1219 183.80202 312.45Q184.30202 311.77814 184.30202 311.1844Q184.30202 310.5594 183.84889 310.1375Q183.39577 309.7 182.67702 309.7Q181.91139 309.7 181.45827 310.15314Q181.00514 310.60626 180.98952 311.41876L179.91139 311.3094Q180.02077 310.09064 180.73952 309.46564Q181.47389 308.825 182.70827 308.825Q183.94264 308.825 184.66139 309.5125Q185.38014 310.2 185.38014 311.21564Q185.38014 311.73126 185.16139 312.23126Q184.95827 312.71564 184.45827 313.27814Q183.97389 313.825 182.84889 314.77814Q181.89577 315.575 181.61452 315.8719Q181.34889 316.15314 181.17702 316.4344L185.39577 316.4344ZM186.84889 313.21564Q186.84889 311.6844 187.16139 310.7625Q187.47389 309.825 188.08327 309.325Q188.70827 308.825 189.64577 308.825Q190.33327 308.825 190.84889 309.10626Q191.38014 309.3875 191.72389 309.91876Q192.06764 310.4344 192.25514 311.1844Q192.44264 311.9344 192.44264 313.21564Q192.44264 314.73126 192.13014 315.65314Q191.83327 316.575 191.20827 317.09064Q190.59889 317.59064 189.64577 317.59064Q188.41139 317.59064 187.69264 316.7Q186.84889 315.6375 186.84889 313.21564ZM187.92702 313.21564Q187.92702 315.325 188.42702 316.02814Q188.92702 316.73126 189.64577 316.73126Q190.38014 316.73126 190.86452 316.02814Q191.36452 315.325 191.36452 313.21564Q191.36452 311.09064 190.86452 310.40314Q190.38014 309.7 189.63014 309.7Q188.91139 309.7 188.47389 310.3094Q187.92702 311.09064 187.92702 313.21564ZM193.84889 313.21564Q193.84889 311.6844 194.16139 310.7625Q194.47389 309.825 195.08327 309.325Q195.70827 308.825 196.64577 308.825Q197.33327 308.825 197.84889 309.10626Q198.38014 309.3875 198.72389 309.91876Q199.06764 310.4344 199.25514 311.1844Q199.44264 311.9344 199.44264 313.21564Q199.44264 314.73126 199.13014 315.65314Q198.83327 316.575 198.20827 317.09064Q197.59889 317.59064 196.64577 317.59064Q195.41139 317.59064 194.69264 316.7Q193.84889 315.6375 193.84889 313.21564ZM194.92702 313.21564Q194.92702 315.325 195.42702 316.02814Q195.92702 316.73126 196.64577 316.73126Q197.38014 316.73126 197.86452 316.02814Q198.36452 315.325 198.36452 313.21564Q198.36452 311.09064 197.86452 310.40314Q197.38014 309.7 196.63014 309.7Q195.91139 309.7 195.47389 310.3094Q194.92702 311.09064 194.92702 313.21564ZM200.84889 313.21564Q200.84889 311.6844 201.16139 310.7625Q201.47389 309.825 202.08327 309.325Q202.70827 308.825 203.64577 308.825Q204.33327 308.825 204.84889 309.10626Q205.38014 309.3875 205.72389 309.91876Q206.06764 310.4344 206.25514 311.1844Q206.44264 311.9344 206.44264 313.21564Q206.44264 314.73126 206.13014 315.65314Q205.83327 316.575 205.20827 317.09064Q204.59889 317.59064 203.64577 317.59064Q202.41139 317.59064 201.69264 316.7Q200.84889 315.6375 200.84889 313.21564ZM201.92702 313.21564Q201.92702 315.325 202.42702 316.02814Q202.92702 316.73126 203.64577 316.73126Q204.38014 316.73126 204.86452 316.02814Q205.36452 315.325 205.36452 313.21564Q205.36452 311.09064 204.86452 310.40314Q204.38014 309.7 203.63014 309.7Q202.91139 309.7 202.47389 310.3094Q201.92702 311.09064 201.92702 313.21564ZM207.84889 313.21564Q207.84889 311.6844 208.16139 310.7625Q208.47389 309.825 209.08327 309.325Q209.70827 308.825 210.64577 308.825Q211.33327 308.825 211.84889 309.10626Q212.38014 309.3875 212.72389 309.91876Q213.06764 310.4344 213.25514 311.1844Q213.44264 311.9344 213.44264 313.21564Q213.44264 314.73126 213.13014 315.65314Q212.83327 316.575 212.20827 317.09064Q211.59889 317.59064 210.64577 317.59064Q209.41139 317.59064 208.69264 316.7Q207.84889 315.6375 207.84889 313.21564ZM208.92702 313.21564Q208.92702 315.325 209.42702 316.02814Q209.92702 316.73126 210.64577 316.73126Q211.38014 316.73126 211.86452 316.02814Q212.36452 315.325 212.36452 313.21564Q212.36452 311.09064 211.86452 310.40314Q211.38014 309.7 210.63014 309.7Q209.91139 309.7 209.47389 310.3094Q208.92702 311.09064 208.92702 313.21564ZM214.84889 313.21564Q214.84889 311.6844 215.16139 310.7625Q215.47389 309.825 216.08327 309.325Q216.70827 308.825 217.64577 308.825Q218.33327 308.825 218.84889 309.10626Q219.38014 309.3875 219.72389 309.91876Q220.06764 310.4344 220.25514 311.1844Q220.44264 311.9344 220.44264 313.21564Q220.44264 314.73126 220.13014 315.65314Q219.83327 316.575 219.20827 317.09064Q218.59889 317.59064 217.64577 317.59064Q216.41139 317.59064 215.69264 316.7Q214.84889 315.6375 214.84889 313.21564ZM215.92702 313.21564Q215.92702 315.325 216.42702 316.02814Q216.92702 316.73126 217.64577 316.73126Q218.38014 316.73126 218.86452 316.02814Q219.36452 315.325 219.36452 313.21564Q219.36452 311.09064 218.86452 310.40314Q218.38014 309.7 217.63014 309.7Q216.91139 309.7 216.47389 310.3094Q215.92702 311.09064 215.92702 313.21564Z" fill-rule="nonzero"/><path fill="#000000" d="M278.49918 317.45L278.49918 315.3875L274.78043 315.3875L274.78043 314.41876L278.7023 308.85626L279.56168 308.85626L279.56168 314.41876L280.71793 314.41876L280.71793 315.3875L279.56168 315.3875L279.56168 317.45L278.49918 317.45ZM278.49918 314.41876L278.49918 310.5594L275.81168 314.41876L278.49918 314.41876ZM282.12418 313.21564Q282.12418 311.6844 282.43668 310.7625Q282.74918 309.825 283.35855 309.325Q283.98355 308.825 284.92105 308.825Q285.60855 308.825 286.12418 309.10626Q286.65543 309.3875 286.99918 309.91876Q287.34293 310.4344 287.53043 311.1844Q287.71793 311.9344 287.71793 313.21564Q287.71793 314.73126 287.40543 315.65314Q287.10855 316.575 286.48355 317.09064Q285.87418 317.59064 284.92105 317.59064Q283.68668 317.59064 282.96793 316.7Q282.12418 315.6375 282.12418 313.21564ZM283.2023 313.21564Q283.2023 315.325 283.7023 316.02814Q284.2023 316.73126 284.92105 316.73126Q285.65543 316.73126 286.1398 316.02814Q286.6398 315.325 286.6398 313.21564Q286.6398 311.09064 286.1398 310.40314Q285.65543 309.7 284.90543 309.7Q284.18668 309.7 283.74918 310.3094Q283.2023 311.09064 283.2023 313.21564ZM289.12418 313.21564Q289.12418 311.6844 289.43668 310.7625Q289.74918 309.825 290.35855 309.325Q290.98355 308.825 291.92105 308.825Q292.60855 308.825 293.12418 309.10626Q293.65543 309.3875 293.99918 309.91876Q294.34293 310.4344 294.53043 311.1844Q294.71793 311.9344 294.71793 313.21564Q294.71793 314.73126 294.40543 315.65314Q294.10855 316.575 293.48355 317.09064Q292.87418 317.59064 291.92105 317.59064Q290.68668 317.59064 289.96793 316.7Q289.12418 315.6375 289.12418 313.21564ZM290.2023 313.21564Q290.2023 315.325 290.7023 316.02814Q291.2023 316.73126 291.92105 316.73126Q292.65543 316.73126 293.1398 316.02814Q293.6398 315.325 293.6398 313.21564Q293.6398 311.09064 293.1398 310.40314Q292.65543 309.7 291.90543 309.7Q291.18668 309.7 290.74918 310.3094Q290.2023 311.09064 290.2023 313.21564ZM296.12418 313.21564Q296.12418 311.6844 296.43668 310.7625Q296.74918 309.825 297.35855 309.325Q297.98355 308.825 298.92105 308.825Q299.60855 308.825 300.12418 309.10626Q300.65543 309.3875 300.99918 309.91876Q301.34293 310.4344 301.53043 311.1844Q301.71793 311.9344 301.71793 313.21564Q301.71793 314.73126 301.40543 315.65314Q301.10855 316.575 300.48355 317.09064Q299.87418 317.59064 298.92105 317.59064Q297.68668 317.59064 296.96793 316.7Q296.12418 315.6375 296.12418 313.21564ZM297.2023 313.21564Q297.2023 315.325 297.7023 316.02814Q298.2023 316.73126 298.92105 316.73126Q299.65543 316.73126 300.1398 316.02814Q300.6398 315.325 300.6398 313.21564Q300.6398 311.09064 300.1398 310.40314Q299.65543 309.7 298.90543 309.7Q298.18668 309.7 297.74918 310.3094Q297.2023 311.09064 297.2023 313.21564ZM303.12418 313.21564Q303.12418 311.6844 303.43668 310.7625Q303.74918 309.825 304.35855 309.325Q304.98355 308.825 305.92105 308.825Q306.60855 308.825 307.12418 309.10626Q307.65543 309.3875 307.99918 309.91876Q308.34293 310.4344 308.53043 311.1844Q308.71793 311.9344 308.71793 313.21564Q308.71793 314.73126 308.40543 315.65314Q308.10855 316.575 307.48355 317.09064Q306.87418 317.59064 305.92105 317.59064Q304.68668 317.59064 303.96793 316.7Q303.12418 315.6375 303.12418 313.21564ZM304.2023 313.21564Q304.2023 315.325 304.7023 316.02814Q305.2023 316.73126 305.92105 316.73126Q306.65543 316.73126 307.1398 316.02814Q307.6398 315.325 307.6398 313.21564Q307.6398 311.09064 307.1398 310.40314Q306.65543 309.7 305.90543 309.7Q305.18668 309.7 304.74918 310.3094Q304.2023 311.09064 304.2023 313.21564ZM310.12418 313.21564Q310.12418 311.6844 310.43668 310.7625Q310.74918 309.825 311.35855 309.325Q311.98355 308.825 312.92105 308.825Q313.60855 308.825 314.12418 309.10626Q314.65543 309.3875 314.99918 309.91876Q315.34293 310.4344 315.53043 311.1844Q315.71793 311.9344 315.71793 313.21564Q315.71793 314.73126 315.40543 315.65314Q315.10855 316.575 314.48355 317.09064Q313.87418 317.59064 312.92105 317.59064Q311.68668 317.59064 310.96793 316.7Q310.12418 315.6375 310.12418 313.21564ZM311.2023 313.21564Q311.2023 315.325 311.7023 316.02814Q312.2023 316.73126 312.92105 316.73126Q313.65543 316.73126 314.1398 316.02814Q314.6398 315.325 314.6398 313.21564Q314.6398 311.09064 314.1398 310.40314Q313.65543 309.7 312.90543 309.7Q312.18668 309.7 311.74918 310.3094Q311.2023 311.09064 311.2023 313.21564Z" fill-rule="nonzero"/><path fill="#000000" d="M375.8682 310.96564L374.82132 311.04376Q374.6807 310.41876 374.4307 310.1375Q373.9932 309.6844 373.3682 309.6844Q372.8682 309.6844 372.47757 309.96564Q371.9932 310.34064 371.69632 311.04376Q371.41507 311.73126 371.39944 313.0125Q371.77444 312.4344 372.32132 312.15314Q372.88382 311.8719 373.4932 311.8719Q374.54007 311.8719 375.27444 312.65314Q376.02444 313.4344 376.02444 314.65314Q376.02444 315.46564 375.66507 316.16876Q375.32132 316.85626 374.71194 317.23126Q374.10257 317.59064 373.33694 317.59064Q372.00882 317.59064 371.1807 316.6219Q370.35257 315.65314 370.35257 313.4344Q370.35257 310.9344 371.27444 309.8094Q372.07132 308.825 373.4307 308.825Q374.44632 308.825 375.08694 309.40314Q375.7432 309.96564 375.8682 310.96564ZM371.57132 314.66876Q371.57132 315.21564 371.79007 315.71564Q372.02444 316.2 372.4307 316.46564Q372.85257 316.73126 373.32132 316.73126Q373.97757 316.73126 374.46194 316.2Q374.94632 315.65314 374.94632 314.73126Q374.94632 313.84064 374.46194 313.325Q373.9932 312.8094 373.27444 312.8094Q372.5557 312.8094 372.0557 313.325Q371.57132 313.84064 371.57132 314.66876ZM377.39944 313.21564Q377.39944 311.6844 377.71194 310.7625Q378.02444 309.825 378.63382 309.325Q379.25882 308.825 380.19632 308.825Q380.88382 308.825 381.39944 309.10626Q381.9307 309.3875 382.27444 309.91876Q382.6182 310.4344 382.8057 311.1844Q382.9932 311.9344 382.9932 313.21564Q382.9932 314.73126 382.6807 315.65314Q382.38382 316.575 381.75882 317.09064Q381.14944 317.59064 380.19632 317.59064Q378.96194 317.59064 378.2432 316.7Q377.39944 315.6375 377.39944 313.21564ZM378.47757 313.21564Q378.47757 315.325 378.97757 316.02814Q379.47757 316.73126 380.19632 316.73126Q380.9307 316.73126 381.41507 316.02814Q381.91507 315.325 381.91507 313.21564Q381.91507 311.09064 381.41507 310.40314Q380.9307 309.7 380.1807 309.7Q379.46194 309.7 379.02444 310.3094Q378.47757 311.09064 378.47757 313.21564ZM384.39944 313.21564Q384.39944 311.6844 384.71194 310.7625Q385.02444 309.825 385.63382 309.325Q386.25882 308.825 387.19632 308.825Q387.88382 308.825 388.39944 309.10626Q388.9307 309.3875 389.27444 309.91876Q389.6182 310.4344 389.8057 311.1844Q389.9932 311.9344 389.9932 313.21564Q389.9932 314.73126 389.6807 315.65314Q389.38382 316.575 388.75882 317.09064Q388.14944 317.59064 387.19632 317.59064Q385.96194 317.59064 385.2432 316.7Q384.39944 315.6375 384.39944 313.21564ZM385.47757 313.21564Q385.47757 315.325 385.97757 316.02814Q386.47757 316.73126 387.19632 316.73126Q387.9307 316.73126 388.41507 316.02814Q388.91507 315.325 388.91507 313.21564Q388.91507 311.09064 388.41507 310.40314Q387.9307 309.7 387.1807 309.7Q386.46194 309.7 386.02444 310.3094Q385.47757 311.09064 385.47757 313.21564ZM391.39944 313.21564Q391.39944 311.6844 391.71194 310.7625Q392.02444 309.825 392.63382 309.325Q393.25882 308.825 394.19632 308.825Q394.88382 308.825 395.39944 309.10626Q395.9307 309.3875 396.27444 309.91876Q396.6182 310.4344 396.8057 311.1844Q396.9932 311.9344 396.9932 313.21564Q396.9932 314.73126 396.6807 315.65314Q396.38382 316.575 395.75882 317.09064Q395.14944 317.59064 394.19632 317.59064Q392.96194 317.59064 392.2432 316.7Q391.39944 315.6375 391.39944 313.21564ZM392.47757 313.21564Q392.47757 315.325 392.97757 316.02814Q393.47757 316.73126 394.19632 316.73126Q394.9307 316.73126 395.41507 316.02814Q395.91507 315.325 395.91507 313.21564Q395.91507 311.09064 395.41507 310.40314Q394.9307 309.7 394.1807 309.7Q393.46194 309.7 393.02444 310.3094Q392.47757 311.09064 392.47757 313.21564ZM398.39944 313.21564Q398.39944 311.6844 398.71194 310.7625Q399.02444 309.825 399.63382 309.325Q400.25882 308.825 401.19632 308.825Q401.88382 308.825 402.39944 309.10626Q402.9307 309.3875 403.27444 309.91876Q403.6182 310.4344 403.8057 311.1844Q403.9932 311.9344 403.9932 313.21564Q403.9932 314.73126 403.6807 315.65314Q403.38382 316.575 402.75882 317.09064Q402.14944 317.59064 401.19632 317.59064Q399.96194 317.59064 399.2432 316.7Q398.39944 315.6375 398.39944 313.21564ZM399.47757 313.21564Q399.47757 315.325 399.97757 316.02814Q400.47757 316.73126 401.19632 316.73126Q401.9307 316.73126 402.41507 316.02814Q402.91507 315.325 402.91507 313.21564Q402.91507 311.09064 402.41507 310.40314Q401.9307 309.7 401.1807 309.7Q400.46194 309.7 400.02444 310.3094Q399.47757 311.09064 399.47757 313.21564ZM405.39944 313.21564Q405.39944 311.6844 405.71194 310.7625Q406.02444 309.825 406.63382 309.325Q407.25882 308.825 408.19632 308.825Q408.88382 308.825 409.39944 309.10626Q409.9307 309.3875 410.27444 309.91876Q410.6182 310.4344 410.8057 311.1844Q410.9932 311.9344 410.9932 313.21564Q410.9932 314.73126 410.6807 315.65314Q410.38382 316.575 409.75882 317.09064Q409.14944 317.59064 408.19632 317.59064Q406.96194 317.59064 406.2432 316.7Q405.39944 315.6375 405.39944 313.21564ZM406.47757 313.21564Q406.47757 315.325 406.97757 316.02814Q407.47757 316.73126 408.19632 316.73126Q408.9307 316.73126 409.41507 316.02814Q409.91507 315.325 409.91507 313.21564Q409.91507 311.09064 409.41507 310.40314Q408.9307 309.7 408.1807 309.7Q407.46194 309.7 407.02444 310.3094Q406.47757 311.09064 406.47757 313.21564Z" fill-rule="nonzero"/><path fill="#000000" d="M467.2997 312.79376Q466.64346 312.54376 466.31534 312.10626Q466.00284 311.65314 466.00284 311.04376Q466.00284 310.10626 466.6747 309.46564Q467.3622 308.825 468.4716 308.825Q469.5966 308.825 470.2841 309.48126Q470.9716 310.1375 470.9716 311.075Q470.9716 311.66876 470.6591 312.10626Q470.3466 312.54376 469.70596 312.79376Q470.50284 313.04376 470.9091 313.6219Q471.31534 314.2 471.31534 314.9969Q471.31534 316.09064 470.5341 316.84064Q469.76846 317.59064 468.4872 317.59064Q467.2216 317.59064 466.44034 316.84064Q465.6591 316.09064 465.6591 314.96564Q465.6591 314.1219 466.08096 313.5594Q466.51846 312.9969 467.2997 312.79376ZM467.08096 310.9969Q467.08096 311.60626 467.4716 311.9969Q467.87784 312.3875 468.50284 312.3875Q469.1122 312.3875 469.50284 312.0125Q469.89346 311.6219 469.89346 311.0594Q469.89346 310.48126 469.4872 310.09064Q469.08096 309.6844 468.4872 309.6844Q467.87784 309.6844 467.4716 310.075Q467.08096 310.46564 467.08096 310.9969ZM466.75284 314.96564Q466.75284 315.41876 466.95596 315.84064Q467.1747 316.2625 467.5966 316.4969Q468.01846 316.73126 468.50284 316.73126Q469.25284 316.73126 469.7372 316.2469Q470.2372 315.7625 470.2372 315.0125Q470.2372 314.2469 469.7372 313.7469Q469.2372 313.2469 468.4716 313.2469Q467.7216 313.2469 467.2372 313.7469Q466.75284 314.23126 466.75284 314.96564ZM472.6747 313.21564Q472.6747 311.6844 472.9872 310.7625Q473.2997 309.825 473.9091 309.325Q474.5341 308.825 475.4716 308.825Q476.1591 308.825 476.6747 309.10626Q477.20596 309.3875 477.5497 309.91876Q477.89346 310.4344 478.08096 311.1844Q478.26846 311.9344 478.26846 313.21564Q478.26846 314.73126 477.95596 315.65314Q477.6591 316.575 477.0341 317.09064Q476.4247 317.59064 475.4716 317.59064Q474.2372 317.59064 473.51846 316.7Q472.6747 315.6375 472.6747 313.21564ZM473.75284 313.21564Q473.75284 315.325 474.25284 316.02814Q474.75284 316.73126 475.4716 316.73126Q476.20596 316.73126 476.69034 316.02814Q477.19034 315.325 477.19034 313.21564Q477.19034 311.09064 476.69034 310.40314Q476.20596 309.7 475.45596 309.7Q474.7372 309.7 474.2997 310.3094Q473.75284 311.09064 473.75284 313.21564ZM479.6747 313.21564Q479.6747 311.6844 479.9872 310.7625Q480.2997 309.825 480.9091 309.325Q481.5341 308.825 482.4716 308.825Q483.1591 308.825 483.6747 309.10626Q484.20596 309.3875 484.5497 309.91876Q484.89346 310.4344 485.08096 311.1844Q485.26846 311.9344 485.26846 313.21564Q485.26846 314.73126 484.95596 315.65314Q484.6591 316.575 484.0341 317.09064Q483.4247 317.59064 482.4716 317.59064Q481.2372 317.59064 480.51846 316.7Q479.6747 315.6375 479.6747 313.21564ZM480.75284 313.21564Q480.75284 315.325 481.25284 316.02814Q481.75284 316.73126 482.4716 316.73126Q483.20596 316.73126 483.69034 316.02814Q484.19034 315.325 484.19034 313.21564Q484.19034 311.09064 483.69034 310.40314Q483.20596 309.7 482.45596 309.7Q481.7372 309.7 481.2997 310.3094Q480.75284 311.09064 480.75284 313.21564ZM486.6747 313.21564Q486.6747 311.6844 486.9872 310.7625Q487.2997 309.825 487.9091 309.325Q488.5341 308.825 489.4716 308.825Q490.1591 308.825 490.6747 309.10626Q491.20596 309.3875 491.5497 309.91876Q491.89346 310.4344 492.08096 311.1844Q492.26846 311.9344 492.26846 313.21564Q492.26846 314.73126 491.95596 315.65314Q491.6591 316.575 491.0341 317.09064Q490.4247 317.59064 489.4716 317.59064Q488.2372 317.59064 487.51846 316.7Q486.6747 315.6375 486.6747 313.21564ZM487.75284 313.21564Q487.75284 315.325 488.25284 316.02814Q488.75284 316.73126 489.4716 316.73126Q490.20596 316.73126 490.69034 316.02814Q491.19034 315.325 491.19034 313.21564Q491.19034 311.09064 490.69034 310.40314Q490.20596 309.7 489.45596 309.7Q488.7372 309.7 488.2997 310.3094Q487.75284 311.09064 487.75284 313.21564ZM493.6747 313.21564Q493.6747 311.6844 493.9872 310.7625Q494.2997 309.825 494.9091 309.325Q495.5341 308.825 496.4716 308.825Q497.1591 308.825 497.6747 309.10626Q498.20596 309.3875 498.5497 309.91876Q498.89346 310.4344 499.08096 311.1844Q499.26846 311.9344 499.26846 313.21564Q499.26846 314.73126 498.95596 315.65314Q498.6591 316.575 498.0341 317.09064Q497.4247 317.59064 496.4716 317.59064Q495.2372 317.59064 494.51846 316.7Q493.6747 315.6375 493.6747 313.21564ZM494.75284 313.21564Q494.75284 315.325 495.25284 316.02814Q495.75284 316.73126 496.4716 316.73126Q497.20596 316.73126 497.69034 316.02814Q498.19034 315.325 498.19034 313.21564Q498.19034 311.09064 497.69034 310.40314Q497.20596 309.7 496.45596 309.7Q495.7372 309.7 495.2997 310.3094Q494.75284 311.09064 494.75284 313.21564ZM500.6747 313.21564Q500.6747 311.6844 500.9872 310.7625Q501.2997 309.825 501.9091 309.325Q502.5341 308.825 503.4716 308.825Q504.1591 308.825 504.6747 309.10626Q505.20596 309.3875 505.5497 309.91876Q505.89346 310.4344 506.08096 311.1844Q506.26846 311.9344 506.26846 313.21564Q506.26846 314.73126 505.95596 315.65314Q505.6591 316.575 505.0341 317.09064Q504.4247 317.59064 503.4716 317.59064Q502.2372 317.59064 501.51846 316.7Q500.6747 315.6375 500.6747 313.21564ZM501.75284 313.21564Q501.75284 315.325 502.25284 316.02814Q502.75284 316.73126 503.4716 316.73126Q504.20596 316.73126 504.69034 316.02814Q505.19034 315.325 505.19034 313.21564Q505.19034 311.09064 504.69034 310.40314Q504.20596 309.7 503.45596 309.7Q502.7372 309.7 502.2997 310.3094Q501.75284 311.09064 501.75284 313.21564Z" fill-rule="nonzero"/><path fill="#999999" d="M19.221874 58.175Q19.221874 55.675 20.565624 54.26875Q21.909374 52.846874 24.01875 52.846874Q25.409374 52.846874 26.51875 53.51875Q27.64375 54.175 28.221874 55.3625Q28.815624 56.55 28.815624 58.05Q28.815624 59.58125 28.190624 60.784374Q27.58125 61.9875 26.45625 62.6125Q25.33125 63.221874 24.01875 63.221874Q22.596874 63.221874 21.4875 62.534374Q20.378124 61.846874 19.8 60.675Q19.221874 59.4875 19.221874 58.175ZM20.596874 58.190624Q20.596874 60.003124 21.565624 61.05Q22.55 62.08125 24.01875 62.08125Q25.503124 62.08125 26.471874 61.034374Q27.440624 59.9875 27.440624 58.05Q27.440624 56.815624 27.01875 55.909374Q26.6125 55.003124 25.815624 54.503124Q25.01875 53.9875 24.034374 53.9875Q22.628124 53.9875 21.6125 54.95625Q20.596874 55.925 20.596874 58.190624ZM34.253124 63.659374L35.440624 63.83125Q35.51875 64.37813 35.8625 64.64375Q36.315624 64.97188 37.1125 64.97188Q37.971874 64.97188 38.425 64.62813Q38.89375 64.3 39.065624 63.675Q39.159374 63.3 39.14375 62.096874Q38.346874 63.05 37.14375 63.05Q35.64375 63.05 34.815624 61.971874Q34.003124 60.89375 34.003124 59.378124Q34.003124 58.346874 34.378124 57.471874Q34.753124 56.58125 35.45625 56.1125Q36.175 55.628124 37.14375 55.628124Q38.425 55.628124 39.26875 56.659374L39.26875 55.784374L40.39375 55.784374L40.39375 62.065624Q40.39375 63.76875 40.05 64.47188Q39.70625 65.175 38.95625 65.58125Q38.20625 66.00313 37.1125 66.00313Q35.815624 66.00313 35.01875 65.40938Q34.221874 64.83125 34.253124 63.659374ZM35.26875 59.284374Q35.26875 60.721874 35.83125 61.378124Q36.39375 62.034374 37.253124 62.034374Q38.096874 62.034374 38.675 61.378124Q39.253124 60.721874 39.253124 59.33125Q39.253124 58.003124 38.659374 57.33125Q38.065624 56.64375 37.2375 56.64375Q36.409374 56.64375 35.83125 57.315624Q35.26875 57.971874 35.26875 59.284374ZM42.45625 63.05L42.45625 55.784374L43.565624 55.784374L43.565624 56.89375Q43.9875 56.1125 44.346874 55.878124Q44.70625 55.628124 45.14375 55.628124Q45.76875 55.628124 46.409374 56.01875L45.9875 57.159374Q45.534374 56.89375 45.08125 56.89375Q44.675 56.89375 44.346874 57.14375Q44.034374 57.378124 43.89375 57.815624Q43.690624 58.471874 43.690624 59.253124L43.690624 63.05L42.45625 63.05ZM52.20625 62.159374Q51.534374 62.7375 50.89375 62.9875Q50.26875 63.221874 49.534374 63.221874Q48.346874 63.221874 47.690624 62.64375Q47.05 62.05 47.05 61.128124Q47.05 60.596874 47.284374 60.159374Q47.534374 59.721874 47.925 59.45625Q48.33125 59.190624 48.815624 59.05Q49.175 58.95625 49.909374 58.8625Q51.409374 58.690624 52.1125 58.440624Q52.1125 58.190624 52.1125 58.128124Q52.1125 57.3625 51.76875 57.065624Q51.3 56.64375 50.3625 56.64375Q49.503124 56.64375 49.08125 56.95625Q48.675 57.253124 48.471874 58.01875L47.26875 57.8625Q47.425 57.08125 47.8 56.6125Q48.190624 56.14375 48.89375 55.89375Q49.6125 55.628124 50.55 55.628124Q51.471874 55.628124 52.05 55.846874Q52.628124 56.065624 52.89375 56.39375Q53.175 56.721874 53.284374 57.2375Q53.346874 57.55 53.346874 58.3625L53.346874 60.003124Q53.346874 61.721874 53.425 62.175Q53.503124 62.628124 53.7375 63.05L52.45625 63.05Q52.26875 62.659374 52.20625 62.159374ZM52.1125 59.409374Q51.440624 59.675 50.096874 59.878124Q49.346874 59.9875 49.01875 60.128124Q48.70625 60.253124 48.534374 60.51875Q48.3625 60.784374 48.3625 61.096874Q48.3625 61.596874 48.7375 61.925Q49.1125 62.253124 49.83125 62.253124Q50.55 62.253124 51.096874 61.940624Q51.64375 61.628124 51.909374 61.08125Q52.1125 60.675 52.1125 59.8625L52.1125 59.409374ZM49.70625 54.89375L50.6125 52.971874L52.2375 52.971874L50.721874 54.89375L49.70625 54.89375ZM55.76875 63.05L55.76875 56.753124L54.675 56.753124L54.675 55.784374L55.76875 55.784374L55.76875 55.01875Q55.76875 54.284374 55.89375 53.925Q56.08125 53.45625 56.51875 53.159374Q56.971874 52.8625 57.784374 52.8625Q58.3 52.8625 58.925 52.9875L58.7375 54.05Q58.3625 53.9875 58.01875 53.9875Q57.45625 53.9875 57.221874 54.221874Q56.9875 54.45625 56.9875 55.1125L56.9875 55.784374L58.409374 55.784374L58.409374 56.753124L56.9875 56.753124L56.9875 63.05L55.76875 63.05ZM59.4875 54.440624L59.4875 53.034374L60.70625 53.034374L60.70625 54.440624L59.4875 54.440624ZM59.4875 63.05L59.4875 55.784374L60.70625 55.784374L60.70625 63.05L59.4875 63.05ZM67.20625 60.39375L68.425 60.55Q68.22188 61.8 67.39375 62.51875Q66.58125 63.221874 65.39375 63.221874Q63.909374 63.221874 63.003124 62.253124Q62.096874 61.26875 62.096874 59.440624Q62.096874 58.26875 62.4875 57.39375Q62.878124 56.503124 63.675 56.065624Q64.47188 55.628124 65.40938 55.628124Q66.58125 55.628124 67.33125 56.221874Q68.09688 56.815624 68.3 57.925L67.1125 58.1125Q66.94063 57.378124 66.50313 57.01875Q66.06563 56.64375 65.45625 56.64375Q64.51875 56.64375 63.940624 57.315624Q63.3625 57.971874 63.3625 59.409374Q63.3625 60.878124 63.925 61.55Q64.4875 62.20625 65.37813 62.20625Q66.1125 62.20625 66.59688 61.76875Q67.08125 61.315624 67.20625 60.39375ZM69.01875 59.425Q69.01875 57.409374 70.14375 56.425Q71.06563 55.628124 72.425 55.628124Q73.90938 55.628124 74.8625 56.6125Q75.81563 57.58125 75.81563 59.315624Q75.81563 60.721874 75.39375 61.534374Q74.97188 62.33125 74.15938 62.784374Q73.3625 63.221874 72.425 63.221874Q70.89375 63.221874 69.95625 62.2375Q69.01875 61.253124 69.01875 59.425ZM70.28438 59.425Q70.28438 60.815624 70.89375 61.51875Q71.50313 62.20625 72.425 62.20625Q73.33125 62.20625 73.94063 61.503124Q74.55 60.8 74.55 59.378124Q74.55 58.034374 73.94063 57.346874Q73.33125 56.64375 72.425 56.64375Q71.50313 56.64375 70.89375 57.33125Q70.28438 58.01875 70.28438 59.425ZM86.44063 60.70625L87.72188 60.8625Q87.40938 61.9875 86.59688 62.6125Q85.78438 63.221874 84.51875 63.221874Q82.925 63.221874 81.9875 62.2375Q81.06563 61.253124 81.06563 59.4875Q81.06563 57.64375 82.00313 56.64375Q82.95625 55.628124 84.45625 55.628124Q85.90938 55.628124 86.83125 56.628124Q87.75313 57.6125 87.75313 59.409374Q87.75313 59.51875 87.75313 59.7375L82.33125 59.7375Q82.40938 60.925 83.00313 61.565624Q83.6125 62.20625 84.53438 62.20625Q85.20625 62.20625 85.675 61.846874Q86.15938 61.4875 86.44063 60.70625ZM82.40938 58.721874L86.45625 58.721874Q86.37813 57.8 85.9875 57.346874Q85.40938 56.64375 84.47188 56.64375Q83.6125 56.64375 83.03438 57.20625Q82.47188 57.76875 82.40938 58.721874ZM88.9875 60.878124L90.19063 60.690624Q90.3 61.425 90.76875 61.815624Q91.2375 62.20625 92.08125 62.20625Q92.925 62.20625 93.33125 61.8625Q93.75313 61.51875 93.75313 61.05Q93.75313 60.628124 93.37813 60.39375Q93.12813 60.221874 92.12813 59.971874Q90.76875 59.628124 90.2375 59.378124Q89.72188 59.128124 89.45625 58.690624Q89.19063 58.253124 89.19063 57.721874Q89.19063 57.2375 89.40938 56.83125Q89.62813 56.409374 90.01875 56.128124Q90.3 55.925 90.78438 55.784374Q91.28438 55.628124 91.8625 55.628124Q92.70625 55.628124 93.34688 55.878124Q94.00313 56.1125 94.31563 56.534374Q94.62813 56.95625 94.7375 57.659374L93.53438 57.83125Q93.45625 57.26875 93.05 56.95625Q92.65938 56.64375 91.94063 56.64375Q91.09688 56.64375 90.7375 56.925Q90.37813 57.190624 90.37813 57.58125Q90.37813 57.815624 90.51875 58.003124Q90.675 58.20625 91.00313 58.33125Q91.175 58.39375 92.08125 58.64375Q93.39375 59.003124 93.90938 59.221874Q94.425 59.440624 94.70625 59.8625Q95.00313 60.284374 95.00313 60.909374Q95.00313 61.534374 94.64375 62.08125Q94.3 62.6125 93.6125 62.925Q92.94063 63.221874 92.08125 63.221874Q90.675 63.221874 89.925 62.628124Q89.19063 62.034374 88.9875 60.878124ZM99.15938 61.95625L99.33125 63.034374Q98.81563 63.14375 98.40938 63.14375Q97.7375 63.14375 97.3625 62.940624Q97.00313 62.721874 96.84688 62.378124Q96.70625 62.034374 96.70625 60.925L96.70625 56.753124L95.8 56.753124L95.8 55.784374L96.70625 55.784374L96.70625 53.9875L97.925 53.253124L97.925 55.784374L99.15938 55.784374L99.15938 56.753124L97.925 56.753124L97.925 60.9875Q97.925 61.51875 97.9875 61.675Q98.05 61.815624 98.19063 61.909374Q98.34688 62.003124 98.6125 62.003124Q98.83125 62.003124 99.15938 61.95625ZM105.20625 62.159374Q104.53438 62.7375 103.89375 62.9875Q103.26875 63.221874 102.53438 63.221874Q101.34688 63.221874 100.69063 62.64375Q100.05 62.05 100.05 61.128124Q100.05 60.596874 100.28438 60.159374Q100.53438 59.721874 100.925 59.45625Q101.33125 59.190624 101.81563 59.05Q102.175 58.95625 102.90938 58.8625Q104.40938 58.690624 105.1125 58.440624Q105.1125 58.190624 105.1125 58.128124Q105.1125 57.3625 104.76875 57.065624Q104.3 56.64375 103.3625 56.64375Q102.50313 56.64375 102.08125 56.95625Q101.675 57.253124 101.47188 58.01875L100.26875 57.8625Q100.425 57.08125 100.8 56.6125Q101.19063 56.14375 101.89375 55.89375Q102.6125 55.628124 103.55 55.628124Q104.47188 55.628124 105.05 55.846874Q105.62813 56.065624 105.89375 56.39375Q106.175 56.721874 106.28438 57.2375Q106.34688 57.55 106.34688 58.3625L106.34688 60.003124Q106.34688 61.721874 106.425 62.175Q106.50313 62.628124 106.7375 63.05L105.45625 63.05Q105.26875 62.659374 105.20625 62.159374ZM105.1125 59.409374Q104.44063 59.675 103.09688 59.878124Q102.34688 59.9875 102.01875 60.128124Q101.70625 60.253124 101.53438 60.51875Q101.3625 60.784374 101.3625 61.096874Q101.3625 61.596874 101.7375 61.925Q102.1125 62.253124 102.83125 62.253124Q103.55 62.253124 104.09688 61.940624Q104.64375 61.628124 104.90938 61.08125Q105.1125 60.675 105.1125 59.8625L105.1125 59.409374ZM102.70625 54.89375L103.6125 52.971874L105.2375 52.971874L103.72188 54.89375L102.70625 54.89375ZM117.44063 60.70625L118.72188 60.8625Q118.40938 61.9875 117.59688 62.6125Q116.78438 63.221874 115.51875 63.221874Q113.925 63.221874 112.9875 62.2375Q112.06563 61.253124 112.06563 59.4875Q112.06563 57.64375 113.00313 56.64375Q113.95625 55.628124 115.45625 55.628124Q116.90938 55.628124 117.83125 56.628124Q118.75313 57.6125 118.75313 59.409374Q118.75313 59.51875 118.75313 59.7375L113.33125 59.7375Q113.40938 60.925 114.00313 61.565624Q114.6125 62.20625 115.53438 62.20625Q116.20625 62.20625 116.675 61.846874Q117.15938 61.4875 117.44063 60.70625ZM113.40938 58.721874L117.45625 58.721874Q117.37813 57.8 116.9875 57.346874Q116.40938 56.64375 115.47188 56.64375Q114.6125 56.64375 114.03438 57.20625Q113.47188 57.76875 113.40938 58.721874ZM120.47188 63.05L120.47188 55.784374L121.58125 55.784374L121.58125 56.815624Q121.90938 56.26875 122.47188 55.95625Q123.05 55.628124 123.76875 55.628124Q124.58125 55.628124 125.09688 55.971874Q125.6125 56.3 125.83125 56.89375Q126.69063 55.628124 128.06563 55.628124Q129.14375 55.628124 129.72188 56.221874Q130.31563 56.815624 130.31563 58.065624L130.31563 63.05L129.08125 63.05L129.08125 58.471874Q129.08125 57.7375 128.95625 57.409374Q128.84688 57.08125 128.53438 56.89375Q128.22188 56.690624 127.8 56.690624Q127.03438 56.690624 126.51875 57.20625Q126.01875 57.70625 126.01875 58.83125L126.01875 63.05L124.78438 63.05L124.78438 58.33125Q124.78438 57.51875 124.4875 57.1125Q124.19063 56.690624 123.50313 56.690624Q122.9875 56.690624 122.53438 56.971874Q122.09688 57.2375 121.89375 57.76875Q121.70625 58.284374 121.70625 59.284374L121.70625 63.05L120.47188 63.05ZM140.44063 60.70625L141.72188 60.8625Q141.40938 61.9875 140.59688 62.6125Q139.78438 63.221874 138.51875 63.221874Q136.925 63.221874 135.9875 62.2375Q135.06563 61.253124 135.06563 59.4875Q135.06563 57.64375 136.00313 56.64375Q136.95625 55.628124 138.45625 55.628124Q139.90938 55.628124 140.83125 56.628124Q141.75313 57.6125 141.75313 59.409374Q141.75313 59.51875 141.75313 59.7375L136.33125 59.7375Q136.40938 60.925 137.00313 61.565624Q137.6125 62.20625 138.53438 62.20625Q139.20625 62.20625 139.675 61.846874Q140.15938 61.4875 140.44063 60.70625ZM136.40938 58.721874L140.45625 58.721874Q140.37813 57.8 139.9875 57.346874Q139.40938 56.64375 138.47188 56.64375Q137.6125 56.64375 137.03438 57.20625Q136.47188 57.76875 136.40938 58.721874ZM142.9875 60.878124L144.19063 60.690624Q144.3 61.425 144.76875 61.815624Q145.2375 62.20625 146.08125 62.20625Q146.925 62.20625 147.33125 61.8625Q147.75313 61.51875 147.75313 61.05Q147.75313 60.628124 147.37813 60.39375Q147.12813 60.221874 146.12813 59.971874Q144.76875 59.628124 144.2375 59.378124Q143.72188 59.128124 143.45625 58.690624Q143.19063 58.253124 143.19063 57.721874Q143.19063 57.2375 143.40938 56.83125Q143.62813 56.409374 144.01875 56.128124Q144.3 55.925 144.78438 55.784374Q145.28438 55.628124 145.8625 55.628124Q146.70625 55.628124 147.34688 55.878124Q148.00313 56.1125 148.31563 56.534374Q148.62813 56.95625 148.7375 57.659374L147.53438 57.83125Q147.45625 57.26875 147.05 56.95625Q146.65938 56.64375 145.94063 56.64375Q145.09688 56.64375 144.7375 56.925Q144.37813 57.190624 144.37813 57.58125Q144.37813 57.815624 144.51875 58.003124Q144.675 58.20625 145.00313 58.33125Q145.175 58.39375 146.08125 58.64375Q147.39375 59.003124 147.90938 59.221874Q148.425 59.440624 148.70625 59.8625Q149.00313 60.284374 149.00313 60.909374Q149.00313 61.534374 148.64375 62.08125Q148.3 62.6125 147.6125 62.925Q146.94063 63.221874 146.08125 63.221874Q144.675 63.221874 143.925 62.628124Q143.19063 62.034374 142.9875 60.878124ZM155.20625 60.39375L156.425 60.55Q156.22188 61.8 155.39375 62.51875Q154.58125 63.221874 153.39375 63.221874Q151.90938 63.221874 151.00313 62.253124Q150.09688 61.26875 150.09688 59.440624Q150.09688 58.26875 150.4875 57.39375Q150.87813 56.503124 151.675 56.065624Q152.47188 55.628124 153.40938 55.628124Q154.58125 55.628124 155.33125 56.221874Q156.09688 56.815624 156.3 57.925L155.1125 58.1125Q154.94063 57.378124 154.50313 57.01875Q154.06563 56.64375 153.45625 56.64375Q152.51875 56.64375 151.94063 57.315624Q151.3625 57.971874 151.3625 59.409374Q151.3625 60.878124 151.925 61.55Q152.4875 62.20625 153.37813 62.20625Q154.1125 62.20625 154.59688 61.76875Q155.08125 61.315624 155.20625 60.39375ZM162.20625 62.159374Q161.53438 62.7375 160.89375 62.9875Q160.26875 63.221874 159.53438 63.221874Q158.34688 63.221874 157.69063 62.64375Q157.05 62.05 157.05 61.128124Q157.05 60.596874 157.28438 60.159374Q157.53438 59.721874 157.925 59.45625Q158.33125 59.190624 158.81563 59.05Q159.175 58.95625 159.90938 58.8625Q161.40938 58.690624 162.1125 58.440624Q162.1125 58.190624 162.1125 58.128124Q162.1125 57.3625 161.76875 57.065624Q161.3 56.64375 160.3625 56.64375Q159.50313 56.64375 159.08125 56.95625Q158.675 57.253124 158.47188 58.01875L157.26875 57.8625Q157.425 57.08125 157.8 56.6125Q158.19063 56.14375 158.89375 55.89375Q159.6125 55.628124 160.55 55.628124Q161.47188 55.628124 162.05 55.846874Q162.62813 56.065624 162.89375 56.39375Q163.175 56.721874 163.28438 57.2375Q163.34688 57.55 163.34688 58.3625L163.34688 60.003124Q163.34688 61.721874 163.425 62.175Q163.50313 62.628124 163.7375 63.05L162.45625 63.05Q162.26875 62.659374 162.20625 62.159374ZM162.1125 59.409374Q161.44063 59.675 160.09688 59.878124Q159.34688 59.9875 159.01875 60.128124Q158.70625 60.253124 158.53438 60.51875Q158.3625 60.784374 158.3625 61.096874Q158.3625 61.596874 158.7375 61.925Q159.1125 62.253124 159.83125 62.253124Q160.55 62.253124 161.09688 61.940624Q161.64375 61.628124 161.90938 61.08125Q162.1125 60.675 162.1125 59.8625L162.1125 59.409374ZM165.44063 63.05L165.44063 53.034374L166.675 53.034374L166.675 63.05L165.44063 63.05ZM173.20625 62.159374Q172.53438 62.7375 171.89375 62.9875Q171.26875 63.221874 170.53438 63.221874Q169.34688 63.221874 168.69063 62.64375Q168.05 62.05 168.05 61.128124Q168.05 60.596874 168.28438 60.159374Q168.53438 59.721874 168.925 59.45625Q169.33125 59.190624 169.81563 59.05Q170.175 58.95625 170.90938 58.8625Q172.40938 58.690624 173.1125 58.440624Q173.1125 58.190624 173.1125 58.128124Q173.1125 57.3625 172.76875 57.065624Q172.3 56.64375 171.3625 56.64375Q170.50313 56.64375 170.08125 56.95625Q169.675 57.253124 169.47188 58.01875L168.26875 57.8625Q168.425 57.08125 168.8 56.6125Q169.19063 56.14375 169.89375 55.89375Q170.6125 55.628124 171.55 55.628124Q172.47188 55.628124 173.05 55.846874Q173.62813 56.065624 173.89375 56.39375Q174.175 56.721874 174.28438 57.2375Q174.34688 57.55 174.34688 58.3625L174.34688 60.003124Q174.34688 61.721874 174.425 62.175Q174.50313 62.628124 174.7375 63.05L173.45625 63.05Q173.26875 62.659374 173.20625 62.159374ZM173.1125 59.409374Q172.44063 59.675 171.09688 59.878124Q170.34688 59.9875 170.01875 60.128124Q169.70625 60.253124 169.53438 60.51875Q169.3625 60.784374 169.3625 61.096874Q169.3625 61.596874 169.7375 61.925Q170.1125 62.253124 170.83125 62.253124Q171.55 62.253124 172.09688 61.940624Q172.64375 61.628124 172.90938 61.08125Q173.1125 60.675 173.1125 59.8625L173.1125 59.409374ZM180.44063 63.05L180.44063 53.034374L181.675 53.034374L181.675 63.05L180.44063 63.05ZM183.01875 59.425Q183.01875 57.409374 184.14375 56.425Q185.06563 55.628124 186.425 55.628124Q187.90938 55.628124 188.8625 56.6125Q189.81563 57.58125 189.81563 59.315624Q189.81563 60.721874 189.39375 61.534374Q188.97188 62.33125 188.15938 62.784374Q187.3625 63.221874 186.425 63.221874Q184.89375 63.221874 183.95625 62.2375Q183.01875 61.253124 183.01875 59.425ZM184.28438 59.425Q184.28438 60.815624 184.89375 61.51875Q185.50313 62.20625 186.425 62.20625Q187.33125 62.20625 187.94063 61.503124Q188.55 60.8 188.55 59.378124Q188.55 58.034374 187.94063 57.346874Q187.33125 56.64375 186.425 56.64375Q185.50313 56.64375 184.89375 57.33125Q184.28438 58.01875 184.28438 59.425ZM191.25313 63.659374L192.44063 63.83125Q192.51875 64.37813 192.8625 64.64375Q193.31563 64.97188 194.1125 64.97188Q194.97188 64.97188 195.425 64.62813Q195.89375 64.3 196.06563 63.675Q196.15938 63.3 196.14375 62.096874Q195.34688 63.05 194.14375 63.05Q192.64375 63.05 191.81563 61.971874Q191.00313 60.89375 191.00313 59.378124Q191.00313 58.346874 191.37813 57.471874Q191.75313 56.58125 192.45625 56.1125Q193.175 55.628124 194.14375 55.628124Q195.425 55.628124 196.26875 56.659374L196.26875 55.784374L197.39375 55.784374L197.39375 62.065624Q197.39375 63.76875 197.05 64.47188Q196.70625 65.175 195.95625 65.58125Q195.20625 66.00313 194.1125 66.00313Q192.81563 66.00313 192.01875 65.40938Q191.22188 64.83125 191.25313 63.659374ZM192.26875 59.284374Q192.26875 60.721874 192.83125 61.378124Q193.39375 62.034374 194.25313 62.034374Q195.09688 62.034374 195.675 61.378124Q196.25313 60.721874 196.25313 59.33125Q196.25313 58.003124 195.65938 57.33125Q195.06563 56.64375 194.2375 56.64375Q193.40938 56.64375 192.83125 57.315624Q192.26875 57.971874 192.26875 59.284374ZM204.20625 62.159374Q203.53438 62.7375 202.89375 62.9875Q202.26875 63.221874 201.53438 63.221874Q200.34688 63.221874 199.69063 62.64375Q199.05 62.05 199.05 61.128124Q199.05 60.596874 199.28438 60.159374Q199.53438 59.721874 199.925 59.45625Q200.33125 59.190624 200.81563 59.05Q201.175 58.95625 201.90938 58.8625Q203.40938 58.690624 204.1125 58.440624Q204.1125 58.190624 204.1125 58.128124Q204.1125 57.3625 203.76875 57.065624Q203.3 56.64375 202.3625 56.64375Q201.50313 56.64375 201.08125 56.95625Q200.675 57.253124 200.47188 58.01875L199.26875 57.8625Q199.425 57.08125 199.8 56.6125Q200.19063 56.14375 200.89375 55.89375Q201.6125 55.628124 202.55 55.628124Q203.47188 55.628124 204.05 55.846874Q204.62813 56.065624 204.89375 56.39375Q205.175 56.721874 205.28438 57.2375Q205.34688 57.55 205.34688 58.3625L205.34688 60.003124Q205.34688 61.721874 205.425 62.175Q205.50313 62.628124 205.7375 63.05L204.45625 63.05Q204.26875 62.659374 204.20625 62.159374ZM204.1125 59.409374Q203.44063 59.675 202.09688 59.878124Q201.34688 59.9875 201.01875 60.128124Q200.70625 60.253124 200.53438 60.51875Q200.3625 60.784374 200.3625 61.096874Q200.3625 61.596874 200.7375 61.925Q201.1125 62.253124 201.83125 62.253124Q202.55 62.253124 203.09688 61.940624Q203.64375 61.628124 203.90938 61.08125Q204.1125 60.675 204.1125 59.8625L204.1125 59.409374ZM207.45625 63.05L207.45625 55.784374L208.56563 55.784374L208.56563 56.89375Q208.9875 56.1125 209.34688 55.878124Q209.70625 55.628124 210.14375 55.628124Q210.76875 55.628124 211.40938 56.01875L210.9875 57.159374Q210.53438 56.89375 210.08125 56.89375Q209.675 56.89375 209.34688 57.14375Q209.03438 57.378124 208.89375 57.815624Q208.69063 58.471874 208.69063 59.253124L208.69063 63.05L207.45625 63.05ZM212.90938 63.05L212.90938 55.784374L214.12813 55.784374L214.12813 63.05L212.90938 63.05ZM212.84688 54.89375L213.75313 52.971874L215.37813 52.971874L213.8625 54.89375L212.84688 54.89375ZM218.15938 61.95625L218.33125 63.034374Q217.81563 63.14375 217.40938 63.14375Q216.7375 63.14375 216.3625 62.940624Q216.00313 62.721874 215.84688 62.378124Q215.70625 62.034374 215.70625 60.925L215.70625 56.753124L214.8 56.753124L214.8 55.784374L215.70625 55.784374L215.70625 53.9875L216.925 53.253124L216.925 55.784374L218.15938 55.784374L218.15938 56.753124L216.925 56.753124L216.925 60.9875Q216.925 61.51875 216.9875 61.675Q217.05 61.815624 217.19063 61.909374Q217.34688 62.003124 217.6125 62.003124Q217.83125 62.003124 218.15938 61.95625ZM219.47188 63.05L219.47188 55.784374L220.58125 55.784374L220.58125 56.815624Q220.90938 56.26875 221.47188 55.95625Q222.05 55.628124 222.76875 55.628124Q223.58125 55.628124 224.09688 55.971874Q224.6125 56.3 224.83125 56.89375Q225.69063 55.628124 227.06563 55.628124Q228.14375 55.628124 228.72188 56.221874Q229.31563 56.815624 229.31563 58.065624L229.31563 63.05L228.08125 63.05L228.08125 58.471874Q228.08125 57.7375 227.95625 57.409374Q227.84688 57.08125 227.53438 56.89375Q227.22188 56.690624 226.8 56.690624Q226.03438 56.690624 225.51875 57.20625Q225.01875 57.70625 225.01875 58.83125L225.01875 63.05L223.78438 63.05L223.78438 58.33125Q223.78438 57.51875 223.4875 57.1125Q223.19063 56.690624 222.50313 56.690624Q221.9875 56.690624 221.53438 56.971874Q221.09688 57.2375 220.89375 57.76875Q220.70625 58.284374 220.70625 59.284374L220.70625 63.05L219.47188 63.05ZM230.4875 54.440624L230.4875 53.034374L231.70625 53.034374L231.70625 54.440624L230.4875 54.440624ZM230.4875 63.05L230.4875 55.784374L231.70625 55.784374L231.70625 63.05L230.4875 63.05ZM238.20625 60.39375L239.425 60.55Q239.22188 61.8 238.39375 62.51875Q237.58125 63.221874 236.39375 63.221874Q234.90938 63.221874 234.00313 62.253124Q233.09688 61.26875 233.09688 59.440624Q233.09688 58.26875 233.4875 57.39375Q233.87813 56.503124 234.675 56.065624Q235.47188 55.628124 236.40938 55.628124Q237.58125 55.628124 238.33125 56.221874Q239.09688 56.815624 239.3 57.925L238.1125 58.1125Q237.94063 57.378124 237.50313 57.01875Q237.06563 56.64375 236.45625 56.64375Q235.51875 56.64375 234.94063 57.315624Q234.3625 57.971874 234.3625 59.409374Q234.3625 60.878124 234.925 61.55Q235.4875 62.20625 236.37813 62.20625Q237.1125 62.20625 237.59688 61.76875Q238.08125 61.315624 238.20625 60.39375ZM245.20625 62.159374Q244.53438 62.7375 243.89375 62.9875Q243.26875 63.221874 242.53438 63.221874Q241.34688 63.221874 240.69063 62.64375Q240.05 62.05 240.05 61.128124Q240.05 60.596874 240.28438 60.159374Q240.53438 59.721874 240.925 59.45625Q241.33125 59.190624 241.81563 59.05Q242.175 58.95625 242.90938 58.8625Q244.40938 58.690624 245.1125 58.440624Q245.1125 58.190624 245.1125 58.128124Q245.1125 57.3625 244.76875 57.065624Q244.3 56.64375 243.3625 56.64375Q242.50313 56.64375 242.08125 56.95625Q241.675 57.253124 241.47188 58.01875L240.26875 57.8625Q240.425 57.08125 240.8 56.6125Q241.19063 56.14375 241.89375 55.89375Q242.6125 55.628124 243.55 55.628124Q244.47188 55.628124 245.05 55.846874Q245.62813 56.065624 245.89375 56.39375Q246.175 56.721874 246.28438 57.2375Q246.34688 57.55 246.34688 58.3625L246.34688 60.003124Q246.34688 61.721874 246.425 62.175Q246.50313 62.628124 246.7375 63.05L245.45625 63.05Q245.26875 62.659374 245.20625 62.159374ZM245.1125 59.409374Q244.44063 59.675 243.09688 59.878124Q242.34688 59.9875 242.01875 60.128124Q241.70625 60.253124 241.53438 60.51875Q241.3625 60.784374 241.3625 61.096874Q241.3625 61.596874 241.7375 61.925Q242.1125 62.253124 242.83125 62.253124Q243.55 62.253124 244.09688 61.940624Q244.64375 61.628124 244.90938 61.08125Q245.1125 60.675 245.1125 59.8625L245.1125 59.409374Z" fill-rule="nonzero"/><path fill="#757575" d="M201.67188 37.55L201.67188 25.659374L197.4375 25.659374L197.4375 23.2375L208.8125 23.2375L208.8125 25.659374L204.5625 25.659374L204.5625 37.55L201.67188 37.55ZM217.4375 34.253124L220.17188 34.70625Q219.65625 36.20625 218.51562 37.003124Q217.375 37.784374 215.67188 37.784374Q212.95312 37.784374 211.65625 36.01875Q210.64062 34.596874 210.64062 32.440624Q210.64062 29.8625 211.98438 28.409374Q213.32812 26.940624 215.39062 26.940624Q217.70312 26.940624 219.03125 28.471874Q220.375 30.003124 220.32812 33.159374L213.45312 33.159374Q213.48438 34.378124 214.10938 35.065624Q214.75 35.7375 215.6875 35.7375Q216.34375 35.7375 216.78125 35.39375Q217.21875 35.034374 217.4375 34.253124ZM217.59375 31.471874Q217.5625 30.284374 216.96875 29.675Q216.39062 29.05 215.5625 29.05Q214.65625 29.05 214.07812 29.690624Q213.48438 30.346874 213.5 31.471874L217.59375 31.471874ZM222.23438 27.175L224.76562 27.175L224.76562 28.596874Q226.125 26.940624 228.0 26.940624Q228.98438 26.940624 229.71875 27.3625Q230.45312 27.76875 230.92188 28.596874Q231.60938 27.76875 232.39062 27.3625Q233.1875 26.940624 234.09375 26.940624Q235.23438 26.940624 236.01562 27.409374Q236.8125 27.878124 237.20312 28.76875Q237.48438 29.440624 237.48438 30.925L237.48438 37.55L234.73438 37.55L234.73438 31.628124Q234.73438 30.08125 234.45312 29.628124Q234.07812 29.05 233.28125 29.05Q232.70312 29.05 232.1875 29.409374Q231.6875 29.753124 231.46875 30.425Q231.25 31.096874 231.25 32.565624L231.25 37.55L228.5 37.55L228.5 31.8625Q228.5 30.346874 228.34375 29.909374Q228.20312 29.471874 227.89062 29.26875Q227.59375 29.05 227.0625 29.05Q226.4375 29.05 225.92188 29.39375Q225.42188 29.721874 225.1875 30.378124Q224.96875 31.01875 224.96875 32.503124L224.96875 37.55L222.23438 37.55L222.23438 27.175ZM239.35938 27.175L241.92188 27.175L241.92188 28.70625Q242.42188 27.925 243.26562 27.440624Q244.10938 26.940624 245.15625 26.940624Q246.95312 26.940624 248.20312 28.3625Q249.46875 29.76875 249.46875 32.3Q249.46875 34.909374 248.20312 36.346874Q246.9375 37.784374 245.125 37.784374Q244.26562 37.784374 243.5625 37.440624Q242.875 37.096874 242.10938 36.26875L242.10938 41.503124L239.35938 41.503124L239.35938 27.175ZM242.07812 32.190624Q242.07812 33.940624 242.76562 34.784374Q243.45312 35.6125 244.45312 35.6125Q245.40625 35.6125 246.04688 34.846874Q246.6875 34.065624 246.6875 32.33125Q246.6875 30.690624 246.03125 29.909374Q245.375 29.1125 244.40625 29.1125Q243.40625 29.1125 242.73438 29.89375Q242.07812 30.659374 242.07812 32.190624ZM250.79688 32.221874Q250.79688 30.846874 251.46875 29.565624Q252.15625 28.284374 253.39062 27.6125Q254.625 26.940624 256.14062 26.940624Q258.5 26.940624 260.0 28.471874Q261.5 30.003124 261.5 32.33125Q261.5 34.690624 259.98438 36.2375Q258.46875 37.784374 256.15625 37.784374Q254.73438 37.784374 253.4375 37.14375Q252.15625 36.4875 251.46875 35.253124Q250.79688 34.003124 250.79688 32.221874ZM253.60938 32.3625Q253.60938 33.909374 254.34375 34.7375Q255.07812 35.55 256.15625 35.55Q257.23438 35.55 257.95312 34.7375Q258.6875 33.909374 258.6875 32.346874Q258.6875 30.815624 257.95312 30.003124Q257.23438 29.175 256.15625 29.175Q255.07812 29.175 254.34375 30.003124Q253.60938 30.815624 253.60938 32.3625ZM269.125 33.7375L269.125 30.9875L274.51562 30.9875L274.51562 33.7375L269.125 33.7375ZM281.375 37.55L281.375 23.2375L284.26562 23.2375L284.26562 37.55L281.375 37.55ZM295.875 37.55L293.125 37.55L293.125 32.253124Q293.125 30.58125 292.95312 30.096874Q292.78125 29.596874 292.375 29.33125Q291.98438 29.05 291.42188 29.05Q290.71875 29.05 290.14062 29.440624Q289.57812 29.83125 289.35938 30.471874Q289.15625 31.1125 289.15625 32.846874L289.15625 37.55L286.42188 37.55L286.42188 27.175L288.96875 27.175L288.96875 28.70625Q290.32812 26.940624 292.39062 26.940624Q293.29688 26.940624 294.04688 27.26875Q294.79688 27.596874 295.17188 28.1125Q295.5625 28.6125 295.71875 29.26875Q295.875 29.909374 295.875 31.096874L295.875 37.55ZM297.46875 34.596874L300.21875 34.175Q300.40625 34.971874 300.9375 35.39375Q301.46875 35.8 302.4375 35.8Q303.5 35.8 304.04688 35.409374Q304.40625 35.14375 304.40625 34.675Q304.40625 34.3625 304.20312 34.159374Q304.0 33.971874 303.29688 33.8Q299.96875 33.065624 299.07812 32.45625Q297.84375 31.628124 297.84375 30.128124Q297.84375 28.784374 298.90625 27.8625Q299.98438 26.940624 302.21875 26.940624Q304.34375 26.940624 305.375 27.64375Q306.42188 28.33125 306.8125 29.690624L304.21875 30.159374Q304.04688 29.565624 303.57812 29.2375Q303.125 28.909374 302.26562 28.909374Q301.1875 28.909374 300.71875 29.221874Q300.40625 29.440624 300.40625 29.76875Q300.40625 30.065624 300.67188 30.26875Q301.04688 30.55 303.23438 31.05Q305.42188 31.55 306.29688 32.26875Q307.15625 33.003124 307.15625 34.3Q307.15625 35.7375 305.96875 36.76875Q304.78125 37.784374 302.4375 37.784374Q300.32812 37.784374 299.07812 36.925Q297.84375 36.065624 297.46875 34.596874ZM315.4375 34.253124L318.17188 34.70625Q317.65625 36.20625 316.51562 37.003124Q315.375 37.784374 313.67188 37.784374Q310.95312 37.784374 309.65625 36.01875Q308.64062 34.596874 308.64062 32.440624Q308.64062 29.8625 309.98438 28.409374Q311.32812 26.940624 313.39062 26.940624Q315.70312 26.940624 317.03125 28.471874Q318.375 30.003124 318.32812 33.159374L311.45312 33.159374Q311.48438 34.378124 312.10938 35.065624Q312.75 35.7375 313.6875 35.7375Q314.34375 35.7375 314.78125 35.39375Q315.21875 35.034374 315.4375 34.253124ZM315.59375 31.471874Q315.5625 30.284374 314.96875 29.675Q314.39062 29.05 313.5625 29.05Q312.65625 29.05 312.07812 29.690624Q311.48438 30.346874 311.5 31.471874L315.59375 31.471874ZM323.0625 37.55L320.3125 37.55L320.3125 27.175L322.875 27.175L322.875 28.659374Q323.51562 27.6125 324.03125 27.284374Q324.5625 26.940624 325.23438 26.940624Q326.17188 26.940624 327.03125 27.45625L326.1875 29.846874Q325.5 29.409374 324.90625 29.409374Q324.32812 29.409374 323.92188 29.721874Q323.51562 30.034374 323.28125 30.878124Q323.0625 31.70625 323.0625 34.346874L323.0625 37.55ZM333.1875 27.175L333.1875 29.3625L331.3125 29.3625L331.3125 33.55Q331.3125 34.815624 331.35938 35.034374Q331.42188 35.2375 331.60938 35.378124Q331.8125 35.503124 332.07812 35.503124Q332.45312 35.503124 333.1875 35.2375L333.42188 37.378124Q332.45312 37.784374 331.25 37.784374Q330.5 37.784374 329.90625 37.534374Q329.3125 37.284374 329.03125 36.89375Q328.76562 36.4875 328.65625 35.815624Q328.5625 35.346874 328.5625 33.89375L328.5625 29.3625L327.29688 29.3625L327.29688 27.175L328.5625 27.175L328.5625 25.1125L331.3125 23.51875L331.3125 27.175L333.1875 27.175ZM335.4375 25.76875L335.4375 23.2375L338.1875 23.2375L338.1875 25.76875L335.4375 25.76875ZM335.4375 37.55L335.4375 27.175L338.1875 27.175L338.1875 37.55L335.4375 37.55ZM339.79688 32.221874Q339.79688 30.846874 340.46875 29.565624Q341.15625 28.284374 342.39062 27.6125Q343.625 26.940624 345.14062 26.940624Q347.5 26.940624 349.0 28.471874Q350.5 30.003124 350.5 32.33125Q350.5 34.690624 348.98438 36.2375Q347.46875 37.784374 345.15625 37.784374Q343.73438 37.784374 342.4375 37.14375Q341.15625 36.4875 340.46875 35.253124Q339.79688 34.003124 339.79688 32.221874ZM342.60938 32.3625Q342.60938 33.909374 343.34375 34.7375Q344.07812 35.55 345.15625 35.55Q346.23438 35.55 346.95312 34.7375Q347.6875 33.909374 347.6875 32.346874Q347.6875 30.815624 346.95312 30.003124Q346.23438 29.175 345.15625 29.175Q344.07812 29.175 343.34375 30.003124Q342.60938 30.815624 342.60938 32.3625ZM361.875 37.55L359.125 37.55L359.125 32.253124Q359.125 30.58125 358.95312 30.096874Q358.78125 29.596874 358.375 29.33125Q357.98438 29.05 357.42188 29.05Q356.71875 29.05 356.14062 29.440624Q355.57812 29.83125 355.35938 30.471874Q355.15625 31.1125 355.15625 32.846874L355.15625 37.55L352.42188 37.55L352.42188 27.175L354.96875 27.175L354.96875 28.70625Q356.32812 26.940624 358.39062 26.940624Q359.29688 26.940624 360.04688 27.26875Q360.79688 27.596874 361.17188 28.1125Q361.5625 28.6125 361.71875 29.26875Q361.875 29.909374 361.875 31.096874L361.875 37.55ZM363.71875 32.89375L366.53125 32.6125Q366.79688 34.034374 367.5625 34.70625Q368.34375 35.3625 369.65625 35.3625Q371.0625 35.3625 371.76562 34.76875Q372.46875 34.175 372.46875 33.39375Q372.46875 32.878124 372.17188 32.534374Q371.875 32.175 371.14062 31.909374Q370.625 31.721874 368.82812 31.284374Q366.5 30.70625 365.5625 29.8625Q364.23438 28.675 364.23438 26.9875Q364.23438 25.89375 364.85938 24.940624Q365.48438 23.9875 366.64062 23.4875Q367.8125 22.9875 369.46875 22.9875Q372.15625 22.9875 373.51562 24.175Q374.89062 25.346874 374.95312 27.33125L372.0625 27.45625Q371.875 26.346874 371.26562 25.8625Q370.65625 25.378124 369.4375 25.378124Q368.17188 25.378124 367.46875 25.89375Q367.0 26.2375 367.0 26.784374Q367.0 27.3 367.4375 27.659374Q367.98438 28.1125 370.09375 28.6125Q372.20312 29.1125 373.20312 29.64375Q374.21875 30.175 374.78125 31.096874Q375.35938 32.01875 375.35938 33.378124Q375.35938 34.6125 374.67188 35.690624Q374.0 36.753124 372.75 37.284374Q371.5 37.8 369.625 37.8Q366.92188 37.8 365.45312 36.55Q364.0 35.3 363.71875 32.89375ZM376.79688 32.221874Q376.79688 30.846874 377.46875 29.565624Q378.15625 28.284374 379.39062 27.6125Q380.625 26.940624 382.14062 26.940624Q384.5 26.940624 386.0 28.471874Q387.5 30.003124 387.5 32.33125Q387.5 34.690624 385.98438 36.2375Q384.46875 37.784374 382.15625 37.784374Q380.73438 37.784374 379.4375 37.14375Q378.15625 36.4875 377.46875 35.253124Q376.79688 34.003124 376.79688 32.221874ZM379.60938 32.3625Q379.60938 33.909374 380.34375 34.7375Q381.07812 35.55 382.15625 35.55Q383.23438 35.55 383.95312 34.7375Q384.6875 33.909374 384.6875 32.346874Q384.6875 30.815624 383.95312 30.003124Q383.23438 29.175 382.15625 29.175Q381.07812 29.175 380.34375 30.003124Q379.60938 30.815624 379.60938 32.3625ZM392.0625 37.55L389.3125 37.55L389.3125 27.175L391.875 27.175L391.875 28.659374Q392.51562 27.6125 393.03125 27.284374Q393.5625 26.940624 394.23438 26.940624Q395.17188 26.940624 396.03125 27.45625L395.1875 29.846874Q394.5 29.409374 393.90625 29.409374Q393.32812 29.409374 392.92188 29.721874Q392.51562 30.034374 392.28125 30.878124Q392.0625 31.70625 392.0625 34.346874L392.0625 37.55ZM402.1875 27.175L402.1875 29.3625L400.3125 29.3625L400.3125 33.55Q400.3125 34.815624 400.35938 35.034374Q400.42188 35.2375 400.60938 35.378124Q400.8125 35.503124 401.07812 35.503124Q401.45312 35.503124 402.1875 35.2375L402.42188 37.378124Q401.45312 37.784374 400.25 37.784374Q399.5 37.784374 398.90625 37.534374Q398.3125 37.284374 398.03125 36.89375Q397.76562 36.4875 397.65625 35.815624Q397.5625 35.346874 397.5625 33.89375L397.5625 29.3625L396.29688 29.3625L396.29688 27.175L397.5625 27.175L397.5625 25.1125L400.3125 23.51875L400.3125 27.175L402.1875 27.175Z" fill-rule="nonzero"/></svg>