<svg version="1.1" viewBox="0.0 0.0 600.0 371.0" fill="none" stroke="none" stroke-linecap="square" stroke-miterlimit="10" width="600" height="371" xmlns:xlink="http://www.w3.org/1999/xlink" xmlns="http://www.w3.org/2000/svg"><path fill="#ffffff" d="M0 0L600.0 0L600.0 371.0L0 371.0L0 0Z" fill-rule="nonzero"/><path stroke="#cccccc" stroke-width="1.0" stroke-linecap="butt" d="M177.5 85.5L177.5 300.5" fill-rule="nonzero"/><path stroke="#cccccc" stroke-width="1.0" stroke-linecap="butt" d="M278.5 85.5L278.5 300.5" fill-rule="nonzero"/><path stroke="#cccccc" stroke-width="1.0" stroke-linecap="butt" d="M379.5 85.5L379.5 300.5" fill-rule="nonzero"/><path stroke="#cccccc" stroke-width="1.0" stroke-linecap="butt" d="M480.5 85.5L480.5 300.5" fill-rule="nonzero"/><path stroke="#cccccc" stroke-width="1.0" stroke-linecap="butt" d="M581.5 85.5L581.5 300.5" fill-rule="nonzero"/><path stroke="#cccccc" stroke-width="1.0" stroke-linecap="butt" d="M77.5 300.5L581.5 300.5" fill-rule="nonzero"/><path stroke="#cccccc" stroke-width="1.0" stroke-linecap="butt" d="M77.5 244.5L581.5 244.5" fill-rule="nonzero"/><path stroke="#cccccc" stroke-width="1.0" stroke-linecap="butt" d="M77.5 219.5L581.5 219.5" fill-rule="nonzero"/><path stroke="#cccccc" stroke-width="1.0" stroke-linecap="butt" d="M77.5 163.5L581.5 163.5" fill-rule="nonzero"/><path stroke="#cccccc" stroke-width="1.0" stroke-linecap="butt" d="M77.5 139.5L581.5 139.5" fill-rule="nonzero"/><clipPath id="id_0"><path d="M77.55 85.416664L581.45 85.416664L581.45 300.45L77.55 300.45L77.55 85.416664Z" clip-rule="nonzero"/></clipPath><path stroke="#4285f4" stroke-width="2.0" stroke-linecap="butt" clip-path="url(#id_0)" d="M79.56762 300.45C79.56762 300.45 81.24896 281.82074 82.08964 276.22504C82.93031 270.62933 95.54042 217.52098 102.265816 201.43135C108.99121 185.3417 119.07929 180.13339 127.48604 174.25116C135.89278 168.36893 261.99387 123.35358 329.2478 109.34545C396.5017 95.337326 581.45 85.416664 581.45 85.416664" fill-rule="nonzero"/><path fill="#000000" fill-opacity="0.0" clip-path="url(#id_0)" d="M82.56762 300.45C82.56762 302.10684 81.22447 303.45 79.56762 303.45C77.91077 303.45 76.56762 302.10684 76.56762 300.45C76.56762 298.79315 77.91077 297.45 79.56762 297.45C81.22447 297.45 82.56762 298.79315 82.56762 300.45Z" fill-rule="nonzero"/><path fill="#000000" fill-opacity="0.0" clip-path="url(#id_0)" d="M85.08964 276.22504C85.08964 277.8819 83.74649 279.22504 82.08964 279.22504C80.432785 279.22504 79.08964 277.8819 79.08964 276.22504C79.08964 274.56818 80.432785 273.22504 82.08964 273.22504C83.74649 273.22504 85.08964 274.56818 85.08964 276.22504Z" fill-rule="nonzero"/><path fill="#000000" fill-opacity="0.0" clip-path="url(#id_0)" d="M105.265816 201.43135C105.265816 203.0882 103.92267 204.43135 102.265816 204.43135C100.60896 204.43135 99.265816 203.0882 99.265816 201.43135C99.265816 199.77449 100.60896 198.43135 102.265816 198.43135C103.92267 198.43135 105.265816 199.77449 105.265816 201.43135Z" fill-rule="nonzero"/><path fill="#000000" fill-opacity="0.0" clip-path="url(#id_0)" d="M130.48604 174.25116C130.48604 175.90802 129.14288 177.25116 127.48604 177.25116C125.829185 177.25116 124.48604 175.90802 124.48604 174.25116C124.48604 172.59431 125.829185 171.25116 127.48604 171.25116C129.14288 171.25116 130.48604 172.59431 130.48604 174.25116Z" fill-rule="nonzero"/><path fill="#000000" fill-opacity="0.0" clip-path="url(#id_0)" d="M332.2478 109.34545C332.2478 111.002304 330.90466 112.34545 329.2478 112.34545C327.59094 112.34545 326.2478 111.002304 326.2478 109.34545C326.2478 107.6886 327.59094 106.34545 329.2478 106.34545C330.90466 106.34545 332.2478 107.6886 332.2478 109.34545Z" fill-rule="nonzero"/><path fill="#000000" fill-opacity="0.0" clip-path="url(#id_0)" d="M584.45 85.416664C584.45 87.073524 583.1069 88.416664 581.45 88.416664C579.79315 88.416664 578.45 87.073524 578.45 85.416664C578.45 83.75981 579.79315 82.416664 581.45 82.416664C583.1069 82.416664 584.45 83.75981 584.45 85.416664Z" fill-rule="nonzero"/><path fill="#000000" d="M266.10938 349.45L266.10938 341.8719L263.28125 341.8719L263.28125 340.85626L270.09375 340.85626L270.09375 341.8719L267.25 341.8719L267.25 349.45L266.10938 349.45ZM274.85938 348.6844Q274.26562 349.1844 273.71875 349.3875Q273.1875 349.59064 272.5625 349.59064Q271.53125 349.59064 270.98438 349.09064Q270.4375 348.59064 270.4375 347.8094Q270.4375 347.35626 270.64062 346.98126Q270.84375 346.59064 271.1875 346.3719Q271.53125 346.1375 271.95312 346.02814Q272.25 345.9344 272.89062 345.85626Q274.15625 345.71564 274.76562 345.4969Q274.76562 345.27814 274.76562 345.23126Q274.76562 344.575 274.46875 344.3094Q274.0625 343.96564 273.26562 343.96564Q272.53125 343.96564 272.17188 344.23126Q271.8125 344.48126 271.64062 345.1375L270.60938 344.9969Q270.75 344.34064 271.07812 343.9344Q271.40625 343.52814 272.01562 343.3094Q272.625 343.09064 273.42188 343.09064Q274.21875 343.09064 274.71875 343.27814Q275.21875 343.46564 275.45312 343.7469Q275.6875 344.02814 275.78125 344.46564Q275.82812 344.73126 275.82812 345.4344L275.82812 346.84064Q275.82812 348.3094 275.89062 348.7Q275.96875 349.09064 276.17188 349.45L275.0625 349.45Q274.90625 349.1219 274.85938 348.6844ZM274.76562 346.325Q274.1875 346.5594 273.04688 346.73126Q272.39062 346.825 272.125 346.95Q271.85938 347.0594 271.70312 347.27814Q271.5625 347.4969 271.5625 347.77814Q271.5625 348.2 271.875 348.48126Q272.20312 348.7625 272.8125 348.7625Q273.42188 348.7625 273.89062 348.4969Q274.375 348.23126 274.59375 347.7625Q274.76562 347.40314 274.76562 346.71564L274.76562 346.325ZM277.79688 349.45L277.79688 343.23126L278.73438 343.23126L278.73438 344.10626Q279.03125 343.6375 279.51562 343.3719Q280.0 343.09064 280.625 343.09064Q281.3125 343.09064 281.75 343.3719Q282.20312 343.65314 282.375 344.16876Q283.125 343.09064 284.29688 343.09064Q285.23438 343.09064 285.71875 343.60626Q286.21875 344.10626 286.21875 345.1844L286.21875 349.45L285.17188 349.45L285.17188 345.52814Q285.17188 344.90314 285.0625 344.6219Q284.96875 344.34064 284.70312 344.16876Q284.4375 343.9969 284.0625 343.9969Q283.40625 343.9969 282.96875 344.4344Q282.54688 344.8719 282.54688 345.84064L282.54688 349.45L281.48438 349.45L281.48438 345.40314Q281.48438 344.7 281.21875 344.35626Q280.96875 343.9969 280.39062 343.9969Q279.9375 343.9969 279.5625 344.23126Q279.1875 344.46564 279.01562 344.91876Q278.84375 345.3719 278.84375 346.21564L278.84375 349.45L277.79688 349.45ZM292.85938 348.6844Q292.26562 349.1844 291.71875 349.3875Q291.1875 349.59064 290.5625 349.59064Q289.53125 349.59064 288.98438 349.09064Q288.4375 348.59064 288.4375 347.8094Q288.4375 347.35626 288.64062 346.98126Q288.84375 346.59064 289.1875 346.3719Q289.53125 346.1375 289.95312 346.02814Q290.25 345.9344 290.89062 345.85626Q292.15625 345.71564 292.76562 345.4969Q292.76562 345.27814 292.76562 345.23126Q292.76562 344.575 292.46875 344.3094Q292.0625 343.96564 291.26562 343.96564Q290.53125 343.96564 290.17188 344.23126Q289.8125 344.48126 289.64062 345.1375L288.60938 344.9969Q288.75 344.34064 289.07812 343.9344Q289.40625 343.52814 290.01562 343.3094Q290.625 343.09064 291.42188 343.09064Q292.21875 343.09064 292.71875 343.27814Q293.21875 343.46564 293.45312 343.7469Q293.6875 344.02814 293.78125 344.46564Q293.82812 344.73126 293.82812 345.4344L293.82812 346.84064Q293.82812 348.3094 293.89062 348.7Q293.96875 349.09064 294.17188 349.45L293.0625 349.45Q292.90625 349.1219 292.85938 348.6844ZM292.76562 346.325Q292.1875 346.5594 291.04688 346.73126Q290.39062 346.825 290.125 346.95Q289.85938 347.0594 289.70312 347.27814Q289.5625 347.4969 289.5625 347.77814Q289.5625 348.2 289.875 348.48126Q290.20312 348.7625 290.8125 348.7625Q291.42188 348.7625 291.89062 348.4969Q292.375 348.23126 292.59375 347.7625Q292.76562 347.40314 292.76562 346.71564L292.76562 346.325ZM295.79688 349.45L295.79688 343.23126L296.73438 343.23126L296.73438 344.10626Q297.42188 343.09064 298.71875 343.09064Q299.28125 343.09064 299.75 343.29376Q300.23438 343.4969 300.46875 343.825Q300.70312 344.15314 300.79688 344.59064Q300.84375 344.8875 300.84375 345.6219L300.84375 349.45L299.79688 349.45L299.79688 345.66876Q299.79688 345.0125 299.67188 344.7Q299.54688 344.3875 299.23438 344.2Q298.92188 343.9969 298.5 343.9969Q297.82812 343.9969 297.32812 344.4344Q296.84375 344.85626 296.84375 346.04376L296.84375 349.45L295.79688 349.45ZM302.79688 349.45L302.79688 340.85626L303.84375 340.85626L303.84375 343.9344Q304.57812 343.09064 305.70312 343.09064Q306.40625 343.09064 306.90625 343.3719Q307.42188 343.6375 307.64062 344.1219Q307.85938 344.59064 307.85938 345.5125L307.85938 349.45L306.8125 349.45L306.8125 345.5125Q306.8125 344.71564 306.46875 344.35626Q306.125 343.9969 305.5 343.9969Q305.03125 343.9969 304.60938 344.2469Q304.20312 344.48126 304.01562 344.90314Q303.84375 345.3094 303.84375 346.04376L303.84375 349.45L302.79688 349.45ZM309.40625 346.34064Q309.40625 344.60626 310.35938 343.77814Q311.15625 343.09064 312.3125 343.09064Q313.59375 343.09064 314.40625 343.9344Q315.23438 344.7625 315.23438 346.2469Q315.23438 347.45 314.875 348.1375Q314.51562 348.825 313.8125 349.21564Q313.125 349.59064 312.3125 349.59064Q311.01562 349.59064 310.20312 348.7625Q309.40625 347.91876 309.40625 346.34064ZM310.48438 346.34064Q310.48438 347.52814 311.0 348.1219Q311.53125 348.71564 312.3125 348.71564Q313.10938 348.71564 313.625 348.1219Q314.14062 347.52814 314.14062 346.3094Q314.14062 345.15314 313.60938 344.5594Q313.09375 343.96564 312.3125 343.96564Q311.53125 343.96564 311.0 344.5594Q310.48438 345.1375 310.48438 346.34064ZM323.82812 349.45L323.82812 348.66876Q323.23438 349.59064 322.09375 349.59064Q321.34375 349.59064 320.71875 349.1844Q320.09375 348.7625 319.75 348.02814Q319.40625 347.29376 319.40625 346.34064Q319.40625 345.41876 319.71875 344.65314Q320.03125 343.8875 320.65625 343.4969Q321.28125 343.09064 322.04688 343.09064Q322.60938 343.09064 323.04688 343.325Q323.48438 343.5594 323.76562 343.9344L323.76562 340.85626L324.8125 340.85626L324.8125 349.45L323.82812 349.45ZM320.5 346.34064Q320.5 347.54376 321.0 348.1375Q321.5 348.71564 322.1875 348.71564Q322.875 348.71564 323.35938 348.15314Q323.84375 347.59064 323.84375 346.4344Q323.84375 345.15314 323.34375 344.5594Q322.85938 343.96564 322.14062 343.96564Q321.4375 343.96564 320.96875 344.54376Q320.5 345.10626 320.5 346.34064ZM330.85938 348.6844Q330.26562 349.1844 329.71875 349.3875Q329.1875 349.59064 328.5625 349.59064Q327.53125 349.59064 326.98438 349.09064Q326.4375 348.59064 326.4375 347.8094Q326.4375 347.35626 326.64062 346.98126Q326.84375 346.59064 327.1875 346.3719Q327.53125 346.1375 327.95312 346.02814Q328.25 345.9344 328.89062 345.85626Q330.15625 345.71564 330.76562 345.4969Q330.76562 345.27814 330.76562 345.23126Q330.76562 344.575 330.46875 344.3094Q330.0625 343.96564 329.26562 343.96564Q328.53125 343.96564 328.17188 344.23126Q327.8125 344.48126 327.64062 345.1375L326.60938 344.9969Q326.75 344.34064 327.07812 343.9344Q327.40625 343.52814 328.01562 343.3094Q328.625 343.09064 329.42188 343.09064Q330.21875 343.09064 330.71875 343.27814Q331.21875 343.46564 331.45312 343.7469Q331.6875 344.02814 331.78125 344.46564Q331.82812 344.73126 331.82812 345.4344L331.82812 346.84064Q331.82812 348.3094 331.89062 348.7Q331.96875 349.09064 332.17188 349.45L331.0625 349.45Q330.90625 349.1219 330.85938 348.6844ZM330.76562 346.325Q330.1875 346.5594 329.04688 346.73126Q328.39062 346.825 328.125 346.95Q327.85938 347.0594 327.70312 347.27814Q327.5625 347.4969 327.5625 347.77814Q327.5625 348.2 327.875 348.48126Q328.20312 348.7625 328.8125 348.7625Q329.42188 348.7625 329.89062 348.4969Q330.375 348.23126 330.59375 347.7625Q330.76562 347.40314 330.76562 346.71564L330.76562 346.325ZM341.04688 347.45L342.14062 347.575Q341.89062 348.52814 341.1875 349.0594Q340.48438 349.59064 339.40625 349.59064Q338.04688 349.59064 337.23438 348.7469Q336.4375 347.90314 336.4375 346.3875Q336.4375 344.825 337.25 343.96564Q338.0625 343.09064 339.34375 343.09064Q340.59375 343.09064 341.375 343.9344Q342.17188 344.77814 342.17188 346.325Q342.17188 346.41876 342.17188 346.60626L337.53125 346.60626Q337.59375 347.6375 338.10938 348.1844Q338.625 348.71564 339.40625 348.71564Q339.98438 348.71564 340.39062 348.41876Q340.8125 348.10626 341.04688 347.45ZM337.59375 345.7469L341.0625 345.7469Q341.0 344.95 340.67188 344.5594Q340.15625 343.95 339.35938 343.95Q338.625 343.95 338.125 344.4344Q337.64062 344.91876 337.59375 345.7469ZM343.79688 349.45L343.79688 343.23126L344.73438 343.23126L344.73438 344.10626Q345.42188 343.09064 346.71875 343.09064Q347.28125 343.09064 347.75 343.29376Q348.23438 343.4969 348.46875 343.825Q348.70312 344.15314 348.79688 344.59064Q348.84375 344.8875 348.84375 345.6219L348.84375 349.45L347.79688 349.45L347.79688 345.66876Q347.79688 345.0125 347.67188 344.7Q347.54688 344.3875 347.23438 344.2Q346.92188 343.9969 346.5 343.9969Q345.82812 343.9969 345.32812 344.4344Q344.84375 344.85626 344.84375 346.04376L344.84375 349.45L343.79688 349.45ZM353.09375 348.5125L353.25 349.4344Q352.79688 349.52814 352.45312 349.52814Q351.875 349.52814 351.5625 349.35626Q351.25 349.16876 351.10938 348.8719Q350.98438 348.575 350.98438 347.6219L350.98438 344.04376L350.21875 344.04376L350.21875 343.23126L350.98438 343.23126L350.98438 341.6844L352.03125 341.0594L352.03125 343.23126L353.09375 343.23126L353.09375 344.04376L352.03125 344.04376L352.03125 347.6844Q352.03125 348.1375 352.07812 348.2625Q352.14062 348.3875 352.26562 348.46564Q352.39062 348.54376 352.625 348.54376Q352.8125 348.54376 353.09375 348.5125ZM353.78125 349.45L353.78125 343.23126L354.73438 343.23126L354.73438 344.16876Q355.09375 343.5125 355.39062 343.3094Q355.70312 343.09064 356.07812 343.09064Q356.60938 343.09064 357.15625 343.41876L356.79688 344.40314Q356.40625 344.16876 356.03125 344.16876Q355.67188 344.16876 355.39062 344.3875Q355.125 344.59064 355.01562 344.96564Q354.82812 345.52814 354.82812 346.1844L354.82812 349.45L353.78125 349.45ZM361.85938 348.6844Q361.26562 349.1844 360.71875 349.3875Q360.1875 349.59064 359.5625 349.59064Q358.53125 349.59064 357.98438 349.09064Q357.4375 348.59064 357.4375 347.8094Q357.4375 347.35626 357.64062 346.98126Q357.84375 346.59064 358.1875 346.3719Q358.53125 346.1375 358.95312 346.02814Q359.25 345.9344 359.89062 345.85626Q361.15625 345.71564 361.76562 345.4969Q361.76562 345.27814 361.76562 345.23126Q361.76562 344.575 361.46875 344.3094Q361.0625 343.96564 360.26562 343.96564Q359.53125 343.96564 359.17188 344.23126Q358.8125 344.48126 358.64062 345.1375L357.60938 344.9969Q357.75 344.34064 358.07812 343.9344Q358.40625 343.52814 359.01562 343.3094Q359.625 343.09064 360.42188 343.09064Q361.21875 343.09064 361.71875 343.27814Q362.21875 343.46564 362.45312 343.7469Q362.6875 344.02814 362.78125 344.46564Q362.82812 344.73126 362.82812 345.4344L362.82812 346.84064Q362.82812 348.3094 362.89062 348.7Q362.96875 349.09064 363.17188 349.45L362.0625 349.45Q361.90625 349.1219 361.85938 348.6844ZM361.76562 346.325Q361.1875 346.5594 360.04688 346.73126Q359.39062 346.825 359.125 346.95Q358.85938 347.0594 358.70312 347.27814Q358.5625 347.4969 358.5625 347.77814Q358.5625 348.2 358.875 348.48126Q359.20312 348.7625 359.8125 348.7625Q360.42188 348.7625 360.89062 348.4969Q361.375 348.23126 361.59375 347.7625Q361.76562 347.40314 361.76562 346.71564L361.76562 346.325ZM368.82812 349.45L368.82812 348.66876Q368.23438 349.59064 367.09375 349.59064Q366.34375 349.59064 365.71875 349.1844Q365.09375 348.7625 364.75 348.02814Q364.40625 347.29376 364.40625 346.34064Q364.40625 345.41876 364.71875 344.65314Q365.03125 343.8875 365.65625 343.4969Q366.28125 343.09064 367.04688 343.09064Q367.60938 343.09064 368.04688 343.325Q368.48438 343.5594 368.76562 343.9344L368.76562 340.85626L369.8125 340.85626L369.8125 349.45L368.82812 349.45ZM365.5 346.34064Q365.5 347.54376 366.0 348.1375Q366.5 348.71564 367.1875 348.71564Q367.875 348.71564 368.35938 348.15314Q368.84375 347.59064 368.84375 346.4344Q368.84375 345.15314 368.34375 344.5594Q367.85938 343.96564 367.14062 343.96564Q366.4375 343.96564 365.96875 344.54376Q365.5 345.10626 365.5 346.34064ZM375.85938 348.6844Q375.26562 349.1844 374.71875 349.3875Q374.1875 349.59064 373.5625 349.59064Q372.53125 349.59064 371.98438 349.09064Q371.4375 348.59064 371.4375 347.8094Q371.4375 347.35626 371.64062 346.98126Q371.84375 346.59064 372.1875 346.3719Q372.53125 346.1375 372.95312 346.02814Q373.25 345.9344 373.89062 345.85626Q375.15625 345.71564 375.76562 345.4969Q375.76562 345.27814 375.76562 345.23126Q375.76562 344.575 375.46875 344.3094Q375.0625 343.96564 374.26562 343.96564Q373.53125 343.96564 373.17188 344.23126Q372.8125 344.48126 372.64062 345.1375L371.60938 344.9969Q371.75 344.34064 372.07812 343.9344Q372.40625 343.52814 373.01562 343.3094Q373.625 343.09064 374.42188 343.09064Q375.21875 343.09064 375.71875 343.27814Q376.21875 343.46564 376.45312 343.7469Q376.6875 344.02814 376.78125 344.46564Q376.82812 344.73126 376.82812 345.4344L376.82812 346.84064Q376.82812 348.3094 376.89062 348.7Q376.96875 349.09064 377.17188 349.45L376.0625 349.45Q375.90625 349.1219 375.85938 348.6844ZM375.76562 346.325Q375.1875 346.5594 374.04688 346.73126Q373.39062 346.825 373.125 346.95Q372.85938 347.0594 372.70312 347.27814Q372.5625 347.4969 372.5625 347.77814Q372.5625 348.2 372.875 348.48126Q373.20312 348.7625 373.8125 348.7625Q374.42188 348.7625 374.89062 348.4969Q375.375 348.23126 375.59375 347.7625Q375.76562 347.40314 375.76562 346.71564L375.76562 346.325ZM383.8125 351.98126Q382.9375 350.8719 382.32812 349.40314Q381.73438 347.91876 381.73438 346.34064Q381.73438 344.95 382.17188 343.66876Q382.70312 342.1844 383.8125 340.71564L384.5625 340.71564Q383.85938 341.9344 383.625 342.45Q383.26562 343.2625 383.0625 344.1375Q382.8125 345.23126 382.8125 346.34064Q382.8125 349.16876 384.5625 351.98126L383.8125 351.98126ZM385.79688 349.45L385.79688 343.23126L386.73438 343.23126L386.73438 344.10626Q387.42188 343.09064 388.71875 343.09064Q389.28125 343.09064 389.75 343.29376Q390.23438 343.4969 390.46875 343.825Q390.70312 344.15314 390.79688 344.59064Q390.84375 344.8875 390.84375 345.6219L390.84375 349.45L389.79688 349.45L389.79688 345.66876Q389.79688 345.0125 389.67188 344.7Q389.54688 344.3875 389.23438 344.2Q388.92188 343.9969 388.5 343.9969Q387.82812 343.9969 387.32812 344.4344Q386.84375 344.85626 386.84375 346.04376L386.84375 349.45L385.79688 349.45ZM393.48438 351.98126L392.73438 351.98126Q394.48438 349.16876 394.48438 346.34064Q394.48438 345.2469 394.23438 344.15314Q394.03125 343.27814 393.67188 342.46564Q393.4375 341.95 392.73438 340.71564L393.48438 340.71564Q394.57812 342.1844 395.10938 343.66876Q395.5625 344.95 395.5625 346.34064Q395.5625 347.91876 394.95312 349.40314Q394.34375 350.8719 393.48438 351.98126Z" fill-rule="nonzero"/><path fill="#000000" d="M29.550013 230.32396L21.971888 230.32396L21.971888 233.15208L20.956263 233.15208L20.956263 226.33958L21.971888 226.33958L21.971888 229.18333L29.550013 229.18333L29.550013 230.32396ZM27.550013 221.38646L27.675013 220.29271Q28.628138 220.54271 29.159388 221.24583Q29.690638 221.94896 29.690638 223.02708Q29.690638 224.38646 28.846888 225.19896Q28.003138 225.99583 26.487513 225.99583Q24.925013 225.99583 24.065638 225.18333Q23.190638 224.37083 23.190638 223.08958Q23.190638 221.83958 24.034388 221.05833Q24.878138 220.26146 26.425013 220.26146Q26.518763 220.26146 26.706263 220.26146L26.706263 224.90208Q27.737513 224.83958 28.284388 224.32396Q28.815638 223.80833 28.815638 223.02708Q28.815638 222.44896 28.518763 222.04271Q28.206263 221.62083 27.550013 221.38646ZM25.846888 224.83958L25.846888 221.37083Q25.050013 221.43333 24.659388 221.76146Q24.050013 222.27708 24.050013 223.07396Q24.050013 223.80833 24.534388 224.30833Q25.018763 224.79271 25.846888 224.83958ZM29.550013 218.63646L23.331263 218.63646L23.331263 217.69896L24.206263 217.69896Q23.737513 217.40208 23.471888 216.91771Q23.190638 216.43333 23.190638 215.80833Q23.190638 215.12083 23.471888 214.68333Q23.753138 214.23021 24.268763 214.05833Q23.190638 213.30833 23.190638 212.13646Q23.190638 211.19896 23.706263 210.71458Q24.206263 210.21458 25.284388 210.21458L29.550013 210.21458L29.550013 211.26146L25.628138 211.26146Q25.003138 211.26146 24.721888 211.37083Q24.440638 211.46458 24.268763 211.73021Q24.096888 211.99583 24.096888 212.37083Q24.096888 213.02708 24.534388 213.46458Q24.971888 213.88646 25.940638 213.88646L29.550013 213.88646L29.550013 214.94896L25.503138 214.94896Q24.800013 214.94896 24.456263 215.21458Q24.096888 215.46458 24.096888 216.04271Q24.096888 216.49583 24.331263 216.87083Q24.565638 217.24583 25.018763 217.41771Q25.471888 217.58958 26.315638 217.58958L29.550013 217.58958L29.550013 218.63646ZM31.940638 207.63646L23.331263 207.63646L23.331263 206.68333L24.128138 206.68333Q23.659388 206.33958 23.425013 205.91771Q23.190638 205.48021 23.190638 204.87083Q23.190638 204.07396 23.596888 203.46458Q24.003138 202.85521 24.753138 202.55833Q25.503138 202.24583 26.393763 202.24583Q27.346888 202.24583 28.112513 202.58958Q28.878138 202.91771 29.284388 203.57396Q29.690638 204.23021 29.690638 204.94896Q29.690638 205.48021 29.471888 205.90208Q29.237513 206.32396 28.909388 206.58958L31.940638 206.58958L31.940638 207.63646ZM26.471888 206.68333Q27.675013 206.68333 28.253138 206.19896Q28.815638 205.71458 28.815638 205.02708Q28.815638 204.32396 28.221888 203.82396Q27.628138 203.32396 26.378138 203.32396Q25.190638 203.32396 24.612513 203.80833Q24.018763 204.29271 24.018763 204.98021Q24.018763 205.65208 24.643763 206.16771Q25.268763 206.68333 26.471888 206.68333ZM26.440638 201.02708Q24.706263 201.02708 23.878138 200.07396Q23.190638 199.27708 23.190638 198.12083Q23.190638 196.83958 24.034388 196.02708Q24.862513 195.19896 26.346888 195.19896Q27.550013 195.19896 28.237513 195.55833Q28.925013 195.91771 29.315638 196.62083Q29.690638 197.30833 29.690638 198.12083Q29.690638 199.41771 28.862513 200.23021Q28.018763 201.02708 26.440638 201.02708ZM26.440638 199.94896Q27.628138 199.94896 28.221888 199.43333Q28.815638 198.90208 28.815638 198.12083Q28.815638 197.32396 28.221888 196.80833Q27.628138 196.29271 26.409388 196.29271Q25.253138 196.29271 24.659388 196.82396Q24.065638 197.33958 24.065638 198.12083Q24.065638 198.90208 24.659388 199.43333Q25.237513 199.94896 26.440638 199.94896ZM32.08126 188.62083Q30.971888 189.49583 29.503138 190.10521Q28.018763 190.69896 26.440638 190.69896Q25.050013 190.69896 23.768763 190.26146Q22.284388 189.73021 20.815638 188.62083L20.815638 187.87083Q22.034388 188.57396 22.550013 188.80833Q23.362513 189.16771 24.237513 189.37083Q25.331263 189.62083 26.440638 189.62083Q29.268763 189.62083 32.08126 187.87083L32.08126 188.62083ZM29.550013 186.63646L23.331263 186.63646L23.331263 185.69896L24.206263 185.69896Q23.737513 185.40208 23.471888 184.91771Q23.190638 184.43333 23.190638 183.80833Q23.190638 183.12083 23.471888 182.68333Q23.753138 182.23021 24.268763 182.05833Q23.190638 181.30833 23.190638 180.13646Q23.190638 179.19896 23.706263 178.71458Q24.206263 178.21458 25.284388 178.21458L29.550013 178.21458L29.550013 179.26146L25.628138 179.26146Q25.003138 179.26146 24.721888 179.37083Q24.440638 179.46458 24.268763 179.73021Q24.096888 179.99583 24.096888 180.37083Q24.096888 181.02708 24.534388 181.46458Q24.971888 181.88646 25.940638 181.88646L29.550013 181.88646L29.550013 182.94896L25.503138 182.94896Q24.800013 182.94896 24.456263 183.21458Q24.096888 183.46458 24.096888 184.04271Q24.096888 184.49583 24.331263 184.87083Q24.565638 185.24583 25.018763 185.41771Q25.471888 185.58958 26.315638 185.58958L29.550013 185.58958L29.550013 186.63646ZM27.690638 176.05833L27.534388 175.02708Q28.159388 174.93333 28.487513 174.54271Q28.815638 174.13646 28.815638 173.40208Q28.815638 172.68333 28.534388 172.33958Q28.237513 171.98021 27.831263 171.98021Q27.471888 171.98021 27.268763 172.29271Q27.128138 172.51146 26.909388 173.37083Q26.612513 174.52708 26.409388 174.98021Q26.190638 175.41771 25.815638 175.65208Q25.440638 175.88646 24.971888 175.88646Q24.565638 175.88646 24.206263 175.69896Q23.846888 175.51146 23.612513 175.18333Q23.440638 174.93333 23.315638 174.51146Q23.190638 174.08958 23.190638 173.58958Q23.190638 172.87083 23.409388 172.32396Q23.612513 171.76146 23.971888 171.49583Q24.331263 171.23021 24.925013 171.13646L25.065638 172.16771Q24.596888 172.23021 24.331263 172.57396Q24.050013 172.90208 24.050013 173.52708Q24.050013 174.24583 24.300013 174.55833Q24.534388 174.87083 24.862513 174.87083Q25.065638 174.87083 25.221888 174.74583Q25.393763 174.60521 25.503138 174.33958Q25.565638 174.18333 25.768763 173.40208Q26.081263 172.27708 26.268763 171.83958Q26.456263 171.40208 26.815638 171.15208Q27.175013 170.90208 27.721888 170.90208Q28.253138 170.90208 28.721888 171.21458Q29.175013 171.51146 29.440638 172.08958Q29.690638 172.66771 29.690638 173.40208Q29.690638 174.62083 29.190638 175.26146Q28.675013 175.88646 27.690638 176.05833ZM32.08126 167.94896L32.08126 168.69896Q29.268763 166.94896 26.440638 166.94896Q25.346888 166.94896 24.253138 167.19896Q23.378138 167.40208 22.565638 167.76146Q22.050013 167.99583 20.815638 168.69896L20.815638 167.94896Q22.284388 166.85521 23.768763 166.32396Q25.050013 165.87083 26.440638 165.87083Q28.018763 165.87083 29.503138 166.48021Q30.971888 167.08958 32.08126 167.94896Z" fill-rule="nonzero"/><path fill="#000000" d="M69.01875 304.45L67.97188 304.45L67.97188 297.73126Q67.58125 298.09064 66.95625 298.46564Q66.34688 298.825 65.8625 298.9969L65.8625 297.98126Q66.7375 297.5594 67.39375 296.98126Q68.06563 296.3875 68.34688 295.825L69.01875 295.825L69.01875 304.45Z" fill-rule="nonzero"/><path fill="#000000" d="M65.05 245.95137L66.15938 245.85762Q66.28438 246.67012 66.72188 247.07637Q67.175 247.48262 67.81563 247.48262Q68.56563 247.48262 69.09688 246.9045Q69.62813 246.32637 69.62813 245.38887Q69.62813 244.48262 69.1125 243.967Q68.6125 243.43575 67.78438 243.43575Q67.28438 243.43575 66.8625 243.67012Q66.45625 243.9045 66.22188 244.26387L65.2375 244.13887L66.06563 239.73262L70.34688 239.73262L70.34688 240.73262L66.90938 240.73262L66.45625 243.04512Q67.22188 242.49825 68.06563 242.49825Q69.19063 242.49825 69.95625 243.2795Q70.7375 244.06075 70.7375 245.29512Q70.7375 246.45137 70.06563 247.31075Q69.2375 248.342 67.81563 248.342Q66.64375 248.342 65.89375 247.68575Q65.15938 247.0295 65.05 245.95137Z" fill-rule="nonzero"/><path fill="#000000" d="M62.01875 223.9764L60.971874 223.9764L60.971874 217.25764Q60.58125 217.61702 59.95625 217.99202Q59.346874 218.3514 58.8625 218.52327L58.8625 217.50764Q59.7375 217.08577 60.39375 216.50764Q61.065624 215.9139 61.346874 215.3514L62.01875 215.3514L62.01875 223.9764ZM65.05 219.74202Q65.05 218.21077 65.3625 217.2889Q65.675 216.3514 66.28438 215.8514Q66.90938 215.3514 67.84688 215.3514Q68.53438 215.3514 69.05 215.63264Q69.58125 215.9139 69.925 216.44514Q70.26875 216.96077 70.45625 217.71077Q70.64375 218.46077 70.64375 219.74202Q70.64375 221.25764 70.33125 222.17952Q70.03438 223.1014 69.40938 223.61702Q68.8 224.11702 67.84688 224.11702Q66.6125 224.11702 65.89375 223.2264Q65.05 222.1639 65.05 219.74202ZM66.12813 219.74202Q66.12813 221.8514 66.62813 222.55452Q67.12813 223.25764 67.84688 223.25764Q68.58125 223.25764 69.06563 222.55452Q69.56563 221.8514 69.56563 219.74202Q69.56563 217.61702 69.06563 216.92952Q68.58125 216.2264 67.83125 216.2264Q67.1125 216.2264 66.675 216.83577Q66.12813 217.61702 66.12813 219.74202Z" fill-rule="nonzero"/><path fill="#000000" d="M58.05 165.47777L59.159374 165.38402Q59.284374 166.19652 59.721874 166.60277Q60.175 167.00902 60.815624 167.00902Q61.565624 167.00902 62.096874 166.4309Q62.628124 165.85277 62.628124 164.91527Q62.628124 164.00902 62.1125 163.4934Q61.6125 162.96214 60.784374 162.96214Q60.284374 162.96214 59.8625 163.19652Q59.45625 163.4309 59.221874 163.79027L58.2375 163.66527L59.065624 159.25902L63.346874 159.25902L63.346874 160.25902L59.909374 160.25902L59.45625 162.57152Q60.221874 162.02464 61.065624 162.02464Q62.190624 162.02464 62.95625 162.8059Q63.7375 163.58714 63.7375 164.82152Q63.7375 165.97777 63.065624 166.83714Q62.2375 167.8684 60.815624 167.8684Q59.64375 167.8684 58.89375 167.21214Q58.159374 166.5559 58.05 165.47777ZM65.05 163.4934Q65.05 161.96214 65.3625 161.04027Q65.675 160.10277 66.28438 159.60277Q66.90938 159.10277 67.84688 159.10277Q68.53438 159.10277 69.05 159.38402Q69.58125 159.66527 69.925 160.19652Q70.26875 160.71214 70.45625 161.46214Q70.64375 162.21214 70.64375 163.4934Q70.64375 165.00902 70.33125 165.9309Q70.03438 166.85277 69.40938 167.3684Q68.8 167.8684 67.84688 167.8684Q66.6125 167.8684 65.89375 166.97777Q65.05 165.91527 65.05 163.4934ZM66.12813 163.4934Q66.12813 165.60277 66.62813 166.3059Q67.12813 167.00902 67.84688 167.00902Q68.58125 167.00902 69.06563 166.3059Q69.56563 165.60277 69.56563 163.4934Q69.56563 161.3684 69.06563 160.6809Q68.58125 159.97777 67.83125 159.97777Q67.1125 159.97777 66.675 160.58714Q66.12813 161.3684 66.12813 163.4934Z" fill-rule="nonzero"/><path fill="#000000" d="M55.01875 143.5028L53.971874 143.5028L53.971874 136.78406Q53.58125 137.14343 52.95625 137.51843Q52.346874 137.8778 51.8625 138.04968L51.8625 137.03406Q52.7375 136.61218 53.39375 136.03406Q54.065624 135.4403 54.346874 134.8778L55.01875 134.8778L55.01875 143.5028ZM58.05 139.26843Q58.05 137.73718 58.3625 136.8153Q58.675 135.8778 59.284374 135.3778Q59.909374 134.8778 60.846874 134.8778Q61.534374 134.8778 62.05 135.15906Q62.58125 135.4403 62.925 135.97156Q63.26875 136.48718 63.45625 137.23718Q63.64375 137.98718 63.64375 139.26843Q63.64375 140.78406 63.33125 141.70593Q63.034374 142.6278 62.409374 143.14343Q61.8 143.64343 60.846874 143.64343Q59.6125 143.64343 58.89375 142.7528Q58.05 141.6903 58.05 139.26843ZM59.128124 139.26843Q59.128124 141.3778 59.628124 142.08093Q60.128124 142.78406 60.846874 142.78406Q61.58125 142.78406 62.065624 142.08093Q62.565624 141.3778 62.565624 139.26843Q62.565624 137.14343 62.065624 136.45593Q61.58125 135.7528 60.83125 135.7528Q60.1125 135.7528 59.675 136.36218Q59.128124 137.14343 59.128124 139.26843ZM65.05 139.26843Q65.05 137.73718 65.3625 136.8153Q65.675 135.8778 66.28438 135.3778Q66.90938 134.8778 67.84688 134.8778Q68.53438 134.8778 69.05 135.15906Q69.58125 135.4403 69.925 135.97156Q70.26875 136.48718 70.45625 137.23718Q70.64375 137.98718 70.64375 139.26843Q70.64375 140.78406 70.33125 141.70593Q70.03438 142.6278 69.40938 143.14343Q68.8 143.64343 67.84688 143.64343Q66.6125 143.64343 65.89375 142.7528Q65.05 141.6903 65.05 139.26843ZM66.12813 139.26843Q66.12813 141.3778 66.62813 142.08093Q67.12813 142.78406 67.84688 142.78406Q68.58125 142.78406 69.06563 142.08093Q69.56563 141.3778 69.56563 139.26843Q69.56563 137.14343 69.06563 136.45593Q68.58125 135.7528 67.83125 135.7528Q67.1125 135.7528 66.675 136.36218Q66.12813 137.14343 66.12813 139.26843Z" fill-rule="nonzero"/><path fill="#000000" d="M162.97336 316.4344L162.97336 317.45L157.28586 317.45Q157.28586 317.075 157.41086 316.71564Q157.62961 316.1375 158.09836 315.575Q158.58273 315.0125 159.48898 314.27814Q160.89523 313.1219 161.37961 312.45Q161.87961 311.77814 161.87961 311.1844Q161.87961 310.5594 161.42648 310.1375Q160.97336 309.7 160.25461 309.7Q159.48898 309.7 159.03586 310.15314Q158.58273 310.60626 158.56711 311.41876L157.48898 311.3094Q157.59836 310.09064 158.31711 309.46564Q159.05148 308.825 160.28586 308.825Q161.52023 308.825 162.23898 309.5125Q162.95773 310.2 162.95773 311.21564Q162.95773 311.73126 162.73898 312.23126Q162.53586 312.71564 162.03586 313.27814Q161.55148 313.825 160.42648 314.77814Q159.47336 315.575 159.19211 315.8719Q158.92648 316.15314 158.75461 316.4344L162.97336 316.4344ZM164.42648 313.21564Q164.42648 311.6844 164.73898 310.7625Q165.05148 309.825 165.66086 309.325Q166.28586 308.825 167.22336 308.825Q167.91086 308.825 168.42648 309.10626Q168.95773 309.3875 169.30148 309.91876Q169.64523 310.4344 169.83273 311.1844Q170.02023 311.9344 170.02023 313.21564Q170.02023 314.73126 169.70773 315.65314Q169.41086 316.575 168.78586 317.09064Q168.17648 317.59064 167.22336 317.59064Q165.98898 317.59064 165.27023 316.7Q164.42648 315.6375 164.42648 313.21564ZM165.50461 313.21564Q165.50461 315.325 166.00461 316.02814Q166.50461 316.73126 167.22336 316.73126Q167.95773 316.73126 168.44211 316.02814Q168.94211 315.325 168.94211 313.21564Q168.94211 311.09064 168.44211 310.40314Q167.95773 309.7 167.20773 309.7Q166.48898 309.7 166.05148 310.3094Q165.50461 311.09064 165.50461 313.21564ZM171.42648 313.21564Q171.42648 311.6844 171.73898 310.7625Q172.05148 309.825 172.66086 309.325Q173.28586 308.825 174.22336 308.825Q174.91086 308.825 175.42648 309.10626Q175.95773 309.3875 176.30148 309.91876Q176.64523 310.4344 176.83273 311.1844Q177.02023 311.9344 177.02023 313.21564Q177.02023 314.73126 176.70773 315.65314Q176.41086 316.575 175.78586 317.09064Q175.17648 317.59064 174.22336 317.59064Q172.98898 317.59064 172.27023 316.7Q171.42648 315.6375 171.42648 313.21564ZM172.50461 313.21564Q172.50461 315.325 173.00461 316.02814Q173.50461 316.73126 174.22336 316.73126Q174.95773 316.73126 175.44211 316.02814Q175.94211 315.325 175.94211 313.21564Q175.94211 311.09064 175.44211 310.40314Q174.95773 309.7 174.20773 309.7Q173.48898 309.7 173.05148 310.3094Q172.50461 311.09064 172.50461 313.21564ZM178.42648 313.21564Q178.42648 311.6844 178.73898 310.7625Q179.05148 309.825 179.66086 309.325Q180.28586 308.825 181.22336 308.825Q181.91086 308.825 182.42648 309.10626Q182.95773 309.3875 183.30148 309.91876Q183.64523 310.4344 183.83273 311.1844Q184.02023 311.9344 184.02023 313.21564Q184.02023 314.73126 183.70773 315.65314Q183.41086 316.575 182.78586 317.09064Q182.17648 317.59064 181.22336 317.59064Q179.98898 317.59064 179.27023 316.7Q178.42648 315.6375 178.42648 313.21564ZM179.50461 313.21564Q179.50461 315.325 180.00461 316.02814Q180.50461 316.73126 181.22336 316.73126Q181.95773 316.73126 182.44211 316.02814Q182.94211 315.325 182.94211 313.21564Q182.94211 311.09064 182.44211 310.40314Q181.95773 309.7 181.20773 309.7Q180.48898 309.7 180.05148 310.3094Q179.50461 311.09064 179.50461 313.21564ZM185.42648 313.21564Q185.42648 311.6844 185.73898 310.7625Q186.05148 309.825 186.66086 309.325Q187.28586 308.825 188.22336 308.825Q188.91086 308.825 189.42648 309.10626Q189.95773 309.3875 190.30148 309.91876Q190.64523 310.4344 190.83273 311.1844Q191.02023 311.9344 191.02023 313.21564Q191.02023 314.73126 190.70773 315.65314Q190.41086 316.575 189.78586 317.09064Q189.17648 317.59064 188.22336 317.59064Q186.98898 317.59064 186.27023 316.7Q185.42648 315.6375 185.42648 313.21564ZM186.50461 313.21564Q186.50461 315.325 187.00461 316.02814Q187.50461 316.73126 188.22336 316.73126Q188.95773 316.73126 189.44211 316.02814Q189.94211 315.325 189.94211 313.21564Q189.94211 311.09064 189.44211 310.40314Q188.95773 309.7 188.20773 309.7Q187.48898 309.7 187.05148 310.3094Q186.50461 311.09064 186.50461 313.21564ZM192.42648 313.21564Q192.42648 311.6844 192.73898 310.7625Q193.05148 309.825 193.66086 309.325Q194.28586 308.825 195.22336 308.825Q195.91086 308.825 196.42648 309.10626Q196.95773 309.3875 197.30148 309.91876Q197.64523 310.4344 197.83273 311.1844Q198.02023 311.9344 198.02023 313.21564Q198.02023 314.73126 197.70773 315.65314Q197.41086 316.575 196.78586 317.09064Q196.17648 317.59064 195.22336 317.59064Q193.98898 317.59064 193.27023 316.7Q192.42648 315.6375 192.42648 313.21564ZM193.50461 313.21564Q193.50461 315.325 194.00461 316.02814Q194.50461 316.73126 195.22336 316.73126Q195.95773 316.73126 196.44211 316.02814Q196.94211 315.325 196.94211 313.21564Q196.94211 311.09064 196.44211 310.40314Q195.95773 309.7 195.20773 309.7Q194.48898 309.7 194.05148 310.3094Q193.50461 311.09064 193.50461 313.21564Z" fill-rule="nonzero"/><path fill="#000000" d="M261.68234 317.45L261.68234 315.3875L257.9636 315.3875L257.9636 314.41876L261.88547 308.85626L262.74484 308.85626L262.74484 314.41876L263.9011 314.41876L263.9011 315.3875L262.74484 315.3875L262.74484 317.45L261.68234 317.45ZM261.68234 314.41876L261.68234 310.5594L258.99484 314.41876L261.68234 314.41876ZM265.30734 313.21564Q265.30734 311.6844 265.61984 310.7625Q265.93234 309.825 266.54172 309.325Q267.16672 308.825 268.10422 308.825Q268.79172 308.825 269.30734 309.10626Q269.8386 309.3875 270.18234 309.91876Q270.5261 310.4344 270.7136 311.1844Q270.9011 311.9344 270.9011 313.21564Q270.9011 314.73126 270.5886 315.65314Q270.29172 316.575 269.66672 317.09064Q269.05734 317.59064 268.10422 317.59064Q266.86984 317.59064 266.1511 316.7Q265.30734 315.6375 265.30734 313.21564ZM266.38547 313.21564Q266.38547 315.325 266.88547 316.02814Q267.38547 316.73126 268.10422 316.73126Q268.8386 316.73126 269.32297 316.02814Q269.82297 315.325 269.82297 313.21564Q269.82297 311.09064 269.32297 310.40314Q268.8386 309.7 268.0886 309.7Q267.36984 309.7 266.93234 310.3094Q266.38547 311.09064 266.38547 313.21564ZM272.30734 313.21564Q272.30734 311.6844 272.61984 310.7625Q272.93234 309.825 273.54172 309.325Q274.16672 308.825 275.10422 308.825Q275.79172 308.825 276.30734 309.10626Q276.8386 309.3875 277.18234 309.91876Q277.5261 310.4344 277.7136 311.1844Q277.9011 311.9344 277.9011 313.21564Q277.9011 314.73126 277.5886 315.65314Q277.29172 316.575 276.66672 317.09064Q276.05734 317.59064 275.10422 317.59064Q273.86984 317.59064 273.1511 316.7Q272.30734 315.6375 272.30734 313.21564ZM273.38547 313.21564Q273.38547 315.325 273.88547 316.02814Q274.38547 316.73126 275.10422 316.73126Q275.8386 316.73126 276.32297 316.02814Q276.82297 315.325 276.82297 313.21564Q276.82297 311.09064 276.32297 310.40314Q275.8386 309.7 275.0886 309.7Q274.36984 309.7 273.93234 310.3094Q273.38547 311.09064 273.38547 313.21564ZM279.30734 313.21564Q279.30734 311.6844 279.61984 310.7625Q279.93234 309.825 280.54172 309.325Q281.16672 308.825 282.10422 308.825Q282.79172 308.825 283.30734 309.10626Q283.8386 309.3875 284.18234 309.91876Q284.5261 310.4344 284.7136 311.1844Q284.9011 311.9344 284.9011 313.21564Q284.9011 314.73126 284.5886 315.65314Q284.29172 316.575 283.66672 317.09064Q283.05734 317.59064 282.10422 317.59064Q280.86984 317.59064 280.1511 316.7Q279.30734 315.6375 279.30734 313.21564ZM280.38547 313.21564Q280.38547 315.325 280.88547 316.02814Q281.38547 316.73126 282.10422 316.73126Q282.8386 316.73126 283.32297 316.02814Q283.82297 315.325 283.82297 313.21564Q283.82297 311.09064 283.32297 310.40314Q282.8386 309.7 282.0886 309.7Q281.36984 309.7 280.93234 310.3094Q280.38547 311.09064 280.38547 313.21564ZM286.30734 313.21564Q286.30734 311.6844 286.61984 310.7625Q286.93234 309.825 287.54172 309.325Q288.16672 308.825 289.10422 308.825Q289.79172 308.825 290.30734 309.10626Q290.8386 309.3875 291.18234 309.91876Q291.5261 310.4344 291.7136 311.1844Q291.9011 311.9344 291.9011 313.21564Q291.9011 314.73126 291.5886 315.65314Q291.29172 316.575 290.66672 317.09064Q290.05734 317.59064 289.10422 317.59064Q287.86984 317.59064 287.1511 316.7Q286.30734 315.6375 286.30734 313.21564ZM287.38547 313.21564Q287.38547 315.325 287.88547 316.02814Q288.38547 316.73126 289.10422 316.73126Q289.8386 316.73126 290.32297 316.02814Q290.82297 315.325 290.82297 313.21564Q290.82297 311.09064 290.32297 310.40314Q289.8386 309.7 289.0886 309.7Q288.36984 309.7 287.93234 310.3094Q287.38547 311.09064 287.38547 313.21564ZM293.30734 313.21564Q293.30734 311.6844 293.61984 310.7625Q293.93234 309.825 294.54172 309.325Q295.16672 308.825 296.10422 308.825Q296.79172 308.825 297.30734 309.10626Q297.8386 309.3875 298.18234 309.91876Q298.5261 310.4344 298.7136 311.1844Q298.9011 311.9344 298.9011 313.21564Q298.9011 314.73126 298.5886 315.65314Q298.29172 316.575 297.66672 317.09064Q297.05734 317.59064 296.10422 317.59064Q294.86984 317.59064 294.1511 316.7Q293.30734 315.6375 293.30734 313.21564ZM294.38547 313.21564Q294.38547 315.325 294.88547 316.02814Q295.38547 316.73126 296.10422 316.73126Q296.8386 316.73126 297.32297 316.02814Q297.82297 315.325 297.82297 313.21564Q297.82297 311.09064 297.32297 310.40314Q296.8386 309.7 296.0886 309.7Q295.36984 309.7 294.93234 310.3094Q294.38547 311.09064 294.38547 313.21564Z" fill-rule="nonzero"/><path fill="#000000" d="M364.65698 310.96564L363.6101 311.04376Q363.46948 310.41876 363.21948 310.1375Q362.78198 309.6844 362.15698 309.6844Q361.65698 309.6844 361.26636 309.96564Q360.78198 310.34064 360.4851 311.04376Q360.20386 311.73126 360.18823 313.0125Q360.56323 312.4344 361.1101 312.15314Q361.6726 311.8719 362.28198 311.8719Q363.32886 311.8719 364.06323 312.65314Q364.81323 313.4344 364.81323 314.65314Q364.81323 315.46564 364.45386 316.16876Q364.1101 316.85626 363.50073 317.23126Q362.89136 317.59064 362.12573 317.59064Q360.7976 317.59064 359.96948 316.6219Q359.14136 315.65314 359.14136 313.4344Q359.14136 310.9344 360.06323 309.8094Q360.8601 308.825 362.21948 308.825Q363.2351 308.825 363.87573 309.40314Q364.53198 309.96564 364.65698 310.96564ZM360.3601 314.66876Q360.3601 315.21564 360.57886 315.71564Q360.81323 316.2 361.21948 316.46564Q361.64136 316.73126 362.1101 316.73126Q362.76636 316.73126 363.25073 316.2Q363.7351 315.65314 363.7351 314.73126Q363.7351 313.84064 363.25073 313.325Q362.78198 312.8094 362.06323 312.8094Q361.34448 312.8094 360.84448 313.325Q360.3601 313.84064 360.3601 314.66876ZM366.18823 313.21564Q366.18823 311.6844 366.50073 310.7625Q366.81323 309.825 367.4226 309.325Q368.0476 308.825 368.9851 308.825Q369.6726 308.825 370.18823 309.10626Q370.71948 309.3875 371.06323 309.91876Q371.40698 310.4344 371.59448 311.1844Q371.78198 311.9344 371.78198 313.21564Q371.78198 314.73126 371.46948 315.65314Q371.1726 316.575 370.5476 317.09064Q369.93823 317.59064 368.9851 317.59064Q367.75073 317.59064 367.03198 316.7Q366.18823 315.6375 366.18823 313.21564ZM367.26636 313.21564Q367.26636 315.325 367.76636 316.02814Q368.26636 316.73126 368.9851 316.73126Q369.71948 316.73126 370.20386 316.02814Q370.70386 315.325 370.70386 313.21564Q370.70386 311.09064 370.20386 310.40314Q369.71948 309.7 368.96948 309.7Q368.25073 309.7 367.81323 310.3094Q367.26636 311.09064 367.26636 313.21564ZM373.18823 313.21564Q373.18823 311.6844 373.50073 310.7625Q373.81323 309.825 374.4226 309.325Q375.0476 308.825 375.9851 308.825Q376.6726 308.825 377.18823 309.10626Q377.71948 309.3875 378.06323 309.91876Q378.40698 310.4344 378.59448 311.1844Q378.78198 311.9344 378.78198 313.21564Q378.78198 314.73126 378.46948 315.65314Q378.1726 316.575 377.5476 317.09064Q376.93823 317.59064 375.9851 317.59064Q374.75073 317.59064 374.03198 316.7Q373.18823 315.6375 373.18823 313.21564ZM374.26636 313.21564Q374.26636 315.325 374.76636 316.02814Q375.26636 316.73126 375.9851 316.73126Q376.71948 316.73126 377.20386 316.02814Q377.70386 315.325 377.70386 313.21564Q377.70386 311.09064 377.20386 310.40314Q376.71948 309.7 375.96948 309.7Q375.25073 309.7 374.81323 310.3094Q374.26636 311.09064 374.26636 313.21564ZM380.18823 313.21564Q380.18823 311.6844 380.50073 310.7625Q380.81323 309.825 381.4226 309.325Q382.0476 308.825 382.9851 308.825Q383.6726 308.825 384.18823 309.10626Q384.71948 309.3875 385.06323 309.91876Q385.40698 310.4344 385.59448 311.1844Q385.78198 311.9344 385.78198 313.21564Q385.78198 314.73126 385.46948 315.65314Q385.1726 316.575 384.5476 317.09064Q383.93823 317.59064 382.9851 317.59064Q381.75073 317.59064 381.03198 316.7Q380.18823 315.6375 380.18823 313.21564ZM381.26636 313.21564Q381.26636 315.325 381.76636 316.02814Q382.26636 316.73126 382.9851 316.73126Q383.71948 316.73126 384.20386 316.02814Q384.70386 315.325 384.70386 313.21564Q384.70386 311.09064 384.20386 310.40314Q383.71948 309.7 382.96948 309.7Q382.25073 309.7 381.81323 310.3094Q381.26636 311.09064 381.26636 313.21564ZM387.18823 313.21564Q387.18823 311.6844 387.50073 310.7625Q387.81323 309.825 388.4226 309.325Q389.0476 308.825 389.9851 308.825Q390.6726 308.825 391.18823 309.10626Q391.71948 309.3875 392.06323 309.91876Q392.40698 310.4344 392.59448 311.1844Q392.78198 311.9344 392.78198 313.21564Q392.78198 314.73126 392.46948 315.65314Q392.1726 316.575 391.5476 317.09064Q390.93823 317.59064 389.9851 317.59064Q388.75073 317.59064 388.03198 316.7Q387.18823 315.6375 387.18823 313.21564ZM388.26636 313.21564Q388.26636 315.325 388.76636 316.02814Q389.26636 316.73126 389.9851 316.73126Q390.71948 316.73126 391.20386 316.02814Q391.70386 315.325 391.70386 313.21564Q391.70386 311.09064 391.20386 310.40314Q390.71948 309.7 389.96948 309.7Q389.25073 309.7 388.81323 310.3094Q388.26636 311.09064 388.26636 313.21564ZM394.18823 313.21564Q394.18823 311.6844 394.50073 310.7625Q394.81323 309.825 395.4226 309.325Q396.0476 308.825 396.9851 308.825Q397.6726 308.825 398.18823 309.10626Q398.71948 309.3875 399.06323 309.91876Q399.40698 310.4344 399.59448 311.1844Q399.78198 311.9344 399.78198 313.21564Q399.78198 314.73126 399.46948 315.65314Q399.1726 316.575 398.5476 317.09064Q397.93823 317.59064 396.9851 317.59064Q395.75073 317.59064 395.03198 316.7Q394.18823 315.6375 394.18823 313.21564ZM395.26636 313.21564Q395.26636 315.325 395.76636 316.02814Q396.26636 316.73126 396.9851 316.73126Q397.71948 316.73126 398.20386 316.02814Q398.70386 315.325 398.70386 313.21564Q398.70386 311.09064 398.20386 310.40314Q397.71948 309.7 396.96948 309.7Q396.25073 309.7 395.81323 310.3094Q395.26636 311.09064 395.26636 313.21564Z" fill-rule="nonzero"/><path fill="#000000" d="M461.69412 312.79376Q461.03787 312.54376 460.70975 312.10626Q460.39725 311.65314 460.39725 311.04376Q460.39725 310.10626 461.06912 309.46564Q461.75662 308.825 462.866 308.825Q463.991 308.825 464.6785 309.48126Q465.366 310.1375 465.366 311.075Q465.366 311.66876 465.0535 312.10626Q464.741 312.54376 464.10037 312.79376Q464.89725 313.04376 465.3035 313.6219Q465.70975 314.2 465.70975 314.9969Q465.70975 316.09064 464.9285 316.84064Q464.16287 317.59064 462.88162 317.59064Q461.616 317.59064 460.83475 316.84064Q460.0535 316.09064 460.0535 314.96564Q460.0535 314.1219 460.47537 313.5594Q460.91287 312.9969 461.69412 312.79376ZM461.47537 310.9969Q461.47537 311.60626 461.866 311.9969Q462.27225 312.3875 462.89725 312.3875Q463.50662 312.3875 463.89725 312.0125Q464.28787 311.6219 464.28787 311.0594Q464.28787 310.48126 463.88162 310.09064Q463.47537 309.6844 462.88162 309.6844Q462.27225 309.6844 461.866 310.075Q461.47537 310.46564 461.47537 310.9969ZM461.14725 314.96564Q461.14725 315.41876 461.35037 315.84064Q461.56912 316.2625 461.991 316.4969Q462.41287 316.73126 462.89725 316.73126Q463.64725 316.73126 464.13162 316.2469Q464.63162 315.7625 464.63162 315.0125Q464.63162 314.2469 464.13162 313.7469Q463.63162 313.2469 462.866 313.2469Q462.116 313.2469 461.63162 313.7469Q461.14725 314.23126 461.14725 314.96564ZM467.06912 313.21564Q467.06912 311.6844 467.38162 310.7625Q467.69412 309.825 468.3035 309.325Q468.9285 308.825 469.866 308.825Q470.5535 308.825 471.06912 309.10626Q471.60037 309.3875 471.94412 309.91876Q472.28787 310.4344 472.47537 311.1844Q472.66287 311.9344 472.66287 313.21564Q472.66287 314.73126 472.35037 315.65314Q472.0535 316.575 471.4285 317.09064Q470.81912 317.59064 469.866 317.59064Q468.63162 317.59064 467.91287 316.7Q467.06912 315.6375 467.06912 313.21564ZM468.14725 313.21564Q468.14725 315.325 468.64725 316.02814Q469.14725 316.73126 469.866 316.73126Q470.60037 316.73126 471.08475 316.02814Q471.58475 315.325 471.58475 313.21564Q471.58475 311.09064 471.08475 310.40314Q470.60037 309.7 469.85037 309.7Q469.13162 309.7 468.69412 310.3094Q468.14725 311.09064 468.14725 313.21564ZM474.06912 313.21564Q474.06912 311.6844 474.38162 310.7625Q474.69412 309.825 475.3035 309.325Q475.9285 308.825 476.866 308.825Q477.5535 308.825 478.06912 309.10626Q478.60037 309.3875 478.94412 309.91876Q479.28787 310.4344 479.47537 311.1844Q479.66287 311.9344 479.66287 313.21564Q479.66287 314.73126 479.35037 315.65314Q479.0535 316.575 478.4285 317.09064Q477.81912 317.59064 476.866 317.59064Q475.63162 317.59064 474.91287 316.7Q474.06912 315.6375 474.06912 313.21564ZM475.14725 313.21564Q475.14725 315.325 475.64725 316.02814Q476.14725 316.73126 476.866 316.73126Q477.60037 316.73126 478.08475 316.02814Q478.58475 315.325 478.58475 313.21564Q478.58475 311.09064 478.08475 310.40314Q477.60037 309.7 476.85037 309.7Q476.13162 309.7 475.69412 310.3094Q475.14725 311.09064 475.14725 313.21564ZM481.06912 313.21564Q481.06912 311.6844 481.38162 310.7625Q481.69412 309.825 482.3035 309.325Q482.9285 308.825 483.866 308.825Q484.5535 308.825 485.06912 309.10626Q485.60037 309.3875 485.94412 309.91876Q486.28787 310.4344 486.47537 311.1844Q486.66287 311.9344 486.66287 313.21564Q486.66287 314.73126 486.35037 315.65314Q486.0535 316.575 485.4285 317.09064Q484.81912 317.59064 483.866 317.59064Q482.63162 317.59064 481.91287 316.7Q481.06912 315.6375 481.06912 313.21564ZM482.14725 313.21564Q482.14725 315.325 482.64725 316.02814Q483.14725 316.73126 483.866 316.73126Q484.60037 316.73126 485.08475 316.02814Q485.58475 315.325 485.58475 313.21564Q485.58475 311.09064 485.08475 310.40314Q484.60037 309.7 483.85037 309.7Q483.13162 309.7 482.69412 310.3094Q482.14725 311.09064 482.14725 313.21564ZM488.06912 313.21564Q488.06912 311.6844 488.38162 310.7625Q488.69412 309.825 489.3035 309.325Q489.9285 308.825 490.866 308.825Q491.5535 308.825 492.06912 309.10626Q492.60037 309.3875 492.94412 309.91876Q493.28787 310.4344 493.47537 311.1844Q493.66287 311.9344 493.66287 313.21564Q493.66287 314.73126 493.35037 315.65314Q493.0535 316.575 492.4285 317.09064Q491.81912 317.59064 490.866 317.59064Q489.63162 317.59064 488.91287 316.7Q488.06912 315.6375 488.06912 313.21564ZM489.14725 313.21564Q489.14725 315.325 489.64725 316.02814Q490.14725 316.73126 490.866 316.73126Q491.60037 316.73126 492.08475 316.02814Q492.58475 315.325 492.58475 313.21564Q492.58475 311.09064 492.08475 310.40314Q491.60037 309.7 490.85037 309.7Q490.13162 309.7 489.69412 310.3094Q489.14725 311.09064 489.14725 313.21564ZM495.06912 313.21564Q495.06912 311.6844 495.38162 310.7625Q495.69412 309.825 496.3035 309.325Q496.9285 308.825 497.866 308.825Q498.5535 308.825 499.06912 309.10626Q499.60037 309.3875 499.94412 309.91876Q500.28787 310.4344 500.47537 311.1844Q500.66287 311.9344 500.66287 313.21564Q500.66287 314.73126 500.35037 315.65314Q500.0535 316.575 499.4285 317.09064Q498.81912 317.59064 497.866 317.59064Q496.63162 317.59064 495.91287 316.7Q495.06912 315.6375 495.06912 313.21564ZM496.14725 313.21564Q496.14725 315.325 496.64725 316.02814Q497.14725 316.73126 497.866 316.73126Q498.60037 316.73126 499.08475 316.02814Q499.58475 315.325 499.58475 313.21564Q499.58475 311.09064 499.08475 310.40314Q498.60037 309.7 497.85037 309.7Q497.13162 309.7 496.69412 310.3094Q496.14725 311.09064 496.14725 313.21564Z" fill-rule="nonzero"/><path fill="#999999" d="M19.221874 58.175Q19.221874 55.675 20.565624 54.26875Q21.909374 52.846874 24.01875 52.846874Q25.409374 52.846874 26.51875 53.51875Q27.64375 54.175 28.221874 55.3625Q28.815624 56.55 28.815624 58.05Q28.815624 59.58125 28.190624 60.784374Q27.58125 61.9875 26.45625 62.6125Q25.33125 63.221874 24.01875 63.221874Q22.596874 63.221874 21.4875 62.534374Q20.378124 61.846874 19.8 60.675Q19.221874 59.4875 19.221874 58.175ZM20.596874 58.190624Q20.596874 60.003124 21.565624 61.05Q22.55 62.08125 24.01875 62.08125Q25.503124 62.08125 26.471874 61.034374Q27.440624 59.9875 27.440624 58.05Q27.440624 56.815624 27.01875 55.909374Q26.6125 55.003124 25.815624 54.503124Q25.01875 53.9875 24.034374 53.9875Q22.628124 53.9875 21.6125 54.95625Q20.596874 55.925 20.596874 58.190624ZM34.253124 63.659374L35.440624 63.83125Q35.51875 64.37813 35.8625 64.64375Q36.315624 64.97188 37.1125 64.97188Q37.971874 64.97188 38.425 64.62813Q38.89375 64.3 39.065624 63.675Q39.159374 63.3 39.14375 62.096874Q38.346874 63.05 37.14375 63.05Q35.64375 63.05 34.815624 61.971874Q34.003124 60.89375 34.003124 59.378124Q34.003124 58.346874 34.378124 57.471874Q34.753124 56.58125 35.45625 56.1125Q36.175 55.628124 37.14375 55.628124Q38.425 55.628124 39.26875 56.659374L39.26875 55.784374L40.39375 55.784374L40.39375 62.065624Q40.39375 63.76875 40.05 64.47188Q39.70625 65.175 38.95625 65.58125Q38.20625 66.00313 37.1125 66.00313Q35.815624 66.00313 35.01875 65.40938Q34.221874 64.83125 34.253124 63.659374ZM35.26875 59.284374Q35.26875 60.721874 35.83125 61.378124Q36.39375 62.034374 37.253124 62.034374Q38.096874 62.034374 38.675 61.378124Q39.253124 60.721874 39.253124 59.33125Q39.253124 58.003124 38.659374 57.33125Q38.065624 56.64375 37.2375 56.64375Q36.409374 56.64375 35.83125 57.315624Q35.26875 57.971874 35.26875 59.284374ZM42.45625 63.05L42.45625 55.784374L43.565624 55.784374L43.565624 56.89375Q43.9875 56.1125 44.346874 55.878124Q44.70625 55.628124 45.14375 55.628124Q45.76875 55.628124 46.409374 56.01875L45.9875 57.159374Q45.534374 56.89375 45.08125 56.89375Q44.675 56.89375 44.346874 57.14375Q44.034374 57.378124 43.89375 57.815624Q43.690624 58.471874 43.690624 59.253124L43.690624 63.05L42.45625 63.05ZM52.20625 62.159374Q51.534374 62.7375 50.89375 62.9875Q50.26875 63.221874 49.534374 63.221874Q48.346874 63.221874 47.690624 62.64375Q47.05 62.05 47.05 61.128124Q47.05 60.596874 47.284374 60.159374Q47.534374 59.721874 47.925 59.45625Q48.33125 59.190624 48.815624 59.05Q49.175 58.95625 49.909374 58.8625Q51.409374 58.690624 52.1125 58.440624Q52.1125 58.190624 52.1125 58.128124Q52.1125 57.3625 51.76875 57.065624Q51.3 56.64375 50.3625 56.64375Q49.503124 56.64375 49.08125 56.95625Q48.675 57.253124 48.471874 58.01875L47.26875 57.8625Q47.425 57.08125 47.8 56.6125Q48.190624 56.14375 48.89375 55.89375Q49.6125 55.628124 50.55 55.628124Q51.471874 55.628124 52.05 55.846874Q52.628124 56.065624 52.89375 56.39375Q53.175 56.721874 53.284374 57.2375Q53.346874 57.55 53.346874 58.3625L53.346874 60.003124Q53.346874 61.721874 53.425 62.175Q53.503124 62.628124 53.7375 63.05L52.45625 63.05Q52.26875 62.659374 52.20625 62.159374ZM52.1125 59.409374Q51.440624 59.675 50.096874 59.878124Q49.346874 59.9875 49.01875 60.128124Q48.70625 60.253124 48.534374 60.51875Q48.3625 60.784374 48.3625 61.096874Q48.3625 61.596874 48.7375 61.925Q49.1125 62.253124 49.83125 62.253124Q50.55 62.253124 51.096874 61.940624Q51.64375 61.628124 51.909374 61.08125Q52.1125 60.675 52.1125 59.8625L52.1125 59.409374ZM49.70625 54.89375L50.6125 52.971874L52.2375 52.971874L50.721874 54.89375L49.70625 54.89375ZM55.76875 63.05L55.76875 56.753124L54.675 56.753124L54.675 55.784374L55.76875 55.784374L55.76875 55.01875Q55.76875 54.284374 55.89375 53.925Q56.08125 53.45625 56.51875 53.159374Q56.971874 52.8625 57.784374 52.8625Q58.3 52.8625 58.925 52.9875L58.7375 54.05Q58.3625 53.9875 58.01875 53.9875Q57.45625 53.9875 57.221874 54.221874Q56.9875 54.45625 56.9875 55.1125L56.9875 55.784374L58.409374 55.784374L58.409374 56.753124L56.9875 56.753124L56.9875 63.05L55.76875 63.05ZM59.4875 54.440624L59.4875 53.034374L60.70625 53.034374L60.70625 54.440624L59.4875 54.440624ZM59.4875 63.05L59.4875 55.784374L60.70625 55.784374L60.70625 63.05L59.4875 63.05ZM67.20625 60.39375L68.425 60.55Q68.22188 61.8 67.39375 62.51875Q66.58125 63.221874 65.39375 63.221874Q63.909374 63.221874 63.003124 62.253124Q62.096874 61.26875 62.096874 59.440624Q62.096874 58.26875 62.4875 57.39375Q62.878124 56.503124 63.675 56.065624Q64.47188 55.628124 65.40938 55.628124Q66.58125 55.628124 67.33125 56.221874Q68.09688 56.815624 68.3 57.925L67.1125 58.1125Q66.94063 57.378124 66.50313 57.01875Q66.06563 56.64375 65.45625 56.64375Q64.51875 56.64375 63.940624 57.315624Q63.3625 57.971874 63.3625 59.409374Q63.3625 60.878124 63.925 61.55Q64.4875 62.20625 65.37813 62.20625Q66.1125 62.20625 66.59688 61.76875Q67.08125 61.315624 67.20625 60.39375ZM69.01875 59.425Q69.01875 57.409374 70.14375 56.425Q71.06563 55.628124 72.425 55.628124Q73.90938 55.628124 74.8625 56.6125Q75.81563 57.58125 75.81563 59.315624Q75.81563 60.721874 75.39375 61.534374Q74.97188 62.33125 74.15938 62.784374Q73.3625 63.221874 72.425 63.221874Q70.89375 63.221874 69.95625 62.2375Q69.01875 61.253124 69.01875 59.425ZM70.28438 59.425Q70.28438 60.815624 70.89375 61.51875Q71.50313 62.20625 72.425 62.20625Q73.33125 62.20625 73.94063 61.503124Q74.55 60.8 74.55 59.378124Q74.55 58.034374 73.94063 57.346874Q73.33125 56.64375 72.425 56.64375Q71.50313 56.64375 70.89375 57.33125Q70.28438 58.01875 70.28438 59.425ZM86.44063 60.70625L87.72188 60.8625Q87.40938 61.9875 86.59688 62.6125Q85.78438 63.221874 84.51875 63.221874Q82.925 63.221874 81.9875 62.2375Q81.06563 61.253124 81.06563 59.4875Q81.06563 57.64375 82.00313 56.64375Q82.95625 55.628124 84.45625 55.628124Q85.90938 55.628124 86.83125 56.628124Q87.75313 57.6125 87.75313 59.409374Q87.75313 59.51875 87.75313 59.7375L82.33125 59.7375Q82.40938 60.925 83.00313 61.565624Q83.6125 62.20625 84.53438 62.20625Q85.20625 62.20625 85.675 61.846874Q86.15938 61.4875 86.44063 60.70625ZM82.40938 58.721874L86.45625 58.721874Q86.37813 57.8 85.9875 57.346874Q85.40938 56.64375 84.47188 56.64375Q83.6125 56.64375 83.03438 57.20625Q82.47188 57.76875 82.40938 58.721874ZM88.9875 60.878124L90.19063 60.690624Q90.3 61.425 90.76875 61.815624Q91.2375 62.20625 92.08125 62.20625Q92.925 62.20625 93.33125 61.8625Q93.75313 61.51875 93.75313 61.05Q93.75313 60.628124 93.37813 60.39375Q93.12813 60.221874 92.12813 59.971874Q90.76875 59.628124 90.2375 59.378124Q89.72188 59.128124 89.45625 58.690624Q89.19063 58.253124 89.19063 57.721874Q89.19063 57.2375 89.40938 56.83125Q89.62813 56.409374 90.01875 56.128124Q90.3 55.925 90.78438 55.784374Q91.28438 55.628124 91.8625 55.628124Q92.70625 55.628124 93.34688 55.878124Q94.00313 56.1125 94.31563 56.534374Q94.62813 56.95625 94.7375 57.659374L93.53438 57.83125Q93.45625 57.26875 93.05 56.95625Q92.65938 56.64375 91.94063 56.64375Q91.09688 56.64375 90.7375 56.925Q90.37813 57.190624 90.37813 57.58125Q90.37813 57.815624 90.51875 58.003124Q90.675 58.20625 91.00313 58.33125Q91.175 58.39375 92.08125 58.64375Q93.39375 59.003124 93.90938 59.221874Q94.425 59.440624 94.70625 59.8625Q95.00313 60.284374 95.00313 60.909374Q95.00313 61.534374 94.64375 62.08125Q94.3 62.6125 93.6125 62.925Q92.94063 63.221874 92.08125 63.221874Q90.675 63.221874 89.925 62.628124Q89.19063 62.034374 88.9875 60.878124ZM99.15938 61.95625L99.33125 63.034374Q98.81563 63.14375 98.40938 63.14375Q97.7375 63.14375 97.3625 62.940624Q97.00313 62.721874 96.84688 62.378124Q96.70625 62.034374 96.70625 60.925L96.70625 56.753124L95.8 56.753124L95.8 55.784374L96.70625 55.784374L96.70625 53.9875L97.925 53.253124L97.925 55.784374L99.15938 55.784374L99.15938 56.753124L97.925 56.753124L97.925 60.9875Q97.925 61.51875 97.9875 61.675Q98.05 61.815624 98.19063 61.909374Q98.34688 62.003124 98.6125 62.003124Q98.83125 62.003124 99.15938 61.95625ZM105.20625 62.159374Q104.53438 62.7375 103.89375 62.9875Q103.26875 63.221874 102.53438 63.221874Q101.34688 63.221874 100.69063 62.64375Q100.05 62.05 100.05 61.128124Q100.05 60.596874 100.28438 60.159374Q100.53438 59.721874 100.925 59.45625Q101.33125 59.190624 101.81563 59.05Q102.175 58.95625 102.90938 58.8625Q104.40938 58.690624 105.1125 58.440624Q105.1125 58.190624 105.1125 58.128124Q105.1125 57.3625 104.76875 57.065624Q104.3 56.64375 103.3625 56.64375Q102.50313 56.64375 102.08125 56.95625Q101.675 57.253124 101.47188 58.01875L100.26875 57.8625Q100.425 57.08125 100.8 56.6125Q101.19063 56.14375 101.89375 55.89375Q102.6125 55.628124 103.55 55.628124Q104.47188 55.628124 105.05 55.846874Q105.62813 56.065624 105.89375 56.39375Q106.175 56.721874 106.28438 57.2375Q106.34688 57.55 106.34688 58.3625L106.34688 60.003124Q106.34688 61.721874 106.425 62.175Q106.50313 62.628124 106.7375 63.05L105.45625 63.05Q105.26875 62.659374 105.20625 62.159374ZM105.1125 59.409374Q104.44063 59.675 103.09688 59.878124Q102.34688 59.9875 102.01875 60.128124Q101.70625 60.253124 101.53438 60.51875Q101.3625 60.784374 101.3625 61.096874Q101.3625 61.596874 101.7375 61.925Q102.1125 62.253124 102.83125 62.253124Q103.55 62.253124 104.09688 61.940624Q104.64375 61.628124 104.90938 61.08125Q105.1125 60.675 105.1125 59.8625L105.1125 59.409374ZM102.70625 54.89375L103.6125 52.971874L105.2375 52.971874L103.72188 54.89375L102.70625 54.89375ZM117.44063 60.70625L118.72188 60.8625Q118.40938 61.9875 117.59688 62.6125Q116.78438 63.221874 115.51875 63.221874Q113.925 63.221874 112.9875 62.2375Q112.06563 61.253124 112.06563 59.4875Q112.06563 57.64375 113.00313 56.64375Q113.95625 55.628124 115.45625 55.628124Q116.90938 55.628124 117.83125 56.628124Q118.75313 57.6125 118.75313 59.409374Q118.75313 59.51875 118.75313 59.7375L113.33125 59.7375Q113.40938 60.925 114.00313 61.565624Q114.6125 62.20625 115.53438 62.20625Q116.20625 62.20625 116.675 61.846874Q117.15938 61.4875 117.44063 60.70625ZM113.40938 58.721874L117.45625 58.721874Q117.37813 57.8 116.9875 57.346874Q116.40938 56.64375 115.47188 56.64375Q114.6125 56.64375 114.03438 57.20625Q113.47188 57.76875 113.40938 58.721874ZM120.47188 63.05L120.47188 55.784374L121.58125 55.784374L121.58125 56.815624Q121.90938 56.26875 122.47188 55.95625Q123.05 55.628124 123.76875 55.628124Q124.58125 55.628124 125.09688 55.971874Q125.6125 56.3 125.83125 56.89375Q126.69063 55.628124 128.06563 55.628124Q129.14375 55.628124 129.72188 56.221874Q130.31563 56.815624 130.31563 58.065624L130.31563 63.05L129.08125 63.05L129.08125 58.471874Q129.08125 57.7375 128.95625 57.409374Q128.84688 57.08125 128.53438 56.89375Q128.22188 56.690624 127.8 56.690624Q127.03438 56.690624 126.51875 57.20625Q126.01875 57.70625 126.01875 58.83125L126.01875 63.05L124.78438 63.05L124.78438 58.33125Q124.78438 57.51875 124.4875 57.1125Q124.19063 56.690624 123.50313 56.690624Q122.9875 56.690624 122.53438 56.971874Q122.09688 57.2375 121.89375 57.76875Q121.70625 58.284374 121.70625 59.284374L121.70625 63.05L120.47188 63.05ZM140.44063 60.70625L141.72188 60.8625Q141.40938 61.9875 140.59688 62.6125Q139.78438 63.221874 138.51875 63.221874Q136.925 63.221874 135.9875 62.2375Q135.06563 61.253124 135.06563 59.4875Q135.06563 57.64375 136.00313 56.64375Q136.95625 55.628124 138.45625 55.628124Q139.90938 55.628124 140.83125 56.628124Q141.75313 57.6125 141.75313 59.409374Q141.75313 59.51875 141.75313 59.7375L136.33125 59.7375Q136.40938 60.925 137.00313 61.565624Q137.6125 62.20625 138.53438 62.20625Q139.20625 62.20625 139.675 61.846874Q140.15938 61.4875 140.44063 60.70625ZM136.40938 58.721874L140.45625 58.721874Q140.37813 57.8 139.9875 57.346874Q139.40938 56.64375 138.47188 56.64375Q137.6125 56.64375 137.03438 57.20625Q136.47188 57.76875 136.40938 58.721874ZM142.9875 60.878124L144.19063 60.690624Q144.3 61.425 144.76875 61.815624Q145.2375 62.20625 146.08125 62.20625Q146.925 62.20625 147.33125 61.8625Q147.75313 61.51875 147.75313 61.05Q147.75313 60.628124 147.37813 60.39375Q147.12813 60.221874 146.12813 59.971874Q144.76875 59.628124 144.2375 59.378124Q143.72188 59.128124 143.45625 58.690624Q143.19063 58.253124 143.19063 57.721874Q143.19063 57.2375 143.40938 56.83125Q143.62813 56.409374 144.01875 56.128124Q144.3 55.925 144.78438 55.784374Q145.28438 55.628124 145.8625 55.628124Q146.70625 55.628124 147.34688 55.878124Q148.00313 56.1125 148.31563 56.534374Q148.62813 56.95625 148.7375 57.659374L147.53438 57.83125Q147.45625 57.26875 147.05 56.95625Q146.65938 56.64375 145.94063 56.64375Q145.09688 56.64375 144.7375 56.925Q144.37813 57.190624 144.37813 57.58125Q144.37813 57.815624 144.51875 58.003124Q144.675 58.20625 145.00313 58.33125Q145.175 58.39375 146.08125 58.64375Q147.39375 59.003124 147.90938 59.221874Q148.425 59.440624 148.70625 59.8625Q149.00313 60.284374 149.00313 60.909374Q149.00313 61.534374 148.64375 62.08125Q148.3 62.6125 147.6125 62.925Q146.94063 63.221874 146.08125 63.221874Q144.675 63.221874 143.925 62.628124Q143.19063 62.034374 142.9875 60.878124ZM155.20625 60.39375L156.425 60.55Q156.22188 61.8 155.39375 62.51875Q154.58125 63.221874 153.39375 63.221874Q151.90938 63.221874 151.00313 62.253124Q150.09688 61.26875 150.09688 59.440624Q150.09688 58.26875 150.4875 57.39375Q150.87813 56.503124 151.675 56.065624Q152.47188 55.628124 153.40938 55.628124Q154.58125 55.628124 155.33125 56.221874Q156.09688 56.815624 156.3 57.925L155.1125 58.1125Q154.94063 57.378124 154.50313 57.01875Q154.06563 56.64375 153.45625 56.64375Q152.51875 56.64375 151.94063 57.315624Q151.3625 57.971874 151.3625 59.409374Q151.3625 60.878124 151.925 61.55Q152.4875 62.20625 153.37813 62.20625Q154.1125 62.20625 154.59688 61.76875Q155.08125 61.315624 155.20625 60.39375ZM162.20625 62.159374Q161.53438 62.7375 160.89375 62.9875Q160.26875 63.221874 159.53438 63.221874Q158.34688 63.221874 157.69063 62.64375Q157.05 62.05 157.05 61.128124Q157.05 60.596874 157.28438 60.159374Q157.53438 59.721874 157.925 59.45625Q158.33125 59.190624 158.81563 59.05Q159.175 58.95625 159.90938 58.8625Q161.40938 58.690624 162.1125 58.440624Q162.1125 58.190624 162.1125 58.128124Q162.1125 57.3625 161.76875 57.065624Q161.3 56.64375 160.3625 56.64375Q159.50313 56.64375 159.08125 56.95625Q158.675 57.253124 158.47188 58.01875L157.26875 57.8625Q157.425 57.08125 157.8 56.6125Q158.19063 56.14375 158.89375 55.89375Q159.6125 55.628124 160.55 55.628124Q161.47188 55.628124 162.05 55.846874Q162.62813 56.065624 162.89375 56.39375Q163.175 56.721874 163.28438 57.2375Q163.34688 57.55 163.34688 58.3625L163.34688 60.003124Q163.34688 61.721874 163.425 62.175Q163.50313 62.628124 163.7375 63.05L162.45625 63.05Q162.26875 62.659374 162.20625 62.159374ZM162.1125 59.409374Q161.44063 59.675 160.09688 59.878124Q159.34688 59.9875 159.01875 60.128124Q158.70625 60.253124 158.53438 60.51875Q158.3625 60.784374 158.3625 61.096874Q158.3625 61.596874 158.7375 61.925Q159.1125 62.253124 159.83125 62.253124Q160.55 62.253124 161.09688 61.940624Q161.64375 61.628124 161.90938 61.08125Q162.1125 60.675 162.1125 59.8625L162.1125 59.409374ZM165.44063 63.05L165.44063 53.034374L166.675 53.034374L166.675 63.05L165.44063 63.05ZM173.20625 62.159374Q172.53438 62.7375 171.89375 62.9875Q171.26875 63.221874 170.53438 63.221874Q169.34688 63.221874 168.69063 62.64375Q168.05 62.05 168.05 61.128124Q168.05 60.596874 168.28438 60.159374Q168.53438 59.721874 168.925 59.45625Q169.33125 59.190624 169.81563 59.05Q170.175 58.95625 170.90938 58.8625Q172.40938 58.690624 173.1125 58.440624Q173.1125 58.190624 173.1125 58.128124Q173.1125 57.3625 172.76875 57.065624Q172.3 56.64375 171.3625 56.64375Q170.50313 56.64375 170.08125 56.95625Q169.675 57.253124 169.47188 58.01875L168.26875 57.8625Q168.425 57.08125 168.8 56.6125Q169.19063 56.14375 169.89375 55.89375Q170.6125 55.628124 171.55 55.628124Q172.47188 55.628124 173.05 55.846874Q173.62813 56.065624 173.89375 56.39375Q174.175 56.721874 174.28438 57.2375Q174.34688 57.55 174.34688 58.3625L174.34688 60.003124Q174.34688 61.721874 174.425 62.175Q174.50313 62.628124 174.7375 63.05L173.45625 63.05Q173.26875 62.659374 173.20625 62.159374ZM173.1125 59.409374Q172.44063 59.675 171.09688 59.878124Q170.34688 59.9875 170.01875 60.128124Q169.70625 60.253124 169.53438 60.51875Q169.3625 60.784374 169.3625 61.096874Q169.3625 61.596874 169.7375 61.925Q170.1125 62.253124 170.83125 62.253124Q171.55 62.253124 172.09688 61.940624Q172.64375 61.628124 172.90938 61.08125Q173.1125 60.675 173.1125 59.8625L173.1125 59.409374ZM180.44063 63.05L180.44063 53.034374L181.675 53.034374L181.675 63.05L180.44063 63.05ZM183.01875 59.425Q183.01875 57.409374 184.14375 56.425Q185.06563 55.628124 186.425 55.628124Q187.90938 55.628124 188.8625 56.6125Q189.81563 57.58125 189.81563 59.315624Q189.81563 60.721874 189.39375 61.534374Q188.97188 62.33125 188.15938 62.784374Q187.3625 63.221874 186.425 63.221874Q184.89375 63.221874 183.95625 62.2375Q183.01875 61.253124 183.01875 59.425ZM184.28438 59.425Q184.28438 60.815624 184.89375 61.51875Q185.50313 62.20625 186.425 62.20625Q187.33125 62.20625 187.94063 61.503124Q188.55 60.8 188.55 59.378124Q188.55 58.034374 187.94063 57.346874Q187.33125 56.64375 186.425 56.64375Q185.50313 56.64375 184.89375 57.33125Q184.28438 58.01875 184.28438 59.425ZM191.25313 63.659374L192.44063 63.83125Q192.51875 64.37813 192.8625 64.64375Q193.31563 64.97188 194.1125 64.97188Q194.97188 64.97188 195.425 64.62813Q195.89375 64.3 196.06563 63.675Q196.15938 63.3 196.14375 62.096874Q195.34688 63.05 194.14375 63.05Q192.64375 63.05 191.81563 61.971874Q191.00313 60.89375 191.00313 59.378124Q191.00313 58.346874 191.37813 57.471874Q191.75313 56.58125 192.45625 56.1125Q193.175 55.628124 194.14375 55.628124Q195.425 55.628124 196.26875 56.659374L196.26875 55.784374L197.39375 55.784374L197.39375 62.065624Q197.39375 63.76875 197.05 64.47188Q196.70625 65.175 195.95625 65.58125Q195.20625 66.00313 194.1125 66.00313Q192.81563 66.00313 192.01875 65.40938Q191.22188 64.83125 191.25313 63.659374ZM192.26875 59.284374Q192.26875 60.721874 192.83125 61.378124Q193.39375 62.034374 194.25313 62.034374Q195.09688 62.034374 195.675 61.378124Q196.25313 60.721874 196.25313 59.33125Q196.25313 58.003124 195.65938 57.33125Q195.06563 56.64375 194.2375 56.64375Q193.40938 56.64375 192.83125 57.315624Q192.26875 57.971874 192.26875 59.284374ZM204.20625 62.159374Q203.53438 62.7375 202.89375 62.9875Q202.26875 63.221874 201.53438 63.221874Q200.34688 63.221874 199.69063 62.64375Q199.05 62.05 199.05 61.128124Q199.05 60.596874 199.28438 60.159374Q199.53438 59.721874 199.925 59.45625Q200.33125 59.190624 200.81563 59.05Q201.175 58.95625 201.90938 58.8625Q203.40938 58.690624 204.1125 58.440624Q204.1125 58.190624 204.1125 58.128124Q204.1125 57.3625 203.76875 57.065624Q203.3 56.64375 202.3625 56.64375Q201.50313 56.64375 201.08125 56.95625Q200.675 57.253124 200.47188 58.01875L199.26875 57.8625Q199.425 57.08125 199.8 56.6125Q200.19063 56.14375 200.89375 55.89375Q201.6125 55.628124 202.55 55.628124Q203.47188 55.628124 204.05 55.846874Q204.62813 56.065624 204.89375 56.39375Q205.175 56.721874 205.28438 57.2375Q205.34688 57.55 205.34688 58.3625L205.34688 60.003124Q205.34688 61.721874 205.425 62.175Q205.50313 62.628124 205.7375 63.05L204.45625 63.05Q204.26875 62.659374 204.20625 62.159374ZM204.1125 59.409374Q203.44063 59.675 202.09688 59.878124Q201.34688 59.9875 201.01875 60.128124Q200.70625 60.253124 200.53438 60.51875Q200.3625 60.784374 200.3625 61.096874Q200.3625 61.596874 200.7375 61.925Q201.1125 62.253124 201.83125 62.253124Q202.55 62.253124 203.09688 61.940624Q203.64375 61.628124 203.90938 61.08125Q204.1125 60.675 204.1125 59.8625L204.1125 59.409374ZM207.45625 63.05L207.45625 55.784374L208.56563 55.784374L208.56563 56.89375Q208.9875 56.1125 209.34688 55.878124Q209.70625 55.628124 210.14375 55.628124Q210.76875 55.628124 211.40938 56.01875L210.9875 57.159374Q210.53438 56.89375 210.08125 56.89375Q209.675 56.89375 209.34688 57.14375Q209.03438 57.378124 208.89375 57.815624Q208.69063 58.471874 208.69063 59.253124L208.69063 63.05L207.45625 63.05ZM212.90938 63.05L212.90938 55.784374L214.12813 55.784374L214.12813 63.05L212.90938 63.05ZM212.84688 54.89375L213.75313 52.971874L215.37813 52.971874L213.8625 54.89375L212.84688 54.89375ZM218.15938 61.95625L218.33125 63.034374Q217.81563 63.14375 217.40938 63.14375Q216.7375 63.14375 216.3625 62.940624Q216.00313 62.721874 215.84688 62.378124Q215.70625 62.034374 215.70625 60.925L215.70625 56.753124L214.8 56.753124L214.8 55.784374L215.70625 55.784374L215.70625 53.9875L216.925 53.253124L216.925 55.784374L218.15938 55.784374L218.15938 56.753124L216.925 56.753124L216.925 60.9875Q216.925 61.51875 216.9875 61.675Q217.05 61.815624 217.19063 61.909374Q217.34688 62.003124 217.6125 62.003124Q217.83125 62.003124 218.15938 61.95625ZM219.47188 63.05L219.47188 55.784374L220.58125 55.784374L220.58125 56.815624Q220.90938 56.26875 221.47188 55.95625Q222.05 55.628124 222.76875 55.628124Q223.58125 55.628124 224.09688 55.971874Q224.6125 56.3 224.83125 56.89375Q225.69063 55.628124 227.06563 55.628124Q228.14375 55.628124 228.72188 56.221874Q229.31563 56.815624 229.31563 58.065624L229.31563 63.05L228.08125 63.05L228.08125 58.471874Q228.08125 57.7375 227.95625 57.409374Q227.84688 57.08125 227.53438 56.89375Q227.22188 56.690624 226.8 56.690624Q226.03438 56.690624 225.51875 57.20625Q225.01875 57.70625 225.01875 58.83125L225.01875 63.05L223.78438 63.05L223.78438 58.33125Q223.78438 57.51875 223.4875 57.1125Q223.19063 56.690624 222.50313 56.690624Q221.9875 56.690624 221.53438 56.971874Q221.09688 57.2375 220.89375 57.76875Q220.70625 58.284374 220.70625 59.284374L220.70625 63.05L219.47188 63.05ZM230.4875 54.440624L230.4875 53.034374L231.70625 53.034374L231.70625 54.440624L230.4875 54.440624ZM230.4875 63.05L230.4875 55.784374L231.70625 55.784374L231.70625 63.05L230.4875 63.05ZM238.20625 60.39375L239.425 60.55Q239.22188 61.8 238.39375 62.51875Q237.58125 63.221874 236.39375 63.221874Q234.90938 63.221874 234.00313 62.253124Q233.09688 61.26875 233.09688 59.440624Q233.09688 58.26875 233.4875 57.39375Q233.87813 56.503124 234.675 56.065624Q235.47188 55.628124 236.40938 55.628124Q237.58125 55.628124 238.33125 56.221874Q239.09688 56.815624 239.3 57.925L238.1125 58.1125Q237.94063 57.378124 237.50313 57.01875Q237.06563 56.64375 236.45625 56.64375Q235.51875 56.64375 234.94063 57.315624Q234.3625 57.971874 234.3625 59.409374Q234.3625 60.878124 234.925 61.55Q235.4875 62.20625 236.37813 62.20625Q237.1125 62.20625 237.59688 61.76875Q238.08125 61.315624 238.20625 60.39375ZM245.20625 62.159374Q244.53438 62.7375 243.89375 62.9875Q243.26875 63.221874 242.53438 63.221874Q241.34688 63.221874 240.69063 62.64375Q240.05 62.05 240.05 61.128124Q240.05 60.596874 240.28438 60.159374Q240.53438 59.721874 240.925 59.45625Q241.33125 59.190624 241.81563 59.05Q242.175 58.95625 242.90938 58.8625Q244.40938 58.690624 245.1125 58.440624Q245.1125 58.190624 245.1125 58.128124Q245.1125 57.3625 244.76875 57.065624Q244.3 56.64375 243.3625 56.64375Q242.50313 56.64375 242.08125 56.95625Q241.675 57.253124 241.47188 58.01875L240.26875 57.8625Q240.425 57.08125 240.8 56.6125Q241.19063 56.14375 241.89375 55.89375Q242.6125 55.628124 243.55 55.628124Q244.47188 55.628124 245.05 55.846874Q245.62813 56.065624 245.89375 56.39375Q246.175 56.721874 246.28438 57.2375Q246.34688 57.55 246.34688 58.3625L246.34688 60.003124Q246.34688 61.721874 246.425 62.175Q246.50313 62.628124 246.7375 63.05L245.45625 63.05Q245.26875 62.659374 245.20625 62.159374ZM245.1125 59.409374Q244.44063 59.675 243.09688 59.878124Q242.34688 59.9875 242.01875 60.128124Q241.70625 60.253124 241.53438 60.51875Q241.3625 60.784374 241.3625 61.096874Q241.3625 61.596874 241.7375 61.925Q242.1125 62.253124 242.83125 62.253124Q243.55 62.253124 244.09688 61.940624Q244.64375 61.628124 244.90938 61.08125Q245.1125 60.675 245.1125 59.8625L245.1125 59.409374Z" fill-rule="nonzero"/><path fill="#757575" d="M219.17188 37.55L219.17188 25.659374L214.9375 25.659374L214.9375 23.2375L226.3125 23.2375L226.3125 25.659374L222.0625 25.659374L222.0625 37.55L219.17188 37.55ZM234.9375 34.253124L237.67188 34.70625Q237.15625 36.20625 236.01562 37.003124Q234.875 37.784374 233.17188 37.784374Q230.45312 37.784374 229.15625 36.01875Q228.14062 34.596874 228.14062 32.440624Q228.14062 29.8625 229.48438 28.409374Q230.82812 26.940624 232.89062 26.940624Q235.20312 26.940624 236.53125 28.471874Q237.875 30.003124 237.82812 33.159374L230.95312 33.159374Q230.98438 34.378124 231.60938 35.065624Q232.25 35.7375 233.1875 35.7375Q233.84375 35.7375 234.28125 35.39375Q234.71875 35.034374 234.9375 34.253124ZM235.09375 31.471874Q235.0625 30.284374 234.46875 29.675Q233.89062 29.05 233.0625 29.05Q232.15625 29.05 231.57812 29.690624Q230.98438 30.346874 231.0 31.471874L235.09375 31.471874ZM239.73438 27.175L242.26562 27.175L242.26562 28.596874Q243.625 26.940624 245.5 26.940624Q246.48438 26.940624 247.21875 27.3625Q247.95312 27.76875 248.42188 28.596874Q249.10938 27.76875 249.89062 27.3625Q250.6875 26.940624 251.59375 26.940624Q252.73438 26.940624 253.51562 27.409374Q254.3125 27.878124 254.70312 28.76875Q254.98438 29.440624 254.98438 30.925L254.98438 37.55L252.23438 37.55L252.23438 31.628124Q252.23438 30.08125 251.95312 29.628124Q251.57812 29.05 250.78125 29.05Q250.20312 29.05 249.6875 29.409374Q249.1875 29.753124 248.96875 30.425Q248.75 31.096874 248.75 32.565624L248.75 37.55L246.0 37.55L246.0 31.8625Q246.0 30.346874 245.84375 29.909374Q245.70312 29.471874 245.39062 29.26875Q245.09375 29.05 244.5625 29.05Q243.9375 29.05 243.42188 29.39375Q242.92188 29.721874 242.6875 30.378124Q242.46875 31.01875 242.46875 32.503124L242.46875 37.55L239.73438 37.55L239.73438 27.175ZM256.85938 27.175L259.42188 27.175L259.42188 28.70625Q259.92188 27.925 260.76562 27.440624Q261.60938 26.940624 262.65625 26.940624Q264.45312 26.940624 265.70312 28.3625Q266.96875 29.76875 266.96875 32.3Q266.96875 34.909374 265.70312 36.346874Q264.4375 37.784374 262.625 37.784374Q261.76562 37.784374 261.0625 37.440624Q260.375 37.096874 259.60938 36.26875L259.60938 41.503124L256.85938 41.503124L256.85938 27.175ZM259.57812 32.190624Q259.57812 33.940624 260.26562 34.784374Q260.95312 35.6125 261.95312 35.6125Q262.90625 35.6125 263.54688 34.846874Q264.1875 34.065624 264.1875 32.33125Q264.1875 30.690624 263.53125 29.909374Q262.875 29.1125 261.90625 29.1125Q260.90625 29.1125 260.23438 29.89375Q259.57812 30.659374 259.57812 32.190624ZM268.29688 32.221874Q268.29688 30.846874 268.96875 29.565624Q269.65625 28.284374 270.89062 27.6125Q272.125 26.940624 273.64062 26.940624Q276.0 26.940624 277.5 28.471874Q279.0 30.003124 279.0 32.33125Q279.0 34.690624 277.48438 36.2375Q275.96875 37.784374 273.65625 37.784374Q272.23438 37.784374 270.9375 37.14375Q269.65625 36.4875 268.96875 35.253124Q268.29688 34.003124 268.29688 32.221874ZM271.10938 32.3625Q271.10938 33.909374 271.84375 34.7375Q272.57812 35.55 273.65625 35.55Q274.73438 35.55 275.45312 34.7375Q276.1875 33.909374 276.1875 32.346874Q276.1875 30.815624 275.45312 30.003124Q274.73438 29.175 273.65625 29.175Q272.57812 29.175 271.84375 30.003124Q271.10938 30.815624 271.10938 32.3625ZM286.625 33.7375L286.625 30.9875L292.01562 30.9875L292.01562 33.7375L286.625 33.7375ZM298.96875 37.55L298.96875 23.2375L301.85938 23.2375L301.85938 28.8625L307.51562 28.8625L307.51562 23.2375L310.40625 23.2375L310.40625 37.55L307.51562 37.55L307.51562 31.284374L301.85938 31.284374L301.85938 37.55L298.96875 37.55ZM318.9375 34.253124L321.67188 34.70625Q321.15625 36.20625 320.01562 37.003124Q318.875 37.784374 317.17188 37.784374Q314.45312 37.784374 313.15625 36.01875Q312.14062 34.596874 312.14062 32.440624Q312.14062 29.8625 313.48438 28.409374Q314.82812 26.940624 316.89062 26.940624Q319.20312 26.940624 320.53125 28.471874Q321.875 30.003124 321.82812 33.159374L314.95312 33.159374Q314.98438 34.378124 315.60938 35.065624Q316.25 35.7375 317.1875 35.7375Q317.84375 35.7375 318.28125 35.39375Q318.71875 35.034374 318.9375 34.253124ZM319.09375 31.471874Q319.0625 30.284374 318.46875 29.675Q317.89062 29.05 317.0625 29.05Q316.15625 29.05 315.57812 29.690624Q314.98438 30.346874 315.0 31.471874L319.09375 31.471874ZM325.98438 30.346874L323.5 29.89375Q323.92188 28.39375 324.9375 27.675Q325.96875 26.940624 327.98438 26.940624Q329.82812 26.940624 330.71875 27.378124Q331.625 27.815624 331.98438 28.4875Q332.35938 29.14375 332.35938 30.940624L332.32812 34.14375Q332.32812 35.503124 332.45312 36.159374Q332.59375 36.8 332.95312 37.55L330.23438 37.55Q330.125 37.26875 329.96875 36.7375Q329.90625 36.4875 329.875 36.409374Q329.17188 37.096874 328.35938 37.440624Q327.5625 37.784374 326.65625 37.784374Q325.0625 37.784374 324.14062 36.925Q323.21875 36.05 323.21875 34.721874Q323.21875 33.83125 323.625 33.14375Q324.04688 32.45625 324.79688 32.096874Q325.5625 31.721874 327.0 31.45625Q328.92188 31.096874 329.65625 30.784374L329.65625 30.503124Q329.65625 29.721874 329.26562 29.39375Q328.875 29.05 327.79688 29.05Q327.0625 29.05 326.64062 29.33125Q326.23438 29.6125 325.98438 30.346874ZM329.65625 32.565624Q329.125 32.7375 327.98438 32.9875Q326.84375 33.2375 326.5 33.471874Q325.95312 33.846874 325.95312 34.440624Q325.95312 35.003124 326.375 35.425Q326.8125 35.846874 327.48438 35.846874Q328.21875 35.846874 328.89062 35.3625Q329.39062 34.9875 329.54688 34.45625Q329.65625 34.096874 329.65625 33.1125L329.65625 32.565624ZM334.85938 27.175L337.42188 27.175L337.42188 28.70625Q337.92188 27.925 338.76562 27.440624Q339.60938 26.940624 340.65625 26.940624Q342.45312 26.940624 343.70312 28.3625Q344.96875 29.76875 344.96875 32.3Q344.96875 34.909374 343.70312 36.346874Q342.4375 37.784374 340.625 37.784374Q339.76562 37.784374 339.0625 37.440624Q338.375 37.096874 337.60938 36.26875L337.60938 41.503124L334.85938 41.503124L334.85938 27.175ZM337.57812 32.190624Q337.57812 33.940624 338.26562 34.784374Q338.95312 35.6125 339.95312 35.6125Q340.90625 35.6125 341.54688 34.846874Q342.1875 34.065624 342.1875 32.33125Q342.1875 30.690624 341.53125 29.909374Q340.875 29.1125 339.90625 29.1125Q338.90625 29.1125 338.23438 29.89375Q337.57812 30.659374 337.57812 32.190624ZM346.21875 32.89375L349.03125 32.6125Q349.29688 34.034374 350.0625 34.70625Q350.84375 35.3625 352.15625 35.3625Q353.5625 35.3625 354.26562 34.76875Q354.96875 34.175 354.96875 33.39375Q354.96875 32.878124 354.67188 32.534374Q354.375 32.175 353.64062 31.909374Q353.125 31.721874 351.32812 31.284374Q349.0 30.70625 348.0625 29.8625Q346.73438 28.675 346.73438 26.9875Q346.73438 25.89375 347.35938 24.940624Q347.98438 23.9875 349.14062 23.4875Q350.3125 22.9875 351.96875 22.9875Q354.65625 22.9875 356.01562 24.175Q357.39062 25.346874 357.45312 27.33125L354.5625 27.45625Q354.375 26.346874 353.76562 25.8625Q353.15625 25.378124 351.9375 25.378124Q350.67188 25.378124 349.96875 25.89375Q349.5 26.2375 349.5 26.784374Q349.5 27.3 349.9375 27.659374Q350.48438 28.1125 352.59375 28.6125Q354.70312 29.1125 355.70312 29.64375Q356.71875 30.175 357.28125 31.096874Q357.85938 32.01875 357.85938 33.378124Q357.85938 34.6125 357.17188 35.690624Q356.5 36.753124 355.25 37.284374Q354.0 37.8 352.125 37.8Q349.42188 37.8 347.95312 36.55Q346.5 35.3 346.21875 32.89375ZM359.29688 32.221874Q359.29688 30.846874 359.96875 29.565624Q360.65625 28.284374 361.89062 27.6125Q363.125 26.940624 364.64062 26.940624Q367.0 26.940624 368.5 28.471874Q370.0 30.003124 370.0 32.33125Q370.0 34.690624 368.48438 36.2375Q366.96875 37.784374 364.65625 37.784374Q363.23438 37.784374 361.9375 37.14375Q360.65625 36.4875 359.96875 35.253124Q359.29688 34.003124 359.29688 32.221874ZM362.10938 32.3625Q362.10938 33.909374 362.84375 34.7375Q363.57812 35.55 364.65625 35.55Q365.73438 35.55 366.45312 34.7375Q367.1875 33.909374 367.1875 32.346874Q367.1875 30.815624 366.45312 30.003124Q365.73438 29.175 364.65625 29.175Q363.57812 29.175 362.84375 30.003124Q362.10938 30.815624 362.10938 32.3625ZM374.5625 37.55L371.8125 37.55L371.8125 27.175L374.375 27.175L374.375 28.659374Q375.01562 27.6125 375.53125 27.284374Q376.0625 26.940624 376.73438 26.940624Q377.67188 26.940624 378.53125 27.45625L377.6875 29.846874Q377.0 29.409374 376.40625 29.409374Q375.82812 29.409374 375.42188 29.721874Q375.01562 30.034374 374.78125 30.878124Q374.5625 31.70625 374.5625 34.346874L374.5625 37.55ZM384.6875 27.175L384.6875 29.3625L382.8125 29.3625L382.8125 33.55Q382.8125 34.815624 382.85938 35.034374Q382.92188 35.2375 383.10938 35.378124Q383.3125 35.503124 383.57812 35.503124Q383.95312 35.503124 384.6875 35.2375L384.92188 37.378124Q383.95312 37.784374 382.75 37.784374Q382.0 37.784374 381.40625 37.534374Q380.8125 37.284374 380.53125 36.89375Q380.26562 36.4875 380.15625 35.815624Q380.0625 35.346874 380.0625 33.89375L380.0625 29.3625L378.79688 29.3625L378.79688 27.175L380.0625 27.175L380.0625 25.1125L382.8125 23.51875L382.8125 27.175L384.6875 27.175Z" fill-rule="nonzero"/></svg>