<svg version="1.1" viewBox="0.0 0.0 600.0 371.0" fill="none" stroke="none" stroke-linecap="square" stroke-miterlimit="10" width="600" height="371" xmlns:xlink="http://www.w3.org/1999/xlink" xmlns="http://www.w3.org/2000/svg"><path fill="#ffffff" d="M0 0L600.0 0L600.0 371.0L0 371.0L0 0Z" fill-rule="nonzero"/><path stroke="#cccccc" stroke-width="1.0" stroke-linecap="butt" d="M174.5 85.5L174.5 300.5" fill-rule="nonzero"/><path stroke="#cccccc" stroke-width="1.0" stroke-linecap="butt" d="M276.5 85.5L276.5 300.5" fill-rule="nonzero"/><path stroke="#cccccc" stroke-width="1.0" stroke-linecap="butt" d="M377.5 85.5L377.5 300.5" fill-rule="nonzero"/><path stroke="#cccccc" stroke-width="1.0" stroke-linecap="butt" d="M479.5 85.5L479.5 300.5" fill-rule="nonzero"/><path stroke="#cccccc" stroke-width="1.0" stroke-linecap="butt" d="M581.5 85.5L581.5 300.5" fill-rule="nonzero"/><path stroke="#cccccc" stroke-width="1.0" stroke-linecap="butt" d="M77.5 281.5L581.5 281.5" fill-rule="nonzero"/><path stroke="#cccccc" stroke-width="1.0" stroke-linecap="butt" d="M77.5 253.5L581.5 253.5" fill-rule="nonzero"/><path stroke="#cccccc" stroke-width="1.0" stroke-linecap="butt" d="M77.5 188.5L581.5 188.5" fill-rule="nonzero"/><path stroke="#cccccc" stroke-width="1.0" stroke-linecap="butt" d="M77.5 160.5L581.5 160.5" fill-rule="nonzero"/><path stroke="#cccccc" stroke-width="1.0" stroke-linecap="butt" d="M77.5 95.5L581.5 95.5" fill-rule="nonzero"/><clipPath id="id_0"><path d="M77.55 85.416664L581.45 85.416664L581.45 300.45L77.55 300.45L77.55 85.416664Z" clip-rule="nonzero"/></clipPath><path stroke="#4285f4" stroke-width="2.0" stroke-linecap="butt" clip-path="url(#id_0)" d="M77.55 300.45C77.55 300.45 80.94327 274.1733 82.6399 266.30746C84.33653 258.4416 92.819695 236.72485 97.9096 227.14961C102.9995 217.57439 114.87592 204.33987 123.35909 196.66031C131.84225 188.98074 157.29175 173.12428 174.25809 165.48418C191.22441 157.84407 276.05606 132.43034 326.95505 121.49069C377.85403 110.55104 581.45 85.416664 581.45 85.416664" fill-rule="nonzero"/><path fill="#000000" fill-opacity="0.0" clip-path="url(#id_0)" d="M80.55 300.45C80.55 302.10684 79.206856 303.45 77.55 303.45C75.89314 303.45 74.55 302.10684 74.55 300.45C74.55 298.79315 75.89314 297.45 77.55 297.45C79.206856 297.45 80.55 298.79315 80.55 300.45Z" fill-rule="nonzero"/><path fill="#000000" fill-opacity="0.0" clip-path="url(#id_0)" d="M85.6399 266.30746C85.6399 267.9643 84.29675 269.30746 82.6399 269.30746C80.98305 269.30746 79.6399 267.9643 79.6399 266.30746C79.6399 264.6506 80.98305 263.30746 82.6399 263.30746C84.29675 263.30746 85.6399 264.6506 85.6399 266.30746Z" fill-rule="nonzero"/><path fill="#000000" fill-opacity="0.0" clip-path="url(#id_0)" d="M100.9096 227.14961C100.9096 228.80647 99.56645 230.14961 97.9096 230.14961C96.25274 230.14961 94.9096 228.80647 94.9096 227.14961C94.9096 225.49277 96.25274 224.14961 97.9096 224.14961C99.56645 224.14961 100.9096 225.49277 100.9096 227.14961Z" fill-rule="nonzero"/><path fill="#000000" fill-opacity="0.0" clip-path="url(#id_0)" d="M126.35909 196.66031C126.35909 198.31717 125.015945 199.66031 123.35909 199.66031C121.70224 199.66031 120.35909 198.31717 120.35909 196.66031C120.35909 195.00346 121.70224 193.66031 123.35909 193.66031C125.015945 193.66031 126.35909 195.00346 126.35909 196.66031Z" fill-rule="nonzero"/><path fill="#000000" fill-opacity="0.0" clip-path="url(#id_0)" d="M177.25809 165.48418C177.25809 167.14104 175.91493 168.48418 174.25809 168.48418C172.60123 168.48418 171.25809 167.14104 171.25809 165.48418C171.25809 163.82733 172.60123 162.48418 174.25809 162.48418C175.91493 162.48418 177.25809 163.82733 177.25809 165.48418Z" fill-rule="nonzero"/><path fill="#000000" fill-opacity="0.0" clip-path="url(#id_0)" d="M329.95505 121.49069C329.95505 123.147545 328.6119 124.49069 326.95505 124.49069C325.2982 124.49069 323.95505 123.147545 323.95505 121.49069C323.95505 119.83384 325.2982 118.49069 326.95505 118.49069C328.6119 118.49069 329.95505 119.83384 329.95505 121.49069Z" fill-rule="nonzero"/><path fill="#000000" fill-opacity="0.0" clip-path="url(#id_0)" d="M584.45 85.416664C584.45 87.073524 583.1069 88.416664 581.45 88.416664C579.79315 88.416664 578.45 87.073524 578.45 85.416664C578.45 83.75981 579.79315 82.416664 581.45 82.416664C583.1069 82.416664 584.45 83.75981 584.45 85.416664Z" fill-rule="nonzero"/><path fill="#000000" d="M264.8125 349.45L264.8125 342.3094L262.26562 342.3094L262.26562 340.85626L269.07812 340.85626L269.07812 342.3094L266.54688 342.3094L266.54688 349.45L264.8125 349.45ZM271.09375 345.1219L269.59375 344.85626Q269.84375 343.95 270.45312 343.52814Q271.07812 343.09064 272.29688 343.09064Q273.39062 343.09064 273.92188 343.35626Q274.46875 343.60626 274.6875 344.0125Q274.90625 344.40314 274.90625 345.48126L274.89062 347.40314Q274.89062 348.23126 274.96875 348.6219Q275.04688 348.9969 275.26562 349.45L273.64062 349.45Q273.57812 349.27814 273.48438 348.96564Q273.4375 348.8094 273.42188 348.7625Q273.0 349.1844 272.51562 349.3875Q272.04688 349.59064 271.5 349.59064Q270.53125 349.59064 269.96875 349.075Q269.42188 348.54376 269.42188 347.7469Q269.42188 347.21564 269.67188 346.8094Q269.9375 346.40314 270.39062 346.1844Q270.84375 345.95 271.70312 345.79376Q272.84375 345.575 273.29688 345.3875L273.29688 345.23126Q273.29688 344.7469 273.0625 344.54376Q272.82812 344.34064 272.17188 344.34064Q271.73438 344.34064 271.48438 344.5125Q271.25 344.6844 271.09375 345.1219ZM273.29688 346.46564Q272.98438 346.5594 272.29688 346.71564Q271.60938 346.85626 271.39062 346.9969Q271.07812 347.23126 271.07812 347.575Q271.07812 347.91876 271.32812 348.1844Q271.59375 348.4344 271.98438 348.4344Q272.4375 348.4344 272.84375 348.1375Q273.14062 347.91876 273.23438 347.59064Q273.29688 347.3875 273.29688 346.79376L273.29688 346.46564ZM276.73438 343.23126L278.25 343.23126L278.25 344.075Q279.07812 343.09064 280.20312 343.09064Q280.79688 343.09064 281.23438 343.34064Q281.67188 343.575 281.95312 344.075Q282.35938 343.575 282.82812 343.34064Q283.3125 343.09064 283.85938 343.09064Q284.53125 343.09064 285.0 343.3719Q285.48438 343.6375 285.71875 344.1844Q285.89062 344.575 285.89062 345.46564L285.89062 349.45L284.25 349.45L284.25 345.8875Q284.25 344.96564 284.07812 344.7Q283.84375 344.34064 283.375 344.34064Q283.03125 344.34064 282.71875 344.5594Q282.42188 344.7625 282.28125 345.16876Q282.14062 345.575 282.14062 346.46564L282.14062 349.45L280.5 349.45L280.5 346.04376Q280.5 345.1375 280.40625 344.8719Q280.32812 344.60626 280.14062 344.48126Q279.95312 344.34064 279.64062 344.34064Q279.26562 344.34064 278.95312 344.5594Q278.65625 344.7625 278.51562 345.15314Q278.39062 345.52814 278.39062 346.41876L278.39062 349.45L276.73438 349.45L276.73438 343.23126ZM289.09375 345.1219L287.59375 344.85626Q287.84375 343.95 288.45312 343.52814Q289.07812 343.09064 290.29688 343.09064Q291.39062 343.09064 291.92188 343.35626Q292.46875 343.60626 292.6875 344.0125Q292.90625 344.40314 292.90625 345.48126L292.89062 347.40314Q292.89062 348.23126 292.96875 348.6219Q293.04688 348.9969 293.26562 349.45L291.64062 349.45Q291.57812 349.27814 291.48438 348.96564Q291.4375 348.8094 291.42188 348.7625Q291.0 349.1844 290.51562 349.3875Q290.04688 349.59064 289.5 349.59064Q288.53125 349.59064 287.96875 349.075Q287.42188 348.54376 287.42188 347.7469Q287.42188 347.21564 287.67188 346.8094Q287.9375 346.40314 288.39062 346.1844Q288.84375 345.95 289.70312 345.79376Q290.84375 345.575 291.29688 345.3875L291.29688 345.23126Q291.29688 344.7469 291.0625 344.54376Q290.82812 344.34064 290.17188 344.34064Q289.73438 344.34064 289.48438 344.5125Q289.25 344.6844 289.09375 345.1219ZM291.29688 346.46564Q290.98438 346.5594 290.29688 346.71564Q289.60938 346.85626 289.39062 346.9969Q289.07812 347.23126 289.07812 347.575Q289.07812 347.91876 289.32812 348.1844Q289.59375 348.4344 289.98438 348.4344Q290.4375 348.4344 290.84375 348.1375Q291.14062 347.91876 291.23438 347.59064Q291.29688 347.3875 291.29688 346.79376L291.29688 346.46564ZM300.51562 349.45L298.875 349.45L298.875 346.27814Q298.875 345.2625 298.76562 344.96564Q298.67188 344.66876 298.42188 344.5125Q298.1875 344.34064 297.85938 344.34064Q297.42188 344.34064 297.07812 344.575Q296.75 344.8094 296.625 345.2Q296.5 345.59064 296.5 346.6375L296.5 349.45L294.84375 349.45L294.84375 343.23126L296.375 343.23126L296.375 344.1375Q297.1875 343.09064 298.4375 343.09064Q298.96875 343.09064 299.42188 343.29376Q299.875 343.48126 300.10938 343.79376Q300.34375 344.09064 300.42188 344.48126Q300.51562 344.85626 300.51562 345.575L300.51562 349.45ZM303.5 340.85626L303.5 344.0125Q304.29688 343.09064 305.40625 343.09064Q305.96875 343.09064 306.42188 343.3094Q306.89062 343.5125 307.125 343.84064Q307.35938 344.16876 307.4375 344.575Q307.51562 344.96564 307.51562 345.79376L307.51562 349.45L305.875 349.45L305.875 346.16876Q305.875 345.1844 305.78125 344.91876Q305.6875 344.65314 305.45312 344.4969Q305.21875 344.34064 304.85938 344.34064Q304.45312 344.34064 304.125 344.54376Q303.79688 344.7469 303.64062 345.15314Q303.5 345.54376 303.5 346.325L303.5 349.45L301.85938 349.45L301.85938 340.85626L303.5 340.85626ZM308.48438 346.2469Q308.48438 345.4344 308.89062 344.66876Q309.29688 343.8875 310.03125 343.4969Q310.76562 343.09064 311.6875 343.09064Q313.09375 343.09064 314.0 344.0125Q314.90625 344.91876 314.90625 346.325Q314.90625 347.73126 313.98438 348.66876Q313.07812 349.59064 311.70312 349.59064Q310.84375 349.59064 310.0625 349.2Q309.29688 348.8094 308.89062 348.075Q308.48438 347.325 308.48438 346.2469ZM310.17188 346.34064Q310.17188 347.2625 310.60938 347.7625Q311.04688 348.2469 311.6875 348.2469Q312.34375 348.2469 312.76562 347.7625Q313.20312 347.2625 313.20312 346.325Q313.20312 345.41876 312.76562 344.9344Q312.34375 344.4344 311.6875 344.4344Q311.04688 344.4344 310.60938 344.9344Q310.17188 345.41876 310.17188 346.34064ZM324.5625 349.45L323.04688 349.45L323.04688 348.52814Q322.65625 349.075 322.14062 349.34064Q321.625 349.59064 321.09375 349.59064Q320.01562 349.59064 319.25 348.73126Q318.5 347.85626 318.5 346.3094Q318.5 344.73126 319.23438 343.91876Q319.98438 343.09064 321.125 343.09064Q322.15625 343.09064 322.92188 343.95L322.92188 340.85626L324.5625 340.85626L324.5625 349.45ZM320.17188 346.2Q320.17188 347.2 320.45312 347.6375Q320.84375 348.29376 321.5625 348.29376Q322.125 348.29376 322.51562 347.8094Q322.92188 347.325 322.92188 346.35626Q322.92188 345.29376 322.53125 344.825Q322.15625 344.34064 321.54688 344.34064Q320.96875 344.34064 320.5625 344.8094Q320.17188 345.27814 320.17188 346.2ZM327.09375 345.1219L325.59375 344.85626Q325.84375 343.95 326.45312 343.52814Q327.07812 343.09064 328.29688 343.09064Q329.39062 343.09064 329.92188 343.35626Q330.46875 343.60626 330.6875 344.0125Q330.90625 344.40314 330.90625 345.48126L330.89062 347.40314Q330.89062 348.23126 330.96875 348.6219Q331.04688 348.9969 331.26562 349.45L329.64062 349.45Q329.57812 349.27814 329.48438 348.96564Q329.4375 348.8094 329.42188 348.7625Q329.0 349.1844 328.51562 349.3875Q328.04688 349.59064 327.5 349.59064Q326.53125 349.59064 325.96875 349.075Q325.42188 348.54376 325.42188 347.7469Q325.42188 347.21564 325.67188 346.8094Q325.9375 346.40314 326.39062 346.1844Q326.84375 345.95 327.70312 345.79376Q328.84375 345.575 329.29688 345.3875L329.29688 345.23126Q329.29688 344.7469 329.0625 344.54376Q328.82812 344.34064 328.17188 344.34064Q327.73438 344.34064 327.48438 344.5125Q327.25 344.6844 327.09375 345.1219ZM329.29688 346.46564Q328.98438 346.5594 328.29688 346.71564Q327.60938 346.85626 327.39062 346.9969Q327.07812 347.23126 327.07812 347.575Q327.07812 347.91876 327.32812 348.1844Q327.59375 348.4344 327.98438 348.4344Q328.4375 348.4344 328.84375 348.1375Q329.14062 347.91876 329.23438 347.59064Q329.29688 347.3875 329.29688 346.79376L329.29688 346.46564ZM339.46875 347.46564L341.10938 347.7469Q340.79688 348.65314 340.10938 349.1219Q339.42188 349.59064 338.40625 349.59064Q336.78125 349.59064 336.0 348.52814Q335.375 347.6844 335.375 346.3875Q335.375 344.84064 336.1875 343.96564Q337.0 343.09064 338.23438 343.09064Q339.625 343.09064 340.42188 344.0125Q341.23438 344.91876 341.1875 346.8094L337.0625 346.8094Q337.09375 347.54376 337.46875 347.95Q337.84375 348.35626 338.42188 348.35626Q338.79688 348.35626 339.0625 348.15314Q339.32812 347.9344 339.46875 347.46564ZM339.5625 345.8094Q339.54688 345.09064 339.1875 344.71564Q338.84375 344.34064 338.32812 344.34064Q337.79688 344.34064 337.4375 344.73126Q337.09375 345.1375 337.09375 345.8094L339.5625 345.8094ZM348.51562 349.45L346.875 349.45L346.875 346.27814Q346.875 345.2625 346.76562 344.96564Q346.67188 344.66876 346.42188 344.5125Q346.1875 344.34064 345.85938 344.34064Q345.42188 344.34064 345.07812 344.575Q344.75 344.8094 344.625 345.2Q344.5 345.59064 344.5 346.6375L344.5 349.45L342.84375 349.45L342.84375 343.23126L344.375 343.23126L344.375 344.1375Q345.1875 343.09064 346.4375 343.09064Q346.96875 343.09064 347.42188 343.29376Q347.875 343.48126 348.10938 343.79376Q348.34375 344.09064 348.42188 344.48126Q348.51562 344.85626 348.51562 345.575L348.51562 349.45ZM352.71875 343.23126L352.71875 344.54376L351.59375 344.54376L351.59375 347.04376Q351.59375 347.8094 351.625 347.9344Q351.65625 348.0594 351.76562 348.15314Q351.89062 348.23126 352.04688 348.23126Q352.28125 348.23126 352.70312 348.0594L352.84375 349.34064Q352.28125 349.59064 351.54688 349.59064Q351.10938 349.59064 350.75 349.45Q350.39062 349.29376 350.21875 349.0594Q350.0625 348.8094 349.98438 348.41876Q349.9375 348.1219 349.9375 347.2469L349.9375 344.54376L349.1875 344.54376L349.1875 343.23126L349.9375 343.23126L349.9375 341.9969L351.59375 341.02814L351.59375 343.23126L352.71875 343.23126ZM355.4375 349.45L353.79688 349.45L353.79688 343.23126L355.32812 343.23126L355.32812 344.10626Q355.71875 343.48126 356.03125 343.29376Q356.34375 343.09064 356.73438 343.09064Q357.29688 343.09064 357.82812 343.40314L357.3125 344.825Q356.89062 344.5594 356.54688 344.5594Q356.1875 344.5594 355.95312 344.7625Q355.71875 344.95 355.57812 345.45Q355.4375 345.9344 355.4375 347.52814L355.4375 349.45ZM360.09375 345.1219L358.59375 344.85626Q358.84375 343.95 359.45312 343.52814Q360.07812 343.09064 361.29688 343.09064Q362.39062 343.09064 362.92188 343.35626Q363.46875 343.60626 363.6875 344.0125Q363.90625 344.40314 363.90625 345.48126L363.89062 347.40314Q363.89062 348.23126 363.96875 348.6219Q364.04688 348.9969 364.26562 349.45L362.64062 349.45Q362.57812 349.27814 362.48438 348.96564Q362.4375 348.8094 362.42188 348.7625Q362.0 349.1844 361.51562 349.3875Q361.04688 349.59064 360.5 349.59064Q359.53125 349.59064 358.96875 349.075Q358.42188 348.54376 358.42188 347.7469Q358.42188 347.21564 358.67188 346.8094Q358.9375 346.40314 359.39062 346.1844Q359.84375 345.95 360.70312 345.79376Q361.84375 345.575 362.29688 345.3875L362.29688 345.23126Q362.29688 344.7469 362.0625 344.54376Q361.82812 344.34064 361.17188 344.34064Q360.73438 344.34064 360.48438 344.5125Q360.25 344.6844 360.09375 345.1219ZM362.29688 346.46564Q361.98438 346.5594 361.29688 346.71564Q360.60938 346.85626 360.39062 346.9969Q360.07812 347.23126 360.07812 347.575Q360.07812 347.91876 360.32812 348.1844Q360.59375 348.4344 360.98438 348.4344Q361.4375 348.4344 361.84375 348.1375Q362.14062 347.91876 362.23438 347.59064Q362.29688 347.3875 362.29688 346.79376L362.29688 346.46564ZM371.5625 349.45L370.04688 349.45L370.04688 348.52814Q369.65625 349.075 369.14062 349.34064Q368.625 349.59064 368.09375 349.59064Q367.01562 349.59064 366.25 348.73126Q365.5 347.85626 365.5 346.3094Q365.5 344.73126 366.23438 343.91876Q366.98438 343.09064 368.125 343.09064Q369.15625 343.09064 369.92188 343.95L369.92188 340.85626L371.5625 340.85626L371.5625 349.45ZM367.17188 346.2Q367.17188 347.2 367.45312 347.6375Q367.84375 348.29376 368.5625 348.29376Q369.125 348.29376 369.51562 347.8094Q369.92188 347.325 369.92188 346.35626Q369.92188 345.29376 369.53125 344.825Q369.15625 344.34064 368.54688 344.34064Q367.96875 344.34064 367.5625 344.8094Q367.17188 345.27814 367.17188 346.2ZM374.09375 345.1219L372.59375 344.85626Q372.84375 343.95 373.45312 343.52814Q374.07812 343.09064 375.29688 343.09064Q376.39062 343.09064 376.92188 343.35626Q377.46875 343.60626 377.6875 344.0125Q377.90625 344.40314 377.90625 345.48126L377.89062 347.40314Q377.89062 348.23126 377.96875 348.6219Q378.04688 348.9969 378.26562 349.45L376.64062 349.45Q376.57812 349.27814 376.48438 348.96564Q376.4375 348.8094 376.42188 348.7625Q376.0 349.1844 375.51562 349.3875Q375.04688 349.59064 374.5 349.59064Q373.53125 349.59064 372.96875 349.075Q372.42188 348.54376 372.42188 347.7469Q372.42188 347.21564 372.67188 346.8094Q372.9375 346.40314 373.39062 346.1844Q373.84375 345.95 374.70312 345.79376Q375.84375 345.575 376.29688 345.3875L376.29688 345.23126Q376.29688 344.7469 376.0625 344.54376Q375.82812 344.34064 375.17188 344.34064Q374.73438 344.34064 374.48438 344.5125Q374.25 344.6844 374.09375 345.1219ZM376.29688 346.46564Q375.98438 346.5594 375.29688 346.71564Q374.60938 346.85626 374.39062 346.9969Q374.07812 347.23126 374.07812 347.575Q374.07812 347.91876 374.32812 348.1844Q374.59375 348.4344 374.98438 348.4344Q375.4375 348.4344 375.84375 348.1375Q376.14062 347.91876 376.23438 347.59064Q376.29688 347.3875 376.29688 346.79376L376.29688 346.46564ZM385.59375 351.98126L384.46875 351.98126Q383.5625 350.6219 383.09375 349.16876Q382.625 347.7 382.625 346.34064Q382.625 344.6375 383.20312 343.1375Q383.71875 341.825 384.48438 340.71564L385.60938 340.71564Q384.8125 342.48126 384.5 343.73126Q384.20312 344.98126 384.20312 346.3719Q384.20312 347.34064 384.375 348.35626Q384.5625 349.35626 384.875 350.2625Q385.07812 350.85626 385.59375 351.98126ZM392.51562 349.45L390.875 349.45L390.875 346.27814Q390.875 345.2625 390.76562 344.96564Q390.67188 344.66876 390.42188 344.5125Q390.1875 344.34064 389.85938 344.34064Q389.42188 344.34064 389.07812 344.575Q388.75 344.8094 388.625 345.2Q388.5 345.59064 388.5 346.6375L388.5 349.45L386.84375 349.45L386.84375 343.23126L388.375 343.23126L388.375 344.1375Q389.1875 343.09064 390.4375 343.09064Q390.96875 343.09064 391.42188 343.29376Q391.875 343.48126 392.10938 343.79376Q392.34375 344.09064 392.42188 344.48126Q392.51562 344.85626 392.51562 345.575L392.51562 349.45ZM393.40625 351.98126Q393.89062 350.9344 394.09375 350.3719Q394.29688 349.825 394.45312 349.10626Q394.625 348.3719 394.70312 347.71564Q394.79688 347.0594 394.79688 346.3719Q394.79688 344.98126 394.5 343.73126Q394.20312 342.48126 393.39062 340.71564L394.51562 340.71564Q395.39062 341.96564 395.875 343.3875Q396.375 344.79376 396.375 346.2469Q396.375 347.48126 395.98438 348.8719Q395.54688 350.45 394.54688 351.98126L393.40625 351.98126Z" fill-rule="nonzero"/><path fill="#000000" d="M29.550013 230.62083L22.409388 230.62083L22.409388 233.16771L20.956263 233.16771L20.956263 226.35521L22.409388 226.35521L22.409388 228.88646L29.550013 228.88646L29.550013 230.62083ZM27.565638 221.96458L27.846888 220.32396Q28.753138 220.63646 29.221888 221.32396Q29.690638 222.01146 29.690638 223.02708Q29.690638 224.65208 28.628138 225.43333Q27.784388 226.05833 26.487513 226.05833Q24.940638 226.05833 24.065638 225.24583Q23.190638 224.43333 23.190638 223.19896Q23.190638 221.80833 24.112513 221.01146Q25.018763 220.19896 26.909388 220.24583L26.909388 224.37083Q27.643763 224.33958 28.050013 223.96458Q28.456263 223.58958 28.456263 223.01146Q28.456263 222.63646 28.253138 222.37083Q28.034388 222.10521 27.565638 221.96458ZM25.909388 221.87083Q25.190638 221.88646 24.815638 222.24583Q24.440638 222.58958 24.440638 223.10521Q24.440638 223.63646 24.831263 223.99583Q25.237513 224.33958 25.909388 224.33958L25.909388 221.87083ZM23.331263 218.69896L23.331263 217.18333L24.175013 217.18333Q23.190638 216.35521 23.190638 215.23021Q23.190638 214.63646 23.440638 214.19896Q23.675013 213.76146 24.175013 213.48021Q23.675013 213.07396 23.440638 212.60521Q23.190638 212.12083 23.190638 211.57396Q23.190638 210.90208 23.471888 210.43333Q23.737513 209.94896 24.284388 209.71458Q24.675013 209.54271 25.565638 209.54271L29.550013 209.54271L29.550013 211.18333L25.987513 211.18333Q25.065638 211.18333 24.800013 211.35521Q24.440638 211.58958 24.440638 212.05833Q24.440638 212.40208 24.659388 212.71458Q24.862513 213.01146 25.268763 213.15208Q25.675013 213.29271 26.565638 213.29271L29.550013 213.29271L29.550013 214.93333L26.143763 214.93333Q25.237513 214.93333 24.971888 215.02708Q24.706263 215.10521 24.581263 215.29271Q24.440638 215.48021 24.440638 215.79271Q24.440638 216.16771 24.659388 216.48021Q24.862513 216.77708 25.253138 216.91771Q25.628138 217.04271 26.518763 217.04271L29.550013 217.04271L29.550013 218.69896L23.331263 218.69896ZM23.331263 207.62083L23.331263 206.08958L24.237513 206.08958Q23.768763 205.77708 23.487513 205.27708Q23.190638 204.76146 23.190638 204.13646Q23.190638 203.05833 24.034388 202.30833Q24.878138 201.54271 26.409388 201.54271Q27.956263 201.54271 28.831263 202.30833Q29.690638 203.07396 29.690638 204.15208Q29.690638 204.66771 29.487513 205.08958Q29.284388 205.51146 28.784388 205.96458L31.925013 205.96458L31.925013 207.62083L23.331263 207.62083ZM26.331263 205.99583Q27.378138 205.99583 27.878138 205.57396Q28.378138 205.15208 28.378138 204.55833Q28.378138 203.98021 27.925013 203.60521Q27.456263 203.23021 26.409388 203.23021Q25.440638 203.23021 24.971888 203.62083Q24.487513 204.01146 24.487513 204.58958Q24.487513 205.19896 24.956263 205.60521Q25.425013 205.99583 26.331263 205.99583ZM26.346888 200.94896Q25.534388 200.94896 24.768763 200.54271Q23.987513 200.13646 23.596888 199.40208Q23.190638 198.66771 23.190638 197.74583Q23.190638 196.33958 24.112513 195.43333Q25.018763 194.52708 26.425013 194.52708Q27.831263 194.52708 28.768763 195.44896Q29.690638 196.35521 29.690638 197.73021Q29.690638 198.58958 29.300013 199.37083Q28.909388 200.13646 28.175013 200.54271Q27.425013 200.94896 26.346888 200.94896ZM26.440638 199.26146Q27.362513 199.26146 27.862513 198.82396Q28.346888 198.38646 28.346888 197.74583Q28.346888 197.08958 27.862513 196.66771Q27.362513 196.23021 26.425013 196.23021Q25.518763 196.23021 25.034388 196.66771Q24.534388 197.08958 24.534388 197.74583Q24.534388 198.38646 25.034388 198.82396Q25.518763 199.26146 26.440638 199.26146ZM32.08126 187.83958L32.08126 188.96458Q30.721888 189.87083 29.268763 190.33958Q27.800013 190.80833 26.440638 190.80833Q24.737513 190.80833 23.237513 190.23021Q21.925013 189.71458 20.815638 188.94896L20.815638 187.82396Q22.581263 188.62083 23.831263 188.93333Q25.081263 189.23021 26.471888 189.23021Q27.440638 189.23021 28.456263 189.05833Q29.456263 188.87083 30.362513 188.55833Q30.956263 188.35521 32.08126 187.83958ZM23.331263 186.69896L23.331263 185.18333L24.175013 185.18333Q23.190638 184.35521 23.190638 183.23021Q23.190638 182.63646 23.440638 182.19896Q23.675013 181.76146 24.175013 181.48021Q23.675013 181.07396 23.440638 180.60521Q23.190638 180.12083 23.190638 179.57396Q23.190638 178.90208 23.471888 178.43333Q23.737513 177.94896 24.284388 177.71458Q24.675013 177.54271 25.565638 177.54271L29.550013 177.54271L29.550013 179.18333L25.987513 179.18333Q25.065638 179.18333 24.800013 179.35521Q24.440638 179.58958 24.440638 180.05833Q24.440638 180.40208 24.659388 180.71458Q24.862513 181.01146 25.268763 181.15208Q25.675013 181.29271 26.565638 181.29271L29.550013 181.29271L29.550013 182.93333L26.143763 182.93333Q25.237513 182.93333 24.971888 183.02708Q24.706263 183.10521 24.581263 183.29271Q24.440638 183.48021 24.440638 183.79271Q24.440638 184.16771 24.659388 184.48021Q24.862513 184.77708 25.253138 184.91771Q25.628138 185.04271 26.518763 185.04271L29.550013 185.04271L29.550013 186.69896L23.331263 186.69896ZM27.768763 176.15208L27.518763 174.49583Q28.003138 174.38646 28.253138 174.07396Q28.503138 173.74583 28.503138 173.16771Q28.503138 172.52708 28.268763 172.21458Q28.096888 171.99583 27.831263 171.99583Q27.643763 171.99583 27.518763 172.10521Q27.393763 172.23021 27.300013 172.65208Q26.862513 174.65208 26.503138 175.18333Q25.987513 175.91771 25.096888 175.91771Q24.284388 175.91771 23.737513 175.29271Q23.190638 174.65208 23.190638 173.30833Q23.190638 172.02708 23.612513 171.40208Q24.018763 170.77708 24.831263 170.54271L25.112513 172.10521Q24.753138 172.19896 24.565638 172.48021Q24.362513 172.76146 24.362513 173.27708Q24.362513 173.91771 24.550013 174.19896Q24.675013 174.38646 24.878138 174.38646Q25.065638 174.38646 25.190638 174.23021Q25.346888 174.01146 25.643763 172.69896Q25.940638 171.37083 26.378138 170.85521Q26.815638 170.33958 27.596888 170.33958Q28.456263 170.33958 29.081263 171.05833Q29.690638 171.76146 29.690638 173.16771Q29.690638 174.43333 29.175013 175.18333Q28.659388 175.91771 27.768763 176.15208ZM32.08126 169.02708Q31.034388 168.54271 30.471888 168.33958Q29.925013 168.13646 29.206263 167.98021Q28.471888 167.80833 27.815638 167.73021Q27.159388 167.63646 26.471888 167.63646Q25.081263 167.63646 23.831263 167.93333Q22.581263 168.23021 20.815638 169.04271L20.815638 167.91771Q22.065638 167.04271 23.487513 166.55833Q24.893763 166.05833 26.346888 166.05833Q27.581263 166.05833 28.971888 166.44896Q30.550013 166.88646 32.08126 167.88646L32.08126 169.02708Z" fill-rule="nonzero"/><path fill="#000000" d="M65.05 283.13348L66.15938 283.03973Q66.28438 283.85223 66.72188 284.25848Q67.175 284.66473 67.81563 284.66473Q68.56563 284.66473 69.09688 284.0866Q69.62813 283.50848 69.62813 282.57098Q69.62813 281.66473 69.1125 281.1491Q68.6125 280.61786 67.78438 280.61786Q67.28438 280.61786 66.8625 280.85223Q66.45625 281.0866 66.22188 281.44598L65.2375 281.32098L66.06563 276.91473L70.34688 276.91473L70.34688 277.91473L66.90938 277.91473L66.45625 280.22723Q67.22188 279.68036 68.06563 279.68036Q69.19063 279.68036 69.95625 280.4616Q70.7375 281.24286 70.7375 282.47723Q70.7375 283.63348 70.06563 284.49286Q69.2375 285.5241 67.81563 285.5241Q66.64375 285.5241 65.89375 284.86786Q65.15938 284.2116 65.05 283.13348Z" fill-rule="nonzero"/><path fill="#000000" d="M62.01875 257.4406L60.971874 257.4406L60.971874 250.72186Q60.58125 251.08124 59.95625 251.45624Q59.346874 251.81561 58.8625 251.98749L58.8625 250.97186Q59.7375 250.54999 60.39375 249.97186Q61.065624 249.37811 61.346874 248.81561L62.01875 248.81561L62.01875 257.4406ZM65.05 253.20624Q65.05 251.67499 65.3625 250.75311Q65.675 249.81561 66.28438 249.31561Q66.90938 248.81561 67.84688 248.81561Q68.53438 248.81561 69.05 249.09686Q69.58125 249.37811 69.925 249.90936Q70.26875 250.42499 70.45625 251.17499Q70.64375 251.92499 70.64375 253.20624Q70.64375 254.72186 70.33125 255.64374Q70.03438 256.5656 69.40938 257.08124Q68.8 257.58124 67.84688 257.58124Q66.6125 257.58124 65.89375 256.6906Q65.05 255.62811 65.05 253.20624ZM66.12813 253.20624Q66.12813 255.31561 66.62813 256.01874Q67.12813 256.72186 67.84688 256.72186Q68.58125 256.72186 69.06563 256.01874Q69.56563 255.31561 69.56563 253.20624Q69.56563 251.08124 69.06563 250.39374Q68.58125 249.69061 67.83125 249.69061Q67.1125 249.69061 66.675 250.29999Q66.12813 251.08124 66.12813 253.20624Z" fill-rule="nonzero"/><path fill="#000000" d="M58.05 190.30928L59.159374 190.21553Q59.284374 191.02803 59.721874 191.43428Q60.175 191.84053 60.815624 191.84053Q61.565624 191.84053 62.096874 191.2624Q62.628124 190.68428 62.628124 189.74678Q62.628124 188.84053 62.1125 188.3249Q61.6125 187.79366 60.784374 187.79366Q60.284374 187.79366 59.8625 188.02803Q59.45625 188.2624 59.221874 188.62178L58.2375 188.49678L59.065624 184.09053L63.346874 184.09053L63.346874 185.09053L59.909374 185.09053L59.45625 187.40303Q60.221874 186.85616 61.065624 186.85616Q62.190624 186.85616 62.95625 187.6374Q63.7375 188.41866 63.7375 189.65303Q63.7375 190.80928 63.065624 191.66866Q62.2375 192.6999 60.815624 192.6999Q59.64375 192.6999 58.89375 192.04366Q58.159374 191.3874 58.05 190.30928ZM65.05 188.3249Q65.05 186.79366 65.3625 185.87178Q65.675 184.93428 66.28438 184.43428Q66.90938 183.93428 67.84688 183.93428Q68.53438 183.93428 69.05 184.21553Q69.58125 184.49678 69.925 185.02803Q70.26875 185.54366 70.45625 186.29366Q70.64375 187.04366 70.64375 188.3249Q70.64375 189.84053 70.33125 190.7624Q70.03438 191.68428 69.40938 192.1999Q68.8 192.6999 67.84688 192.6999Q66.6125 192.6999 65.89375 191.80928Q65.05 190.74678 65.05 188.3249ZM66.12813 188.3249Q66.12813 190.43428 66.62813 191.1374Q67.12813 191.84053 67.84688 191.84053Q68.58125 191.84053 69.06563 191.1374Q69.56563 190.43428 69.56563 188.3249Q69.56563 186.1999 69.06563 185.5124Q68.58125 184.80928 67.83125 184.80928Q67.1125 184.80928 66.675 185.41866Q66.12813 186.1999 66.12813 188.3249Z" fill-rule="nonzero"/><path fill="#000000" d="M55.01875 164.61642L53.971874 164.61642L53.971874 157.89767Q53.58125 158.25705 52.95625 158.63205Q52.346874 158.99142 51.8625 159.1633L51.8625 158.14767Q52.7375 157.7258 53.39375 157.14767Q54.065624 156.55392 54.346874 155.99142L55.01875 155.99142L55.01875 164.61642ZM58.05 160.38205Q58.05 158.8508 58.3625 157.92892Q58.675 156.99142 59.284374 156.49142Q59.909374 155.99142 60.846874 155.99142Q61.534374 155.99142 62.05 156.27267Q62.58125 156.55392 62.925 157.08517Q63.26875 157.6008 63.45625 158.3508Q63.64375 159.1008 63.64375 160.38205Q63.64375 161.89767 63.33125 162.81955Q63.034374 163.74142 62.409374 164.25705Q61.8 164.75705 60.846874 164.75705Q59.6125 164.75705 58.89375 163.86642Q58.05 162.80392 58.05 160.38205ZM59.128124 160.38205Q59.128124 162.49142 59.628124 163.19455Q60.128124 163.89767 60.846874 163.89767Q61.58125 163.89767 62.065624 163.19455Q62.565624 162.49142 62.565624 160.38205Q62.565624 158.25705 62.065624 157.56955Q61.58125 156.86642 60.83125 156.86642Q60.1125 156.86642 59.675 157.4758Q59.128124 158.25705 59.128124 160.38205ZM65.05 160.38205Q65.05 158.8508 65.3625 157.92892Q65.675 156.99142 66.28438 156.49142Q66.90938 155.99142 67.84688 155.99142Q68.53438 155.99142 69.05 156.27267Q69.58125 156.55392 69.925 157.08517Q70.26875 157.6008 70.45625 158.3508Q70.64375 159.1008 70.64375 160.38205Q70.64375 161.89767 70.33125 162.81955Q70.03438 163.74142 69.40938 164.25705Q68.8 164.75705 67.84688 164.75705Q66.6125 164.75705 65.89375 163.86642Q65.05 162.80392 65.05 160.38205ZM66.12813 160.38205Q66.12813 162.49142 66.62813 163.19455Q67.12813 163.89767 67.84688 163.89767Q68.58125 163.89767 69.06563 163.19455Q69.56563 162.49142 69.56563 160.38205Q69.56563 158.25705 69.06563 157.56955Q68.58125 156.86642 67.83125 156.86642Q67.1125 156.86642 66.675 157.4758Q66.12813 158.25705 66.12813 160.38205Z" fill-rule="nonzero"/><path fill="#000000" d="M51.05 97.4851L52.159374 97.39135Q52.284374 98.20385 52.721874 98.6101Q53.175 99.01635 53.815624 99.01635Q54.565624 99.01635 55.096874 98.438225Q55.628124 97.8601 55.628124 96.9226Q55.628124 96.01635 55.1125 95.500725Q54.6125 94.969475 53.784374 94.969475Q53.284374 94.969475 52.8625 95.20385Q52.45625 95.438225 52.221874 95.7976L51.2375 95.6726L52.065624 91.26635L56.346874 91.26635L56.346874 92.26635L52.909374 92.26635L52.45625 94.57885Q53.221874 94.031975 54.065624 94.031975Q55.190624 94.031975 55.95625 94.813225Q56.7375 95.594475 56.7375 96.82885Q56.7375 97.9851 56.065624 98.844475Q55.2375 99.875725 53.815624 99.875725Q52.64375 99.875725 51.89375 99.219475Q51.159374 98.563225 51.05 97.4851ZM58.05 95.500725Q58.05 93.969475 58.3625 93.0476Q58.675 92.1101 59.284374 91.6101Q59.909374 91.1101 60.846874 91.1101Q61.534374 91.1101 62.05 91.39135Q62.58125 91.6726 62.925 92.20385Q63.26875 92.719475 63.45625 93.469475Q63.64375 94.219475 63.64375 95.500725Q63.64375 97.01635 63.33125 97.938225Q63.034374 98.8601 62.409374 99.375725Q61.8 99.875725 60.846874 99.875725Q59.6125 99.875725 58.89375 98.9851Q58.05 97.9226 58.05 95.500725ZM59.128124 95.500725Q59.128124 97.6101 59.628124 98.313225Q60.128124 99.01635 60.846874 99.01635Q61.58125 99.01635 62.065624 98.313225Q62.565624 97.6101 62.565624 95.500725Q62.565624 93.375725 62.065624 92.688225Q61.58125 91.9851 60.83125 91.9851Q60.1125 91.9851 59.675 92.594475Q59.128124 93.375725 59.128124 95.500725ZM65.05 95.500725Q65.05 93.969475 65.3625 93.0476Q65.675 92.1101 66.28438 91.6101Q66.90938 91.1101 67.84688 91.1101Q68.53438 91.1101 69.05 91.39135Q69.58125 91.6726 69.925 92.20385Q70.26875 92.719475 70.45625 93.469475Q70.64375 94.219475 70.64375 95.500725Q70.64375 97.01635 70.33125 97.938225Q70.03438 98.8601 69.40938 99.375725Q68.8 99.875725 67.84688 99.875725Q66.6125 99.875725 65.89375 98.9851Q65.05 97.9226 65.05 95.500725ZM66.12813 95.500725Q66.12813 97.6101 66.62813 98.313225Q67.12813 99.01635 67.84688 99.01635Q68.58125 99.01635 69.06563 98.313225Q69.56563 97.6101 69.56563 95.500725Q69.56563 93.375725 69.06563 92.688225Q68.58125 91.9851 67.83125 91.9851Q67.1125 91.9851 66.675 92.594475Q66.12813 93.375725 66.12813 95.500725Z" fill-rule="nonzero"/><path fill="#000000" d="M159.30496 316.4344L159.30496 317.45L153.61746 317.45Q153.61746 317.075 153.74246 316.71564Q153.96121 316.1375 154.42996 315.575Q154.91434 315.0125 155.82059 314.27814Q157.22684 313.1219 157.71121 312.45Q158.21121 311.77814 158.21121 311.1844Q158.21121 310.5594 157.75809 310.1375Q157.30496 309.7 156.58621 309.7Q155.82059 309.7 155.36746 310.15314Q154.91434 310.60626 154.89871 311.41876L153.82059 311.3094Q153.92996 310.09064 154.64871 309.46564Q155.38309 308.825 156.61746 308.825Q157.85184 308.825 158.57059 309.5125Q159.28934 310.2 159.28934 311.21564Q159.28934 311.73126 159.07059 312.23126Q158.86746 312.71564 158.36746 313.27814Q157.88309 313.825 156.75809 314.77814Q155.80496 315.575 155.52371 315.8719Q155.25809 316.15314 155.08621 316.4344L159.30496 316.4344ZM160.75809 313.21564Q160.75809 311.6844 161.07059 310.7625Q161.38309 309.825 161.99246 309.325Q162.61746 308.825 163.55496 308.825Q164.24246 308.825 164.75809 309.10626Q165.28934 309.3875 165.63309 309.91876Q165.97684 310.4344 166.16434 311.1844Q166.35184 311.9344 166.35184 313.21564Q166.35184 314.73126 166.03934 315.65314Q165.74246 316.575 165.11746 317.09064Q164.50809 317.59064 163.55496 317.59064Q162.32059 317.59064 161.60184 316.7Q160.75809 315.6375 160.75809 313.21564ZM161.83621 313.21564Q161.83621 315.325 162.33621 316.02814Q162.83621 316.73126 163.55496 316.73126Q164.28934 316.73126 164.77371 316.02814Q165.27371 315.325 165.27371 313.21564Q165.27371 311.09064 164.77371 310.40314Q164.28934 309.7 163.53934 309.7Q162.82059 309.7 162.38309 310.3094Q161.83621 311.09064 161.83621 313.21564ZM167.75809 313.21564Q167.75809 311.6844 168.07059 310.7625Q168.38309 309.825 168.99246 309.325Q169.61746 308.825 170.55496 308.825Q171.24246 308.825 171.75809 309.10626Q172.28934 309.3875 172.63309 309.91876Q172.97684 310.4344 173.16434 311.1844Q173.35184 311.9344 173.35184 313.21564Q173.35184 314.73126 173.03934 315.65314Q172.74246 316.575 172.11746 317.09064Q171.50809 317.59064 170.55496 317.59064Q169.32059 317.59064 168.60184 316.7Q167.75809 315.6375 167.75809 313.21564ZM168.83621 313.21564Q168.83621 315.325 169.33621 316.02814Q169.83621 316.73126 170.55496 316.73126Q171.28934 316.73126 171.77371 316.02814Q172.27371 315.325 172.27371 313.21564Q172.27371 311.09064 171.77371 310.40314Q171.28934 309.7 170.53934 309.7Q169.82059 309.7 169.38309 310.3094Q168.83621 311.09064 168.83621 313.21564ZM174.75809 313.21564Q174.75809 311.6844 175.07059 310.7625Q175.38309 309.825 175.99246 309.325Q176.61746 308.825 177.55496 308.825Q178.24246 308.825 178.75809 309.10626Q179.28934 309.3875 179.63309 309.91876Q179.97684 310.4344 180.16434 311.1844Q180.35184 311.9344 180.35184 313.21564Q180.35184 314.73126 180.03934 315.65314Q179.74246 316.575 179.11746 317.09064Q178.50809 317.59064 177.55496 317.59064Q176.32059 317.59064 175.60184 316.7Q174.75809 315.6375 174.75809 313.21564ZM175.83621 313.21564Q175.83621 315.325 176.33621 316.02814Q176.83621 316.73126 177.55496 316.73126Q178.28934 316.73126 178.77371 316.02814Q179.27371 315.325 179.27371 313.21564Q179.27371 311.09064 178.77371 310.40314Q178.28934 309.7 177.53934 309.7Q176.82059 309.7 176.38309 310.3094Q175.83621 311.09064 175.83621 313.21564ZM181.75809 313.21564Q181.75809 311.6844 182.07059 310.7625Q182.38309 309.825 182.99246 309.325Q183.61746 308.825 184.55496 308.825Q185.24246 308.825 185.75809 309.10626Q186.28934 309.3875 186.63309 309.91876Q186.97684 310.4344 187.16434 311.1844Q187.35184 311.9344 187.35184 313.21564Q187.35184 314.73126 187.03934 315.65314Q186.74246 316.575 186.11746 317.09064Q185.50809 317.59064 184.55496 317.59064Q183.32059 317.59064 182.60184 316.7Q181.75809 315.6375 181.75809 313.21564ZM182.83621 313.21564Q182.83621 315.325 183.33621 316.02814Q183.83621 316.73126 184.55496 316.73126Q185.28934 316.73126 185.77371 316.02814Q186.27371 315.325 186.27371 313.21564Q186.27371 311.09064 185.77371 310.40314Q185.28934 309.7 184.53934 309.7Q183.82059 309.7 183.38309 310.3094Q182.83621 311.09064 182.83621 313.21564ZM188.75809 313.21564Q188.75809 311.6844 189.07059 310.7625Q189.38309 309.825 189.99246 309.325Q190.61746 308.825 191.55496 308.825Q192.24246 308.825 192.75809 309.10626Q193.28934 309.3875 193.63309 309.91876Q193.97684 310.4344 194.16434 311.1844Q194.35184 311.9344 194.35184 313.21564Q194.35184 314.73126 194.03934 315.65314Q193.74246 316.575 193.11746 317.09064Q192.50809 317.59064 191.55496 317.59064Q190.32059 317.59064 189.60184 316.7Q188.75809 315.6375 188.75809 313.21564ZM189.83621 313.21564Q189.83621 315.325 190.33621 316.02814Q190.83621 316.73126 191.55496 316.73126Q192.28934 316.73126 192.77371 316.02814Q193.27371 315.325 193.27371 313.21564Q193.27371 311.09064 192.77371 310.40314Q192.28934 309.7 191.53934 309.7Q190.82059 309.7 190.38309 310.3094Q189.83621 311.09064 189.83621 313.21564Z" fill-rule="nonzero"/><path fill="#000000" d="M258.93106 317.45L258.93106 315.3875L255.21231 315.3875L255.21231 314.41876L259.1342 308.85626L259.99356 308.85626L259.99356 314.41876L261.1498 314.41876L261.1498 315.3875L259.99356 315.3875L259.99356 317.45L258.93106 317.45ZM258.93106 314.41876L258.93106 310.5594L256.24356 314.41876L258.93106 314.41876ZM262.55606 313.21564Q262.55606 311.6844 262.86856 310.7625Q263.18106 309.825 263.79044 309.325Q264.41544 308.825 265.35294 308.825Q266.04044 308.825 266.55606 309.10626Q267.0873 309.3875 267.43106 309.91876Q267.7748 310.4344 267.9623 311.1844Q268.1498 311.9344 268.1498 313.21564Q268.1498 314.73126 267.8373 315.65314Q267.54044 316.575 266.91544 317.09064Q266.30606 317.59064 265.35294 317.59064Q264.11856 317.59064 263.3998 316.7Q262.55606 315.6375 262.55606 313.21564ZM263.6342 313.21564Q263.6342 315.325 264.1342 316.02814Q264.6342 316.73126 265.35294 316.73126Q266.0873 316.73126 266.5717 316.02814Q267.0717 315.325 267.0717 313.21564Q267.0717 311.09064 266.5717 310.40314Q266.0873 309.7 265.3373 309.7Q264.61856 309.7 264.18106 310.3094Q263.6342 311.09064 263.6342 313.21564ZM269.55606 313.21564Q269.55606 311.6844 269.86856 310.7625Q270.18106 309.825 270.79044 309.325Q271.41544 308.825 272.35294 308.825Q273.04044 308.825 273.55606 309.10626Q274.0873 309.3875 274.43106 309.91876Q274.7748 310.4344 274.9623 311.1844Q275.1498 311.9344 275.1498 313.21564Q275.1498 314.73126 274.8373 315.65314Q274.54044 316.575 273.91544 317.09064Q273.30606 317.59064 272.35294 317.59064Q271.11856 317.59064 270.3998 316.7Q269.55606 315.6375 269.55606 313.21564ZM270.6342 313.21564Q270.6342 315.325 271.1342 316.02814Q271.6342 316.73126 272.35294 316.73126Q273.0873 316.73126 273.5717 316.02814Q274.0717 315.325 274.0717 313.21564Q274.0717 311.09064 273.5717 310.40314Q273.0873 309.7 272.3373 309.7Q271.61856 309.7 271.18106 310.3094Q270.6342 311.09064 270.6342 313.21564ZM276.55606 313.21564Q276.55606 311.6844 276.86856 310.7625Q277.18106 309.825 277.79044 309.325Q278.41544 308.825 279.35294 308.825Q280.04044 308.825 280.55606 309.10626Q281.0873 309.3875 281.43106 309.91876Q281.7748 310.4344 281.9623 311.1844Q282.1498 311.9344 282.1498 313.21564Q282.1498 314.73126 281.8373 315.65314Q281.54044 316.575 280.91544 317.09064Q280.30606 317.59064 279.35294 317.59064Q278.11856 317.59064 277.3998 316.7Q276.55606 315.6375 276.55606 313.21564ZM277.6342 313.21564Q277.6342 315.325 278.1342 316.02814Q278.6342 316.73126 279.35294 316.73126Q280.0873 316.73126 280.5717 316.02814Q281.0717 315.325 281.0717 313.21564Q281.0717 311.09064 280.5717 310.40314Q280.0873 309.7 279.3373 309.7Q278.61856 309.7 278.18106 310.3094Q277.6342 311.09064 277.6342 313.21564ZM283.55606 313.21564Q283.55606 311.6844 283.86856 310.7625Q284.18106 309.825 284.79044 309.325Q285.41544 308.825 286.35294 308.825Q287.04044 308.825 287.55606 309.10626Q288.0873 309.3875 288.43106 309.91876Q288.7748 310.4344 288.9623 311.1844Q289.1498 311.9344 289.1498 313.21564Q289.1498 314.73126 288.8373 315.65314Q288.54044 316.575 287.91544 317.09064Q287.30606 317.59064 286.35294 317.59064Q285.11856 317.59064 284.3998 316.7Q283.55606 315.6375 283.55606 313.21564ZM284.6342 313.21564Q284.6342 315.325 285.1342 316.02814Q285.6342 316.73126 286.35294 316.73126Q287.0873 316.73126 287.5717 316.02814Q288.0717 315.325 288.0717 313.21564Q288.0717 311.09064 287.5717 310.40314Q287.0873 309.7 286.3373 309.7Q285.61856 309.7 285.18106 310.3094Q284.6342 311.09064 284.6342 313.21564ZM290.55606 313.21564Q290.55606 311.6844 290.86856 310.7625Q291.18106 309.825 291.79044 309.325Q292.41544 308.825 293.35294 308.825Q294.04044 308.825 294.55606 309.10626Q295.0873 309.3875 295.43106 309.91876Q295.7748 310.4344 295.9623 311.1844Q296.1498 311.9344 296.1498 313.21564Q296.1498 314.73126 295.8373 315.65314Q295.54044 316.575 294.91544 317.09064Q294.30606 317.59064 293.35294 317.59064Q292.11856 317.59064 291.3998 316.7Q290.55606 315.6375 290.55606 313.21564ZM291.6342 313.21564Q291.6342 315.325 292.1342 316.02814Q292.6342 316.73126 293.35294 316.73126Q294.0873 316.73126 294.5717 316.02814Q295.0717 315.325 295.0717 313.21564Q295.0717 311.09064 294.5717 310.40314Q294.0873 309.7 293.3373 309.7Q292.61856 309.7 292.18106 310.3094Q291.6342 311.09064 291.6342 313.21564Z" fill-rule="nonzero"/><path fill="#000000" d="M362.82278 310.96564L361.7759 311.04376Q361.63528 310.41876 361.38528 310.1375Q360.94778 309.6844 360.32278 309.6844Q359.82278 309.6844 359.43216 309.96564Q358.94778 310.34064 358.6509 311.04376Q358.36966 311.73126 358.35403 313.0125Q358.72903 312.4344 359.2759 312.15314Q359.8384 311.8719 360.44778 311.8719Q361.49466 311.8719 362.22903 312.65314Q362.97903 313.4344 362.97903 314.65314Q362.97903 315.46564 362.61966 316.16876Q362.2759 316.85626 361.66653 317.23126Q361.05716 317.59064 360.29153 317.59064Q358.9634 317.59064 358.13528 316.6219Q357.30716 315.65314 357.30716 313.4344Q357.30716 310.9344 358.22903 309.8094Q359.0259 308.825 360.38528 308.825Q361.4009 308.825 362.04153 309.40314Q362.69778 309.96564 362.82278 310.96564ZM358.5259 314.66876Q358.5259 315.21564 358.74466 315.71564Q358.97903 316.2 359.38528 316.46564Q359.80716 316.73126 360.2759 316.73126Q360.93216 316.73126 361.41653 316.2Q361.9009 315.65314 361.9009 314.73126Q361.9009 313.84064 361.41653 313.325Q360.94778 312.8094 360.22903 312.8094Q359.51028 312.8094 359.01028 313.325Q358.5259 313.84064 358.5259 314.66876ZM364.35403 313.21564Q364.35403 311.6844 364.66653 310.7625Q364.97903 309.825 365.5884 309.325Q366.2134 308.825 367.1509 308.825Q367.8384 308.825 368.35403 309.10626Q368.88528 309.3875 369.22903 309.91876Q369.57278 310.4344 369.76028 311.1844Q369.94778 311.9344 369.94778 313.21564Q369.94778 314.73126 369.63528 315.65314Q369.3384 316.575 368.7134 317.09064Q368.10403 317.59064 367.1509 317.59064Q365.91653 317.59064 365.19778 316.7Q364.35403 315.6375 364.35403 313.21564ZM365.43216 313.21564Q365.43216 315.325 365.93216 316.02814Q366.43216 316.73126 367.1509 316.73126Q367.88528 316.73126 368.36966 316.02814Q368.86966 315.325 368.86966 313.21564Q368.86966 311.09064 368.36966 310.40314Q367.88528 309.7 367.13528 309.7Q366.41653 309.7 365.97903 310.3094Q365.43216 311.09064 365.43216 313.21564ZM371.35403 313.21564Q371.35403 311.6844 371.66653 310.7625Q371.97903 309.825 372.5884 309.325Q373.2134 308.825 374.1509 308.825Q374.8384 308.825 375.35403 309.10626Q375.88528 309.3875 376.22903 309.91876Q376.57278 310.4344 376.76028 311.1844Q376.94778 311.9344 376.94778 313.21564Q376.94778 314.73126 376.63528 315.65314Q376.3384 316.575 375.7134 317.09064Q375.10403 317.59064 374.1509 317.59064Q372.91653 317.59064 372.19778 316.7Q371.35403 315.6375 371.35403 313.21564ZM372.43216 313.21564Q372.43216 315.325 372.93216 316.02814Q373.43216 316.73126 374.1509 316.73126Q374.88528 316.73126 375.36966 316.02814Q375.86966 315.325 375.86966 313.21564Q375.86966 311.09064 375.36966 310.40314Q374.88528 309.7 374.13528 309.7Q373.41653 309.7 372.97903 310.3094Q372.43216 311.09064 372.43216 313.21564ZM378.35403 313.21564Q378.35403 311.6844 378.66653 310.7625Q378.97903 309.825 379.5884 309.325Q380.2134 308.825 381.1509 308.825Q381.8384 308.825 382.35403 309.10626Q382.88528 309.3875 383.22903 309.91876Q383.57278 310.4344 383.76028 311.1844Q383.94778 311.9344 383.94778 313.21564Q383.94778 314.73126 383.63528 315.65314Q383.3384 316.575 382.7134 317.09064Q382.10403 317.59064 381.1509 317.59064Q379.91653 317.59064 379.19778 316.7Q378.35403 315.6375 378.35403 313.21564ZM379.43216 313.21564Q379.43216 315.325 379.93216 316.02814Q380.43216 316.73126 381.1509 316.73126Q381.88528 316.73126 382.36966 316.02814Q382.86966 315.325 382.86966 313.21564Q382.86966 311.09064 382.36966 310.40314Q381.88528 309.7 381.13528 309.7Q380.41653 309.7 379.97903 310.3094Q379.43216 311.09064 379.43216 313.21564ZM385.35403 313.21564Q385.35403 311.6844 385.66653 310.7625Q385.97903 309.825 386.5884 309.325Q387.2134 308.825 388.1509 308.825Q388.8384 308.825 389.35403 309.10626Q389.88528 309.3875 390.22903 309.91876Q390.57278 310.4344 390.76028 311.1844Q390.94778 311.9344 390.94778 313.21564Q390.94778 314.73126 390.63528 315.65314Q390.3384 316.575 389.7134 317.09064Q389.10403 317.59064 388.1509 317.59064Q386.91653 317.59064 386.19778 316.7Q385.35403 315.6375 385.35403 313.21564ZM386.43216 313.21564Q386.43216 315.325 386.93216 316.02814Q387.43216 316.73126 388.1509 316.73126Q388.88528 316.73126 389.36966 316.02814Q389.86966 315.325 389.86966 313.21564Q389.86966 311.09064 389.36966 310.40314Q388.88528 309.7 388.13528 309.7Q387.41653 309.7 386.97903 310.3094Q386.43216 311.09064 386.43216 313.21564ZM392.35403 313.21564Q392.35403 311.6844 392.66653 310.7625Q392.97903 309.825 393.5884 309.325Q394.2134 308.825 395.1509 308.825Q395.8384 308.825 396.35403 309.10626Q396.88528 309.3875 397.22903 309.91876Q397.57278 310.4344 397.76028 311.1844Q397.94778 311.9344 397.94778 313.21564Q397.94778 314.73126 397.63528 315.65314Q397.3384 316.575 396.7134 317.09064Q396.10403 317.59064 395.1509 317.59064Q393.91653 317.59064 393.19778 316.7Q392.35403 315.6375 392.35403 313.21564ZM393.43216 313.21564Q393.43216 315.325 393.93216 316.02814Q394.43216 316.73126 395.1509 316.73126Q395.88528 316.73126 396.36966 316.02814Q396.86966 315.325 396.86966 313.21564Q396.86966 311.09064 396.36966 310.40314Q395.88528 309.7 395.13528 309.7Q394.41653 309.7 393.97903 310.3094Q393.43216 311.09064 393.43216 313.21564Z" fill-rule="nonzero"/><path fill="#000000" d="M460.777 312.79376Q460.12076 312.54376 459.79263 312.10626Q459.48013 311.65314 459.48013 311.04376Q459.48013 310.10626 460.152 309.46564Q460.8395 308.825 461.94888 308.825Q463.07388 308.825 463.76138 309.48126Q464.44888 310.1375 464.44888 311.075Q464.44888 311.66876 464.13638 312.10626Q463.82388 312.54376 463.18326 312.79376Q463.98013 313.04376 464.38638 313.6219Q464.79263 314.2 464.79263 314.9969Q464.79263 316.09064 464.01138 316.84064Q463.24576 317.59064 461.9645 317.59064Q460.69888 317.59064 459.91763 316.84064Q459.13638 316.09064 459.13638 314.96564Q459.13638 314.1219 459.55826 313.5594Q459.99576 312.9969 460.777 312.79376ZM460.55826 310.9969Q460.55826 311.60626 460.94888 311.9969Q461.35513 312.3875 461.98013 312.3875Q462.5895 312.3875 462.98013 312.0125Q463.37076 311.6219 463.37076 311.0594Q463.37076 310.48126 462.9645 310.09064Q462.55826 309.6844 461.9645 309.6844Q461.35513 309.6844 460.94888 310.075Q460.55826 310.46564 460.55826 310.9969ZM460.23013 314.96564Q460.23013 315.41876 460.43326 315.84064Q460.652 316.2625 461.07388 316.4969Q461.49576 316.73126 461.98013 316.73126Q462.73013 316.73126 463.2145 316.2469Q463.7145 315.7625 463.7145 315.0125Q463.7145 314.2469 463.2145 313.7469Q462.7145 313.2469 461.94888 313.2469Q461.19888 313.2469 460.7145 313.7469Q460.23013 314.23126 460.23013 314.96564ZM466.152 313.21564Q466.152 311.6844 466.4645 310.7625Q466.777 309.825 467.38638 309.325Q468.01138 308.825 468.94888 308.825Q469.63638 308.825 470.152 309.10626Q470.68326 309.3875 471.027 309.91876Q471.37076 310.4344 471.55826 311.1844Q471.74576 311.9344 471.74576 313.21564Q471.74576 314.73126 471.43326 315.65314Q471.13638 316.575 470.51138 317.09064Q469.902 317.59064 468.94888 317.59064Q467.7145 317.59064 466.99576 316.7Q466.152 315.6375 466.152 313.21564ZM467.23013 313.21564Q467.23013 315.325 467.73013 316.02814Q468.23013 316.73126 468.94888 316.73126Q469.68326 316.73126 470.16763 316.02814Q470.66763 315.325 470.66763 313.21564Q470.66763 311.09064 470.16763 310.40314Q469.68326 309.7 468.93326 309.7Q468.2145 309.7 467.777 310.3094Q467.23013 311.09064 467.23013 313.21564ZM473.152 313.21564Q473.152 311.6844 473.4645 310.7625Q473.777 309.825 474.38638 309.325Q475.01138 308.825 475.94888 308.825Q476.63638 308.825 477.152 309.10626Q477.68326 309.3875 478.027 309.91876Q478.37076 310.4344 478.55826 311.1844Q478.74576 311.9344 478.74576 313.21564Q478.74576 314.73126 478.43326 315.65314Q478.13638 316.575 477.51138 317.09064Q476.902 317.59064 475.94888 317.59064Q474.7145 317.59064 473.99576 316.7Q473.152 315.6375 473.152 313.21564ZM474.23013 313.21564Q474.23013 315.325 474.73013 316.02814Q475.23013 316.73126 475.94888 316.73126Q476.68326 316.73126 477.16763 316.02814Q477.66763 315.325 477.66763 313.21564Q477.66763 311.09064 477.16763 310.40314Q476.68326 309.7 475.93326 309.7Q475.2145 309.7 474.777 310.3094Q474.23013 311.09064 474.23013 313.21564ZM480.152 313.21564Q480.152 311.6844 480.4645 310.7625Q480.777 309.825 481.38638 309.325Q482.01138 308.825 482.94888 308.825Q483.63638 308.825 484.152 309.10626Q484.68326 309.3875 485.027 309.91876Q485.37076 310.4344 485.55826 311.1844Q485.74576 311.9344 485.74576 313.21564Q485.74576 314.73126 485.43326 315.65314Q485.13638 316.575 484.51138 317.09064Q483.902 317.59064 482.94888 317.59064Q481.7145 317.59064 480.99576 316.7Q480.152 315.6375 480.152 313.21564ZM481.23013 313.21564Q481.23013 315.325 481.73013 316.02814Q482.23013 316.73126 482.94888 316.73126Q483.68326 316.73126 484.16763 316.02814Q484.66763 315.325 484.66763 313.21564Q484.66763 311.09064 484.16763 310.40314Q483.68326 309.7 482.93326 309.7Q482.2145 309.7 481.777 310.3094Q481.23013 311.09064 481.23013 313.21564ZM487.152 313.21564Q487.152 311.6844 487.4645 310.7625Q487.777 309.825 488.38638 309.325Q489.01138 308.825 489.94888 308.825Q490.63638 308.825 491.152 309.10626Q491.68326 309.3875 492.027 309.91876Q492.37076 310.4344 492.55826 311.1844Q492.74576 311.9344 492.74576 313.21564Q492.74576 314.73126 492.43326 315.65314Q492.13638 316.575 491.51138 317.09064Q490.902 317.59064 489.94888 317.59064Q488.7145 317.59064 487.99576 316.7Q487.152 315.6375 487.152 313.21564ZM488.23013 313.21564Q488.23013 315.325 488.73013 316.02814Q489.23013 316.73126 489.94888 316.73126Q490.68326 316.73126 491.16763 316.02814Q491.66763 315.325 491.66763 313.21564Q491.66763 311.09064 491.16763 310.40314Q490.68326 309.7 489.93326 309.7Q489.2145 309.7 488.777 310.3094Q488.23013 311.09064 488.23013 313.21564ZM494.152 313.21564Q494.152 311.6844 494.4645 310.7625Q494.777 309.825 495.38638 309.325Q496.01138 308.825 496.94888 308.825Q497.63638 308.825 498.152 309.10626Q498.68326 309.3875 499.027 309.91876Q499.37076 310.4344 499.55826 311.1844Q499.74576 311.9344 499.74576 313.21564Q499.74576 314.73126 499.43326 315.65314Q499.13638 316.575 498.51138 317.09064Q497.902 317.59064 496.94888 317.59064Q495.7145 317.59064 494.99576 316.7Q494.152 315.6375 494.152 313.21564ZM495.23013 313.21564Q495.23013 315.325 495.73013 316.02814Q496.23013 316.73126 496.94888 316.73126Q497.68326 316.73126 498.16763 316.02814Q498.66763 315.325 498.66763 313.21564Q498.66763 311.09064 498.16763 310.40314Q497.68326 309.7 496.93326 309.7Q496.2145 309.7 495.777 310.3094Q495.23013 311.09064 495.23013 313.21564Z" fill-rule="nonzero"/><path fill="#999999" d="M19.659374 63.05L19.659374 53.034374L26.909374 53.034374L26.909374 54.20625L20.9875 54.20625L20.9875 57.284374L26.534374 57.284374L26.534374 58.45625L20.9875 58.45625L20.9875 61.8625L27.14375 61.8625L27.14375 63.05L19.659374 63.05ZM27.9875 60.878124L29.190624 60.690624Q29.3 61.425 29.76875 61.815624Q30.2375 62.20625 31.08125 62.20625Q31.925 62.20625 32.33125 61.8625Q32.753124 61.51875 32.753124 61.05Q32.753124 60.628124 32.378124 60.39375Q32.128124 60.221874 31.128124 59.971874Q29.76875 59.628124 29.2375 59.378124Q28.721874 59.128124 28.45625 58.690624Q28.190624 58.253124 28.190624 57.721874Q28.190624 57.2375 28.409374 56.83125Q28.628124 56.409374 29.01875 56.128124Q29.3 55.925 29.784374 55.784374Q30.284374 55.628124 30.8625 55.628124Q31.70625 55.628124 32.346874 55.878124Q33.003124 56.1125 33.315624 56.534374Q33.628124 56.95625 33.7375 57.659374L32.534374 57.83125Q32.45625 57.26875 32.05 56.95625Q31.659374 56.64375 30.940624 56.64375Q30.096874 56.64375 29.7375 56.925Q29.378124 57.190624 29.378124 57.58125Q29.378124 57.815624 29.51875 58.003124Q29.675 58.20625 30.003124 58.33125Q30.175 58.39375 31.08125 58.64375Q32.39375 59.003124 32.909374 59.221874Q33.425 59.440624 33.70625 59.8625Q34.003124 60.284374 34.003124 60.909374Q34.003124 61.534374 33.64375 62.08125Q33.3 62.6125 32.6125 62.925Q31.940624 63.221874 31.08125 63.221874Q29.675 63.221874 28.925 62.628124Q28.190624 62.034374 27.9875 60.878124ZM40.20625 60.39375L41.425 60.55Q41.221874 61.8 40.39375 62.51875Q39.58125 63.221874 38.39375 63.221874Q36.909374 63.221874 36.003124 62.253124Q35.096874 61.26875 35.096874 59.440624Q35.096874 58.26875 35.4875 57.39375Q35.878124 56.503124 36.675 56.065624Q37.471874 55.628124 38.409374 55.628124Q39.58125 55.628124 40.33125 56.221874Q41.096874 56.815624 41.3 57.925L40.1125 58.1125Q39.940624 57.378124 39.503124 57.01875Q39.065624 56.64375 38.45625 56.64375Q37.51875 56.64375 36.940624 57.315624Q36.3625 57.971874 36.3625 59.409374Q36.3625 60.878124 36.925 61.55Q37.4875 62.20625 38.378124 62.20625Q39.1125 62.20625 39.596874 61.76875Q40.08125 61.315624 40.20625 60.39375ZM47.20625 62.159374Q46.534374 62.7375 45.89375 62.9875Q45.26875 63.221874 44.534374 63.221874Q43.346874 63.221874 42.690624 62.64375Q42.05 62.05 42.05 61.128124Q42.05 60.596874 42.284374 60.159374Q42.534374 59.721874 42.925 59.45625Q43.33125 59.190624 43.815624 59.05Q44.175 58.95625 44.909374 58.8625Q46.409374 58.690624 47.1125 58.440624Q47.1125 58.190624 47.1125 58.128124Q47.1125 57.3625 46.76875 57.065624Q46.3 56.64375 45.3625 56.64375Q44.503124 56.64375 44.08125 56.95625Q43.675 57.253124 43.471874 58.01875L42.26875 57.8625Q42.425 57.08125 42.8 56.6125Q43.190624 56.14375 43.89375 55.89375Q44.6125 55.628124 45.55 55.628124Q46.471874 55.628124 47.05 55.846874Q47.628124 56.065624 47.89375 56.39375Q48.175 56.721874 48.284374 57.2375Q48.346874 57.55 48.346874 58.3625L48.346874 60.003124Q48.346874 61.721874 48.425 62.175Q48.503124 62.628124 48.7375 63.05L47.45625 63.05Q47.26875 62.659374 47.20625 62.159374ZM47.1125 59.409374Q46.440624 59.675 45.096874 59.878124Q44.346874 59.9875 44.01875 60.128124Q43.70625 60.253124 43.534374 60.51875Q43.3625 60.784374 43.3625 61.096874Q43.3625 61.596874 43.7375 61.925Q44.1125 62.253124 44.83125 62.253124Q45.55 62.253124 46.096874 61.940624Q46.64375 61.628124 46.909374 61.08125Q47.1125 60.675 47.1125 59.8625L47.1125 59.409374ZM50.440624 63.05L50.440624 53.034374L51.675 53.034374L51.675 63.05L50.440624 63.05ZM58.20625 62.159374Q57.534374 62.7375 56.89375 62.9875Q56.26875 63.221874 55.534374 63.221874Q54.346874 63.221874 53.690624 62.64375Q53.05 62.05 53.05 61.128124Q53.05 60.596874 53.284374 60.159374Q53.534374 59.721874 53.925 59.45625Q54.33125 59.190624 54.815624 59.05Q55.175 58.95625 55.909374 58.8625Q57.409374 58.690624 58.1125 58.440624Q58.1125 58.190624 58.1125 58.128124Q58.1125 57.3625 57.76875 57.065624Q57.3 56.64375 56.3625 56.64375Q55.503124 56.64375 55.08125 56.95625Q54.675 57.253124 54.471874 58.01875L53.26875 57.8625Q53.425 57.08125 53.8 56.6125Q54.190624 56.14375 54.89375 55.89375Q55.6125 55.628124 56.55 55.628124Q57.471874 55.628124 58.05 55.846874Q58.628124 56.065624 58.89375 56.39375Q59.175 56.721874 59.284374 57.2375Q59.346874 57.55 59.346874 58.3625L59.346874 60.003124Q59.346874 61.721874 59.425 62.175Q59.503124 62.628124 59.7375 63.05L58.45625 63.05Q58.26875 62.659374 58.20625 62.159374ZM58.1125 59.409374Q57.440624 59.675 56.096874 59.878124Q55.346874 59.9875 55.01875 60.128124Q54.70625 60.253124 54.534374 60.51875Q54.3625 60.784374 54.3625 61.096874Q54.3625 61.596874 54.7375 61.925Q55.1125 62.253124 55.83125 62.253124Q56.55 62.253124 57.096874 61.940624Q57.64375 61.628124 57.909374 61.08125Q58.1125 60.675 58.1125 59.8625L58.1125 59.409374ZM65.44063 63.05L65.44063 53.034374L66.675 53.034374L66.675 63.05L65.44063 63.05ZM68.01875 59.425Q68.01875 57.409374 69.14375 56.425Q70.06563 55.628124 71.425 55.628124Q72.90938 55.628124 73.8625 56.6125Q74.81563 57.58125 74.81563 59.315624Q74.81563 60.721874 74.39375 61.534374Q73.97188 62.33125 73.15938 62.784374Q72.3625 63.221874 71.425 63.221874Q69.89375 63.221874 68.95625 62.2375Q68.01875 61.253124 68.01875 59.425ZM69.28438 59.425Q69.28438 60.815624 69.89375 61.51875Q70.50313 62.20625 71.425 62.20625Q72.33125 62.20625 72.94063 61.503124Q73.55 60.8 73.55 59.378124Q73.55 58.034374 72.94063 57.346874Q72.33125 56.64375 71.425 56.64375Q70.50313 56.64375 69.89375 57.33125Q69.28438 58.01875 69.28438 59.425ZM76.25313 63.659374L77.44063 63.83125Q77.51875 64.37813 77.8625 64.64375Q78.31563 64.97188 79.1125 64.97188Q79.97188 64.97188 80.425 64.62813Q80.89375 64.3 81.06563 63.675Q81.15938 63.3 81.14375 62.096874Q80.34688 63.05 79.14375 63.05Q77.64375 63.05 76.81563 61.971874Q76.00313 60.89375 76.00313 59.378124Q76.00313 58.346874 76.37813 57.471874Q76.75313 56.58125 77.45625 56.1125Q78.175 55.628124 79.14375 55.628124Q80.425 55.628124 81.26875 56.659374L81.26875 55.784374L82.39375 55.784374L82.39375 62.065624Q82.39375 63.76875 82.05 64.47188Q81.70625 65.175 80.95625 65.58125Q80.20625 66.00313 79.1125 66.00313Q77.81563 66.00313 77.01875 65.40938Q76.22188 64.83125 76.25313 63.659374ZM77.26875 59.284374Q77.26875 60.721874 77.83125 61.378124Q78.39375 62.034374 79.25313 62.034374Q80.09688 62.034374 80.675 61.378124Q81.25313 60.721874 81.25313 59.33125Q81.25313 58.003124 80.65938 57.33125Q80.06563 56.64375 79.2375 56.64375Q78.40938 56.64375 77.83125 57.315624Q77.26875 57.971874 77.26875 59.284374ZM88.47188 63.05L88.47188 55.784374L89.58125 55.784374L89.58125 56.815624Q90.37813 55.628124 91.89375 55.628124Q92.55 55.628124 93.09688 55.8625Q93.64375 56.096874 93.90938 56.4875Q94.19063 56.8625 94.3 57.39375Q94.37813 57.7375 94.37813 58.58125L94.37813 63.05L93.14375 63.05L93.14375 58.628124Q93.14375 57.878124 93.00313 57.51875Q92.8625 57.14375 92.4875 56.925Q92.12813 56.690624 91.62813 56.690624Q90.84688 56.690624 90.26875 57.190624Q89.70625 57.690624 89.70625 59.08125L89.70625 63.05L88.47188 63.05ZM96.01875 59.425Q96.01875 57.409374 97.14375 56.425Q98.06563 55.628124 99.425 55.628124Q100.90938 55.628124 101.8625 56.6125Q102.81563 57.58125 102.81563 59.315624Q102.81563 60.721874 102.39375 61.534374Q101.97188 62.33125 101.15938 62.784374Q100.3625 63.221874 99.425 63.221874Q97.89375 63.221874 96.95625 62.2375Q96.01875 61.253124 96.01875 59.425ZM97.28438 59.425Q97.28438 60.815624 97.89375 61.51875Q98.50313 62.20625 99.425 62.20625Q100.33125 62.20625 100.94063 61.503124Q101.55 60.8 101.55 59.378124Q101.55 58.034374 100.94063 57.346874Q100.33125 56.64375 99.425 56.64375Q98.50313 56.64375 97.89375 57.33125Q97.28438 58.01875 97.28438 59.425ZM113.44063 60.70625L114.72188 60.8625Q114.40938 61.9875 113.59688 62.6125Q112.78438 63.221874 111.51875 63.221874Q109.925 63.221874 108.9875 62.2375Q108.06563 61.253124 108.06563 59.4875Q108.06563 57.64375 109.00313 56.64375Q109.95625 55.628124 111.45625 55.628124Q112.90938 55.628124 113.83125 56.628124Q114.75313 57.6125 114.75313 59.409374Q114.75313 59.51875 114.75313 59.7375L109.33125 59.7375Q109.40938 60.925 110.00313 61.565624Q110.6125 62.20625 111.53438 62.20625Q112.20625 62.20625 112.675 61.846874Q113.15938 61.4875 113.44063 60.70625ZM109.40938 58.721874L113.45625 58.721874Q113.37813 57.8 112.9875 57.346874Q112.40938 56.64375 111.47188 56.64375Q110.6125 56.64375 110.03438 57.20625Q109.47188 57.76875 109.40938 58.721874ZM116.4875 54.440624L116.4875 53.034374L117.70625 53.034374L117.70625 54.440624L116.4875 54.440624ZM116.4875 63.05L116.4875 55.784374L117.70625 55.784374L117.70625 63.05L116.4875 63.05ZM118.65938 63.05L121.3 59.26875L118.84688 55.784374L120.39375 55.784374L121.50313 57.4875Q121.81563 57.971874 122.00313 58.3Q122.31563 57.846874 122.56563 57.503124L123.78438 55.784374L125.25313 55.784374L122.75313 59.20625L125.44063 63.05L123.94063 63.05L122.44063 60.8L122.05 60.190624L120.14375 63.05L118.65938 63.05ZM125.01875 59.425Q125.01875 57.409374 126.14375 56.425Q127.06563 55.628124 128.425 55.628124Q129.90938 55.628124 130.8625 56.6125Q131.81563 57.58125 131.81563 59.315624Q131.81563 60.721874 131.39375 61.534374Q130.97188 62.33125 130.15938 62.784374Q129.3625 63.221874 128.425 63.221874Q126.89375 63.221874 125.95625 62.2375Q125.01875 61.253124 125.01875 59.425ZM126.28438 59.425Q126.28438 60.815624 126.89375 61.51875Q127.50313 62.20625 128.425 62.20625Q129.33125 62.20625 129.94063 61.503124Q130.55 60.8 130.55 59.378124Q130.55 58.034374 129.94063 57.346874Q129.33125 56.64375 128.425 56.64375Q127.50313 56.64375 126.89375 57.33125Q126.28438 58.01875 126.28438 59.425ZM142.19063 63.05L142.19063 62.128124Q141.4875 63.221874 140.15938 63.221874Q139.28438 63.221874 138.55 62.7375Q137.83125 62.253124 137.425 61.39375Q137.03438 60.534374 137.03438 59.425Q137.03438 58.346874 137.39375 57.45625Q137.75313 56.565624 138.47188 56.096874Q139.20625 55.628124 140.09688 55.628124Q140.75313 55.628124 141.26875 55.909374Q141.78438 56.175 142.09688 56.628124L142.09688 53.034374L143.33125 53.034374L143.33125 63.05L142.19063 63.05ZM138.3 59.425Q138.3 60.815624 138.87813 61.51875Q139.47188 62.20625 140.26875 62.20625Q141.08125 62.20625 141.64375 61.55Q142.20625 60.878124 142.20625 59.534374Q142.20625 58.034374 141.62813 57.346874Q141.05 56.64375 140.22188 56.64375Q139.39375 56.64375 138.84688 57.315624Q138.3 57.9875 138.3 59.425ZM145.01875 59.425Q145.01875 57.409374 146.14375 56.425Q147.06563 55.628124 148.425 55.628124Q149.90938 55.628124 150.8625 56.6125Q151.81563 57.58125 151.81563 59.315624Q151.81563 60.721874 151.39375 61.534374Q150.97188 62.33125 150.15938 62.784374Q149.3625 63.221874 148.425 63.221874Q146.89375 63.221874 145.95625 62.2375Q145.01875 61.253124 145.01875 59.425ZM146.28438 59.425Q146.28438 60.815624 146.89375 61.51875Q147.50313 62.20625 148.425 62.20625Q149.33125 62.20625 149.94063 61.503124Q150.55 60.8 150.55 59.378124Q150.55 58.034374 149.94063 57.346874Q149.33125 56.64375 148.425 56.64375Q147.50313 56.64375 146.89375 57.33125Q146.28438 58.01875 146.28438 59.425ZM160.15938 61.95625L160.33125 63.034374Q159.81563 63.14375 159.40938 63.14375Q158.7375 63.14375 158.3625 62.940624Q158.00313 62.721874 157.84688 62.378124Q157.70625 62.034374 157.70625 60.925L157.70625 56.753124L156.8 56.753124L156.8 55.784374L157.70625 55.784374L157.70625 53.9875L158.925 53.253124L158.925 55.784374L160.15938 55.784374L160.15938 56.753124L158.925 56.753124L158.925 60.9875Q158.925 61.51875 158.9875 61.675Q159.05 61.815624 159.19063 61.909374Q159.34688 62.003124 159.6125 62.003124Q159.83125 62.003124 160.15938 61.95625ZM166.44063 60.70625L167.72188 60.8625Q167.40938 61.9875 166.59688 62.6125Q165.78438 63.221874 164.51875 63.221874Q162.925 63.221874 161.9875 62.2375Q161.06563 61.253124 161.06563 59.4875Q161.06563 57.64375 162.00313 56.64375Q162.95625 55.628124 164.45625 55.628124Q165.90938 55.628124 166.83125 56.628124Q167.75313 57.6125 167.75313 59.409374Q167.75313 59.51875 167.75313 59.7375L162.33125 59.7375Q162.40938 60.925 163.00313 61.565624Q163.6125 62.20625 164.53438 62.20625Q165.20625 62.20625 165.675 61.846874Q166.15938 61.4875 166.44063 60.70625ZM162.40938 58.721874L166.45625 58.721874Q166.37813 57.8 165.9875 57.346874Q165.40938 56.64375 164.47188 56.64375Q163.6125 56.64375 163.03438 57.20625Q162.47188 57.76875 162.40938 58.721874ZM169.47188 63.05L169.47188 55.784374L170.58125 55.784374L170.58125 56.815624Q170.90938 56.26875 171.47188 55.95625Q172.05 55.628124 172.76875 55.628124Q173.58125 55.628124 174.09688 55.971874Q174.6125 56.3 174.83125 56.89375Q175.69063 55.628124 177.06563 55.628124Q178.14375 55.628124 178.72188 56.221874Q179.31563 56.815624 179.31563 58.065624L179.31563 63.05L178.08125 63.05L178.08125 58.471874Q178.08125 57.7375 177.95625 57.409374Q177.84688 57.08125 177.53438 56.89375Q177.22188 56.690624 176.8 56.690624Q176.03438 56.690624 175.51875 57.20625Q175.01875 57.70625 175.01875 58.83125L175.01875 63.05L173.78438 63.05L173.78438 58.33125Q173.78438 57.51875 173.4875 57.1125Q173.19063 56.690624 172.50313 56.690624Q171.9875 56.690624 171.53438 56.971874Q171.09688 57.2375 170.89375 57.76875Q170.70625 58.284374 170.70625 59.284374L170.70625 63.05L169.47188 63.05ZM180.47188 65.83125L180.47188 55.784374L181.59688 55.784374L181.59688 56.7375Q181.9875 56.175 182.4875 55.909374Q182.9875 55.628124 183.70625 55.628124Q184.62813 55.628124 185.33125 56.1125Q186.05 56.58125 186.40938 57.45625Q186.76875 58.33125 186.76875 59.3625Q186.76875 60.471874 186.3625 61.378124Q185.97188 62.26875 185.20625 62.753124Q184.45625 63.221874 183.6125 63.221874Q183.00313 63.221874 182.50313 62.95625Q182.01875 62.690624 181.70625 62.3L181.70625 65.83125L180.47188 65.83125ZM181.58125 59.45625Q181.58125 60.8625 182.14375 61.534374Q182.72188 62.20625 183.53438 62.20625Q184.34688 62.20625 184.925 61.51875Q185.51875 60.815624 185.51875 59.3625Q185.51875 57.971874 184.94063 57.284374Q184.37813 56.596874 183.58125 56.596874Q182.8 56.596874 182.19063 57.33125Q181.58125 58.065624 181.58125 59.45625ZM188.01875 59.425Q188.01875 57.409374 189.14375 56.425Q190.06563 55.628124 191.425 55.628124Q192.90938 55.628124 193.8625 56.6125Q194.81563 57.58125 194.81563 59.315624Q194.81563 60.721874 194.39375 61.534374Q193.97188 62.33125 193.15938 62.784374Q192.3625 63.221874 191.425 63.221874Q189.89375 63.221874 188.95625 62.2375Q188.01875 61.253124 188.01875 59.425ZM189.28438 59.425Q189.28438 60.815624 189.89375 61.51875Q190.50313 62.20625 191.425 62.20625Q192.33125 62.20625 192.94063 61.503124Q193.55 60.8 193.55 59.378124Q193.55 58.034374 192.94063 57.346874Q192.33125 56.64375 191.425 56.64375Q190.50313 56.64375 189.89375 57.33125Q189.28438 58.01875 189.28438 59.425Z" fill-rule="nonzero"/><path fill="#757575" d="M77.46875 37.55L77.46875 23.2375L80.359375 23.2375L80.359375 28.8625L86.015625 28.8625L86.015625 23.2375L88.90625 23.2375L88.90625 37.55L86.015625 37.55L86.015625 31.284374L80.359375 31.284374L80.359375 37.55L77.46875 37.55ZM97.4375 34.253124L100.171875 34.70625Q99.65625 36.20625 98.515625 37.003124Q97.375 37.784374 95.671875 37.784374Q92.953125 37.784374 91.65625 36.01875Q90.640625 34.596874 90.640625 32.440624Q90.640625 29.8625 91.984375 28.409374Q93.328125 26.940624 95.390625 26.940624Q97.703125 26.940624 99.03125 28.471874Q100.375 30.003124 100.328125 33.159374L93.453125 33.159374Q93.484375 34.378124 94.109375 35.065624Q94.75 35.7375 95.6875 35.7375Q96.34375 35.7375 96.78125 35.39375Q97.21875 35.034374 97.4375 34.253124ZM97.59375 31.471874Q97.5625 30.284374 96.96875 29.675Q96.390625 29.05 95.5625 29.05Q94.65625 29.05 94.078125 29.690624Q93.484375 30.346874 93.5 31.471874L97.59375 31.471874ZM104.484375 30.346874L102.0 29.89375Q102.421875 28.39375 103.4375 27.675Q104.46875 26.940624 106.484375 26.940624Q108.328125 26.940624 109.21875 27.378124Q110.125 27.815624 110.484375 28.4875Q110.859375 29.14375 110.859375 30.940624L110.828125 34.14375Q110.828125 35.503124 110.953125 36.159374Q111.09375 36.8 111.453125 37.55L108.734375 37.55Q108.625 37.26875 108.46875 36.7375Q108.40625 36.4875 108.375 36.409374Q107.671875 37.096874 106.859375 37.440624Q106.0625 37.784374 105.15625 37.784374Q103.5625 37.784374 102.640625 36.925Q101.71875 36.05 101.71875 34.721874Q101.71875 33.83125 102.125 33.14375Q102.546875 32.45625 103.296875 32.096874Q104.0625 31.721874 105.5 31.45625Q107.421875 31.096874 108.15625 30.784374L108.15625 30.503124Q108.15625 29.721874 107.765625 29.39375Q107.375 29.05 106.296875 29.05Q105.5625 29.05 105.140625 29.33125Q104.734375 29.6125 104.484375 30.346874ZM108.15625 32.565624Q107.625 32.7375 106.484375 32.9875Q105.34375 33.2375 105.0 33.471874Q104.453125 33.846874 104.453125 34.440624Q104.453125 35.003124 104.875 35.425Q105.3125 35.846874 105.984375 35.846874Q106.71875 35.846874 107.390625 35.3625Q107.890625 34.9875 108.046875 34.45625Q108.15625 34.096874 108.15625 33.1125L108.15625 32.565624ZM113.359375 27.175L115.921875 27.175L115.921875 28.70625Q116.421875 27.925 117.265625 27.440624Q118.109375 26.940624 119.15625 26.940624Q120.953125 26.940624 122.203125 28.3625Q123.46875 29.76875 123.46875 32.3Q123.46875 34.909374 122.203125 36.346874Q120.9375 37.784374 119.125 37.784374Q118.265625 37.784374 117.5625 37.440624Q116.875 37.096874 116.109375 36.26875L116.109375 41.503124L113.359375 41.503124L113.359375 27.175ZM116.078125 32.190624Q116.078125 33.940624 116.765625 34.784374Q117.453125 35.6125 118.453125 35.6125Q119.40625 35.6125 120.046875 34.846874Q120.6875 34.065624 120.6875 32.33125Q120.6875 30.690624 120.03125 29.909374Q119.375 29.1125 118.40625 29.1125Q117.40625 29.1125 116.734375 29.89375Q116.078125 30.659374 116.078125 32.190624ZM130.71875 32.89375L133.53125 32.6125Q133.79688 34.034374 134.5625 34.70625Q135.34375 35.3625 136.65625 35.3625Q138.0625 35.3625 138.76562 34.76875Q139.46875 34.175 139.46875 33.39375Q139.46875 32.878124 139.17188 32.534374Q138.875 32.175 138.14062 31.909374Q137.625 31.721874 135.82812 31.284374Q133.5 30.70625 132.5625 29.8625Q131.23438 28.675 131.23438 26.9875Q131.23438 25.89375 131.85938 24.940624Q132.48438 23.9875 133.64062 23.4875Q134.8125 22.9875 136.46875 22.9875Q139.15625 22.9875 140.51562 24.175Q141.89062 25.346874 141.95312 27.33125L139.0625 27.45625Q138.875 26.346874 138.26562 25.8625Q137.65625 25.378124 136.4375 25.378124Q135.17188 25.378124 134.46875 25.89375Q134.0 26.2375 134.0 26.784374Q134.0 27.3 134.4375 27.659374Q134.98438 28.1125 137.09375 28.6125Q139.20312 29.1125 140.20312 29.64375Q141.21875 30.175 141.78125 31.096874Q142.35938 32.01875 142.35938 33.378124Q142.35938 34.6125 141.67188 35.690624Q141.0 36.753124 139.75 37.284374Q138.5 37.8 136.625 37.8Q133.92188 37.8 132.45312 36.55Q131.0 35.3 130.71875 32.89375ZM143.79688 32.221874Q143.79688 30.846874 144.46875 29.565624Q145.15625 28.284374 146.39062 27.6125Q147.625 26.940624 149.14062 26.940624Q151.5 26.940624 153.0 28.471874Q154.5 30.003124 154.5 32.33125Q154.5 34.690624 152.98438 36.2375Q151.46875 37.784374 149.15625 37.784374Q147.73438 37.784374 146.4375 37.14375Q145.15625 36.4875 144.46875 35.253124Q143.79688 34.003124 143.79688 32.221874ZM146.60938 32.3625Q146.60938 33.909374 147.34375 34.7375Q148.07812 35.55 149.15625 35.55Q150.23438 35.55 150.95312 34.7375Q151.6875 33.909374 151.6875 32.346874Q151.6875 30.815624 150.95312 30.003124Q150.23438 29.175 149.15625 29.175Q148.07812 29.175 147.34375 30.003124Q146.60938 30.815624 146.60938 32.3625ZM159.0625 37.55L156.3125 37.55L156.3125 27.175L158.875 27.175L158.875 28.659374Q159.51562 27.6125 160.03125 27.284374Q160.5625 26.940624 161.23438 26.940624Q162.17188 26.940624 163.03125 27.45625L162.1875 29.846874Q161.5 29.409374 160.90625 29.409374Q160.32812 29.409374 159.92188 29.721874Q159.51562 30.034374 159.28125 30.878124Q159.0625 31.70625 159.0625 34.346874L159.0625 37.55ZM169.1875 27.175L169.1875 29.3625L167.3125 29.3625L167.3125 33.55Q167.3125 34.815624 167.35938 35.034374Q167.42188 35.2375 167.60938 35.378124Q167.8125 35.503124 168.07812 35.503124Q168.45312 35.503124 169.1875 35.2375L169.42188 37.378124Q168.45312 37.784374 167.25 37.784374Q166.5 37.784374 165.90625 37.534374Q165.3125 37.284374 165.03125 36.89375Q164.76562 36.4875 164.65625 35.815624Q164.5625 35.346874 164.5625 33.89375L164.5625 29.3625L163.29688 29.3625L163.29688 27.175L164.5625 27.175L164.5625 25.1125L167.3125 23.51875L167.3125 27.175L169.1875 27.175ZM177.125 33.7375L177.125 30.9875L182.51562 30.9875L182.51562 33.7375L177.125 33.7375ZM198.48438 30.2375L195.78125 30.7375Q195.64062 29.925 195.15625 29.51875Q194.67188 29.096874 193.90625 29.096874Q192.875 29.096874 192.26562 29.815624Q191.65625 30.51875 191.65625 32.175Q191.65625 34.01875 192.26562 34.784374Q192.89062 35.55 193.9375 35.55Q194.71875 35.55 195.21875 35.1125Q195.71875 34.659374 195.92188 33.58125L198.60938 34.034374Q198.20312 35.89375 197.0 36.846874Q195.8125 37.784374 193.8125 37.784374Q191.53125 37.784374 190.17188 36.346874Q188.82812 34.909374 188.82812 32.378124Q188.82812 29.8 190.1875 28.378124Q191.54688 26.940624 193.85938 26.940624Q195.75 26.940624 196.85938 27.76875Q197.98438 28.58125 198.48438 30.2375ZM203.0625 37.55L200.3125 37.55L200.3125 27.175L202.875 27.175L202.875 28.659374Q203.51562 27.6125 204.03125 27.284374Q204.5625 26.940624 205.23438 26.940624Q206.17188 26.940624 207.03125 27.45625L206.1875 29.846874Q205.5 29.409374 204.90625 29.409374Q204.32812 29.409374 203.92188 29.721874Q203.51562 30.034374 203.28125 30.878124Q203.0625 31.70625 203.0625 34.346874L203.0625 37.55ZM214.4375 34.253124L217.17188 34.70625Q216.65625 36.20625 215.51562 37.003124Q214.375 37.784374 212.67188 37.784374Q209.95312 37.784374 208.65625 36.01875Q207.64062 34.596874 207.64062 32.440624Q207.64062 29.8625 208.98438 28.409374Q210.32812 26.940624 212.39062 26.940624Q214.70312 26.940624 216.03125 28.471874Q217.375 30.003124 217.32812 33.159374L210.45312 33.159374Q210.48438 34.378124 211.10938 35.065624Q211.75 35.7375 212.6875 35.7375Q213.34375 35.7375 213.78125 35.39375Q214.21875 35.034374 214.4375 34.253124ZM214.59375 31.471874Q214.5625 30.284374 213.96875 29.675Q213.39062 29.05 212.5625 29.05Q211.65625 29.05 211.07812 29.690624Q210.48438 30.346874 210.5 31.471874L214.59375 31.471874ZM218.46875 34.596874L221.21875 34.175Q221.40625 34.971874 221.9375 35.39375Q222.46875 35.8 223.4375 35.8Q224.5 35.8 225.04688 35.409374Q225.40625 35.14375 225.40625 34.675Q225.40625 34.3625 225.20312 34.159374Q225.0 33.971874 224.29688 33.8Q220.96875 33.065624 220.07812 32.45625Q218.84375 31.628124 218.84375 30.128124Q218.84375 28.784374 219.90625 27.8625Q220.98438 26.940624 223.21875 26.940624Q225.34375 26.940624 226.375 27.64375Q227.42188 28.33125 227.8125 29.690624L225.21875 30.159374Q225.04688 29.565624 224.57812 29.2375Q224.125 28.909374 223.26562 28.909374Q222.1875 28.909374 221.71875 29.221874Q221.40625 29.440624 221.40625 29.76875Q221.40625 30.065624 221.67188 30.26875Q222.04688 30.55 224.23438 31.05Q226.42188 31.55 227.29688 32.26875Q228.15625 33.003124 228.15625 34.3Q228.15625 35.7375 226.96875 36.76875Q225.78125 37.784374 223.4375 37.784374Q221.32812 37.784374 220.07812 36.925Q218.84375 36.065624 218.46875 34.596874ZM239.48438 30.2375L236.78125 30.7375Q236.64062 29.925 236.15625 29.51875Q235.67188 29.096874 234.90625 29.096874Q233.875 29.096874 233.26562 29.815624Q232.65625 30.51875 232.65625 32.175Q232.65625 34.01875 233.26562 34.784374Q233.89062 35.55 234.9375 35.55Q235.71875 35.55 236.21875 35.1125Q236.71875 34.659374 236.92188 33.58125L239.60938 34.034374Q239.20312 35.89375 238.0 36.846874Q236.8125 37.784374 234.8125 37.784374Q232.53125 37.784374 231.17188 36.346874Q229.82812 34.909374 229.82812 32.378124Q229.82812 29.8 231.1875 28.378124Q232.54688 26.940624 234.85938 26.940624Q236.75 26.940624 237.85938 27.76875Q238.98438 28.58125 239.48438 30.2375ZM241.4375 25.76875L241.4375 23.2375L244.1875 23.2375L244.1875 25.76875L241.4375 25.76875ZM241.4375 37.55L241.4375 27.175L244.1875 27.175L244.1875 37.55L241.4375 37.55ZM246.23438 27.175L248.76562 27.175L248.76562 28.596874Q250.125 26.940624 252.0 26.940624Q252.98438 26.940624 253.71875 27.3625Q254.45312 27.76875 254.92188 28.596874Q255.60938 27.76875 256.39062 27.3625Q257.1875 26.940624 258.09375 26.940624Q259.23438 26.940624 260.01562 27.409374Q260.8125 27.878124 261.20312 28.76875Q261.48438 29.440624 261.48438 30.925L261.48438 37.55L258.73438 37.55L258.73438 31.628124Q258.73438 30.08125 258.45312 29.628124Q258.07812 29.05 257.28125 29.05Q256.70312 29.05 256.1875 29.409374Q255.6875 29.753124 255.46875 30.425Q255.25 31.096874 255.25 32.565624L255.25 37.55L252.5 37.55L252.5 31.8625Q252.5 30.346874 252.34375 29.909374Q252.20312 29.471874 251.89062 29.26875Q251.59375 29.05 251.0625 29.05Q250.4375 29.05 249.92188 29.39375Q249.42188 29.721874 249.1875 30.378124Q248.96875 31.01875 248.96875 32.503124L248.96875 37.55L246.23438 37.55L246.23438 27.175ZM269.4375 34.253124L272.17188 34.70625Q271.65625 36.20625 270.51562 37.003124Q269.375 37.784374 267.67188 37.784374Q264.95312 37.784374 263.65625 36.01875Q262.64062 34.596874 262.64062 32.440624Q262.64062 29.8625 263.98438 28.409374Q265.32812 26.940624 267.39062 26.940624Q269.70312 26.940624 271.03125 28.471874Q272.375 30.003124 272.32812 33.159374L265.45312 33.159374Q265.48438 34.378124 266.10938 35.065624Q266.75 35.7375 267.6875 35.7375Q268.34375 35.7375 268.78125 35.39375Q269.21875 35.034374 269.4375 34.253124ZM269.59375 31.471874Q269.5625 30.284374 268.96875 29.675Q268.39062 29.05 267.5625 29.05Q266.65625 29.05 266.07812 29.690624Q265.48438 30.346874 265.5 31.471874L269.59375 31.471874ZM283.875 37.55L281.125 37.55L281.125 32.253124Q281.125 30.58125 280.95312 30.096874Q280.78125 29.596874 280.375 29.33125Q279.98438 29.05 279.42188 29.05Q278.71875 29.05 278.14062 29.440624Q277.57812 29.83125 277.35938 30.471874Q277.15625 31.1125 277.15625 32.846874L277.15625 37.55L274.42188 37.55L274.42188 27.175L276.96875 27.175L276.96875 28.70625Q278.32812 26.940624 280.39062 26.940624Q281.29688 26.940624 282.04688 27.26875Q282.79688 27.596874 283.17188 28.1125Q283.5625 28.6125 283.71875 29.26875Q283.875 29.909374 283.875 31.096874L283.875 37.55ZM291.1875 27.175L291.1875 29.3625L289.3125 29.3625L289.3125 33.55Q289.3125 34.815624 289.35938 35.034374Q289.42188 35.2375 289.60938 35.378124Q289.8125 35.503124 290.07812 35.503124Q290.45312 35.503124 291.1875 35.2375L291.42188 37.378124Q290.45312 37.784374 289.25 37.784374Q288.5 37.784374 287.90625 37.534374Q287.3125 37.284374 287.03125 36.89375Q286.76562 36.4875 286.65625 35.815624Q286.5625 35.346874 286.5625 33.89375L286.5625 29.3625L285.29688 29.3625L285.29688 27.175L286.5625 27.175L286.5625 25.1125L289.3125 23.51875L289.3125 27.175L291.1875 27.175ZM292.79688 32.221874Q292.79688 30.846874 293.46875 29.565624Q294.15625 28.284374 295.39062 27.6125Q296.625 26.940624 298.14062 26.940624Q300.5 26.940624 302.0 28.471874Q303.5 30.003124 303.5 32.33125Q303.5 34.690624 301.98438 36.2375Q300.46875 37.784374 298.15625 37.784374Q296.73438 37.784374 295.4375 37.14375Q294.15625 36.4875 293.46875 35.253124Q292.79688 34.003124 292.79688 32.221874ZM295.60938 32.3625Q295.60938 33.909374 296.34375 34.7375Q297.07812 35.55 298.15625 35.55Q299.23438 35.55 299.95312 34.7375Q300.6875 33.909374 300.6875 32.346874Q300.6875 30.815624 299.95312 30.003124Q299.23438 29.175 298.15625 29.175Q297.07812 29.175 296.34375 30.003124Q295.60938 30.815624 295.60938 32.3625ZM320.95312 37.55L318.40625 37.55L318.40625 36.01875Q317.76562 36.909374 316.89062 37.346874Q316.03125 37.784374 315.15625 37.784374Q313.375 37.784374 312.09375 36.346874Q310.82812 34.909374 310.82812 32.33125Q310.82812 29.690624 312.0625 28.315624Q313.29688 26.940624 315.20312 26.940624Q316.9375 26.940624 318.20312 28.39375L318.20312 23.2375L320.95312 23.2375L320.95312 37.55ZM313.625 32.14375Q313.625 33.8 314.07812 34.534374Q314.75 35.6125 315.9375 35.6125Q316.89062 35.6125 317.54688 34.815624Q318.21875 34.003124 318.21875 32.409374Q318.21875 30.6125 317.5625 29.83125Q316.92188 29.05 315.92188 29.05Q314.9375 29.05 314.28125 29.83125Q313.625 30.596874 313.625 32.14375ZM322.79688 32.221874Q322.79688 30.846874 323.46875 29.565624Q324.15625 28.284374 325.39062 27.6125Q326.625 26.940624 328.14062 26.940624Q330.5 26.940624 332.0 28.471874Q333.5 30.003124 333.5 32.33125Q333.5 34.690624 331.98438 36.2375Q330.46875 37.784374 328.15625 37.784374Q326.73438 37.784374 325.4375 37.14375Q324.15625 36.4875 323.46875 35.253124Q322.79688 34.003124 322.79688 32.221874ZM325.60938 32.3625Q325.60938 33.909374 326.34375 34.7375Q327.07812 35.55 328.15625 35.55Q329.23438 35.55 329.95312 34.7375Q330.6875 33.909374 330.6875 32.346874Q330.6875 30.815624 329.95312 30.003124Q329.23438 29.175 328.15625 29.175Q327.07812 29.175 326.34375 30.003124Q325.60938 30.815624 325.60938 32.3625ZM346.1875 27.175L346.1875 29.3625L344.3125 29.3625L344.3125 33.55Q344.3125 34.815624 344.35938 35.034374Q344.42188 35.2375 344.60938 35.378124Q344.8125 35.503124 345.07812 35.503124Q345.45312 35.503124 346.1875 35.2375L346.42188 37.378124Q345.45312 37.784374 344.25 37.784374Q343.5 37.784374 342.90625 37.534374Q342.3125 37.284374 342.03125 36.89375Q341.76562 36.4875 341.65625 35.815624Q341.5625 35.346874 341.5625 33.89375L341.5625 29.3625L340.29688 29.3625L340.29688 27.175L341.5625 27.175L341.5625 25.1125L344.3125 23.51875L344.3125 27.175L346.1875 27.175ZM354.4375 34.253124L357.17188 34.70625Q356.65625 36.20625 355.51562 37.003124Q354.375 37.784374 352.67188 37.784374Q349.95312 37.784374 348.65625 36.01875Q347.64062 34.596874 347.64062 32.440624Q347.64062 29.8625 348.98438 28.409374Q350.32812 26.940624 352.39062 26.940624Q354.70312 26.940624 356.03125 28.471874Q357.375 30.003124 357.32812 33.159374L350.45312 33.159374Q350.48438 34.378124 351.10938 35.065624Q351.75 35.7375 352.6875 35.7375Q353.34375 35.7375 353.78125 35.39375Q354.21875 35.034374 354.4375 34.253124ZM354.59375 31.471874Q354.5625 30.284374 353.96875 29.675Q353.39062 29.05 352.5625 29.05Q351.65625 29.05 351.07812 29.690624Q350.48438 30.346874 350.5 31.471874L354.59375 31.471874ZM359.23438 27.175L361.76562 27.175L361.76562 28.596874Q363.125 26.940624 365.0 26.940624Q365.98438 26.940624 366.71875 27.3625Q367.45312 27.76875 367.92188 28.596874Q368.60938 27.76875 369.39062 27.3625Q370.1875 26.940624 371.09375 26.940624Q372.23438 26.940624 373.01562 27.409374Q373.8125 27.878124 374.20312 28.76875Q374.48438 29.440624 374.48438 30.925L374.48438 37.55L371.73438 37.55L371.73438 31.628124Q371.73438 30.08125 371.45312 29.628124Q371.07812 29.05 370.28125 29.05Q369.70312 29.05 369.1875 29.409374Q368.6875 29.753124 368.46875 30.425Q368.25 31.096874 368.25 32.565624L368.25 37.55L365.5 37.55L365.5 31.8625Q365.5 30.346874 365.34375 29.909374Q365.20312 29.471874 364.89062 29.26875Q364.59375 29.05 364.0625 29.05Q363.4375 29.05 362.92188 29.39375Q362.42188 29.721874 362.1875 30.378124Q361.96875 31.01875 361.96875 32.503124L361.96875 37.55L359.23438 37.55L359.23438 27.175ZM376.35938 27.175L378.92188 27.175L378.92188 28.70625Q379.42188 27.925 380.26562 27.440624Q381.10938 26.940624 382.15625 26.940624Q383.95312 26.940624 385.20312 28.3625Q386.46875 29.76875 386.46875 32.3Q386.46875 34.909374 385.20312 36.346874Q383.9375 37.784374 382.125 37.784374Q381.26562 37.784374 380.5625 37.440624Q379.875 37.096874 379.10938 36.26875L379.10938 41.503124L376.35938 41.503124L376.35938 27.175ZM379.07812 32.190624Q379.07812 33.940624 379.76562 34.784374Q380.45312 35.6125 381.45312 35.6125Q382.40625 35.6125 383.04688 34.846874Q383.6875 34.065624 383.6875 32.33125Q383.6875 30.690624 383.03125 29.909374Q382.375 29.1125 381.40625 29.1125Q380.40625 29.1125 379.73438 29.89375Q379.07812 30.659374 379.07812 32.190624ZM387.79688 32.221874Q387.79688 30.846874 388.46875 29.565624Q389.15625 28.284374 390.39062 27.6125Q391.625 26.940624 393.14062 26.940624Q395.5 26.940624 397.0 28.471874Q398.5 30.003124 398.5 32.33125Q398.5 34.690624 396.98438 36.2375Q395.46875 37.784374 393.15625 37.784374Q391.73438 37.784374 390.4375 37.14375Q389.15625 36.4875 388.46875 35.253124Q387.79688 34.003124 387.79688 32.221874ZM390.60938 32.3625Q390.60938 33.909374 391.34375 34.7375Q392.07812 35.55 393.15625 35.55Q394.23438 35.55 394.95312 34.7375Q395.6875 33.909374 395.6875 32.346874Q395.6875 30.815624 394.95312 30.003124Q394.23438 29.175 393.15625 29.175Q392.07812 29.175 391.34375 30.003124Q390.60938 30.815624 390.60938 32.3625ZM415.95312 37.55L413.40625 37.55L413.40625 36.01875Q412.76562 36.909374 411.89062 37.346874Q411.03125 37.784374 410.15625 37.784374Q408.375 37.784374 407.09375 36.346874Q405.82812 34.909374 405.82812 32.33125Q405.82812 29.690624 407.0625 28.315624Q408.29688 26.940624 410.20312 26.940624Q411.9375 26.940624 413.20312 28.39375L413.20312 23.2375L415.95312 23.2375L415.95312 37.55ZM408.625 32.14375Q408.625 33.8 409.07812 34.534374Q409.75 35.6125 410.9375 35.6125Q411.89062 35.6125 412.54688 34.815624Q413.21875 34.003124 413.21875 32.409374Q413.21875 30.6125 412.5625 29.83125Q411.92188 29.05 410.92188 29.05Q409.9375 29.05 409.28125 29.83125Q408.625 30.596874 408.625 32.14375ZM424.4375 34.253124L427.17188 34.70625Q426.65625 36.20625 425.51562 37.003124Q424.375 37.784374 422.67188 37.784374Q419.95312 37.784374 418.65625 36.01875Q417.64062 34.596874 417.64062 32.440624Q417.64062 29.8625 418.98438 28.409374Q420.32812 26.940624 422.39062 26.940624Q424.70312 26.940624 426.03125 28.471874Q427.375 30.003124 427.32812 33.159374L420.45312 33.159374Q420.48438 34.378124 421.10938 35.065624Q421.75 35.7375 422.6875 35.7375Q423.34375 35.7375 423.78125 35.39375Q424.21875 35.034374 424.4375 34.253124ZM424.59375 31.471874Q424.5625 30.284374 423.96875 29.675Q423.39062 29.05 422.5625 29.05Q421.65625 29.05 421.07812 29.690624Q420.48438 30.346874 420.5 31.471874L424.59375 31.471874ZM441.4375 34.253124L444.17188 34.70625Q443.65625 36.20625 442.51562 37.003124Q441.375 37.784374 439.67188 37.784374Q436.95312 37.784374 435.65625 36.01875Q434.64062 34.596874 434.64062 32.440624Q434.64062 29.8625 435.98438 28.409374Q437.32812 26.940624 439.39062 26.940624Q441.70312 26.940624 443.03125 28.471874Q444.375 30.003124 444.32812 33.159374L437.45312 33.159374Q437.48438 34.378124 438.10938 35.065624Q438.75 35.7375 439.6875 35.7375Q440.34375 35.7375 440.78125 35.39375Q441.21875 35.034374 441.4375 34.253124ZM441.59375 31.471874Q441.5625 30.284374 440.96875 29.675Q440.39062 29.05 439.5625 29.05Q438.65625 29.05 438.07812 29.690624Q437.48438 30.346874 437.5 31.471874L441.59375 31.471874ZM445.125 37.55L448.85938 32.20625L445.28125 27.175L448.625 27.175L450.45312 30.034374L452.39062 27.175L455.60938 27.175L452.09375 32.096874L455.9375 37.55L452.5625 37.55L450.45312 34.33125L448.32812 37.55L445.125 37.55ZM463.4375 34.253124L466.17188 34.70625Q465.65625 36.20625 464.51562 37.003124Q463.375 37.784374 461.67188 37.784374Q458.95312 37.784374 457.65625 36.01875Q456.64062 34.596874 456.64062 32.440624Q456.64062 29.8625 457.98438 28.409374Q459.32812 26.940624 461.39062 26.940624Q463.70312 26.940624 465.03125 28.471874Q466.375 30.003124 466.32812 33.159374L459.45312 33.159374Q459.48438 34.378124 460.10938 35.065624Q460.75 35.7375 461.6875 35.7375Q462.34375 35.7375 462.78125 35.39375Q463.21875 35.034374 463.4375 34.253124ZM463.59375 31.471874Q463.5625 30.284374 462.96875 29.675Q462.39062 29.05 461.5625 29.05Q460.65625 29.05 460.07812 29.690624Q459.48438 30.346874 459.5 31.471874L463.59375 31.471874ZM477.48438 30.2375L474.78125 30.7375Q474.64062 29.925 474.15625 29.51875Q473.67188 29.096874 472.90625 29.096874Q471.875 29.096874 471.26562 29.815624Q470.65625 30.51875 470.65625 32.175Q470.65625 34.01875 471.26562 34.784374Q471.89062 35.55 472.9375 35.55Q473.71875 35.55 474.21875 35.1125Q474.71875 34.659374 474.92188 33.58125L477.60938 34.034374Q477.20312 35.89375 476.0 36.846874Q474.8125 37.784374 472.8125 37.784374Q470.53125 37.784374 469.17188 36.346874Q467.82812 34.909374 467.82812 32.378124Q467.82812 29.8 469.1875 28.378124Q470.54688 26.940624 472.85938 26.940624Q474.75 26.940624 475.85938 27.76875Q476.98438 28.58125 477.48438 30.2375ZM486.26562 37.55L486.26562 36.003124Q485.70312 36.83125 484.76562 37.315624Q483.84375 37.784374 482.82812 37.784374Q481.78125 37.784374 480.95312 37.33125Q480.125 36.8625 479.75 36.034374Q479.375 35.20625 479.375 33.7375L479.375 27.175L482.125 27.175L482.125 31.940624Q482.125 34.128124 482.26562 34.628124Q482.42188 35.1125 482.8125 35.409374Q483.21875 35.690624 483.84375 35.690624Q484.54688 35.690624 485.09375 35.315624Q485.65625 34.925 485.85938 34.3625Q486.0625 33.784374 486.0625 31.55L486.0625 27.175L488.8125 27.175L488.8125 37.55L486.26562 37.55ZM500.48438 30.2375L497.78125 30.7375Q497.64062 29.925 497.15625 29.51875Q496.67188 29.096874 495.90625 29.096874Q494.875 29.096874 494.26562 29.815624Q493.65625 30.51875 493.65625 32.175Q493.65625 34.01875 494.26562 34.784374Q494.89062 35.55 495.9375 35.55Q496.71875 35.55 497.21875 35.1125Q497.71875 34.659374 497.92188 33.58125L500.60938 34.034374Q500.20312 35.89375 499.0 36.846874Q497.8125 37.784374 495.8125 37.784374Q493.53125 37.784374 492.17188 36.346874Q490.82812 34.909374 490.82812 32.378124Q490.82812 29.8 492.1875 28.378124Q493.54688 26.940624 495.85938 26.940624Q497.75 26.940624 498.85938 27.76875Q499.98438 28.58125 500.48438 30.2375ZM493.09375 41.4875L493.09375 40.33125Q494.09375 40.440624 494.9375 40.440624Q495.8125 40.440624 496.21875 40.128124Q496.54688 39.89375 496.54688 39.51875Q496.54688 39.190624 496.23438 38.940624Q495.9375 38.70625 495.3125 38.70625Q494.6875 38.70625 494.03125 38.89375L494.28125 37.925Q495.04688 37.675 495.92188 37.675Q497.14062 37.675 497.76562 38.20625Q498.40625 38.7375 498.40625 39.51875Q498.40625 40.378124 497.70312 40.909374Q496.76562 41.64375 495.0 41.64375Q493.73438 41.64375 493.09375 41.4875ZM504.48438 30.346874L502.0 29.89375Q502.42188 28.39375 503.4375 27.675Q504.46875 26.940624 506.48438 26.940624Q508.32812 26.940624 509.21875 27.378124Q510.125 27.815624 510.48438 28.4875Q510.85938 29.14375 510.85938 30.940624L510.82812 34.14375Q510.82812 35.503124 510.95312 36.159374Q511.09375 36.8 511.45312 37.55L508.73438 37.55Q508.625 37.26875 508.46875 36.7375Q508.40625 36.4875 508.375 36.409374Q507.67188 37.096874 506.85938 37.440624Q506.0625 37.784374 505.15625 37.784374Q503.5625 37.784374 502.64062 36.925Q501.71875 36.05 501.71875 34.721874Q501.71875 33.83125 502.125 33.14375Q502.54688 32.45625 503.29688 32.096874Q504.0625 31.721874 505.5 31.45625Q507.42188 31.096874 508.15625 30.784374L508.15625 30.503124Q508.15625 29.721874 507.76562 29.39375Q507.375 29.05 506.29688 29.05Q505.5625 29.05 505.14062 29.33125Q504.73438 29.6125 504.48438 30.346874ZM508.15625 32.565624Q507.625 32.7375 506.48438 32.9875Q505.34375 33.2375 505.0 33.471874Q504.45312 33.846874 504.45312 34.440624Q504.45312 35.003124 504.875 35.425Q505.3125 35.846874 505.98438 35.846874Q506.71875 35.846874 507.39062 35.3625Q507.89062 34.9875 508.04688 34.45625Q508.15625 34.096874 508.15625 33.1125L508.15625 32.565624ZM504.46875 25.784374L503.20312 25.784374Q503.20312 25.55 503.20312 25.425Q503.20312 24.409374 503.70312 23.8625Q504.20312 23.3 504.98438 23.3Q505.32812 23.3 505.60938 23.378124Q505.90625 23.440624 506.67188 23.8Q507.45312 24.14375 507.90625 24.14375Q508.21875 24.14375 508.42188 23.95625Q508.625 23.753124 508.6875 23.284374L509.95312 23.284374Q509.95312 24.6125 509.46875 25.175Q508.98438 25.7375 508.21875 25.7375Q507.89062 25.7375 507.5625 25.675Q507.34375 25.6125 506.4375 25.26875Q505.54688 24.925 505.14062 24.925Q504.82812 24.925 504.64062 25.128124Q504.46875 25.315624 504.46875 25.784374ZM512.7969 32.221874Q512.7969 30.846874 513.46875 29.565624Q514.15625 28.284374 515.3906 27.6125Q516.625 26.940624 518.1406 26.940624Q520.5 26.940624 522.0 28.471874Q523.5 30.003124 523.5 32.33125Q523.5 34.690624 521.9844 36.2375Q520.46875 37.784374 518.15625 37.784374Q516.7344 37.784374 515.4375 37.14375Q514.15625 36.4875 513.46875 35.253124Q512.7969 34.003124 512.7969 32.221874ZM515.6094 32.3625Q515.6094 33.909374 516.34375 34.7375Q517.0781 35.55 518.15625 35.55Q519.2344 35.55 519.9531 34.7375Q520.6875 33.909374 520.6875 32.346874Q520.6875 30.815624 519.9531 30.003124Q519.2344 29.175 518.15625 29.175Q517.0781 29.175 516.34375 30.003124Q515.6094 30.815624 515.6094 32.3625Z" fill-rule="nonzero"/></svg>