<svg version="1.1" viewBox="0.0 0.0 600.0 371.0" fill="none" stroke="none" stroke-linecap="square" stroke-miterlimit="10" width="600" height="371" xmlns:xlink="http://www.w3.org/1999/xlink" xmlns="http://www.w3.org/2000/svg"><path fill="#ffffff" d="M0 0L600.0 0L600.0 371.0L0 371.0L0 0Z" fill-rule="nonzero"/><path stroke="#cccccc" stroke-width="1.0" stroke-linecap="butt" d="M191.5 85.5L191.5 300.5" fill-rule="nonzero"/><path stroke="#cccccc" stroke-width="1.0" stroke-linecap="butt" d="M288.5 85.5L288.5 300.5" fill-rule="nonzero"/><path stroke="#cccccc" stroke-width="1.0" stroke-linecap="butt" d="M386.5 85.5L386.5 300.5" fill-rule="nonzero"/><path stroke="#cccccc" stroke-width="1.0" stroke-linecap="butt" d="M483.5 85.5L483.5 300.5" fill-rule="nonzero"/><path stroke="#cccccc" stroke-width="1.0" stroke-linecap="butt" d="M581.5 85.5L581.5 300.5" fill-rule="nonzero"/><path stroke="#cccccc" stroke-width="1.0" stroke-linecap="butt" d="M98.5 276.5L581.5 276.5" fill-rule="nonzero"/><path stroke="#cccccc" stroke-width="1.0" stroke-linecap="butt" d="M98.5 223.5L581.5 223.5" fill-rule="nonzero"/><path stroke="#cccccc" stroke-width="1.0" stroke-linecap="butt" d="M98.5 170.5L581.5 170.5" fill-rule="nonzero"/><path stroke="#cccccc" stroke-width="1.0" stroke-linecap="butt" d="M98.5 117.5L581.5 117.5" fill-rule="nonzero"/><clipPath id="id_0"><path d="M98.55 85.416664L581.45 85.416664L581.45 300.45L98.55 300.45L98.55 85.416664Z" clip-rule="nonzero"/></clipPath><path stroke="#ea4335" stroke-width="2.0" stroke-linecap="butt" clip-path="url(#id_0)" d="M98.55 300.45C98.55 300.45 101.80185 275.60568 103.42778 267.85507C105.0537 260.10446 113.183334 237.23256 118.06111 226.12874C122.93889 215.02492 134.32037 194.03271 142.45 184.63441C150.57964 175.23611 174.96852 161.88461 191.22778 154.84337C207.48703 147.80212 288.78333 126.9081 337.5611 117.474144C386.3389 108.04019 581.45 85.416664 581.45 85.416664" fill-rule="nonzero"/><path fill="#000000" fill-opacity="0.0" clip-path="url(#id_0)" d="M101.55 300.45C101.55 302.10684 100.206856 303.45 98.55 303.45C96.89314 303.45 95.55 302.10684 95.55 300.45C95.55 298.79315 96.89314 297.45 98.55 297.45C100.206856 297.45 101.55 298.79315 101.55 300.45Z" fill-rule="nonzero"/><path fill="#000000" fill-opacity="0.0" clip-path="url(#id_0)" d="M106.42778 267.85507C106.42778 269.51193 105.08463 270.85507 103.42778 270.85507C101.77092 270.85507 100.42778 269.51193 100.42778 267.85507C100.42778 266.1982 101.77092 264.85507 103.42778 264.85507C105.08463 264.85507 106.42778 266.1982 106.42778 267.85507Z" fill-rule="nonzero"/><path fill="#000000" fill-opacity="0.0" clip-path="url(#id_0)" d="M121.06111 226.12874C121.06111 227.78558 119.717964 229.12874 118.06111 229.12874C116.40426 229.12874 115.06111 227.78558 115.06111 226.12874C115.06111 224.47188 116.40426 223.12874 118.06111 223.12874C119.717964 223.12874 121.06111 224.47188 121.06111 226.12874Z" fill-rule="nonzero"/><path fill="#000000" fill-opacity="0.0" clip-path="url(#id_0)" d="M145.45 184.63441C145.45 186.29128 144.10686 187.63441 142.45 187.63441C140.79315 187.63441 139.45 186.29128 139.45 184.63441C139.45 182.97755 140.79315 181.63441 142.45 181.63441C144.10686 181.63441 145.45 182.97755 145.45 184.63441Z" fill-rule="nonzero"/><path fill="#000000" fill-opacity="0.0" clip-path="url(#id_0)" d="M194.22778 154.84337C194.22778 156.50023 192.88463 157.84337 191.22778 157.84337C189.57092 157.84337 188.22778 156.50023 188.22778 154.84337C188.22778 153.18652 189.57092 151.84337 191.22778 151.84337C192.88463 151.84337 194.22778 153.18652 194.22778 154.84337Z" fill-rule="nonzero"/><path fill="#000000" fill-opacity="0.0" clip-path="url(#id_0)" d="M340.5611 117.474144C340.5611 119.131004 339.21796 120.474144 337.5611 120.474144C335.90427 120.474144 334.5611 119.131004 334.5611 117.474144C334.5611 115.81729 335.90427 114.474144 337.5611 114.474144C339.21796 114.474144 340.5611 115.81729 340.5611 117.474144Z" fill-rule="nonzero"/><path fill="#000000" fill-opacity="0.0" clip-path="url(#id_0)" d="M584.45 85.416664C584.45 87.073524 583.1069 88.416664 581.45 88.416664C579.79315 88.416664 578.45 87.073524 578.45 85.416664C578.45 83.75981 579.79315 82.416664 581.45 82.416664C583.1069 82.416664 584.45 83.75981 584.45 85.416664Z" fill-rule="nonzero"/><path fill="#000000" d="M275.3125 349.45L275.3125 342.3094L272.76562 342.3094L272.76562 340.85626L279.57812 340.85626L279.57812 342.3094L277.04688 342.3094L277.04688 349.45L275.3125 349.45ZM281.59375 345.1219L280.09375 344.85626Q280.34375 343.95 280.95312 343.52814Q281.57812 343.09064 282.79688 343.09064Q283.89062 343.09064 284.42188 343.35626Q284.96875 343.60626 285.1875 344.0125Q285.40625 344.40314 285.40625 345.48126L285.39062 347.40314Q285.39062 348.23126 285.46875 348.6219Q285.54688 348.9969 285.76562 349.45L284.14062 349.45Q284.07812 349.27814 283.98438 348.96564Q283.9375 348.8094 283.92188 348.7625Q283.5 349.1844 283.01562 349.3875Q282.54688 349.59064 282.0 349.59064Q281.03125 349.59064 280.46875 349.075Q279.92188 348.54376 279.92188 347.7469Q279.92188 347.21564 280.17188 346.8094Q280.4375 346.40314 280.89062 346.1844Q281.34375 345.95 282.20312 345.79376Q283.34375 345.575 283.79688 345.3875L283.79688 345.23126Q283.79688 344.7469 283.5625 344.54376Q283.32812 344.34064 282.67188 344.34064Q282.23438 344.34064 281.98438 344.5125Q281.75 344.6844 281.59375 345.1219ZM283.79688 346.46564Q283.48438 346.5594 282.79688 346.71564Q282.10938 346.85626 281.89062 346.9969Q281.57812 347.23126 281.57812 347.575Q281.57812 347.91876 281.82812 348.1844Q282.09375 348.4344 282.48438 348.4344Q282.9375 348.4344 283.34375 348.1375Q283.64062 347.91876 283.73438 347.59064Q283.79688 347.3875 283.79688 346.79376L283.79688 346.46564ZM287.23438 343.23126L288.75 343.23126L288.75 344.075Q289.57812 343.09064 290.70312 343.09064Q291.29688 343.09064 291.73438 343.34064Q292.17188 343.575 292.45312 344.075Q292.85938 343.575 293.32812 343.34064Q293.8125 343.09064 294.35938 343.09064Q295.03125 343.09064 295.5 343.3719Q295.98438 343.6375 296.21875 344.1844Q296.39062 344.575 296.39062 345.46564L296.39062 349.45L294.75 349.45L294.75 345.8875Q294.75 344.96564 294.57812 344.7Q294.34375 344.34064 293.875 344.34064Q293.53125 344.34064 293.21875 344.5594Q292.92188 344.7625 292.78125 345.16876Q292.64062 345.575 292.64062 346.46564L292.64062 349.45L291.0 349.45L291.0 346.04376Q291.0 345.1375 290.90625 344.8719Q290.82812 344.60626 290.64062 344.48126Q290.45312 344.34064 290.14062 344.34064Q289.76562 344.34064 289.45312 344.5594Q289.15625 344.7625 289.01562 345.15314Q288.89062 345.52814 288.89062 346.41876L288.89062 349.45L287.23438 349.45L287.23438 343.23126ZM299.59375 345.1219L298.09375 344.85626Q298.34375 343.95 298.95312 343.52814Q299.57812 343.09064 300.79688 343.09064Q301.89062 343.09064 302.42188 343.35626Q302.96875 343.60626 303.1875 344.0125Q303.40625 344.40314 303.40625 345.48126L303.39062 347.40314Q303.39062 348.23126 303.46875 348.6219Q303.54688 348.9969 303.76562 349.45L302.14062 349.45Q302.07812 349.27814 301.98438 348.96564Q301.9375 348.8094 301.92188 348.7625Q301.5 349.1844 301.01562 349.3875Q300.54688 349.59064 300.0 349.59064Q299.03125 349.59064 298.46875 349.075Q297.92188 348.54376 297.92188 347.7469Q297.92188 347.21564 298.17188 346.8094Q298.4375 346.40314 298.89062 346.1844Q299.34375 345.95 300.20312 345.79376Q301.34375 345.575 301.79688 345.3875L301.79688 345.23126Q301.79688 344.7469 301.5625 344.54376Q301.32812 344.34064 300.67188 344.34064Q300.23438 344.34064 299.98438 344.5125Q299.75 344.6844 299.59375 345.1219ZM301.79688 346.46564Q301.48438 346.5594 300.79688 346.71564Q300.10938 346.85626 299.89062 346.9969Q299.57812 347.23126 299.57812 347.575Q299.57812 347.91876 299.82812 348.1844Q300.09375 348.4344 300.48438 348.4344Q300.9375 348.4344 301.34375 348.1375Q301.64062 347.91876 301.73438 347.59064Q301.79688 347.3875 301.79688 346.79376L301.79688 346.46564ZM311.01562 349.45L309.375 349.45L309.375 346.27814Q309.375 345.2625 309.26562 344.96564Q309.17188 344.66876 308.92188 344.5125Q308.6875 344.34064 308.35938 344.34064Q307.92188 344.34064 307.57812 344.575Q307.25 344.8094 307.125 345.2Q307.0 345.59064 307.0 346.6375L307.0 349.45L305.34375 349.45L305.34375 343.23126L306.875 343.23126L306.875 344.1375Q307.6875 343.09064 308.9375 343.09064Q309.46875 343.09064 309.92188 343.29376Q310.375 343.48126 310.60938 343.79376Q310.84375 344.09064 310.92188 344.48126Q311.01562 344.85626 311.01562 345.575L311.01562 349.45ZM314.0 340.85626L314.0 344.0125Q314.79688 343.09064 315.90625 343.09064Q316.46875 343.09064 316.92188 343.3094Q317.39062 343.5125 317.625 343.84064Q317.85938 344.16876 317.9375 344.575Q318.01562 344.96564 318.01562 345.79376L318.01562 349.45L316.375 349.45L316.375 346.16876Q316.375 345.1844 316.28125 344.91876Q316.1875 344.65314 315.95312 344.4969Q315.71875 344.34064 315.35938 344.34064Q314.95312 344.34064 314.625 344.54376Q314.29688 344.7469 314.14062 345.15314Q314.0 345.54376 314.0 346.325L314.0 349.45L312.35938 349.45L312.35938 340.85626L314.0 340.85626ZM318.98438 346.2469Q318.98438 345.4344 319.39062 344.66876Q319.79688 343.8875 320.53125 343.4969Q321.26562 343.09064 322.1875 343.09064Q323.59375 343.09064 324.5 344.0125Q325.40625 344.91876 325.40625 346.325Q325.40625 347.73126 324.48438 348.66876Q323.57812 349.59064 322.20312 349.59064Q321.34375 349.59064 320.5625 349.2Q319.79688 348.8094 319.39062 348.075Q318.98438 347.325 318.98438 346.2469ZM320.67188 346.34064Q320.67188 347.2625 321.10938 347.7625Q321.54688 348.2469 322.1875 348.2469Q322.84375 348.2469 323.26562 347.7625Q323.70312 347.2625 323.70312 346.325Q323.70312 345.41876 323.26562 344.9344Q322.84375 344.4344 322.1875 344.4344Q321.54688 344.4344 321.10938 344.9344Q320.67188 345.41876 320.67188 346.34064ZM335.0625 349.45L333.54688 349.45L333.54688 348.52814Q333.15625 349.075 332.64062 349.34064Q332.125 349.59064 331.59375 349.59064Q330.51562 349.59064 329.75 348.73126Q329.0 347.85626 329.0 346.3094Q329.0 344.73126 329.73438 343.91876Q330.48438 343.09064 331.625 343.09064Q332.65625 343.09064 333.42188 343.95L333.42188 340.85626L335.0625 340.85626L335.0625 349.45ZM330.67188 346.2Q330.67188 347.2 330.95312 347.6375Q331.34375 348.29376 332.0625 348.29376Q332.625 348.29376 333.01562 347.8094Q333.42188 347.325 333.42188 346.35626Q333.42188 345.29376 333.03125 344.825Q332.65625 344.34064 332.04688 344.34064Q331.46875 344.34064 331.0625 344.8094Q330.67188 345.27814 330.67188 346.2ZM337.59375 345.1219L336.09375 344.85626Q336.34375 343.95 336.95312 343.52814Q337.57812 343.09064 338.79688 343.09064Q339.89062 343.09064 340.42188 343.35626Q340.96875 343.60626 341.1875 344.0125Q341.40625 344.40314 341.40625 345.48126L341.39062 347.40314Q341.39062 348.23126 341.46875 348.6219Q341.54688 348.9969 341.76562 349.45L340.14062 349.45Q340.07812 349.27814 339.98438 348.96564Q339.9375 348.8094 339.92188 348.7625Q339.5 349.1844 339.01562 349.3875Q338.54688 349.59064 338.0 349.59064Q337.03125 349.59064 336.46875 349.075Q335.92188 348.54376 335.92188 347.7469Q335.92188 347.21564 336.17188 346.8094Q336.4375 346.40314 336.89062 346.1844Q337.34375 345.95 338.20312 345.79376Q339.34375 345.575 339.79688 345.3875L339.79688 345.23126Q339.79688 344.7469 339.5625 344.54376Q339.32812 344.34064 338.67188 344.34064Q338.23438 344.34064 337.98438 344.5125Q337.75 344.6844 337.59375 345.1219ZM339.79688 346.46564Q339.48438 346.5594 338.79688 346.71564Q338.10938 346.85626 337.89062 346.9969Q337.57812 347.23126 337.57812 347.575Q337.57812 347.91876 337.82812 348.1844Q338.09375 348.4344 338.48438 348.4344Q338.9375 348.4344 339.34375 348.1375Q339.64062 347.91876 339.73438 347.59064Q339.79688 347.3875 339.79688 346.79376L339.79688 346.46564ZM349.96875 347.46564L351.60938 347.7469Q351.29688 348.65314 350.60938 349.1219Q349.92188 349.59064 348.90625 349.59064Q347.28125 349.59064 346.5 348.52814Q345.875 347.6844 345.875 346.3875Q345.875 344.84064 346.6875 343.96564Q347.5 343.09064 348.73438 343.09064Q350.125 343.09064 350.92188 344.0125Q351.73438 344.91876 351.6875 346.8094L347.5625 346.8094Q347.59375 347.54376 347.96875 347.95Q348.34375 348.35626 348.92188 348.35626Q349.29688 348.35626 349.5625 348.15314Q349.82812 347.9344 349.96875 347.46564ZM350.0625 345.8094Q350.04688 345.09064 349.6875 344.71564Q349.34375 344.34064 348.82812 344.34064Q348.29688 344.34064 347.9375 344.73126Q347.59375 345.1375 347.59375 345.8094L350.0625 345.8094ZM359.01562 349.45L357.375 349.45L357.375 346.27814Q357.375 345.2625 357.26562 344.96564Q357.17188 344.66876 356.92188 344.5125Q356.6875 344.34064 356.35938 344.34064Q355.92188 344.34064 355.57812 344.575Q355.25 344.8094 355.125 345.2Q355.0 345.59064 355.0 346.6375L355.0 349.45L353.34375 349.45L353.34375 343.23126L354.875 343.23126L354.875 344.1375Q355.6875 343.09064 356.9375 343.09064Q357.46875 343.09064 357.92188 343.29376Q358.375 343.48126 358.60938 343.79376Q358.84375 344.09064 358.92188 344.48126Q359.01562 344.85626 359.01562 345.575L359.01562 349.45ZM363.21875 343.23126L363.21875 344.54376L362.09375 344.54376L362.09375 347.04376Q362.09375 347.8094 362.125 347.9344Q362.15625 348.0594 362.26562 348.15314Q362.39062 348.23126 362.54688 348.23126Q362.78125 348.23126 363.20312 348.0594L363.34375 349.34064Q362.78125 349.59064 362.04688 349.59064Q361.60938 349.59064 361.25 349.45Q360.89062 349.29376 360.71875 349.0594Q360.5625 348.8094 360.48438 348.41876Q360.4375 348.1219 360.4375 347.2469L360.4375 344.54376L359.6875 344.54376L359.6875 343.23126L360.4375 343.23126L360.4375 341.9969L362.09375 341.02814L362.09375 343.23126L363.21875 343.23126ZM365.9375 349.45L364.29688 349.45L364.29688 343.23126L365.82812 343.23126L365.82812 344.10626Q366.21875 343.48126 366.53125 343.29376Q366.84375 343.09064 367.23438 343.09064Q367.79688 343.09064 368.32812 343.40314L367.8125 344.825Q367.39062 344.5594 367.04688 344.5594Q366.6875 344.5594 366.45312 344.7625Q366.21875 344.95 366.07812 345.45Q365.9375 345.9344 365.9375 347.52814L365.9375 349.45ZM370.59375 345.1219L369.09375 344.85626Q369.34375 343.95 369.95312 343.52814Q370.57812 343.09064 371.79688 343.09064Q372.89062 343.09064 373.42188 343.35626Q373.96875 343.60626 374.1875 344.0125Q374.40625 344.40314 374.40625 345.48126L374.39062 347.40314Q374.39062 348.23126 374.46875 348.6219Q374.54688 348.9969 374.76562 349.45L373.14062 349.45Q373.07812 349.27814 372.98438 348.96564Q372.9375 348.8094 372.92188 348.7625Q372.5 349.1844 372.01562 349.3875Q371.54688 349.59064 371.0 349.59064Q370.03125 349.59064 369.46875 349.075Q368.92188 348.54376 368.92188 347.7469Q368.92188 347.21564 369.17188 346.8094Q369.4375 346.40314 369.89062 346.1844Q370.34375 345.95 371.20312 345.79376Q372.34375 345.575 372.79688 345.3875L372.79688 345.23126Q372.79688 344.7469 372.5625 344.54376Q372.32812 344.34064 371.67188 344.34064Q371.23438 344.34064 370.98438 344.5125Q370.75 344.6844 370.59375 345.1219ZM372.79688 346.46564Q372.48438 346.5594 371.79688 346.71564Q371.10938 346.85626 370.89062 346.9969Q370.57812 347.23126 370.57812 347.575Q370.57812 347.91876 370.82812 348.1844Q371.09375 348.4344 371.48438 348.4344Q371.9375 348.4344 372.34375 348.1375Q372.64062 347.91876 372.73438 347.59064Q372.79688 347.3875 372.79688 346.79376L372.79688 346.46564ZM382.0625 349.45L380.54688 349.45L380.54688 348.52814Q380.15625 349.075 379.64062 349.34064Q379.125 349.59064 378.59375 349.59064Q377.51562 349.59064 376.75 348.73126Q376.0 347.85626 376.0 346.3094Q376.0 344.73126 376.73438 343.91876Q377.48438 343.09064 378.625 343.09064Q379.65625 343.09064 380.42188 343.95L380.42188 340.85626L382.0625 340.85626L382.0625 349.45ZM377.67188 346.2Q377.67188 347.2 377.95312 347.6375Q378.34375 348.29376 379.0625 348.29376Q379.625 348.29376 380.01562 347.8094Q380.42188 347.325 380.42188 346.35626Q380.42188 345.29376 380.03125 344.825Q379.65625 344.34064 379.04688 344.34064Q378.46875 344.34064 378.0625 344.8094Q377.67188 345.27814 377.67188 346.2ZM384.59375 345.1219L383.09375 344.85626Q383.34375 343.95 383.95312 343.52814Q384.57812 343.09064 385.79688 343.09064Q386.89062 343.09064 387.42188 343.35626Q387.96875 343.60626 388.1875 344.0125Q388.40625 344.40314 388.40625 345.48126L388.39062 347.40314Q388.39062 348.23126 388.46875 348.6219Q388.54688 348.9969 388.76562 349.45L387.14062 349.45Q387.07812 349.27814 386.98438 348.96564Q386.9375 348.8094 386.92188 348.7625Q386.5 349.1844 386.01562 349.3875Q385.54688 349.59064 385.0 349.59064Q384.03125 349.59064 383.46875 349.075Q382.92188 348.54376 382.92188 347.7469Q382.92188 347.21564 383.17188 346.8094Q383.4375 346.40314 383.89062 346.1844Q384.34375 345.95 385.20312 345.79376Q386.34375 345.575 386.79688 345.3875L386.79688 345.23126Q386.79688 344.7469 386.5625 344.54376Q386.32812 344.34064 385.67188 344.34064Q385.23438 344.34064 384.98438 344.5125Q384.75 344.6844 384.59375 345.1219ZM386.79688 346.46564Q386.48438 346.5594 385.79688 346.71564Q385.10938 346.85626 384.89062 346.9969Q384.57812 347.23126 384.57812 347.575Q384.57812 347.91876 384.82812 348.1844Q385.09375 348.4344 385.48438 348.4344Q385.9375 348.4344 386.34375 348.1375Q386.64062 347.91876 386.73438 347.59064Q386.79688 347.3875 386.79688 346.79376L386.79688 346.46564ZM396.09375 351.98126L394.96875 351.98126Q394.0625 350.6219 393.59375 349.16876Q393.125 347.7 393.125 346.34064Q393.125 344.6375 393.70312 343.1375Q394.21875 341.825 394.98438 340.71564L396.10938 340.71564Q395.3125 342.48126 395.0 343.73126Q394.70312 344.98126 394.70312 346.3719Q394.70312 347.34064 394.875 348.35626Q395.0625 349.35626 395.375 350.2625Q395.57812 350.85626 396.09375 351.98126ZM403.01562 349.45L401.375 349.45L401.375 346.27814Q401.375 345.2625 401.26562 344.96564Q401.17188 344.66876 400.92188 344.5125Q400.6875 344.34064 400.35938 344.34064Q399.92188 344.34064 399.57812 344.575Q399.25 344.8094 399.125 345.2Q399.0 345.59064 399.0 346.6375L399.0 349.45L397.34375 349.45L397.34375 343.23126L398.875 343.23126L398.875 344.1375Q399.6875 343.09064 400.9375 343.09064Q401.46875 343.09064 401.92188 343.29376Q402.375 343.48126 402.60938 343.79376Q402.84375 344.09064 402.92188 344.48126Q403.01562 344.85626 403.01562 345.575L403.01562 349.45ZM403.90625 351.98126Q404.39062 350.9344 404.59375 350.3719Q404.79688 349.825 404.95312 349.10626Q405.125 348.3719 405.20312 347.71564Q405.29688 347.0594 405.29688 346.3719Q405.29688 344.98126 405.0 343.73126Q404.70312 342.48126 403.89062 340.71564L405.01562 340.71564Q405.89062 341.96564 406.375 343.3875Q406.875 344.79376 406.875 346.2469Q406.875 347.48126 406.48438 348.8719Q406.04688 350.45 405.04688 351.98126L403.90625 351.98126Z" fill-rule="nonzero"/><path fill="#000000" d="M29.550013 230.62083L22.409388 230.62083L22.409388 233.16771L20.956263 233.16771L20.956263 226.35521L22.409388 226.35521L22.409388 228.88646L29.550013 228.88646L29.550013 230.62083ZM27.565638 221.96458L27.846888 220.32396Q28.753138 220.63646 29.221888 221.32396Q29.690638 222.01146 29.690638 223.02708Q29.690638 224.65208 28.628138 225.43333Q27.784388 226.05833 26.487513 226.05833Q24.940638 226.05833 24.065638 225.24583Q23.190638 224.43333 23.190638 223.19896Q23.190638 221.80833 24.112513 221.01146Q25.018763 220.19896 26.909388 220.24583L26.909388 224.37083Q27.643763 224.33958 28.050013 223.96458Q28.456263 223.58958 28.456263 223.01146Q28.456263 222.63646 28.253138 222.37083Q28.034388 222.10521 27.565638 221.96458ZM25.909388 221.87083Q25.190638 221.88646 24.815638 222.24583Q24.440638 222.58958 24.440638 223.10521Q24.440638 223.63646 24.831263 223.99583Q25.237513 224.33958 25.909388 224.33958L25.909388 221.87083ZM23.331263 218.69896L23.331263 217.18333L24.175013 217.18333Q23.190638 216.35521 23.190638 215.23021Q23.190638 214.63646 23.440638 214.19896Q23.675013 213.76146 24.175013 213.48021Q23.675013 213.07396 23.440638 212.60521Q23.190638 212.12083 23.190638 211.57396Q23.190638 210.90208 23.471888 210.43333Q23.737513 209.94896 24.284388 209.71458Q24.675013 209.54271 25.565638 209.54271L29.550013 209.54271L29.550013 211.18333L25.987513 211.18333Q25.065638 211.18333 24.800013 211.35521Q24.440638 211.58958 24.440638 212.05833Q24.440638 212.40208 24.659388 212.71458Q24.862513 213.01146 25.268763 213.15208Q25.675013 213.29271 26.565638 213.29271L29.550013 213.29271L29.550013 214.93333L26.143763 214.93333Q25.237513 214.93333 24.971888 215.02708Q24.706263 215.10521 24.581263 215.29271Q24.440638 215.48021 24.440638 215.79271Q24.440638 216.16771 24.659388 216.48021Q24.862513 216.77708 25.253138 216.91771Q25.628138 217.04271 26.518763 217.04271L29.550013 217.04271L29.550013 218.69896L23.331263 218.69896ZM23.331263 207.62083L23.331263 206.08958L24.237513 206.08958Q23.768763 205.77708 23.487513 205.27708Q23.190638 204.76146 23.190638 204.13646Q23.190638 203.05833 24.034388 202.30833Q24.878138 201.54271 26.409388 201.54271Q27.956263 201.54271 28.831263 202.30833Q29.690638 203.07396 29.690638 204.15208Q29.690638 204.66771 29.487513 205.08958Q29.284388 205.51146 28.784388 205.96458L31.925013 205.96458L31.925013 207.62083L23.331263 207.62083ZM26.331263 205.99583Q27.378138 205.99583 27.878138 205.57396Q28.378138 205.15208 28.378138 204.55833Q28.378138 203.98021 27.925013 203.60521Q27.456263 203.23021 26.409388 203.23021Q25.440638 203.23021 24.971888 203.62083Q24.487513 204.01146 24.487513 204.58958Q24.487513 205.19896 24.956263 205.60521Q25.425013 205.99583 26.331263 205.99583ZM26.346888 200.94896Q25.534388 200.94896 24.768763 200.54271Q23.987513 200.13646 23.596888 199.40208Q23.190638 198.66771 23.190638 197.74583Q23.190638 196.33958 24.112513 195.43333Q25.018763 194.52708 26.425013 194.52708Q27.831263 194.52708 28.768763 195.44896Q29.690638 196.35521 29.690638 197.73021Q29.690638 198.58958 29.300013 199.37083Q28.909388 200.13646 28.175013 200.54271Q27.425013 200.94896 26.346888 200.94896ZM26.440638 199.26146Q27.362513 199.26146 27.862513 198.82396Q28.346888 198.38646 28.346888 197.74583Q28.346888 197.08958 27.862513 196.66771Q27.362513 196.23021 26.425013 196.23021Q25.518763 196.23021 25.034388 196.66771Q24.534388 197.08958 24.534388 197.74583Q24.534388 198.38646 25.034388 198.82396Q25.518763 199.26146 26.440638 199.26146ZM32.08126 187.83958L32.08126 188.96458Q30.721888 189.87083 29.268763 190.33958Q27.800013 190.80833 26.440638 190.80833Q24.737513 190.80833 23.237513 190.23021Q21.925013 189.71458 20.815638 188.94896L20.815638 187.82396Q22.581263 188.62083 23.831263 188.93333Q25.081263 189.23021 26.471888 189.23021Q27.440638 189.23021 28.456263 189.05833Q29.456263 188.87083 30.362513 188.55833Q30.956263 188.35521 32.08126 187.83958ZM23.331263 186.69896L23.331263 185.18333L24.175013 185.18333Q23.190638 184.35521 23.190638 183.23021Q23.190638 182.63646 23.440638 182.19896Q23.675013 181.76146 24.175013 181.48021Q23.675013 181.07396 23.440638 180.60521Q23.190638 180.12083 23.190638 179.57396Q23.190638 178.90208 23.471888 178.43333Q23.737513 177.94896 24.284388 177.71458Q24.675013 177.54271 25.565638 177.54271L29.550013 177.54271L29.550013 179.18333L25.987513 179.18333Q25.065638 179.18333 24.800013 179.35521Q24.440638 179.58958 24.440638 180.05833Q24.440638 180.40208 24.659388 180.71458Q24.862513 181.01146 25.268763 181.15208Q25.675013 181.29271 26.565638 181.29271L29.550013 181.29271L29.550013 182.93333L26.143763 182.93333Q25.237513 182.93333 24.971888 183.02708Q24.706263 183.10521 24.581263 183.29271Q24.440638 183.48021 24.440638 183.79271Q24.440638 184.16771 24.659388 184.48021Q24.862513 184.77708 25.253138 184.91771Q25.628138 185.04271 26.518763 185.04271L29.550013 185.04271L29.550013 186.69896L23.331263 186.69896ZM27.768763 176.15208L27.518763 174.49583Q28.003138 174.38646 28.253138 174.07396Q28.503138 173.74583 28.503138 173.16771Q28.503138 172.52708 28.268763 172.21458Q28.096888 171.99583 27.831263 171.99583Q27.643763 171.99583 27.518763 172.10521Q27.393763 172.23021 27.300013 172.65208Q26.862513 174.65208 26.503138 175.18333Q25.987513 175.91771 25.096888 175.91771Q24.284388 175.91771 23.737513 175.29271Q23.190638 174.65208 23.190638 173.30833Q23.190638 172.02708 23.612513 171.40208Q24.018763 170.77708 24.831263 170.54271L25.112513 172.10521Q24.753138 172.19896 24.565638 172.48021Q24.362513 172.76146 24.362513 173.27708Q24.362513 173.91771 24.550013 174.19896Q24.675013 174.38646 24.878138 174.38646Q25.065638 174.38646 25.190638 174.23021Q25.346888 174.01146 25.643763 172.69896Q25.940638 171.37083 26.378138 170.85521Q26.815638 170.33958 27.596888 170.33958Q28.456263 170.33958 29.081263 171.05833Q29.690638 171.76146 29.690638 173.16771Q29.690638 174.43333 29.175013 175.18333Q28.659388 175.91771 27.768763 176.15208ZM32.08126 169.02708Q31.034388 168.54271 30.471888 168.33958Q29.925013 168.13646 29.206263 167.98021Q28.471888 167.80833 27.815638 167.73021Q27.159388 167.63646 26.471888 167.63646Q25.081263 167.63646 23.831263 167.93333Q22.581263 168.23021 20.815638 169.04271L20.815638 167.91771Q22.065638 167.04271 23.487513 166.55833Q24.893763 166.05833 26.346888 166.05833Q27.581263 166.05833 28.971888 166.44896Q30.550013 166.88646 32.08126 167.88646L32.08126 169.02708Z" fill-rule="nonzero"/><path fill="#000000" d="M76.01875 280.36218L74.97188 280.36218L74.97188 273.64343Q74.58125 274.0028 73.95625 274.3778Q73.34688 274.73718 72.8625 274.90906L72.8625 273.89343Q73.7375 273.47156 74.39375 272.89343Q75.06563 272.29968 75.34688 271.73718L76.01875 271.73718L76.01875 280.36218ZM79.05 276.1278Q79.05 274.59656 79.3625 273.67468Q79.675 272.73718 80.28438 272.23718Q80.90938 271.73718 81.84688 271.73718Q82.53438 271.73718 83.05 272.01843Q83.58125 272.29968 83.925 272.83093Q84.26875 273.34656 84.45625 274.09656Q84.64375 274.84656 84.64375 276.1278Q84.64375 277.64343 84.33125 278.5653Q84.03438 279.48718 83.40938 280.0028Q82.8 280.5028 81.84688 280.5028Q80.6125 280.5028 79.89375 279.61218Q79.05 278.54968 79.05 276.1278ZM80.12813 276.1278Q80.12813 278.23718 80.62813 278.9403Q81.12813 279.64343 81.84688 279.64343Q82.58125 279.64343 83.06563 278.9403Q83.56563 278.23718 83.56563 276.1278Q83.56563 274.0028 83.06563 273.3153Q82.58125 272.61218 81.83125 272.61218Q81.1125 272.61218 80.675 273.22156Q80.12813 274.0028 80.12813 276.1278ZM86.05 276.1278Q86.05 274.59656 86.3625 273.67468Q86.675 272.73718 87.28438 272.23718Q87.90938 271.73718 88.84688 271.73718Q89.53438 271.73718 90.05 272.01843Q90.58125 272.29968 90.925 272.83093Q91.26875 273.34656 91.45625 274.09656Q91.64375 274.84656 91.64375 276.1278Q91.64375 277.64343 91.33125 278.5653Q91.03438 279.48718 90.40938 280.0028Q89.8 280.5028 88.84688 280.5028Q87.6125 280.5028 86.89375 279.61218Q86.05 278.54968 86.05 276.1278ZM87.12813 276.1278Q87.12813 278.23718 87.62813 278.9403Q88.12813 279.64343 88.84688 279.64343Q89.58125 279.64343 90.06563 278.9403Q90.56563 278.23718 90.56563 276.1278Q90.56563 274.0028 90.06563 273.3153Q89.58125 272.61218 88.83125 272.61218Q88.1125 272.61218 87.675 273.22156Q87.12813 274.0028 87.12813 276.1278Z" fill-rule="nonzero"/><path fill="#000000" d="M69.01875 227.2942L67.97188 227.2942L67.97188 220.57545Q67.58125 220.93483 66.95625 221.30983Q66.34688 221.6692 65.8625 221.84108L65.8625 220.82545Q66.7375 220.40358 67.39375 219.82545Q68.06563 219.2317 68.34688 218.6692L69.01875 218.6692L69.01875 227.2942ZM72.05 223.05983Q72.05 221.52858 72.3625 220.6067Q72.675 219.6692 73.28438 219.1692Q73.90938 218.6692 74.84688 218.6692Q75.53438 218.6692 76.05 218.95045Q76.58125 219.2317 76.925 219.76295Q77.26875 220.27858 77.45625 221.02858Q77.64375 221.77858 77.64375 223.05983Q77.64375 224.57545 77.33125 225.49733Q77.03438 226.4192 76.40938 226.93483Q75.8 227.43483 74.84688 227.43483Q73.6125 227.43483 72.89375 226.5442Q72.05 225.4817 72.05 223.05983ZM73.12813 223.05983Q73.12813 225.1692 73.62813 225.87233Q74.12813 226.57545 74.84688 226.57545Q75.58125 226.57545 76.06563 225.87233Q76.56563 225.1692 76.56563 223.05983Q76.56563 220.93483 76.06563 220.24733Q75.58125 219.5442 74.83125 219.5442Q74.1125 219.5442 73.675 220.15358Q73.12813 220.93483 73.12813 223.05983ZM79.05 223.05983Q79.05 221.52858 79.3625 220.6067Q79.675 219.6692 80.28438 219.1692Q80.90938 218.6692 81.84688 218.6692Q82.53438 218.6692 83.05 218.95045Q83.58125 219.2317 83.925 219.76295Q84.26875 220.27858 84.45625 221.02858Q84.64375 221.77858 84.64375 223.05983Q84.64375 224.57545 84.33125 225.49733Q84.03438 226.4192 83.40938 226.93483Q82.8 227.43483 81.84688 227.43483Q80.6125 227.43483 79.89375 226.5442Q79.05 225.4817 79.05 223.05983ZM80.12813 223.05983Q80.12813 225.1692 80.62813 225.87233Q81.12813 226.57545 81.84688 226.57545Q82.58125 226.57545 83.06563 225.87233Q83.56563 225.1692 83.56563 223.05983Q83.56563 220.93483 83.06563 220.24733Q82.58125 219.5442 81.83125 219.5442Q81.1125 219.5442 80.675 220.15358Q80.12813 220.93483 80.12813 223.05983ZM86.05 223.05983Q86.05 221.52858 86.3625 220.6067Q86.675 219.6692 87.28438 219.1692Q87.90938 218.6692 88.84688 218.6692Q89.53438 218.6692 90.05 218.95045Q90.58125 219.2317 90.925 219.76295Q91.26875 220.27858 91.45625 221.02858Q91.64375 221.77858 91.64375 223.05983Q91.64375 224.57545 91.33125 225.49733Q91.03438 226.4192 90.40938 226.93483Q89.8 227.43483 88.84688 227.43483Q87.6125 227.43483 86.89375 226.5442Q86.05 225.4817 86.05 223.05983ZM87.12813 223.05983Q87.12813 225.1692 87.62813 225.87233Q88.12813 226.57545 88.84688 226.57545Q89.58125 226.57545 90.06563 225.87233Q90.56563 225.1692 90.56563 223.05983Q90.56563 220.93483 90.06563 220.24733Q89.58125 219.5442 88.83125 219.5442Q88.1125 219.5442 87.675 220.15358Q87.12813 220.93483 87.12813 223.05983Z" fill-rule="nonzero"/><path fill="#000000" d="M62.01875 174.22621L60.971874 174.22621L60.971874 167.50746Q60.58125 167.86684 59.95625 168.24184Q59.346874 168.60121 58.8625 168.77309L58.8625 167.75746Q59.7375 167.33559 60.39375 166.75746Q61.065624 166.16371 61.346874 165.60121L62.01875 165.60121L62.01875 174.22621ZM65.05 169.99184Q65.05 168.46059 65.3625 167.53871Q65.675 166.60121 66.28438 166.10121Q66.90938 165.60121 67.84688 165.60121Q68.53438 165.60121 69.05 165.88246Q69.58125 166.16371 69.925 166.69496Q70.26875 167.21059 70.45625 167.96059Q70.64375 168.71059 70.64375 169.99184Q70.64375 171.50746 70.33125 172.42934Q70.03438 173.35121 69.40938 173.86684Q68.8 174.36684 67.84688 174.36684Q66.6125 174.36684 65.89375 173.47621Q65.05 172.41371 65.05 169.99184ZM66.12813 169.99184Q66.12813 172.10121 66.62813 172.80434Q67.12813 173.50746 67.84688 173.50746Q68.58125 173.50746 69.06563 172.80434Q69.56563 172.10121 69.56563 169.99184Q69.56563 167.86684 69.06563 167.17934Q68.58125 166.47621 67.83125 166.47621Q67.1125 166.47621 66.675 167.08559Q66.12813 167.86684 66.12813 169.99184ZM72.05 169.99184Q72.05 168.46059 72.3625 167.53871Q72.675 166.60121 73.28438 166.10121Q73.90938 165.60121 74.84688 165.60121Q75.53438 165.60121 76.05 165.88246Q76.58125 166.16371 76.925 166.69496Q77.26875 167.21059 77.45625 167.96059Q77.64375 168.71059 77.64375 169.99184Q77.64375 171.50746 77.33125 172.42934Q77.03438 173.35121 76.40938 173.86684Q75.8 174.36684 74.84688 174.36684Q73.6125 174.36684 72.89375 173.47621Q72.05 172.41371 72.05 169.99184ZM73.12813 169.99184Q73.12813 172.10121 73.62813 172.80434Q74.12813 173.50746 74.84688 173.50746Q75.58125 173.50746 76.06563 172.80434Q76.56563 172.10121 76.56563 169.99184Q76.56563 167.86684 76.06563 167.17934Q75.58125 166.47621 74.83125 166.47621Q74.1125 166.47621 73.675 167.08559Q73.12813 167.86684 73.12813 169.99184ZM79.05 169.99184Q79.05 168.46059 79.3625 167.53871Q79.675 166.60121 80.28438 166.10121Q80.90938 165.60121 81.84688 165.60121Q82.53438 165.60121 83.05 165.88246Q83.58125 166.16371 83.925 166.69496Q84.26875 167.21059 84.45625 167.96059Q84.64375 168.71059 84.64375 169.99184Q84.64375 171.50746 84.33125 172.42934Q84.03438 173.35121 83.40938 173.86684Q82.8 174.36684 81.84688 174.36684Q80.6125 174.36684 79.89375 173.47621Q79.05 172.41371 79.05 169.99184ZM80.12813 169.99184Q80.12813 172.10121 80.62813 172.80434Q81.12813 173.50746 81.84688 173.50746Q82.58125 173.50746 83.06563 172.80434Q83.56563 172.10121 83.56563 169.99184Q83.56563 167.86684 83.06563 167.17934Q82.58125 166.47621 81.83125 166.47621Q81.1125 166.47621 80.675 167.08559Q80.12813 167.86684 80.12813 169.99184ZM86.05 169.99184Q86.05 168.46059 86.3625 167.53871Q86.675 166.60121 87.28438 166.10121Q87.90938 165.60121 88.84688 165.60121Q89.53438 165.60121 90.05 165.88246Q90.58125 166.16371 90.925 166.69496Q91.26875 167.21059 91.45625 167.96059Q91.64375 168.71059 91.64375 169.99184Q91.64375 171.50746 91.33125 172.42934Q91.03438 173.35121 90.40938 173.86684Q89.8 174.36684 88.84688 174.36684Q87.6125 174.36684 86.89375 173.47621Q86.05 172.41371 86.05 169.99184ZM87.12813 169.99184Q87.12813 172.10121 87.62813 172.80434Q88.12813 173.50746 88.84688 173.50746Q89.58125 173.50746 90.06563 172.80434Q90.56563 172.10121 90.56563 169.99184Q90.56563 167.86684 90.06563 167.17934Q89.58125 166.47621 88.83125 166.47621Q88.1125 166.47621 87.675 167.08559Q87.12813 167.86684 87.12813 169.99184Z" fill-rule="nonzero"/><path fill="#000000" d="M55.01875 121.15823L53.971874 121.15823L53.971874 114.43948Q53.58125 114.79886 52.95625 115.17386Q52.346874 115.53323 51.8625 115.70511L51.8625 114.68948Q52.7375 114.26761 53.39375 113.68948Q54.065624 113.09573 54.346874 112.53323L55.01875 112.53323L55.01875 121.15823ZM58.05 116.92386Q58.05 115.39261 58.3625 114.47073Q58.675 113.53323 59.284374 113.03323Q59.909374 112.53323 60.846874 112.53323Q61.534374 112.53323 62.05 112.81448Q62.58125 113.09573 62.925 113.62698Q63.26875 114.14261 63.45625 114.89261Q63.64375 115.64261 63.64375 116.92386Q63.64375 118.43948 63.33125 119.36136Q63.034374 120.28323 62.409374 120.79886Q61.8 121.29886 60.846874 121.29886Q59.6125 121.29886 58.89375 120.40823Q58.05 119.34573 58.05 116.92386ZM59.128124 116.92386Q59.128124 119.03323 59.628124 119.73636Q60.128124 120.43948 60.846874 120.43948Q61.58125 120.43948 62.065624 119.73636Q62.565624 119.03323 62.565624 116.92386Q62.565624 114.79886 62.065624 114.11136Q61.58125 113.40823 60.83125 113.40823Q60.1125 113.40823 59.675 114.01761Q59.128124 114.79886 59.128124 116.92386ZM65.05 116.92386Q65.05 115.39261 65.3625 114.47073Q65.675 113.53323 66.28438 113.03323Q66.90938 112.53323 67.84688 112.53323Q68.53438 112.53323 69.05 112.81448Q69.58125 113.09573 69.925 113.62698Q70.26875 114.14261 70.45625 114.89261Q70.64375 115.64261 70.64375 116.92386Q70.64375 118.43948 70.33125 119.36136Q70.03438 120.28323 69.40938 120.79886Q68.8 121.29886 67.84688 121.29886Q66.6125 121.29886 65.89375 120.40823Q65.05 119.34573 65.05 116.92386ZM66.12813 116.92386Q66.12813 119.03323 66.62813 119.73636Q67.12813 120.43948 67.84688 120.43948Q68.58125 120.43948 69.06563 119.73636Q69.56563 119.03323 69.56563 116.92386Q69.56563 114.79886 69.06563 114.11136Q68.58125 113.40823 67.83125 113.40823Q67.1125 113.40823 66.675 114.01761Q66.12813 114.79886 66.12813 116.92386ZM72.05 116.92386Q72.05 115.39261 72.3625 114.47073Q72.675 113.53323 73.28438 113.03323Q73.90938 112.53323 74.84688 112.53323Q75.53438 112.53323 76.05 112.81448Q76.58125 113.09573 76.925 113.62698Q77.26875 114.14261 77.45625 114.89261Q77.64375 115.64261 77.64375 116.92386Q77.64375 118.43948 77.33125 119.36136Q77.03438 120.28323 76.40938 120.79886Q75.8 121.29886 74.84688 121.29886Q73.6125 121.29886 72.89375 120.40823Q72.05 119.34573 72.05 116.92386ZM73.12813 116.92386Q73.12813 119.03323 73.62813 119.73636Q74.12813 120.43948 74.84688 120.43948Q75.58125 120.43948 76.06563 119.73636Q76.56563 119.03323 76.56563 116.92386Q76.56563 114.79886 76.06563 114.11136Q75.58125 113.40823 74.83125 113.40823Q74.1125 113.40823 73.675 114.01761Q73.12813 114.79886 73.12813 116.92386ZM79.05 116.92386Q79.05 115.39261 79.3625 114.47073Q79.675 113.53323 80.28438 113.03323Q80.90938 112.53323 81.84688 112.53323Q82.53438 112.53323 83.05 112.81448Q83.58125 113.09573 83.925 113.62698Q84.26875 114.14261 84.45625 114.89261Q84.64375 115.64261 84.64375 116.92386Q84.64375 118.43948 84.33125 119.36136Q84.03438 120.28323 83.40938 120.79886Q82.8 121.29886 81.84688 121.29886Q80.6125 121.29886 79.89375 120.40823Q79.05 119.34573 79.05 116.92386ZM80.12813 116.92386Q80.12813 119.03323 80.62813 119.73636Q81.12813 120.43948 81.84688 120.43948Q82.58125 120.43948 83.06563 119.73636Q83.56563 119.03323 83.56563 116.92386Q83.56563 114.79886 83.06563 114.11136Q82.58125 113.40823 81.83125 113.40823Q81.1125 113.40823 80.675 114.01761Q80.12813 114.79886 80.12813 116.92386ZM86.05 116.92386Q86.05 115.39261 86.3625 114.47073Q86.675 113.53323 87.28438 113.03323Q87.90938 112.53323 88.84688 112.53323Q89.53438 112.53323 90.05 112.81448Q90.58125 113.09573 90.925 113.62698Q91.26875 114.14261 91.45625 114.89261Q91.64375 115.64261 91.64375 116.92386Q91.64375 118.43948 91.33125 119.36136Q91.03438 120.28323 90.40938 120.79886Q89.8 121.29886 88.84688 121.29886Q87.6125 121.29886 86.89375 120.40823Q86.05 119.34573 86.05 116.92386ZM87.12813 116.92386Q87.12813 119.03323 87.62813 119.73636Q88.12813 120.43948 88.84688 120.43948Q89.58125 120.43948 90.06563 119.73636Q90.56563 119.03323 90.56563 116.92386Q90.56563 114.79886 90.06563 114.11136Q89.58125 113.40823 88.83125 113.40823Q88.1125 113.40823 87.675 114.01761Q87.12813 114.79886 87.12813 116.92386Z" fill-rule="nonzero"/><path fill="#000000" d="M176.27466 316.4344L176.27466 317.45L170.58716 317.45Q170.58716 317.075 170.71216 316.71564Q170.93091 316.1375 171.39966 315.575Q171.88403 315.0125 172.79028 314.27814Q174.19653 313.1219 174.68091 312.45Q175.18091 311.77814 175.18091 311.1844Q175.18091 310.5594 174.72778 310.1375Q174.27466 309.7 173.55591 309.7Q172.79028 309.7 172.33716 310.15314Q171.88403 310.60626 171.86841 311.41876L170.79028 311.3094Q170.89966 310.09064 171.61841 309.46564Q172.35278 308.825 173.58716 308.825Q174.82153 308.825 175.54028 309.5125Q176.25903 310.2 176.25903 311.21564Q176.25903 311.73126 176.04028 312.23126Q175.83716 312.71564 175.33716 313.27814Q174.85278 313.825 173.72778 314.77814Q172.77466 315.575 172.49341 315.8719Q172.22778 316.15314 172.05591 316.4344L176.27466 316.4344ZM177.72778 313.21564Q177.72778 311.6844 178.04028 310.7625Q178.35278 309.825 178.96216 309.325Q179.58716 308.825 180.52466 308.825Q181.21216 308.825 181.72778 309.10626Q182.25903 309.3875 182.60278 309.91876Q182.94653 310.4344 183.13403 311.1844Q183.32153 311.9344 183.32153 313.21564Q183.32153 314.73126 183.00903 315.65314Q182.71216 316.575 182.08716 317.09064Q181.47778 317.59064 180.52466 317.59064Q179.29028 317.59064 178.57153 316.7Q177.72778 315.6375 177.72778 313.21564ZM178.80591 313.21564Q178.80591 315.325 179.30591 316.02814Q179.80591 316.73126 180.52466 316.73126Q181.25903 316.73126 181.74341 316.02814Q182.24341 315.325 182.24341 313.21564Q182.24341 311.09064 181.74341 310.40314Q181.25903 309.7 180.50903 309.7Q179.79028 309.7 179.35278 310.3094Q178.80591 311.09064 178.80591 313.21564ZM184.72778 313.21564Q184.72778 311.6844 185.04028 310.7625Q185.35278 309.825 185.96216 309.325Q186.58716 308.825 187.52466 308.825Q188.21216 308.825 188.72778 309.10626Q189.25903 309.3875 189.60278 309.91876Q189.94653 310.4344 190.13403 311.1844Q190.32153 311.9344 190.32153 313.21564Q190.32153 314.73126 190.00903 315.65314Q189.71216 316.575 189.08716 317.09064Q188.47778 317.59064 187.52466 317.59064Q186.29028 317.59064 185.57153 316.7Q184.72778 315.6375 184.72778 313.21564ZM185.80591 313.21564Q185.80591 315.325 186.30591 316.02814Q186.80591 316.73126 187.52466 316.73126Q188.25903 316.73126 188.74341 316.02814Q189.24341 315.325 189.24341 313.21564Q189.24341 311.09064 188.74341 310.40314Q188.25903 309.7 187.50903 309.7Q186.79028 309.7 186.35278 310.3094Q185.80591 311.09064 185.80591 313.21564ZM191.72778 313.21564Q191.72778 311.6844 192.04028 310.7625Q192.35278 309.825 192.96216 309.325Q193.58716 308.825 194.52466 308.825Q195.21216 308.825 195.72778 309.10626Q196.25903 309.3875 196.60278 309.91876Q196.94653 310.4344 197.13403 311.1844Q197.32153 311.9344 197.32153 313.21564Q197.32153 314.73126 197.00903 315.65314Q196.71216 316.575 196.08716 317.09064Q195.47778 317.59064 194.52466 317.59064Q193.29028 317.59064 192.57153 316.7Q191.72778 315.6375 191.72778 313.21564ZM192.80591 313.21564Q192.80591 315.325 193.30591 316.02814Q193.80591 316.73126 194.52466 316.73126Q195.25903 316.73126 195.74341 316.02814Q196.24341 315.325 196.24341 313.21564Q196.24341 311.09064 195.74341 310.40314Q195.25903 309.7 194.50903 309.7Q193.79028 309.7 193.35278 310.3094Q192.80591 311.09064 192.80591 313.21564ZM198.72778 313.21564Q198.72778 311.6844 199.04028 310.7625Q199.35278 309.825 199.96216 309.325Q200.58716 308.825 201.52466 308.825Q202.21216 308.825 202.72778 309.10626Q203.25903 309.3875 203.60278 309.91876Q203.94653 310.4344 204.13403 311.1844Q204.32153 311.9344 204.32153 313.21564Q204.32153 314.73126 204.00903 315.65314Q203.71216 316.575 203.08716 317.09064Q202.47778 317.59064 201.52466 317.59064Q200.29028 317.59064 199.57153 316.7Q198.72778 315.6375 198.72778 313.21564ZM199.80591 313.21564Q199.80591 315.325 200.30591 316.02814Q200.80591 316.73126 201.52466 316.73126Q202.25903 316.73126 202.74341 316.02814Q203.24341 315.325 203.24341 313.21564Q203.24341 311.09064 202.74341 310.40314Q202.25903 309.7 201.50903 309.7Q200.79028 309.7 200.35278 310.3094Q199.80591 311.09064 199.80591 313.21564ZM205.72778 313.21564Q205.72778 311.6844 206.04028 310.7625Q206.35278 309.825 206.96216 309.325Q207.58716 308.825 208.52466 308.825Q209.21216 308.825 209.72778 309.10626Q210.25903 309.3875 210.60278 309.91876Q210.94653 310.4344 211.13403 311.1844Q211.32153 311.9344 211.32153 313.21564Q211.32153 314.73126 211.00903 315.65314Q210.71216 316.575 210.08716 317.09064Q209.47778 317.59064 208.52466 317.59064Q207.29028 317.59064 206.57153 316.7Q205.72778 315.6375 205.72778 313.21564ZM206.80591 313.21564Q206.80591 315.325 207.30591 316.02814Q207.80591 316.73126 208.52466 316.73126Q209.25903 316.73126 209.74341 316.02814Q210.24341 315.325 210.24341 313.21564Q210.24341 311.09064 209.74341 310.40314Q209.25903 309.7 208.50903 309.7Q207.79028 309.7 207.35278 310.3094Q206.80591 311.09064 206.80591 313.21564Z" fill-rule="nonzero"/><path fill="#000000" d="M271.65833 317.45L271.65833 315.3875L267.93958 315.3875L267.93958 314.41876L271.86145 308.85626L272.72083 308.85626L272.72083 314.41876L273.87708 314.41876L273.87708 315.3875L272.72083 315.3875L272.72083 317.45L271.65833 317.45ZM271.65833 314.41876L271.65833 310.5594L268.97083 314.41876L271.65833 314.41876ZM275.28333 313.21564Q275.28333 311.6844 275.59583 310.7625Q275.90833 309.825 276.5177 309.325Q277.1427 308.825 278.0802 308.825Q278.7677 308.825 279.28333 309.10626Q279.81458 309.3875 280.15833 309.91876Q280.50208 310.4344 280.68958 311.1844Q280.87708 311.9344 280.87708 313.21564Q280.87708 314.73126 280.56458 315.65314Q280.2677 316.575 279.6427 317.09064Q279.03333 317.59064 278.0802 317.59064Q276.84583 317.59064 276.12708 316.7Q275.28333 315.6375 275.28333 313.21564ZM276.36145 313.21564Q276.36145 315.325 276.86145 316.02814Q277.36145 316.73126 278.0802 316.73126Q278.81458 316.73126 279.29895 316.02814Q279.79895 315.325 279.79895 313.21564Q279.79895 311.09064 279.29895 310.40314Q278.81458 309.7 278.06458 309.7Q277.34583 309.7 276.90833 310.3094Q276.36145 311.09064 276.36145 313.21564ZM282.28333 313.21564Q282.28333 311.6844 282.59583 310.7625Q282.90833 309.825 283.5177 309.325Q284.1427 308.825 285.0802 308.825Q285.7677 308.825 286.28333 309.10626Q286.81458 309.3875 287.15833 309.91876Q287.50208 310.4344 287.68958 311.1844Q287.87708 311.9344 287.87708 313.21564Q287.87708 314.73126 287.56458 315.65314Q287.2677 316.575 286.6427 317.09064Q286.03333 317.59064 285.0802 317.59064Q283.84583 317.59064 283.12708 316.7Q282.28333 315.6375 282.28333 313.21564ZM283.36145 313.21564Q283.36145 315.325 283.86145 316.02814Q284.36145 316.73126 285.0802 316.73126Q285.81458 316.73126 286.29895 316.02814Q286.79895 315.325 286.79895 313.21564Q286.79895 311.09064 286.29895 310.40314Q285.81458 309.7 285.06458 309.7Q284.34583 309.7 283.90833 310.3094Q283.36145 311.09064 283.36145 313.21564ZM289.28333 313.21564Q289.28333 311.6844 289.59583 310.7625Q289.90833 309.825 290.5177 309.325Q291.1427 308.825 292.0802 308.825Q292.7677 308.825 293.28333 309.10626Q293.81458 309.3875 294.15833 309.91876Q294.50208 310.4344 294.68958 311.1844Q294.87708 311.9344 294.87708 313.21564Q294.87708 314.73126 294.56458 315.65314Q294.2677 316.575 293.6427 317.09064Q293.03333 317.59064 292.0802 317.59064Q290.84583 317.59064 290.12708 316.7Q289.28333 315.6375 289.28333 313.21564ZM290.36145 313.21564Q290.36145 315.325 290.86145 316.02814Q291.36145 316.73126 292.0802 316.73126Q292.81458 316.73126 293.29895 316.02814Q293.79895 315.325 293.79895 313.21564Q293.79895 311.09064 293.29895 310.40314Q292.81458 309.7 292.06458 309.7Q291.34583 309.7 290.90833 310.3094Q290.36145 311.09064 290.36145 313.21564ZM296.28333 313.21564Q296.28333 311.6844 296.59583 310.7625Q296.90833 309.825 297.5177 309.325Q298.1427 308.825 299.0802 308.825Q299.7677 308.825 300.28333 309.10626Q300.81458 309.3875 301.15833 309.91876Q301.50208 310.4344 301.68958 311.1844Q301.87708 311.9344 301.87708 313.21564Q301.87708 314.73126 301.56458 315.65314Q301.2677 316.575 300.6427 317.09064Q300.03333 317.59064 299.0802 317.59064Q297.84583 317.59064 297.12708 316.7Q296.28333 315.6375 296.28333 313.21564ZM297.36145 313.21564Q297.36145 315.325 297.86145 316.02814Q298.36145 316.73126 299.0802 316.73126Q299.81458 316.73126 300.29895 316.02814Q300.79895 315.325 300.79895 313.21564Q300.79895 311.09064 300.29895 310.40314Q299.81458 309.7 299.06458 309.7Q298.34583 309.7 297.90833 310.3094Q297.36145 311.09064 297.36145 313.21564ZM303.28333 313.21564Q303.28333 311.6844 303.59583 310.7625Q303.90833 309.825 304.5177 309.325Q305.1427 308.825 306.0802 308.825Q306.7677 308.825 307.28333 309.10626Q307.81458 309.3875 308.15833 309.91876Q308.50208 310.4344 308.68958 311.1844Q308.87708 311.9344 308.87708 313.21564Q308.87708 314.73126 308.56458 315.65314Q308.2677 316.575 307.6427 317.09064Q307.03333 317.59064 306.0802 317.59064Q304.84583 317.59064 304.12708 316.7Q303.28333 315.6375 303.28333 313.21564ZM304.36145 313.21564Q304.36145 315.325 304.86145 316.02814Q305.36145 316.73126 306.0802 316.73126Q306.81458 316.73126 307.29895 316.02814Q307.79895 315.325 307.79895 313.21564Q307.79895 311.09064 307.29895 310.40314Q306.81458 309.7 306.06458 309.7Q305.34583 309.7 304.90833 310.3094Q304.36145 311.09064 304.36145 313.21564Z" fill-rule="nonzero"/><path fill="#000000" d="M371.30765 310.96564L370.26077 311.04376Q370.12015 310.41876 369.87015 310.1375Q369.43265 309.6844 368.80765 309.6844Q368.30765 309.6844 367.91702 309.96564Q367.43265 310.34064 367.13577 311.04376Q366.85452 311.73126 366.8389 313.0125Q367.2139 312.4344 367.76077 312.15314Q368.32327 311.8719 368.93265 311.8719Q369.97952 311.8719 370.7139 312.65314Q371.4639 313.4344 371.4639 314.65314Q371.4639 315.46564 371.10452 316.16876Q370.76077 316.85626 370.1514 317.23126Q369.54202 317.59064 368.7764 317.59064Q367.44827 317.59064 366.62015 316.6219Q365.79202 315.65314 365.79202 313.4344Q365.79202 310.9344 366.7139 309.8094Q367.51077 308.825 368.87015 308.825Q369.88577 308.825 370.5264 309.40314Q371.18265 309.96564 371.30765 310.96564ZM367.01077 314.66876Q367.01077 315.21564 367.22952 315.71564Q367.4639 316.2 367.87015 316.46564Q368.29202 316.73126 368.76077 316.73126Q369.41702 316.73126 369.9014 316.2Q370.38577 315.65314 370.38577 314.73126Q370.38577 313.84064 369.9014 313.325Q369.43265 312.8094 368.7139 312.8094Q367.99515 312.8094 367.49515 313.325Q367.01077 313.84064 367.01077 314.66876ZM372.8389 313.21564Q372.8389 311.6844 373.1514 310.7625Q373.4639 309.825 374.07327 309.325Q374.69827 308.825 375.63577 308.825Q376.32327 308.825 376.8389 309.10626Q377.37015 309.3875 377.7139 309.91876Q378.05765 310.4344 378.24515 311.1844Q378.43265 311.9344 378.43265 313.21564Q378.43265 314.73126 378.12015 315.65314Q377.82327 316.575 377.19827 317.09064Q376.5889 317.59064 375.63577 317.59064Q374.4014 317.59064 373.68265 316.7Q372.8389 315.6375 372.8389 313.21564ZM373.91702 313.21564Q373.91702 315.325 374.41702 316.02814Q374.91702 316.73126 375.63577 316.73126Q376.37015 316.73126 376.85452 316.02814Q377.35452 315.325 377.35452 313.21564Q377.35452 311.09064 376.85452 310.40314Q376.37015 309.7 375.62015 309.7Q374.9014 309.7 374.4639 310.3094Q373.91702 311.09064 373.91702 313.21564ZM379.8389 313.21564Q379.8389 311.6844 380.1514 310.7625Q380.4639 309.825 381.07327 309.325Q381.69827 308.825 382.63577 308.825Q383.32327 308.825 383.8389 309.10626Q384.37015 309.3875 384.7139 309.91876Q385.05765 310.4344 385.24515 311.1844Q385.43265 311.9344 385.43265 313.21564Q385.43265 314.73126 385.12015 315.65314Q384.82327 316.575 384.19827 317.09064Q383.5889 317.59064 382.63577 317.59064Q381.4014 317.59064 380.68265 316.7Q379.8389 315.6375 379.8389 313.21564ZM380.91702 313.21564Q380.91702 315.325 381.41702 316.02814Q381.91702 316.73126 382.63577 316.73126Q383.37015 316.73126 383.85452 316.02814Q384.35452 315.325 384.35452 313.21564Q384.35452 311.09064 383.85452 310.40314Q383.37015 309.7 382.62015 309.7Q381.9014 309.7 381.4639 310.3094Q380.91702 311.09064 380.91702 313.21564ZM386.8389 313.21564Q386.8389 311.6844 387.1514 310.7625Q387.4639 309.825 388.07327 309.325Q388.69827 308.825 389.63577 308.825Q390.32327 308.825 390.8389 309.10626Q391.37015 309.3875 391.7139 309.91876Q392.05765 310.4344 392.24515 311.1844Q392.43265 311.9344 392.43265 313.21564Q392.43265 314.73126 392.12015 315.65314Q391.82327 316.575 391.19827 317.09064Q390.5889 317.59064 389.63577 317.59064Q388.4014 317.59064 387.68265 316.7Q386.8389 315.6375 386.8389 313.21564ZM387.91702 313.21564Q387.91702 315.325 388.41702 316.02814Q388.91702 316.73126 389.63577 316.73126Q390.37015 316.73126 390.85452 316.02814Q391.35452 315.325 391.35452 313.21564Q391.35452 311.09064 390.85452 310.40314Q390.37015 309.7 389.62015 309.7Q388.9014 309.7 388.4639 310.3094Q387.91702 311.09064 387.91702 313.21564ZM393.8389 313.21564Q393.8389 311.6844 394.1514 310.7625Q394.4639 309.825 395.07327 309.325Q395.69827 308.825 396.63577 308.825Q397.32327 308.825 397.8389 309.10626Q398.37015 309.3875 398.7139 309.91876Q399.05765 310.4344 399.24515 311.1844Q399.43265 311.9344 399.43265 313.21564Q399.43265 314.73126 399.12015 315.65314Q398.82327 316.575 398.19827 317.09064Q397.5889 317.59064 396.63577 317.59064Q395.4014 317.59064 394.68265 316.7Q393.8389 315.6375 393.8389 313.21564ZM394.91702 313.21564Q394.91702 315.325 395.41702 316.02814Q395.91702 316.73126 396.63577 316.73126Q397.37015 316.73126 397.85452 316.02814Q398.35452 315.325 398.35452 313.21564Q398.35452 311.09064 397.85452 310.40314Q397.37015 309.7 396.62015 309.7Q395.9014 309.7 395.4639 310.3094Q394.91702 311.09064 394.91702 313.21564ZM400.8389 313.21564Q400.8389 311.6844 401.1514 310.7625Q401.4639 309.825 402.07327 309.325Q402.69827 308.825 403.63577 308.825Q404.32327 308.825 404.8389 309.10626Q405.37015 309.3875 405.7139 309.91876Q406.05765 310.4344 406.24515 311.1844Q406.43265 311.9344 406.43265 313.21564Q406.43265 314.73126 406.12015 315.65314Q405.82327 316.575 405.19827 317.09064Q404.5889 317.59064 403.63577 317.59064Q402.4014 317.59064 401.68265 316.7Q400.8389 315.6375 400.8389 313.21564ZM401.91702 313.21564Q401.91702 315.325 402.41702 316.02814Q402.91702 316.73126 403.63577 316.73126Q404.37015 316.73126 404.85452 316.02814Q405.35452 315.325 405.35452 313.21564Q405.35452 311.09064 404.85452 310.40314Q404.37015 309.7 403.62015 309.7Q402.9014 309.7 402.4639 310.3094Q401.91702 311.09064 401.91702 313.21564Z" fill-rule="nonzero"/><path fill="#000000" d="M465.01944 312.79376Q464.3632 312.54376 464.03506 312.10626Q463.72256 311.65314 463.72256 311.04376Q463.72256 310.10626 464.39444 309.46564Q465.08194 308.825 466.1913 308.825Q467.3163 308.825 468.0038 309.48126Q468.6913 310.1375 468.6913 311.075Q468.6913 311.66876 468.3788 312.10626Q468.0663 312.54376 467.4257 312.79376Q468.22256 313.04376 468.6288 313.6219Q469.03506 314.2 469.03506 314.9969Q469.03506 316.09064 468.2538 316.84064Q467.4882 317.59064 466.20694 317.59064Q464.9413 317.59064 464.16006 316.84064Q463.3788 316.09064 463.3788 314.96564Q463.3788 314.1219 463.8007 313.5594Q464.2382 312.9969 465.01944 312.79376ZM464.8007 310.9969Q464.8007 311.60626 465.1913 311.9969Q465.59756 312.3875 466.22256 312.3875Q466.83194 312.3875 467.22256 312.0125Q467.6132 311.6219 467.6132 311.0594Q467.6132 310.48126 467.20694 310.09064Q466.8007 309.6844 466.20694 309.6844Q465.59756 309.6844 465.1913 310.075Q464.8007 310.46564 464.8007 310.9969ZM464.47256 314.96564Q464.47256 315.41876 464.6757 315.84064Q464.89444 316.2625 465.3163 316.4969Q465.7382 316.73126 466.22256 316.73126Q466.97256 316.73126 467.45694 316.2469Q467.95694 315.7625 467.95694 315.0125Q467.95694 314.2469 467.45694 313.7469Q466.95694 313.2469 466.1913 313.2469Q465.4413 313.2469 464.95694 313.7469Q464.47256 314.23126 464.47256 314.96564ZM470.39444 313.21564Q470.39444 311.6844 470.70694 310.7625Q471.01944 309.825 471.6288 309.325Q472.2538 308.825 473.1913 308.825Q473.8788 308.825 474.39444 309.10626Q474.9257 309.3875 475.26944 309.91876Q475.6132 310.4344 475.8007 311.1844Q475.9882 311.9344 475.9882 313.21564Q475.9882 314.73126 475.6757 315.65314Q475.3788 316.575 474.7538 317.09064Q474.14444 317.59064 473.1913 317.59064Q471.95694 317.59064 471.2382 316.7Q470.39444 315.6375 470.39444 313.21564ZM471.47256 313.21564Q471.47256 315.325 471.97256 316.02814Q472.47256 316.73126 473.1913 316.73126Q473.9257 316.73126 474.41006 316.02814Q474.91006 315.325 474.91006 313.21564Q474.91006 311.09064 474.41006 310.40314Q473.9257 309.7 473.1757 309.7Q472.45694 309.7 472.01944 310.3094Q471.47256 311.09064 471.47256 313.21564ZM477.39444 313.21564Q477.39444 311.6844 477.70694 310.7625Q478.01944 309.825 478.6288 309.325Q479.2538 308.825 480.1913 308.825Q480.8788 308.825 481.39444 309.10626Q481.9257 309.3875 482.26944 309.91876Q482.6132 310.4344 482.8007 311.1844Q482.9882 311.9344 482.9882 313.21564Q482.9882 314.73126 482.6757 315.65314Q482.3788 316.575 481.7538 317.09064Q481.14444 317.59064 480.1913 317.59064Q478.95694 317.59064 478.2382 316.7Q477.39444 315.6375 477.39444 313.21564ZM478.47256 313.21564Q478.47256 315.325 478.97256 316.02814Q479.47256 316.73126 480.1913 316.73126Q480.9257 316.73126 481.41006 316.02814Q481.91006 315.325 481.91006 313.21564Q481.91006 311.09064 481.41006 310.40314Q480.9257 309.7 480.1757 309.7Q479.45694 309.7 479.01944 310.3094Q478.47256 311.09064 478.47256 313.21564ZM484.39444 313.21564Q484.39444 311.6844 484.70694 310.7625Q485.01944 309.825 485.6288 309.325Q486.2538 308.825 487.1913 308.825Q487.8788 308.825 488.39444 309.10626Q488.9257 309.3875 489.26944 309.91876Q489.6132 310.4344 489.8007 311.1844Q489.9882 311.9344 489.9882 313.21564Q489.9882 314.73126 489.6757 315.65314Q489.3788 316.575 488.7538 317.09064Q488.14444 317.59064 487.1913 317.59064Q485.95694 317.59064 485.2382 316.7Q484.39444 315.6375 484.39444 313.21564ZM485.47256 313.21564Q485.47256 315.325 485.97256 316.02814Q486.47256 316.73126 487.1913 316.73126Q487.9257 316.73126 488.41006 316.02814Q488.91006 315.325 488.91006 313.21564Q488.91006 311.09064 488.41006 310.40314Q487.9257 309.7 487.1757 309.7Q486.45694 309.7 486.01944 310.3094Q485.47256 311.09064 485.47256 313.21564ZM491.39444 313.21564Q491.39444 311.6844 491.70694 310.7625Q492.01944 309.825 492.6288 309.325Q493.2538 308.825 494.1913 308.825Q494.8788 308.825 495.39444 309.10626Q495.9257 309.3875 496.26944 309.91876Q496.6132 310.4344 496.8007 311.1844Q496.9882 311.9344 496.9882 313.21564Q496.9882 314.73126 496.6757 315.65314Q496.3788 316.575 495.7538 317.09064Q495.14444 317.59064 494.1913 317.59064Q492.95694 317.59064 492.2382 316.7Q491.39444 315.6375 491.39444 313.21564ZM492.47256 313.21564Q492.47256 315.325 492.97256 316.02814Q493.47256 316.73126 494.1913 316.73126Q494.9257 316.73126 495.41006 316.02814Q495.91006 315.325 495.91006 313.21564Q495.91006 311.09064 495.41006 310.40314Q494.9257 309.7 494.1757 309.7Q493.45694 309.7 493.01944 310.3094Q492.47256 311.09064 492.47256 313.21564ZM498.39444 313.21564Q498.39444 311.6844 498.70694 310.7625Q499.01944 309.825 499.6288 309.325Q500.2538 308.825 501.1913 308.825Q501.8788 308.825 502.39444 309.10626Q502.9257 309.3875 503.26944 309.91876Q503.6132 310.4344 503.8007 311.1844Q503.9882 311.9344 503.9882 313.21564Q503.9882 314.73126 503.6757 315.65314Q503.3788 316.575 502.7538 317.09064Q502.14444 317.59064 501.1913 317.59064Q499.95694 317.59064 499.2382 316.7Q498.39444 315.6375 498.39444 313.21564ZM499.47256 313.21564Q499.47256 315.325 499.97256 316.02814Q500.47256 316.73126 501.1913 316.73126Q501.9257 316.73126 502.41006 316.02814Q502.91006 315.325 502.91006 313.21564Q502.91006 311.09064 502.41006 310.40314Q501.9257 309.7 501.1757 309.7Q500.45694 309.7 500.01944 310.3094Q499.47256 311.09064 499.47256 313.21564Z" fill-rule="nonzero"/><path fill="#999999" d="M19.659374 63.05L19.659374 53.034374L26.909374 53.034374L26.909374 54.20625L20.9875 54.20625L20.9875 57.284374L26.534374 57.284374L26.534374 58.45625L20.9875 58.45625L20.9875 61.8625L27.14375 61.8625L27.14375 63.05L19.659374 63.05ZM27.9875 60.878124L29.190624 60.690624Q29.3 61.425 29.76875 61.815624Q30.2375 62.20625 31.08125 62.20625Q31.925 62.20625 32.33125 61.8625Q32.753124 61.51875 32.753124 61.05Q32.753124 60.628124 32.378124 60.39375Q32.128124 60.221874 31.128124 59.971874Q29.76875 59.628124 29.2375 59.378124Q28.721874 59.128124 28.45625 58.690624Q28.190624 58.253124 28.190624 57.721874Q28.190624 57.2375 28.409374 56.83125Q28.628124 56.409374 29.01875 56.128124Q29.3 55.925 29.784374 55.784374Q30.284374 55.628124 30.8625 55.628124Q31.70625 55.628124 32.346874 55.878124Q33.003124 56.1125 33.315624 56.534374Q33.628124 56.95625 33.7375 57.659374L32.534374 57.83125Q32.45625 57.26875 32.05 56.95625Q31.659374 56.64375 30.940624 56.64375Q30.096874 56.64375 29.7375 56.925Q29.378124 57.190624 29.378124 57.58125Q29.378124 57.815624 29.51875 58.003124Q29.675 58.20625 30.003124 58.33125Q30.175 58.39375 31.08125 58.64375Q32.39375 59.003124 32.909374 59.221874Q33.425 59.440624 33.70625 59.8625Q34.003124 60.284374 34.003124 60.909374Q34.003124 61.534374 33.64375 62.08125Q33.3 62.6125 32.6125 62.925Q31.940624 63.221874 31.08125 63.221874Q29.675 63.221874 28.925 62.628124Q28.190624 62.034374 27.9875 60.878124ZM40.20625 60.39375L41.425 60.55Q41.221874 61.8 40.39375 62.51875Q39.58125 63.221874 38.39375 63.221874Q36.909374 63.221874 36.003124 62.253124Q35.096874 61.26875 35.096874 59.440624Q35.096874 58.26875 35.4875 57.39375Q35.878124 56.503124 36.675 56.065624Q37.471874 55.628124 38.409374 55.628124Q39.58125 55.628124 40.33125 56.221874Q41.096874 56.815624 41.3 57.925L40.1125 58.1125Q39.940624 57.378124 39.503124 57.01875Q39.065624 56.64375 38.45625 56.64375Q37.51875 56.64375 36.940624 57.315624Q36.3625 57.971874 36.3625 59.409374Q36.3625 60.878124 36.925 61.55Q37.4875 62.20625 38.378124 62.20625Q39.1125 62.20625 39.596874 61.76875Q40.08125 61.315624 40.20625 60.39375ZM47.20625 62.159374Q46.534374 62.7375 45.89375 62.9875Q45.26875 63.221874 44.534374 63.221874Q43.346874 63.221874 42.690624 62.64375Q42.05 62.05 42.05 61.128124Q42.05 60.596874 42.284374 60.159374Q42.534374 59.721874 42.925 59.45625Q43.33125 59.190624 43.815624 59.05Q44.175 58.95625 44.909374 58.8625Q46.409374 58.690624 47.1125 58.440624Q47.1125 58.190624 47.1125 58.128124Q47.1125 57.3625 46.76875 57.065624Q46.3 56.64375 45.3625 56.64375Q44.503124 56.64375 44.08125 56.95625Q43.675 57.253124 43.471874 58.01875L42.26875 57.8625Q42.425 57.08125 42.8 56.6125Q43.190624 56.14375 43.89375 55.89375Q44.6125 55.628124 45.55 55.628124Q46.471874 55.628124 47.05 55.846874Q47.628124 56.065624 47.89375 56.39375Q48.175 56.721874 48.284374 57.2375Q48.346874 57.55 48.346874 58.3625L48.346874 60.003124Q48.346874 61.721874 48.425 62.175Q48.503124 62.628124 48.7375 63.05L47.45625 63.05Q47.26875 62.659374 47.20625 62.159374ZM47.1125 59.409374Q46.440624 59.675 45.096874 59.878124Q44.346874 59.9875 44.01875 60.128124Q43.70625 60.253124 43.534374 60.51875Q43.3625 60.784374 43.3625 61.096874Q43.3625 61.596874 43.7375 61.925Q44.1125 62.253124 44.83125 62.253124Q45.55 62.253124 46.096874 61.940624Q46.64375 61.628124 46.909374 61.08125Q47.1125 60.675 47.1125 59.8625L47.1125 59.409374ZM50.440624 63.05L50.440624 53.034374L51.675 53.034374L51.675 63.05L50.440624 63.05ZM58.20625 62.159374Q57.534374 62.7375 56.89375 62.9875Q56.26875 63.221874 55.534374 63.221874Q54.346874 63.221874 53.690624 62.64375Q53.05 62.05 53.05 61.128124Q53.05 60.596874 53.284374 60.159374Q53.534374 59.721874 53.925 59.45625Q54.33125 59.190624 54.815624 59.05Q55.175 58.95625 55.909374 58.8625Q57.409374 58.690624 58.1125 58.440624Q58.1125 58.190624 58.1125 58.128124Q58.1125 57.3625 57.76875 57.065624Q57.3 56.64375 56.3625 56.64375Q55.503124 56.64375 55.08125 56.95625Q54.675 57.253124 54.471874 58.01875L53.26875 57.8625Q53.425 57.08125 53.8 56.6125Q54.190624 56.14375 54.89375 55.89375Q55.6125 55.628124 56.55 55.628124Q57.471874 55.628124 58.05 55.846874Q58.628124 56.065624 58.89375 56.39375Q59.175 56.721874 59.284374 57.2375Q59.346874 57.55 59.346874 58.3625L59.346874 60.003124Q59.346874 61.721874 59.425 62.175Q59.503124 62.628124 59.7375 63.05L58.45625 63.05Q58.26875 62.659374 58.20625 62.159374ZM58.1125 59.409374Q57.440624 59.675 56.096874 59.878124Q55.346874 59.9875 55.01875 60.128124Q54.70625 60.253124 54.534374 60.51875Q54.3625 60.784374 54.3625 61.096874Q54.3625 61.596874 54.7375 61.925Q55.1125 62.253124 55.83125 62.253124Q56.55 62.253124 57.096874 61.940624Q57.64375 61.628124 57.909374 61.08125Q58.1125 60.675 58.1125 59.8625L58.1125 59.409374ZM65.44063 63.05L65.44063 53.034374L66.675 53.034374L66.675 63.05L65.44063 63.05ZM68.01875 59.425Q68.01875 57.409374 69.14375 56.425Q70.06563 55.628124 71.425 55.628124Q72.90938 55.628124 73.8625 56.6125Q74.81563 57.58125 74.81563 59.315624Q74.81563 60.721874 74.39375 61.534374Q73.97188 62.33125 73.15938 62.784374Q72.3625 63.221874 71.425 63.221874Q69.89375 63.221874 68.95625 62.2375Q68.01875 61.253124 68.01875 59.425ZM69.28438 59.425Q69.28438 60.815624 69.89375 61.51875Q70.50313 62.20625 71.425 62.20625Q72.33125 62.20625 72.94063 61.503124Q73.55 60.8 73.55 59.378124Q73.55 58.034374 72.94063 57.346874Q72.33125 56.64375 71.425 56.64375Q70.50313 56.64375 69.89375 57.33125Q69.28438 58.01875 69.28438 59.425ZM76.25313 63.659374L77.44063 63.83125Q77.51875 64.37813 77.8625 64.64375Q78.31563 64.97188 79.1125 64.97188Q79.97188 64.97188 80.425 64.62813Q80.89375 64.3 81.06563 63.675Q81.15938 63.3 81.14375 62.096874Q80.34688 63.05 79.14375 63.05Q77.64375 63.05 76.81563 61.971874Q76.00313 60.89375 76.00313 59.378124Q76.00313 58.346874 76.37813 57.471874Q76.75313 56.58125 77.45625 56.1125Q78.175 55.628124 79.14375 55.628124Q80.425 55.628124 81.26875 56.659374L81.26875 55.784374L82.39375 55.784374L82.39375 62.065624Q82.39375 63.76875 82.05 64.47188Q81.70625 65.175 80.95625 65.58125Q80.20625 66.00313 79.1125 66.00313Q77.81563 66.00313 77.01875 65.40938Q76.22188 64.83125 76.25313 63.659374ZM77.26875 59.284374Q77.26875 60.721874 77.83125 61.378124Q78.39375 62.034374 79.25313 62.034374Q80.09688 62.034374 80.675 61.378124Q81.25313 60.721874 81.25313 59.33125Q81.25313 58.003124 80.65938 57.33125Q80.06563 56.64375 79.2375 56.64375Q78.40938 56.64375 77.83125 57.315624Q77.26875 57.971874 77.26875 59.284374ZM88.47188 63.05L88.47188 55.784374L89.58125 55.784374L89.58125 56.815624Q90.37813 55.628124 91.89375 55.628124Q92.55 55.628124 93.09688 55.8625Q93.64375 56.096874 93.90938 56.4875Q94.19063 56.8625 94.3 57.39375Q94.37813 57.7375 94.37813 58.58125L94.37813 63.05L93.14375 63.05L93.14375 58.628124Q93.14375 57.878124 93.00313 57.51875Q92.8625 57.14375 92.4875 56.925Q92.12813 56.690624 91.62813 56.690624Q90.84688 56.690624 90.26875 57.190624Q89.70625 57.690624 89.70625 59.08125L89.70625 63.05L88.47188 63.05ZM96.01875 59.425Q96.01875 57.409374 97.14375 56.425Q98.06563 55.628124 99.425 55.628124Q100.90938 55.628124 101.8625 56.6125Q102.81563 57.58125 102.81563 59.315624Q102.81563 60.721874 102.39375 61.534374Q101.97188 62.33125 101.15938 62.784374Q100.3625 63.221874 99.425 63.221874Q97.89375 63.221874 96.95625 62.2375Q96.01875 61.253124 96.01875 59.425ZM97.28438 59.425Q97.28438 60.815624 97.89375 61.51875Q98.50313 62.20625 99.425 62.20625Q100.33125 62.20625 100.94063 61.503124Q101.55 60.8 101.55 59.378124Q101.55 58.034374 100.94063 57.346874Q100.33125 56.64375 99.425 56.64375Q98.50313 56.64375 97.89375 57.33125Q97.28438 58.01875 97.28438 59.425ZM113.44063 60.70625L114.72188 60.8625Q114.40938 61.9875 113.59688 62.6125Q112.78438 63.221874 111.51875 63.221874Q109.925 63.221874 108.9875 62.2375Q108.06563 61.253124 108.06563 59.4875Q108.06563 57.64375 109.00313 56.64375Q109.95625 55.628124 111.45625 55.628124Q112.90938 55.628124 113.83125 56.628124Q114.75313 57.6125 114.75313 59.409374Q114.75313 59.51875 114.75313 59.7375L109.33125 59.7375Q109.40938 60.925 110.00313 61.565624Q110.6125 62.20625 111.53438 62.20625Q112.20625 62.20625 112.675 61.846874Q113.15938 61.4875 113.44063 60.70625ZM109.40938 58.721874L113.45625 58.721874Q113.37813 57.8 112.9875 57.346874Q112.40938 56.64375 111.47188 56.64375Q110.6125 56.64375 110.03438 57.20625Q109.47188 57.76875 109.40938 58.721874ZM116.4875 54.440624L116.4875 53.034374L117.70625 53.034374L117.70625 54.440624L116.4875 54.440624ZM116.4875 63.05L116.4875 55.784374L117.70625 55.784374L117.70625 63.05L116.4875 63.05ZM118.65938 63.05L121.3 59.26875L118.84688 55.784374L120.39375 55.784374L121.50313 57.4875Q121.81563 57.971874 122.00313 58.3Q122.31563 57.846874 122.56563 57.503124L123.78438 55.784374L125.25313 55.784374L122.75313 59.20625L125.44063 63.05L123.94063 63.05L122.44063 60.8L122.05 60.190624L120.14375 63.05L118.65938 63.05ZM125.01875 59.425Q125.01875 57.409374 126.14375 56.425Q127.06563 55.628124 128.425 55.628124Q129.90938 55.628124 130.8625 56.6125Q131.81563 57.58125 131.81563 59.315624Q131.81563 60.721874 131.39375 61.534374Q130.97188 62.33125 130.15938 62.784374Q129.3625 63.221874 128.425 63.221874Q126.89375 63.221874 125.95625 62.2375Q125.01875 61.253124 125.01875 59.425ZM126.28438 59.425Q126.28438 60.815624 126.89375 61.51875Q127.50313 62.20625 128.425 62.20625Q129.33125 62.20625 129.94063 61.503124Q130.55 60.8 130.55 59.378124Q130.55 58.034374 129.94063 57.346874Q129.33125 56.64375 128.425 56.64375Q127.50313 56.64375 126.89375 57.33125Q126.28438 58.01875 126.28438 59.425ZM142.19063 63.05L142.19063 62.128124Q141.4875 63.221874 140.15938 63.221874Q139.28438 63.221874 138.55 62.7375Q137.83125 62.253124 137.425 61.39375Q137.03438 60.534374 137.03438 59.425Q137.03438 58.346874 137.39375 57.45625Q137.75313 56.565624 138.47188 56.096874Q139.20625 55.628124 140.09688 55.628124Q140.75313 55.628124 141.26875 55.909374Q141.78438 56.175 142.09688 56.628124L142.09688 53.034374L143.33125 53.034374L143.33125 63.05L142.19063 63.05ZM138.3 59.425Q138.3 60.815624 138.87813 61.51875Q139.47188 62.20625 140.26875 62.20625Q141.08125 62.20625 141.64375 61.55Q142.20625 60.878124 142.20625 59.534374Q142.20625 58.034374 141.62813 57.346874Q141.05 56.64375 140.22188 56.64375Q139.39375 56.64375 138.84688 57.315624Q138.3 57.9875 138.3 59.425ZM145.01875 59.425Q145.01875 57.409374 146.14375 56.425Q147.06563 55.628124 148.425 55.628124Q149.90938 55.628124 150.8625 56.6125Q151.81563 57.58125 151.81563 59.315624Q151.81563 60.721874 151.39375 61.534374Q150.97188 62.33125 150.15938 62.784374Q149.3625 63.221874 148.425 63.221874Q146.89375 63.221874 145.95625 62.2375Q145.01875 61.253124 145.01875 59.425ZM146.28438 59.425Q146.28438 60.815624 146.89375 61.51875Q147.50313 62.20625 148.425 62.20625Q149.33125 62.20625 149.94063 61.503124Q150.55 60.8 150.55 59.378124Q150.55 58.034374 149.94063 57.346874Q149.33125 56.64375 148.425 56.64375Q147.50313 56.64375 146.89375 57.33125Q146.28438 58.01875 146.28438 59.425ZM160.15938 61.95625L160.33125 63.034374Q159.81563 63.14375 159.40938 63.14375Q158.7375 63.14375 158.3625 62.940624Q158.00313 62.721874 157.84688 62.378124Q157.70625 62.034374 157.70625 60.925L157.70625 56.753124L156.8 56.753124L156.8 55.784374L157.70625 55.784374L157.70625 53.9875L158.925 53.253124L158.925 55.784374L160.15938 55.784374L160.15938 56.753124L158.925 56.753124L158.925 60.9875Q158.925 61.51875 158.9875 61.675Q159.05 61.815624 159.19063 61.909374Q159.34688 62.003124 159.6125 62.003124Q159.83125 62.003124 160.15938 61.95625ZM166.44063 60.70625L167.72188 60.8625Q167.40938 61.9875 166.59688 62.6125Q165.78438 63.221874 164.51875 63.221874Q162.925 63.221874 161.9875 62.2375Q161.06563 61.253124 161.06563 59.4875Q161.06563 57.64375 162.00313 56.64375Q162.95625 55.628124 164.45625 55.628124Q165.90938 55.628124 166.83125 56.628124Q167.75313 57.6125 167.75313 59.409374Q167.75313 59.51875 167.75313 59.7375L162.33125 59.7375Q162.40938 60.925 163.00313 61.565624Q163.6125 62.20625 164.53438 62.20625Q165.20625 62.20625 165.675 61.846874Q166.15938 61.4875 166.44063 60.70625ZM162.40938 58.721874L166.45625 58.721874Q166.37813 57.8 165.9875 57.346874Q165.40938 56.64375 164.47188 56.64375Q163.6125 56.64375 163.03438 57.20625Q162.47188 57.76875 162.40938 58.721874ZM169.47188 63.05L169.47188 55.784374L170.58125 55.784374L170.58125 56.815624Q170.90938 56.26875 171.47188 55.95625Q172.05 55.628124 172.76875 55.628124Q173.58125 55.628124 174.09688 55.971874Q174.6125 56.3 174.83125 56.89375Q175.69063 55.628124 177.06563 55.628124Q178.14375 55.628124 178.72188 56.221874Q179.31563 56.815624 179.31563 58.065624L179.31563 63.05L178.08125 63.05L178.08125 58.471874Q178.08125 57.7375 177.95625 57.409374Q177.84688 57.08125 177.53438 56.89375Q177.22188 56.690624 176.8 56.690624Q176.03438 56.690624 175.51875 57.20625Q175.01875 57.70625 175.01875 58.83125L175.01875 63.05L173.78438 63.05L173.78438 58.33125Q173.78438 57.51875 173.4875 57.1125Q173.19063 56.690624 172.50313 56.690624Q171.9875 56.690624 171.53438 56.971874Q171.09688 57.2375 170.89375 57.76875Q170.70625 58.284374 170.70625 59.284374L170.70625 63.05L169.47188 63.05ZM180.47188 65.83125L180.47188 55.784374L181.59688 55.784374L181.59688 56.7375Q181.9875 56.175 182.4875 55.909374Q182.9875 55.628124 183.70625 55.628124Q184.62813 55.628124 185.33125 56.1125Q186.05 56.58125 186.40938 57.45625Q186.76875 58.33125 186.76875 59.3625Q186.76875 60.471874 186.3625 61.378124Q185.97188 62.26875 185.20625 62.753124Q184.45625 63.221874 183.6125 63.221874Q183.00313 63.221874 182.50313 62.95625Q182.01875 62.690624 181.70625 62.3L181.70625 65.83125L180.47188 65.83125ZM181.58125 59.45625Q181.58125 60.8625 182.14375 61.534374Q182.72188 62.20625 183.53438 62.20625Q184.34688 62.20625 184.925 61.51875Q185.51875 60.815624 185.51875 59.3625Q185.51875 57.971874 184.94063 57.284374Q184.37813 56.596874 183.58125 56.596874Q182.8 56.596874 182.19063 57.33125Q181.58125 58.065624 181.58125 59.45625ZM188.01875 59.425Q188.01875 57.409374 189.14375 56.425Q190.06563 55.628124 191.425 55.628124Q192.90938 55.628124 193.8625 56.6125Q194.81563 57.58125 194.81563 59.315624Q194.81563 60.721874 194.39375 61.534374Q193.97188 62.33125 193.15938 62.784374Q192.3625 63.221874 191.425 63.221874Q189.89375 63.221874 188.95625 62.2375Q188.01875 61.253124 188.01875 59.425ZM189.28438 59.425Q189.28438 60.815624 189.89375 61.51875Q190.50313 62.20625 191.425 62.20625Q192.33125 62.20625 192.94063 61.503124Q193.55 60.8 193.55 59.378124Q193.55 58.034374 192.94063 57.346874Q192.33125 56.64375 191.425 56.64375Q190.50313 56.64375 189.89375 57.33125Q189.28438 58.01875 189.28438 59.425Z" fill-rule="nonzero"/><path fill="#757575" d="M59.875 37.55L59.875 23.2375L62.765625 23.2375L62.765625 37.55L59.875 37.55ZM74.375 37.55L71.625 37.55L71.625 32.253124Q71.625 30.58125 71.453125 30.096874Q71.28125 29.596874 70.875 29.33125Q70.484375 29.05 69.921875 29.05Q69.21875 29.05 68.640625 29.440624Q68.078125 29.83125 67.859375 30.471874Q67.65625 31.1125 67.65625 32.846874L67.65625 37.55L64.921875 37.55L64.921875 27.175L67.46875 27.175L67.46875 28.70625Q68.828125 26.940624 70.890625 26.940624Q71.796875 26.940624 72.546875 27.26875Q73.296875 27.596874 73.671875 28.1125Q74.0625 28.6125 74.21875 29.26875Q74.375 29.909374 74.375 31.096874L74.375 37.55ZM75.96875 34.596874L78.71875 34.175Q78.90625 34.971874 79.4375 35.39375Q79.96875 35.8 80.9375 35.8Q82.0 35.8 82.546875 35.409374Q82.90625 35.14375 82.90625 34.675Q82.90625 34.3625 82.703125 34.159374Q82.5 33.971874 81.796875 33.8Q78.46875 33.065624 77.578125 32.45625Q76.34375 31.628124 76.34375 30.128124Q76.34375 28.784374 77.40625 27.8625Q78.484375 26.940624 80.71875 26.940624Q82.84375 26.940624 83.875 27.64375Q84.921875 28.33125 85.3125 29.690624L82.71875 30.159374Q82.546875 29.565624 82.078125 29.2375Q81.625 28.909374 80.765625 28.909374Q79.6875 28.909374 79.21875 29.221874Q78.90625 29.440624 78.90625 29.76875Q78.90625 30.065624 79.171875 30.26875Q79.546875 30.55 81.734375 31.05Q83.921875 31.55 84.796875 32.26875Q85.65625 33.003124 85.65625 34.3Q85.65625 35.7375 84.46875 36.76875Q83.28125 37.784374 80.9375 37.784374Q78.828125 37.784374 77.578125 36.925Q76.34375 36.065624 75.96875 34.596874ZM93.9375 34.253124L96.671875 34.70625Q96.15625 36.20625 95.015625 37.003124Q93.875 37.784374 92.171875 37.784374Q89.453125 37.784374 88.15625 36.01875Q87.140625 34.596874 87.140625 32.440624Q87.140625 29.8625 88.484375 28.409374Q89.828125 26.940624 91.890625 26.940624Q94.203125 26.940624 95.53125 28.471874Q96.875 30.003124 96.828125 33.159374L89.953125 33.159374Q89.984375 34.378124 90.609375 35.065624Q91.25 35.7375 92.1875 35.7375Q92.84375 35.7375 93.28125 35.39375Q93.71875 35.034374 93.9375 34.253124ZM94.09375 31.471874Q94.0625 30.284374 93.46875 29.675Q92.890625 29.05 92.0625 29.05Q91.15625 29.05 90.578125 29.690624Q89.984375 30.346874 90.0 31.471874L94.09375 31.471874ZM101.5625 37.55L98.8125 37.55L98.8125 27.175L101.375 27.175L101.375 28.659374Q102.015625 27.6125 102.53125 27.284374Q103.0625 26.940624 103.734375 26.940624Q104.671875 26.940624 105.53125 27.45625L104.6875 29.846874Q104.0 29.409374 103.40625 29.409374Q102.828125 29.409374 102.421875 29.721874Q102.015625 30.034374 101.78125 30.878124Q101.5625 31.70625 101.5625 34.346874L101.5625 37.55ZM111.6875 27.175L111.6875 29.3625L109.8125 29.3625L109.8125 33.55Q109.8125 34.815624 109.859375 35.034374Q109.921875 35.2375 110.109375 35.378124Q110.3125 35.503124 110.578125 35.503124Q110.953125 35.503124 111.6875 35.2375L111.921875 37.378124Q110.953125 37.784374 109.75 37.784374Q109.0 37.784374 108.40625 37.534374Q107.8125 37.284374 107.53125 36.89375Q107.265625 36.4875 107.15625 35.815624Q107.0625 35.346874 107.0625 33.89375L107.0625 29.3625L105.796875 29.3625L105.796875 27.175L107.0625 27.175L107.0625 25.1125L109.8125 23.51875L109.8125 27.175L111.6875 27.175ZM113.9375 25.76875L113.9375 23.2375L116.6875 23.2375L116.6875 25.76875L113.9375 25.76875ZM113.9375 37.55L113.9375 27.175L116.6875 27.175L116.6875 37.55L113.9375 37.55ZM118.296875 32.221874Q118.296875 30.846874 118.96875 29.565624Q119.65625 28.284374 120.890625 27.6125Q122.125 26.940624 123.640625 26.940624Q126.0 26.940624 127.5 28.471874Q129.0 30.003124 129.0 32.33125Q129.0 34.690624 127.484375 36.2375Q125.96875 37.784374 123.65625 37.784374Q122.234375 37.784374 120.9375 37.14375Q119.65625 36.4875 118.96875 35.253124Q118.296875 34.003124 118.296875 32.221874ZM121.109375 32.3625Q121.109375 33.909374 121.84375 34.7375Q122.578125 35.55 123.65625 35.55Q124.734375 35.55 125.453125 34.7375Q126.1875 33.909374 126.1875 32.346874Q126.1875 30.815624 125.453125 30.003124Q124.734375 29.175 123.65625 29.175Q122.578125 29.175 121.84375 30.003124Q121.109375 30.815624 121.109375 32.3625ZM140.375 37.55L137.625 37.55L137.625 32.253124Q137.625 30.58125 137.45312 30.096874Q137.28125 29.596874 136.875 29.33125Q136.48438 29.05 135.92188 29.05Q135.21875 29.05 134.64062 29.440624Q134.07812 29.83125 133.85938 30.471874Q133.65625 31.1125 133.65625 32.846874L133.65625 37.55L130.92188 37.55L130.92188 27.175L133.46875 27.175L133.46875 28.70625Q134.82812 26.940624 136.89062 26.940624Q137.79688 26.940624 138.54688 27.26875Q139.29688 27.596874 139.67188 28.1125Q140.0625 28.6125 140.21875 29.26875Q140.375 29.909374 140.375 31.096874L140.375 37.55ZM148.21875 32.89375L151.03125 32.6125Q151.29688 34.034374 152.0625 34.70625Q152.84375 35.3625 154.15625 35.3625Q155.5625 35.3625 156.26562 34.76875Q156.96875 34.175 156.96875 33.39375Q156.96875 32.878124 156.67188 32.534374Q156.375 32.175 155.64062 31.909374Q155.125 31.721874 153.32812 31.284374Q151.0 30.70625 150.0625 29.8625Q148.73438 28.675 148.73438 26.9875Q148.73438 25.89375 149.35938 24.940624Q149.98438 23.9875 151.14062 23.4875Q152.3125 22.9875 153.96875 22.9875Q156.65625 22.9875 158.01562 24.175Q159.39062 25.346874 159.45312 27.33125L156.5625 27.45625Q156.375 26.346874 155.76562 25.8625Q155.15625 25.378124 153.9375 25.378124Q152.67188 25.378124 151.96875 25.89375Q151.5 26.2375 151.5 26.784374Q151.5 27.3 151.9375 27.659374Q152.48438 28.1125 154.59375 28.6125Q156.70312 29.1125 157.70312 29.64375Q158.71875 30.175 159.28125 31.096874Q159.85938 32.01875 159.85938 33.378124Q159.85938 34.6125 159.17188 35.690624Q158.5 36.753124 157.25 37.284374Q156.0 37.8 154.125 37.8Q151.42188 37.8 149.95312 36.55Q148.5 35.3 148.21875 32.89375ZM161.29688 32.221874Q161.29688 30.846874 161.96875 29.565624Q162.65625 28.284374 163.89062 27.6125Q165.125 26.940624 166.64062 26.940624Q169.0 26.940624 170.5 28.471874Q172.0 30.003124 172.0 32.33125Q172.0 34.690624 170.48438 36.2375Q168.96875 37.784374 166.65625 37.784374Q165.23438 37.784374 163.9375 37.14375Q162.65625 36.4875 161.96875 35.253124Q161.29688 34.003124 161.29688 32.221874ZM164.10938 32.3625Q164.10938 33.909374 164.84375 34.7375Q165.57812 35.55 166.65625 35.55Q167.73438 35.55 168.45312 34.7375Q169.1875 33.909374 169.1875 32.346874Q169.1875 30.815624 168.45312 30.003124Q167.73438 29.175 166.65625 29.175Q165.57812 29.175 164.84375 30.003124Q164.10938 30.815624 164.10938 32.3625ZM176.5625 37.55L173.8125 37.55L173.8125 27.175L176.375 27.175L176.375 28.659374Q177.01562 27.6125 177.53125 27.284374Q178.0625 26.940624 178.73438 26.940624Q179.67188 26.940624 180.53125 27.45625L179.6875 29.846874Q179.0 29.409374 178.40625 29.409374Q177.82812 29.409374 177.42188 29.721874Q177.01562 30.034374 176.78125 30.878124Q176.5625 31.70625 176.5625 34.346874L176.5625 37.55ZM186.6875 27.175L186.6875 29.3625L184.8125 29.3625L184.8125 33.55Q184.8125 34.815624 184.85938 35.034374Q184.92188 35.2375 185.10938 35.378124Q185.3125 35.503124 185.57812 35.503124Q185.95312 35.503124 186.6875 35.2375L186.92188 37.378124Q185.95312 37.784374 184.75 37.784374Q184.0 37.784374 183.40625 37.534374Q182.8125 37.284374 182.53125 36.89375Q182.26562 36.4875 182.15625 35.815624Q182.0625 35.346874 182.0625 33.89375L182.0625 29.3625L180.79688 29.3625L180.79688 27.175L182.0625 27.175L182.0625 25.1125L184.8125 23.51875L184.8125 27.175L186.6875 27.175ZM194.625 33.7375L194.625 30.9875L200.01562 30.9875L200.01562 33.7375L194.625 33.7375ZM215.98438 30.2375L213.28125 30.7375Q213.14062 29.925 212.65625 29.51875Q212.17188 29.096874 211.40625 29.096874Q210.375 29.096874 209.76562 29.815624Q209.15625 30.51875 209.15625 32.175Q209.15625 34.01875 209.76562 34.784374Q210.39062 35.55 211.4375 35.55Q212.21875 35.55 212.71875 35.1125Q213.21875 34.659374 213.42188 33.58125L216.10938 34.034374Q215.70312 35.89375 214.5 36.846874Q213.3125 37.784374 211.3125 37.784374Q209.03125 37.784374 207.67188 36.346874Q206.32812 34.909374 206.32812 32.378124Q206.32812 29.8 207.6875 28.378124Q209.04688 26.940624 211.35938 26.940624Q213.25 26.940624 214.35938 27.76875Q215.48438 28.58125 215.98438 30.2375ZM220.5625 37.55L217.8125 37.55L217.8125 27.175L220.375 27.175L220.375 28.659374Q221.01562 27.6125 221.53125 27.284374Q222.0625 26.940624 222.73438 26.940624Q223.67188 26.940624 224.53125 27.45625L223.6875 29.846874Q223.0 29.409374 222.40625 29.409374Q221.82812 29.409374 221.42188 29.721874Q221.01562 30.034374 220.78125 30.878124Q220.5625 31.70625 220.5625 34.346874L220.5625 37.55ZM231.9375 34.253124L234.67188 34.70625Q234.15625 36.20625 233.01562 37.003124Q231.875 37.784374 230.17188 37.784374Q227.45312 37.784374 226.15625 36.01875Q225.14062 34.596874 225.14062 32.440624Q225.14062 29.8625 226.48438 28.409374Q227.82812 26.940624 229.89062 26.940624Q232.20312 26.940624 233.53125 28.471874Q234.875 30.003124 234.82812 33.159374L227.95312 33.159374Q227.98438 34.378124 228.60938 35.065624Q229.25 35.7375 230.1875 35.7375Q230.84375 35.7375 231.28125 35.39375Q231.71875 35.034374 231.9375 34.253124ZM232.09375 31.471874Q232.0625 30.284374 231.46875 29.675Q230.89062 29.05 230.0625 29.05Q229.15625 29.05 228.57812 29.690624Q227.98438 30.346874 228.0 31.471874L232.09375 31.471874ZM235.96875 34.596874L238.71875 34.175Q238.90625 34.971874 239.4375 35.39375Q239.96875 35.8 240.9375 35.8Q242.0 35.8 242.54688 35.409374Q242.90625 35.14375 242.90625 34.675Q242.90625 34.3625 242.70312 34.159374Q242.5 33.971874 241.79688 33.8Q238.46875 33.065624 237.57812 32.45625Q236.34375 31.628124 236.34375 30.128124Q236.34375 28.784374 237.40625 27.8625Q238.48438 26.940624 240.71875 26.940624Q242.84375 26.940624 243.875 27.64375Q244.92188 28.33125 245.3125 29.690624L242.71875 30.159374Q242.54688 29.565624 242.07812 29.2375Q241.625 28.909374 240.76562 28.909374Q239.6875 28.909374 239.21875 29.221874Q238.90625 29.440624 238.90625 29.76875Q238.90625 30.065624 239.17188 30.26875Q239.54688 30.55 241.73438 31.05Q243.92188 31.55 244.79688 32.26875Q245.65625 33.003124 245.65625 34.3Q245.65625 35.7375 244.46875 36.76875Q243.28125 37.784374 240.9375 37.784374Q238.82812 37.784374 237.57812 36.925Q236.34375 36.065624 235.96875 34.596874ZM256.98438 30.2375L254.28125 30.7375Q254.14062 29.925 253.65625 29.51875Q253.17188 29.096874 252.40625 29.096874Q251.375 29.096874 250.76562 29.815624Q250.15625 30.51875 250.15625 32.175Q250.15625 34.01875 250.76562 34.784374Q251.39062 35.55 252.4375 35.55Q253.21875 35.55 253.71875 35.1125Q254.21875 34.659374 254.42188 33.58125L257.10938 34.034374Q256.70312 35.89375 255.5 36.846874Q254.3125 37.784374 252.3125 37.784374Q250.03125 37.784374 248.67188 36.346874Q247.32812 34.909374 247.32812 32.378124Q247.32812 29.8 248.6875 28.378124Q250.04688 26.940624 252.35938 26.940624Q254.25 26.940624 255.35938 27.76875Q256.48438 28.58125 256.98438 30.2375ZM258.9375 25.76875L258.9375 23.2375L261.6875 23.2375L261.6875 25.76875L258.9375 25.76875ZM258.9375 37.55L258.9375 27.175L261.6875 27.175L261.6875 37.55L258.9375 37.55ZM263.73438 27.175L266.26562 27.175L266.26562 28.596874Q267.625 26.940624 269.5 26.940624Q270.48438 26.940624 271.21875 27.3625Q271.95312 27.76875 272.42188 28.596874Q273.10938 27.76875 273.89062 27.3625Q274.6875 26.940624 275.59375 26.940624Q276.73438 26.940624 277.51562 27.409374Q278.3125 27.878124 278.70312 28.76875Q278.98438 29.440624 278.98438 30.925L278.98438 37.55L276.23438 37.55L276.23438 31.628124Q276.23438 30.08125 275.95312 29.628124Q275.57812 29.05 274.78125 29.05Q274.20312 29.05 273.6875 29.409374Q273.1875 29.753124 272.96875 30.425Q272.75 31.096874 272.75 32.565624L272.75 37.55L270.0 37.55L270.0 31.8625Q270.0 30.346874 269.84375 29.909374Q269.70312 29.471874 269.39062 29.26875Q269.09375 29.05 268.5625 29.05Q267.9375 29.05 267.42188 29.39375Q266.92188 29.721874 266.6875 30.378124Q266.46875 31.01875 266.46875 32.503124L266.46875 37.55L263.73438 37.55L263.73438 27.175ZM286.9375 34.253124L289.67188 34.70625Q289.15625 36.20625 288.01562 37.003124Q286.875 37.784374 285.17188 37.784374Q282.45312 37.784374 281.15625 36.01875Q280.14062 34.596874 280.14062 32.440624Q280.14062 29.8625 281.48438 28.409374Q282.82812 26.940624 284.89062 26.940624Q287.20312 26.940624 288.53125 28.471874Q289.875 30.003124 289.82812 33.159374L282.95312 33.159374Q282.98438 34.378124 283.60938 35.065624Q284.25 35.7375 285.1875 35.7375Q285.84375 35.7375 286.28125 35.39375Q286.71875 35.034374 286.9375 34.253124ZM287.09375 31.471874Q287.0625 30.284374 286.46875 29.675Q285.89062 29.05 285.0625 29.05Q284.15625 29.05 283.57812 29.690624Q282.98438 30.346874 283.0 31.471874L287.09375 31.471874ZM301.375 37.55L298.625 37.55L298.625 32.253124Q298.625 30.58125 298.45312 30.096874Q298.28125 29.596874 297.875 29.33125Q297.48438 29.05 296.92188 29.05Q296.21875 29.05 295.64062 29.440624Q295.07812 29.83125 294.85938 30.471874Q294.65625 31.1125 294.65625 32.846874L294.65625 37.55L291.92188 37.55L291.92188 27.175L294.46875 27.175L294.46875 28.70625Q295.82812 26.940624 297.89062 26.940624Q298.79688 26.940624 299.54688 27.26875Q300.29688 27.596874 300.67188 28.1125Q301.0625 28.6125 301.21875 29.26875Q301.375 29.909374 301.375 31.096874L301.375 37.55ZM308.6875 27.175L308.6875 29.3625L306.8125 29.3625L306.8125 33.55Q306.8125 34.815624 306.85938 35.034374Q306.92188 35.2375 307.10938 35.378124Q307.3125 35.503124 307.57812 35.503124Q307.95312 35.503124 308.6875 35.2375L308.92188 37.378124Q307.95312 37.784374 306.75 37.784374Q306.0 37.784374 305.40625 37.534374Q304.8125 37.284374 304.53125 36.89375Q304.26562 36.4875 304.15625 35.815624Q304.0625 35.346874 304.0625 33.89375L304.0625 29.3625L302.79688 29.3625L302.79688 27.175L304.0625 27.175L304.0625 25.1125L306.8125 23.51875L306.8125 27.175L308.6875 27.175ZM310.29688 32.221874Q310.29688 30.846874 310.96875 29.565624Q311.65625 28.284374 312.89062 27.6125Q314.125 26.940624 315.64062 26.940624Q318.0 26.940624 319.5 28.471874Q321.0 30.003124 321.0 32.33125Q321.0 34.690624 319.48438 36.2375Q317.96875 37.784374 315.65625 37.784374Q314.23438 37.784374 312.9375 37.14375Q311.65625 36.4875 310.96875 35.253124Q310.29688 34.003124 310.29688 32.221874ZM313.10938 32.3625Q313.10938 33.909374 313.84375 34.7375Q314.57812 35.55 315.65625 35.55Q316.73438 35.55 317.45312 34.7375Q318.1875 33.909374 318.1875 32.346874Q318.1875 30.815624 317.45312 30.003124Q316.73438 29.175 315.65625 29.175Q314.57812 29.175 313.84375 30.003124Q313.10938 30.815624 313.10938 32.3625ZM338.45312 37.55L335.90625 37.55L335.90625 36.01875Q335.26562 36.909374 334.39062 37.346874Q333.53125 37.784374 332.65625 37.784374Q330.875 37.784374 329.59375 36.346874Q328.32812 34.909374 328.32812 32.33125Q328.32812 29.690624 329.5625 28.315624Q330.79688 26.940624 332.70312 26.940624Q334.4375 26.940624 335.70312 28.39375L335.70312 23.2375L338.45312 23.2375L338.45312 37.55ZM331.125 32.14375Q331.125 33.8 331.57812 34.534374Q332.25 35.6125 333.4375 35.6125Q334.39062 35.6125 335.04688 34.815624Q335.71875 34.003124 335.71875 32.409374Q335.71875 30.6125 335.0625 29.83125Q334.42188 29.05 333.42188 29.05Q332.4375 29.05 331.78125 29.83125Q331.125 30.596874 331.125 32.14375ZM340.29688 32.221874Q340.29688 30.846874 340.96875 29.565624Q341.65625 28.284374 342.89062 27.6125Q344.125 26.940624 345.64062 26.940624Q348.0 26.940624 349.5 28.471874Q351.0 30.003124 351.0 32.33125Q351.0 34.690624 349.48438 36.2375Q347.96875 37.784374 345.65625 37.784374Q344.23438 37.784374 342.9375 37.14375Q341.65625 36.4875 340.96875 35.253124Q340.29688 34.003124 340.29688 32.221874ZM343.10938 32.3625Q343.10938 33.909374 343.84375 34.7375Q344.57812 35.55 345.65625 35.55Q346.73438 35.55 347.45312 34.7375Q348.1875 33.909374 348.1875 32.346874Q348.1875 30.815624 347.45312 30.003124Q346.73438 29.175 345.65625 29.175Q344.57812 29.175 343.84375 30.003124Q343.10938 30.815624 343.10938 32.3625ZM363.6875 27.175L363.6875 29.3625L361.8125 29.3625L361.8125 33.55Q361.8125 34.815624 361.85938 35.034374Q361.92188 35.2375 362.10938 35.378124Q362.3125 35.503124 362.57812 35.503124Q362.95312 35.503124 363.6875 35.2375L363.92188 37.378124Q362.95312 37.784374 361.75 37.784374Q361.0 37.784374 360.40625 37.534374Q359.8125 37.284374 359.53125 36.89375Q359.26562 36.4875 359.15625 35.815624Q359.0625 35.346874 359.0625 33.89375L359.0625 29.3625L357.79688 29.3625L357.79688 27.175L359.0625 27.175L359.0625 25.1125L361.8125 23.51875L361.8125 27.175L363.6875 27.175ZM371.9375 34.253124L374.67188 34.70625Q374.15625 36.20625 373.01562 37.003124Q371.875 37.784374 370.17188 37.784374Q367.45312 37.784374 366.15625 36.01875Q365.14062 34.596874 365.14062 32.440624Q365.14062 29.8625 366.48438 28.409374Q367.82812 26.940624 369.89062 26.940624Q372.20312 26.940624 373.53125 28.471874Q374.875 30.003124 374.82812 33.159374L367.95312 33.159374Q367.98438 34.378124 368.60938 35.065624Q369.25 35.7375 370.1875 35.7375Q370.84375 35.7375 371.28125 35.39375Q371.71875 35.034374 371.9375 34.253124ZM372.09375 31.471874Q372.0625 30.284374 371.46875 29.675Q370.89062 29.05 370.0625 29.05Q369.15625 29.05 368.57812 29.690624Q367.98438 30.346874 368.0 31.471874L372.09375 31.471874ZM376.73438 27.175L379.26562 27.175L379.26562 28.596874Q380.625 26.940624 382.5 26.940624Q383.48438 26.940624 384.21875 27.3625Q384.95312 27.76875 385.42188 28.596874Q386.10938 27.76875 386.89062 27.3625Q387.6875 26.940624 388.59375 26.940624Q389.73438 26.940624 390.51562 27.409374Q391.3125 27.878124 391.70312 28.76875Q391.98438 29.440624 391.98438 30.925L391.98438 37.55L389.23438 37.55L389.23438 31.628124Q389.23438 30.08125 388.95312 29.628124Q388.57812 29.05 387.78125 29.05Q387.20312 29.05 386.6875 29.409374Q386.1875 29.753124 385.96875 30.425Q385.75 31.096874 385.75 32.565624L385.75 37.55L383.0 37.55L383.0 31.8625Q383.0 30.346874 382.84375 29.909374Q382.70312 29.471874 382.39062 29.26875Q382.09375 29.05 381.5625 29.05Q380.9375 29.05 380.42188 29.39375Q379.92188 29.721874 379.6875 30.378124Q379.46875 31.01875 379.46875 32.503124L379.46875 37.55L376.73438 37.55L376.73438 27.175ZM393.85938 27.175L396.42188 27.175L396.42188 28.70625Q396.92188 27.925 397.76562 27.440624Q398.60938 26.940624 399.65625 26.940624Q401.45312 26.940624 402.70312 28.3625Q403.96875 29.76875 403.96875 32.3Q403.96875 34.909374 402.70312 36.346874Q401.4375 37.784374 399.625 37.784374Q398.76562 37.784374 398.0625 37.440624Q397.375 37.096874 396.60938 36.26875L396.60938 41.503124L393.85938 41.503124L393.85938 27.175ZM396.57812 32.190624Q396.57812 33.940624 397.26562 34.784374Q397.95312 35.6125 398.95312 35.6125Q399.90625 35.6125 400.54688 34.846874Q401.1875 34.065624 401.1875 32.33125Q401.1875 30.690624 400.53125 29.909374Q399.875 29.1125 398.90625 29.1125Q397.90625 29.1125 397.23438 29.89375Q396.57812 30.659374 396.57812 32.190624ZM405.29688 32.221874Q405.29688 30.846874 405.96875 29.565624Q406.65625 28.284374 407.89062 27.6125Q409.125 26.940624 410.64062 26.940624Q413.0 26.940624 414.5 28.471874Q416.0 30.003124 416.0 32.33125Q416.0 34.690624 414.48438 36.2375Q412.96875 37.784374 410.65625 37.784374Q409.23438 37.784374 407.9375 37.14375Q406.65625 36.4875 405.96875 35.253124Q405.29688 34.003124 405.29688 32.221874ZM408.10938 32.3625Q408.10938 33.909374 408.84375 34.7375Q409.57812 35.55 410.65625 35.55Q411.73438 35.55 412.45312 34.7375Q413.1875 33.909374 413.1875 32.346874Q413.1875 30.815624 412.45312 30.003124Q411.73438 29.175 410.65625 29.175Q409.57812 29.175 408.84375 30.003124Q408.10938 30.815624 408.10938 32.3625ZM433.45312 37.55L430.90625 37.55L430.90625 36.01875Q430.26562 36.909374 429.39062 37.346874Q428.53125 37.784374 427.65625 37.784374Q425.875 37.784374 424.59375 36.346874Q423.32812 34.909374 423.32812 32.33125Q423.32812 29.690624 424.5625 28.315624Q425.79688 26.940624 427.70312 26.940624Q429.4375 26.940624 430.70312 28.39375L430.70312 23.2375L433.45312 23.2375L433.45312 37.55ZM426.125 32.14375Q426.125 33.8 426.57812 34.534374Q427.25 35.6125 428.4375 35.6125Q429.39062 35.6125 430.04688 34.815624Q430.71875 34.003124 430.71875 32.409374Q430.71875 30.6125 430.0625 29.83125Q429.42188 29.05 428.42188 29.05Q427.4375 29.05 426.78125 29.83125Q426.125 30.596874 426.125 32.14375ZM441.9375 34.253124L444.67188 34.70625Q444.15625 36.20625 443.01562 37.003124Q441.875 37.784374 440.17188 37.784374Q437.45312 37.784374 436.15625 36.01875Q435.14062 34.596874 435.14062 32.440624Q435.14062 29.8625 436.48438 28.409374Q437.82812 26.940624 439.89062 26.940624Q442.20312 26.940624 443.53125 28.471874Q444.875 30.003124 444.82812 33.159374L437.95312 33.159374Q437.98438 34.378124 438.60938 35.065624Q439.25 35.7375 440.1875 35.7375Q440.84375 35.7375 441.28125 35.39375Q441.71875 35.034374 441.9375 34.253124ZM442.09375 31.471874Q442.0625 30.284374 441.46875 29.675Q440.89062 29.05 440.0625 29.05Q439.15625 29.05 438.57812 29.690624Q437.98438 30.346874 438.0 31.471874L442.09375 31.471874ZM458.9375 34.253124L461.67188 34.70625Q461.15625 36.20625 460.01562 37.003124Q458.875 37.784374 457.17188 37.784374Q454.45312 37.784374 453.15625 36.01875Q452.14062 34.596874 452.14062 32.440624Q452.14062 29.8625 453.48438 28.409374Q454.82812 26.940624 456.89062 26.940624Q459.20312 26.940624 460.53125 28.471874Q461.875 30.003124 461.82812 33.159374L454.95312 33.159374Q454.98438 34.378124 455.60938 35.065624Q456.25 35.7375 457.1875 35.7375Q457.84375 35.7375 458.28125 35.39375Q458.71875 35.034374 458.9375 34.253124ZM459.09375 31.471874Q459.0625 30.284374 458.46875 29.675Q457.89062 29.05 457.0625 29.05Q456.15625 29.05 455.57812 29.690624Q454.98438 30.346874 455.0 31.471874L459.09375 31.471874ZM462.625 37.55L466.35938 32.20625L462.78125 27.175L466.125 27.175L467.95312 30.034374L469.89062 27.175L473.10938 27.175L469.59375 32.096874L473.4375 37.55L470.0625 37.55L467.95312 34.33125L465.82812 37.55L462.625 37.55ZM480.9375 34.253124L483.67188 34.70625Q483.15625 36.20625 482.01562 37.003124Q480.875 37.784374 479.17188 37.784374Q476.45312 37.784374 475.15625 36.01875Q474.14062 34.596874 474.14062 32.440624Q474.14062 29.8625 475.48438 28.409374Q476.82812 26.940624 478.89062 26.940624Q481.20312 26.940624 482.53125 28.471874Q483.875 30.003124 483.82812 33.159374L476.95312 33.159374Q476.98438 34.378124 477.60938 35.065624Q478.25 35.7375 479.1875 35.7375Q479.84375 35.7375 480.28125 35.39375Q480.71875 35.034374 480.9375 34.253124ZM481.09375 31.471874Q481.0625 30.284374 480.46875 29.675Q479.89062 29.05 479.0625 29.05Q478.15625 29.05 477.57812 29.690624Q476.98438 30.346874 477.0 31.471874L481.09375 31.471874ZM494.98438 30.2375L492.28125 30.7375Q492.14062 29.925 491.65625 29.51875Q491.17188 29.096874 490.40625 29.096874Q489.375 29.096874 488.76562 29.815624Q488.15625 30.51875 488.15625 32.175Q488.15625 34.01875 488.76562 34.784374Q489.39062 35.55 490.4375 35.55Q491.21875 35.55 491.71875 35.1125Q492.21875 34.659374 492.42188 33.58125L495.10938 34.034374Q494.70312 35.89375 493.5 36.846874Q492.3125 37.784374 490.3125 37.784374Q488.03125 37.784374 486.67188 36.346874Q485.32812 34.909374 485.32812 32.378124Q485.32812 29.8 486.6875 28.378124Q488.04688 26.940624 490.35938 26.940624Q492.25 26.940624 493.35938 27.76875Q494.48438 28.58125 494.98438 30.2375ZM503.76562 37.55L503.76562 36.003124Q503.20312 36.83125 502.26562 37.315624Q501.34375 37.784374 500.32812 37.784374Q499.28125 37.784374 498.45312 37.33125Q497.625 36.8625 497.25 36.034374Q496.875 35.20625 496.875 33.7375L496.875 27.175L499.625 27.175L499.625 31.940624Q499.625 34.128124 499.76562 34.628124Q499.92188 35.1125 500.3125 35.409374Q500.71875 35.690624 501.34375 35.690624Q502.04688 35.690624 502.59375 35.315624Q503.15625 34.925 503.35938 34.3625Q503.5625 33.784374 503.5625 31.55L503.5625 27.175L506.3125 27.175L506.3125 37.55L503.76562 37.55ZM517.9844 30.2375L515.28125 30.7375Q515.1406 29.925 514.65625 29.51875Q514.1719 29.096874 513.40625 29.096874Q512.375 29.096874 511.76562 29.815624Q511.15625 30.51875 511.15625 32.175Q511.15625 34.01875 511.76562 34.784374Q512.3906 35.55 513.4375 35.55Q514.21875 35.55 514.71875 35.1125Q515.21875 34.659374 515.4219 33.58125L518.1094 34.034374Q517.7031 35.89375 516.5 36.846874Q515.3125 37.784374 513.3125 37.784374Q511.03125 37.784374 509.67188 36.346874Q508.32812 34.909374 508.32812 32.378124Q508.32812 29.8 509.6875 28.378124Q511.04688 26.940624 513.3594 26.940624Q515.25 26.940624 516.3594 27.76875Q517.4844 28.58125 517.9844 30.2375ZM510.59375 41.4875L510.59375 40.33125Q511.59375 40.440624 512.4375 40.440624Q513.3125 40.440624 513.71875 40.128124Q514.0469 39.89375 514.0469 39.51875Q514.0469 39.190624 513.7344 38.940624Q513.4375 38.70625 512.8125 38.70625Q512.1875 38.70625 511.53125 38.89375L511.78125 37.925Q512.5469 37.675 513.4219 37.675Q514.6406 37.675 515.2656 38.20625Q515.90625 38.7375 515.90625 39.51875Q515.90625 40.378124 515.2031 40.909374Q514.2656 41.64375 512.5 41.64375Q511.23438 41.64375 510.59375 41.4875ZM521.9844 30.346874L519.5 29.89375Q519.9219 28.39375 520.9375 27.675Q521.96875 26.940624 523.9844 26.940624Q525.8281 26.940624 526.71875 27.378124Q527.625 27.815624 527.9844 28.4875Q528.3594 29.14375 528.3594 30.940624L528.3281 34.14375Q528.3281 35.503124 528.4531 36.159374Q528.59375 36.8 528.9531 37.55L526.2344 37.55Q526.125 37.26875 525.96875 36.7375Q525.90625 36.4875 525.875 36.409374Q525.1719 37.096874 524.3594 37.440624Q523.5625 37.784374 522.65625 37.784374Q521.0625 37.784374 520.1406 36.925Q519.21875 36.05 519.21875 34.721874Q519.21875 33.83125 519.625 33.14375Q520.0469 32.45625 520.7969 32.096874Q521.5625 31.721874 523.0 31.45625Q524.9219 31.096874 525.65625 30.784374L525.65625 30.503124Q525.65625 29.721874 525.2656 29.39375Q524.875 29.05 523.7969 29.05Q523.0625 29.05 522.6406 29.33125Q522.2344 29.6125 521.9844 30.346874ZM525.65625 32.565624Q525.125 32.7375 523.9844 32.9875Q522.84375 33.2375 522.5 33.471874Q521.9531 33.846874 521.9531 34.440624Q521.9531 35.003124 522.375 35.425Q522.8125 35.846874 523.4844 35.846874Q524.21875 35.846874 524.8906 35.3625Q525.3906 34.9875 525.5469 34.45625Q525.65625 34.096874 525.65625 33.1125L525.65625 32.565624ZM521.96875 25.784374L520.7031 25.784374Q520.7031 25.55 520.7031 25.425Q520.7031 24.409374 521.2031 23.8625Q521.7031 23.3 522.4844 23.3Q522.8281 23.3 523.1094 23.378124Q523.40625 23.440624 524.1719 23.8Q524.9531 24.14375 525.40625 24.14375Q525.71875 24.14375 525.9219 23.95625Q526.125 23.753124 526.1875 23.284374L527.4531 23.284374Q527.4531 24.6125 526.96875 25.175Q526.4844 25.7375 525.71875 25.7375Q525.3906 25.7375 525.0625 25.675Q524.84375 25.6125 523.9375 25.26875Q523.0469 24.925 522.6406 24.925Q522.3281 24.925 522.1406 25.128124Q521.96875 25.315624 521.96875 25.784374ZM530.2969 32.221874Q530.2969 30.846874 530.96875 29.565624Q531.65625 28.284374 532.8906 27.6125Q534.125 26.940624 535.6406 26.940624Q538.0 26.940624 539.5 28.471874Q541.0 30.003124 541.0 32.33125Q541.0 34.690624 539.4844 36.2375Q537.96875 37.784374 535.65625 37.784374Q534.2344 37.784374 532.9375 37.14375Q531.65625 36.4875 530.96875 35.253124Q530.2969 34.003124 530.2969 32.221874ZM533.1094 32.3625Q533.1094 33.909374 533.84375 34.7375Q534.5781 35.55 535.65625 35.55Q536.7344 35.55 537.4531 34.7375Q538.1875 33.909374 538.1875 32.346874Q538.1875 30.815624 537.4531 30.003124Q536.7344 29.175 535.65625 29.175Q534.5781 29.175 533.84375 30.003124Q533.1094 30.815624 533.1094 32.3625Z" fill-rule="nonzero"/></svg>